<svg xmlns="http://www.w3.org/2000/svg" width="24" height="24" viewBox="0 0 24 24" fill="none">
<path d="M6.79598 5.20605C5.90598 5.20605 5.18298 5.92805 5.18298 6.81805C5.18298 7.70805 5.90498 8.43006 6.79498 8.43006C7.68498 8.43006 8.40698 7.70805 8.40698 6.81805C8.40698 5.92805 7.68598 5.20705 6.79598 5.20605Z" fill="#007AC8"/>
<path d="M5.40503 9.65405H8.18603V18.6021H5.40503V9.65405Z" fill="#007AC8"/>
<path d="M15.266 9.43201C13.913 9.43201 13.006 10.174 12.635 10.877H12.598V9.65401H9.93103V18.602H12.71V14.175C12.71 13.008 12.932 11.878 14.379 11.878C15.805 11.878 15.824 13.213 15.824 14.25V18.602H18.603V13.694C18.603 11.285 18.083 9.43201 15.267 9.43201H15.266Z" fill="#007AC8"/>
<path d="M19.987 1.125H4.00802C2.41802 1.125 1.12402 2.404 1.12402 3.976V20.022C1.12402 21.595 2.41802 22.875 4.00802 22.875H19.987C21.579 22.875 22.875 21.595 22.875 20.022V3.976C22.875 2.404 21.579 1.125 19.987 1.125ZM21.375 20.022C21.375 20.769 20.752 21.375 19.987 21.375H4.00802C3.24402 21.375 2.62402 20.769 2.62402 20.022V3.976C2.62402 3.23 3.24402 2.625 4.00802 2.625H19.987C20.752 2.625 21.375 3.23 21.375 3.976V20.022Z" fill="#007AC8"/>
</svg>