<svg width="529" height="75" viewBox="0 0 529 75" fill="none" xmlns="http://www.w3.org/2000/svg">
<path d="M253.969 49.5929C252.439 46.5336 249.635 44.4686 243.771 41.9956C238.978 39.9816 236.556 38.6049 235.077 36.9987C233.879 35.6985 233.522 34.6278 233.65 32.6902C233.752 30.8801 234.211 29.8093 235.332 28.6111C236.786 27.0559 238.774 26.5206 241.171 27.0305C245.097 27.8463 247.595 30.5742 249.762 36.3104C250.527 38.3499 250.629 38.4264 252.006 37.9165L252.873 37.5851L252.847 35.2396C252.822 33.9394 252.771 31.2115 252.694 29.1975L252.592 25.4498L251.929 25.1694C248.335 23.6397 241.502 22.6964 237.066 23.1043C232.018 23.5632 228.296 25.1694 225.441 28.1267C222.611 31.0586 221.31 34.5258 221.54 38.6304C221.718 42.0211 222.738 44.4686 224.829 46.5846C226.766 48.5732 228.398 49.5165 233.063 51.3266C240.584 54.2584 242.598 56.0175 242.573 59.6377C242.573 62.697 240.941 64.9405 237.984 65.9858C236.939 66.3682 234.262 66.3682 232.834 65.9858C229.086 64.9915 226.231 61.7538 223.783 55.7371L223.146 54.2074L222.407 54.2329C221.999 54.2584 221.438 54.3859 221.183 54.5134L220.673 54.7428L220.724 57.3687C220.75 58.8219 220.826 61.8557 220.877 64.1502L220.979 68.2803L221.82 68.6372C223.528 69.3766 228.678 70.4983 231.891 70.8552C232.299 70.9062 234.491 70.9062 236.786 70.8807C240.763 70.8297 241.043 70.8042 243.057 70.2944C248.972 68.7392 252.796 65.4504 254.479 60.4535C254.989 58.9239 255.065 58.4395 255.142 56.1705C255.243 53.1622 254.963 51.5815 253.969 49.5929Z" fill="black"/>
<path d="M208.283 24.7832C203.312 22.2848 195.612 22.4632 189.978 25.2166C184.65 27.8171 180.979 32.1511 178.939 38.2698C177.868 41.4565 177.537 44.0315 177.639 48.1616C177.715 50.762 177.817 52.1132 178.098 53.3369C180.188 62.7189 186.638 69.0924 195.612 70.7241C197.601 71.081 202.088 71.081 204.102 70.7496C206.957 70.2397 210.246 68.9905 212.337 67.5628C214.861 65.8547 217.487 63.2797 217.487 62.4639C217.487 61.9795 216.62 60.8578 216.237 60.8578C216.084 60.8578 215.37 61.2147 214.682 61.6736C212.209 63.2797 209.838 63.9426 206.524 63.9426C201.986 63.9426 199.08 62.7953 196.199 59.889C194.924 58.5888 194.389 57.9004 193.726 56.6002C192.273 53.7703 191.482 50.5325 191.355 46.8614L191.304 45.2807L204.714 45.2297L218.124 45.1787L218.175 44.2609C218.2 43.751 218.149 42.4508 218.022 41.3546C217.181 33.1964 213.892 27.5876 208.283 24.7832ZM194.771 41.3036L191.38 41.3546V40.6152C191.38 40.2073 191.508 39.1366 191.635 38.2443C192.757 30.9529 195.485 26.5678 198.901 26.5678C202.037 26.5678 203.975 30.8764 204.382 38.7796L204.484 41.0231L201.323 41.1251C199.59 41.2016 196.632 41.2781 194.771 41.3036Z" fill="black"/>
<path d="M159.68 23.9168C158.61 23.6874 157.641 23.6619 155.576 23.7129C152.44 23.8148 150.298 24.2992 147.953 25.37C147.188 25.7269 146.5 26.0329 146.449 26.0329C146.398 26.0329 146.398 21.2909 146.474 15.5292C146.551 7.37099 146.525 5.00002 146.347 5.00002C145.76 5.00002 127.251 8.51824 127.048 8.6712C126.895 8.79867 126.844 9.18109 126.869 9.76746C126.92 10.7872 126.818 10.7108 129.062 11.2206C129.75 11.3736 130.54 11.6795 130.821 11.8835C131.586 12.4189 132.197 13.5916 132.631 15.2487C132.962 16.549 133.013 17.4922 133.166 26.3898C133.319 35.4658 133.294 44.7712 133.039 61.8524L132.937 68.9399L134.262 69.2458C136.174 69.6792 141.681 70.597 143.466 70.7754C146.092 71.0559 152.261 71.0049 154.199 70.7245C162.714 69.4497 169.113 64.5038 172.096 56.9575C172.886 54.9435 173.651 51.8586 173.906 49.5896C174.212 46.9127 174.034 41.5334 173.575 39.3664C171.816 31.0807 166.666 25.37 159.68 23.9168ZM146.755 66.6964C146.525 66.0845 146.245 44.8477 146.347 36.3581L146.423 29.7295L147.621 29.3726C148.412 29.1432 149.355 29.0157 150.451 29.0157C151.981 29.0157 152.185 29.0667 153.485 29.704C156.595 31.2337 158.737 35.0834 159.731 40.8961C160.088 43.0376 160.139 48.9268 159.808 51.5017C158.992 57.8243 156.927 62.9487 154.173 65.4216C153.077 66.4159 152.057 66.9258 150.732 67.1807C149.788 67.3592 149.483 67.3592 147.774 67.2317C147.061 67.1807 146.908 67.1043 146.755 66.6964Z" fill="black"/>
<path d="M125.093 22.949C122.977 22.949 121.855 23.1784 120.147 23.9687C117.037 25.3964 114.717 27.7164 112.626 31.4896L111.963 32.6623L112.04 30.5718C112.091 29.4245 112.167 27.283 112.218 25.8043L112.295 23.1274H111.861C111.301 23.1274 93.3271 26.7221 92.7917 26.9516C92.4348 27.1045 92.3838 27.2575 92.3838 28.1243C92.3838 29.0166 92.4348 29.1186 92.7917 29.1951C93.0211 29.2461 93.837 29.399 94.6273 29.552C96.2079 29.8579 96.6923 30.1129 97.3552 30.9797C98.5534 32.5858 98.8084 35.3902 98.8084 47.3471C98.8084 57.1114 98.6044 61.9808 98.12 63.5105C97.5591 65.3716 96.5394 66.3403 94.7803 66.6463C94.2194 66.7483 93.4545 66.9012 93.1231 66.9777L92.4858 67.1052L92.4348 68.3544C92.4093 69.2212 92.4603 69.6546 92.6132 69.7566C92.7407 69.8331 98.8849 69.8841 106.253 69.8586L119.663 69.8076L119.714 68.4054C119.739 67.6406 119.714 67.0032 119.612 67.0032C118.567 67.0032 115.38 66.5698 114.87 66.3658C113.366 65.7285 112.626 64.3773 112.32 61.6239C111.938 58.3861 111.734 50.3299 111.836 43.7524C111.938 37.0983 111.938 37.0728 112.346 36.6139C113.315 35.5687 115.788 34.7528 117.98 34.7528C119.739 34.7528 121.575 35.2117 123.512 36.1295C124.456 36.5884 125.297 36.8944 125.425 36.8689C125.679 36.7669 130.064 25.1415 130.064 24.6061C130.09 23.7648 127.592 22.949 125.093 22.949Z" fill="black"/>
<path d="M92.4101 43.166C91.4668 35.1097 88.0506 29.2205 82.4163 25.9063C76.1702 22.2351 66.6608 22.0056 59.9048 25.3964C55.0354 27.8438 51.0328 32.5603 49.2737 37.9651C47.4381 43.5484 47.4381 50.8907 49.2737 56.6015C50.4464 60.2472 52.0271 62.9241 54.4745 65.346C57.4064 68.2524 61.256 70.1135 65.641 70.7509C67.2217 70.9803 72.1676 70.9803 73.7992 70.7509C74.5641 70.6489 75.8898 70.3429 76.7566 70.1135C84.7363 67.7935 90.1666 61.6749 92.0277 52.9048C92.5121 50.8143 92.6906 45.6134 92.4101 43.166ZM72.2441 67.2836C67.2982 68.7623 63.7545 64.0458 62.3778 54.154C61.9444 50.9672 61.9444 42.2482 62.3778 38.6025C63.3466 30.6482 65.794 26.6201 69.6692 26.5946C71.4028 26.5946 72.3716 27.028 73.7483 28.3792C76.986 31.6425 78.5412 37.8886 78.5157 47.704C78.4902 55.5307 77.7254 60.4511 75.9663 63.7909C75.0995 65.397 73.5188 66.9012 72.2441 67.2836Z" fill="black"/>
<path d="M27.24 10.1721H33.0164C39.6437 10.1721 40.7267 10.3031 43.0734 11.4822C46.4773 13.1853 48.9529 16.5392 51.1448 22.3823C52.0216 24.7667 52.0216 24.7405 53.9814 24.1378L55.2965 23.7448L55.1676 15.1505C55.0902 10.4341 54.9871 6.21558 54.9355 5.79634L54.8066 5.06268L29.5093 5.01028C15.5842 4.98408 3.92834 5.01028 3.61889 5.06268L3 5.16749L3.05157 6.68721L3.10315 8.20694L5.03719 8.44276C7.53856 8.75718 9.03422 9.46464 9.91098 10.7747C11.8966 13.7356 12.2576 17.7707 12.2576 36.8983C12.2576 57.2835 11.845 62.2357 9.91098 64.8035C8.90528 66.1398 8.10587 66.559 5.86238 66.9783C2.92264 67.5285 3.02579 67.4499 3.02579 68.9958C3.02579 69.8605 3.10315 70.3059 3.25787 70.3846C3.59311 70.5156 35.9561 70.5418 36.2913 70.3846C36.7297 70.2011 36.7039 67.7905 36.2655 67.5547C36.085 67.4499 35.002 67.2403 33.8415 67.0569C32.6811 66.8735 31.3918 66.5852 31.0049 66.4018C28.8904 65.4586 27.7042 62.8645 27.2658 58.1744C26.9564 54.8205 26.6985 48.6106 26.6985 44.0252V39.8329L28.6583 39.8853C32.8616 40.0163 35.0278 40.2521 35.9045 40.6452C37.8128 41.5098 39.3342 43.868 40.1336 47.1957L40.5462 48.9774L42.0419 49.0298L43.5376 49.0822V26.7318L42.0419 26.7842L40.5462 26.8366L40.1078 28.5922C39.2569 32.0247 37.8901 34.1208 35.853 35.0903C35.0278 35.4833 34.4347 35.5881 32.449 35.7192C31.1339 35.7978 29.303 35.8764 28.3489 35.8764H26.6469V30.3215C26.6469 24.7667 26.9306 12.9757 27.1369 11.1416L27.24 10.1721Z" fill="black"/>
<path d="M277.679 70.5338H283.086L288.211 58.8753H306.853L311.979 70.5338H317.442L299.701 30.5457H295.364L277.679 70.5338ZM290.239 54.1443L297.504 37.6422L304.769 54.1443H290.239Z" fill="#395BB6"/>
<path d="M323.061 70.5338H334.551C346.829 70.5338 355.84 61.9729 355.84 50.5397C355.84 39.1065 346.829 30.5457 334.551 30.5457H323.061V70.5338ZM328.299 65.6338V35.4457H334.551C344.182 35.4457 350.546 41.8663 350.546 50.5397C350.546 59.2132 344.182 65.6338 334.551 65.6338H328.299Z" fill="#395BB6"/>
<path d="M374.609 70.5338H379.002L396.011 30.5457H390.322L376.861 62.3109L363.344 30.5457H357.543L374.609 70.5338Z" fill="#395BB6"/>
<path d="M401.878 70.5338H407.116V30.5457H401.878V70.5338Z" fill="#395BB6"/>
<path d="M414.451 64.0005C416.535 68.1119 421.886 71.2096 428.475 71.2096C435.91 71.2096 441.204 66.9292 441.204 60.1143C441.204 54.2006 437.825 50.8213 431.911 48.5685L427.067 46.7099C423.012 45.1892 421.041 43.6685 421.041 40.2893C421.041 36.9663 424.308 34.7698 428.25 34.7698C431.686 34.7698 434.164 36.2905 436.191 38.7123L440.021 35.333C437.543 32.1227 433.375 29.8699 428.363 29.8699C421.21 29.8699 415.86 33.9813 415.86 40.5146C415.86 45.9777 418.676 49.2443 424.927 51.5535L430.221 53.5811C433.939 54.9891 435.966 57.1293 435.966 60.3396C435.966 64.0568 432.7 66.3097 428.588 66.3097C424.082 66.3097 420.816 64.2258 418.676 60.8465L414.451 64.0005Z" fill="#395BB6"/>
<path d="M487.484 50.5397C487.484 38.9376 478.36 29.8699 466.814 29.8699C455.324 29.8699 446.144 38.9376 446.144 50.5397C446.144 62.1419 455.324 71.2096 466.814 71.2096C478.36 71.2096 487.484 62.1419 487.484 50.5397ZM451.438 50.5397C451.438 41.7536 458.084 34.8261 466.814 34.8261C475.6 34.8261 482.246 41.7536 482.246 50.5397C482.246 59.3258 475.6 66.2533 466.814 66.2533C458.084 66.2533 451.438 59.3258 451.438 50.5397Z" fill="#395BB6"/>
<path d="M495.38 70.5338H500.618V52.342H504.504L519.879 70.5338H526.469L511.093 52.2857C517.232 51.3845 520.95 47.4421 520.95 41.5847C520.95 34.9951 516.388 30.5457 509.009 30.5457H495.38V70.5338ZM500.618 47.6673V35.3893H508.39C512.952 35.3893 515.712 37.5295 515.712 41.5847C515.712 45.5835 512.952 47.6673 508.39 47.6673H500.618Z" fill="#395BB6"/>
</svg>
