<svg xmlns="http://www.w3.org/2000/svg" width="24" height="24" viewBox="0 0 24 24" fill="none">
<g clip-path="url(#clip0_2231_693)">
<path d="M5.24165 4.21301C4.95764 3.929 4.49715 3.929 4.21314 4.21301C3.92912 4.49703 3.92912 4.95751 4.21314 5.24153L10.9716 12L4.21314 18.7585C3.92912 19.0425 3.92912 19.503 4.21314 19.787C4.49715 20.071 4.95764 20.071 5.24165 19.787L12.0001 13.0285L18.7586 19.787C19.0426 20.071 19.5031 20.071 19.7871 19.787C20.0711 19.503 20.0711 19.0425 19.7871 18.7585L13.0286 12L19.7871 5.24153C20.0711 4.95751 20.0711 4.49703 19.7871 4.21301C19.5031 3.929 19.0426 3.929 18.7586 4.21301L12.0001 10.9715L5.24165 4.21301Z" fill="#1E2125"/>
</g>
<defs>
<clipPath id="clip0_2231_693">
<rect width="24" height="24" fill="white"/>
</clipPath>
</defs>
</svg>