<svg xmlns="http://www.w3.org/2000/svg" width="12" height="12" viewBox="0 0 12 12" fill="none">
    <g clip-path="url(#clip0_900_1053)">
        <path d="M6.03485 0.739136C3.34572 0.739136 1.16528 2.91957 1.16528 5.6087C1.16528 8.29783 3.34572 10.4783 6.03485 10.4783C8.72398 10.4783 10.9044 8.29783 10.9044 5.6087C10.9044 2.91957 8.72398 0.739136 6.03485 0.739136ZM6.03485 9.65218C3.80224 9.65218 1.99137 7.84131 1.99137 5.6087C1.99137 3.37609 3.80224 1.56522 6.03485 1.56522C8.26745 1.56522 10.0783 3.37609 10.0783 5.6087C10.0783 7.84131 8.26745 9.65218 6.03485 9.65218Z" fill="#94A3B8"/>
        <path d="M5.51318 3.69569C5.51318 3.83406 5.56815 3.96677 5.666 4.06461C5.76384 4.16246 5.89655 4.21743 6.03492 4.21743C6.1733 4.21743 6.306 4.16246 6.40385 4.06461C6.50169 3.96677 6.55666 3.83406 6.55666 3.69569C6.55666 3.55732 6.50169 3.42461 6.40385 3.32676C6.306 3.22892 6.1733 3.17395 6.03492 3.17395C5.89655 3.17395 5.76384 3.22892 5.666 3.32676C5.56815 3.42461 5.51318 3.55732 5.51318 3.69569ZM6.29579 4.91308H5.77405C5.72623 4.91308 5.6871 4.95221 5.6871 5.00004V7.95656C5.6871 8.00438 5.72623 8.04351 5.77405 8.04351H6.29579C6.34362 8.04351 6.38275 8.00438 6.38275 7.95656V5.00004C6.38275 4.95221 6.34362 4.91308 6.29579 4.91308Z" fill="#94A3B8"/>
    </g>
    <defs>
        <clipPath id="clip0_900_1053">
            <rect width="10.9565" height="10.9565" fill="white" transform="translate(0.556641 0.130493)"/>
        </clipPath>
    </defs>
</svg>
