<?xml version="1.0" encoding="UTF-8"?>
<svg width="42px" height="42px" viewBox="0 0 42 42" version="1.1" xmlns="http://www.w3.org/2000/svg" xmlns:xlink="http://www.w3.org/1999/xlink">
    <title>616ED0B3-95CC-4084-B7B6-C8FF6AA134C9@1x</title>
    <defs>
        <path d="M1.75167062,38.515024 C1.75167062,39.4584705 2.57670748,40.2496353 3.59793146,40.2496353 L41.1241647,40.2496353 C41.6093775,40.2496353 42,40.641717 42,41.1248177 C42,41.6079183 41.6093775,42 41.1241647,42 L3.59793146,42 C1.62379867,42 0,40.4404251 0,38.515024 L0,0.87518233 C0,0.392081684 0.392374219,0 0.875835311,0 C1.36104807,0 1.75167062,0.392081684 1.75167062,0.87518233 L1.75167062,38.515024 Z" id="path-1"></path>
    </defs>
    <g id="Second-Drafts-" stroke="none" stroke-width="1" fill="none" fill-rule="evenodd">
        <g id="CDOverview_OOBTA" transform="translate(-1006.000000, -3953.000000)">
            <g id="Group-4" transform="translate(202.000000, 3799.000000)">
                <g id="Group" transform="translate(1.000000, 90.000000)">
                    <g id="09-data/018-line-graph" transform="translate(803.000000, 64.000000)">
                        <rect id="view-box" x="0" y="0" width="42" height="42"></rect>
                        <mask id="mask-2" fill="white">
                            <use xlink:href="#path-1"></use>
                        </mask>
                        <use id="icon-color" fill="#056DAE" xlink:href="#path-1"></use>
                        <path d="M15.0466441,21.961376 L6.63846811,38.5288079 C6.42398265,38.951333 5.90333649,39.1206852 5.47782501,38.9085673 C5.0505838,38.6981601 4.87761166,38.1832611 5.09209712,37.760736 L13.7407044,20.7228813 C13.8877308,20.4337852 14.1852428,20.250748 14.5121602,20.250748 L26.964425,20.250748 L35.3691416,4.45651989 C35.5922757,4.03912666 36.1146516,3.87832763 36.5367036,4.09899864 C36.9604854,4.31795902 37.1230792,4.83456867 36.8999451,5.25367253 L28.2513378,21.5046383 C28.1025817,21.7851813 27.8067994,21.961376 27.4850712,21.961376 L15.0466441,21.961376 Z" id="Path" fill="#00B0B9"></path>
                    </g>
                </g>
            </g>
        </g>
    </g>
</svg>