<?xml version="1.0" encoding="UTF-8"?>
<svg width="47px" height="47px" viewBox="0 0 47 47" version="1.1" xmlns="http://www.w3.org/2000/svg" xmlns:xlink="http://www.w3.org/1999/xlink">
    <title>A95B110C-18DA-44CA-AE6C-B83D8784E6CA@1x</title>
    <defs>
        <path d="M37.4233297,6.50538721 C36.5962801,6.85561721 35.4298582,7.60113581 33.9516669,8.73637484 C33.6352372,8.97939036 33.2029457,9.00614589 32.8589458,8.80400591 C29.4136246,6.77947854 25.2121874,5.7434297 20.5930544,5.88758969 C9.07113953,6.24718081 1.95833333,13.2009705 1.95833333,22.5283465 C1.95833333,28.0875184 4.33046923,32.9821461 8.72396577,35.9631088 C8.99617543,36.1478015 9.15741078,36.4568033 9.15316453,36.7856529 L9.15307971,42.1051466 C9.15307971,42.6457451 9.59146756,43.0839867 10.1322464,43.0839867 L16.432971,43.0839867 C16.9737498,43.0839867 17.4121377,42.6457451 17.4121377,42.1051466 L17.4121377,40.0785744 C17.4121377,39.5087362 17.8971456,39.0593524 18.4655337,39.1025511 C19.1828971,39.1570722 19.9202541,39.1845596 20.6772893,39.1845596 C21.9556427,39.1845596 23.1940945,39.1016161 24.3890486,38.9382302 C24.977094,38.8578269 25.5009058,39.3147185 25.5009058,39.9080409 L25.5009058,42.1051466 C25.5009058,42.6457451 25.9392936,43.0839867 26.4800725,43.0839867 L32.7807971,43.0839867 C33.3215759,43.0839867 33.7599638,42.6457451 33.7599638,42.1051466 L33.7599638,36.7988034 C33.7599638,36.6642495 33.7333441,36.5351585 33.6823466,36.4155729 C33.5028008,35.9945503 33.6390716,35.505357 34.0104574,35.2377008 C36.5732222,33.3907265 38.5265063,30.9855441 39.721014,28.2655068 C39.8772103,27.9098291 40.2290163,27.680136 40.6175886,27.680136 L44.0625,27.680136 C44.6032788,27.680136 45.0416667,27.2418944 45.0416667,26.701296 L45.0416667,18.2523612 C45.0416667,17.7117628 44.6032788,17.2735212 44.0625,17.2735212 L40.8484434,17.2735212 C40.4539034,17.2735212 40.0979055,17.0368094 39.9453925,16.6730605 C39.3921821,15.3536335 38.638428,14.0974986 37.7038398,12.9397661 C37.4810399,12.6637699 37.4250079,12.2888877 37.5573749,11.9598418 C37.6610629,11.7020878 37.7597372,11.4018607 37.8524202,11.0599095 C38.2636912,9.54253794 39.0620735,7.84103572 40.244837,5.94654123 C39.0289364,6.03566402 38.0854976,6.2249795 37.4233297,6.50538721 Z M35.6944601,36.4237753 C35.7102796,36.54743 35.7182971,36.6726427 35.7182971,36.7988034 L35.7182971,42.1051466 C35.7182971,43.7269419 34.4031336,45.0416667 32.7807971,45.0416667 L26.4800725,45.0416667 C24.857736,45.0416667 23.5425725,43.7269419 23.5425725,42.1051466 L23.5425725,41.0071219 C22.6085398,41.0969269 21.6529403,41.1422396 20.6772893,41.1422396 C20.2358814,41.1422396 19.8002545,41.1334452 19.370471,41.1159149 L19.370471,42.1051466 C19.370471,43.7269419 18.0553075,45.0416667 16.432971,45.0416667 L10.1322464,45.0416667 C8.50990992,45.0416667 7.19474638,43.7269419 7.19474638,42.1051466 L7.19474638,37.2820627 C2.5162021,33.8983956 0,28.5306792 0,22.5283465 C0,12.1196909 7.97523906,4.32274929 20.5319456,3.93086303 C25.2651315,3.78314352 29.6229516,4.79177924 33.2780084,6.79116932 C34.6396199,5.77836952 35.7603009,5.08354317 36.6594687,4.70277335 C37.9179558,4.16984291 39.7248629,3.9218488 42.1076787,3.93039265 C42.8970002,3.93322285 43.3587386,4.82063761 42.9078909,5.46832029 C41.2524622,7.84649066 40.1992434,9.88710942 39.742599,11.571885 C39.6878906,11.7737298 39.6306561,11.9659554 39.5707812,12.1486493 C40.3277129,13.1471356 40.9693893,14.2084303 41.4857234,15.3158412 L44.0625,15.3158412 C45.6848365,15.3158412 47,16.630566 47,18.2523612 L47,26.701296 C47,28.3230912 45.6848365,29.637816 44.0625,29.637816 L41.2445687,29.637816 C39.9866848,32.2460539 38.0982544,34.5677151 35.6944601,36.4237753 Z" id="path-1"></path>
    </defs>
    <g id="Second-Drafts-" stroke="none" stroke-width="1" fill="none" fill-rule="evenodd">
        <g id="CDOverview_OOBTA" transform="translate(-389.000000, -3949.000000)">
            <g id="Group-4" transform="translate(202.000000, 3799.000000)">
                <g id="Group" transform="translate(1.000000, 90.000000)">
                    <g id="06-finance/138-savings" transform="translate(186.000000, 60.000000)">
                        <rect id="view-box" x="0" y="0" width="47" height="47"></rect>
                        <mask id="mask-2" fill="white">
                            <use xlink:href="#path-1"></use>
                        </mask>
                        <use id="icon-color" fill="#056DAE" xlink:href="#path-1"></use>
                        <path d="M29.8530288,11.8856814 C30.3249838,12.1496014 30.4935581,12.7460182 30.2295501,13.2178158 C29.965542,13.6896133 29.3689262,13.8581313 28.8969712,13.5942114 C26.6446102,12.3346781 23.9398059,11.7611064 20.9801645,11.7611064 C18.7174054,11.7611064 16.1182571,12.5138817 14.1863631,13.5942109 C13.7144084,13.8581313 13.1177924,13.6896139 12.8537838,13.2178167 C12.5897753,12.7460195 12.7583489,12.1496024 13.2303036,11.885682 C15.4402973,10.6498375 18.3627469,9.8034264 20.9801645,9.8034264 C24.2501802,9.8034264 27.2773814,10.4453645 29.8530288,11.8856814 Z" id="Path" fill="#00B0B9"></path>
                    </g>
                </g>
            </g>
        </g>
    </g>
</svg>