<?xml version="1.0" encoding="UTF-8"?> <svg xmlns="http://www.w3.org/2000/svg" width="200" height="150" viewBox="0 0 200 150" fill="none"><path opacity="0.5" d="M100 136.428C149.706 136.428 190 134.541 190 132.212C190 129.883 149.706 127.995 100 127.995C50.2944 127.995 10 129.883 10 132.212C10 134.541 50.2944 136.428 100 136.428Z" fill="#24326E"></path><rect x="52.2327" y="56.5833" width="103.45" height="57.6718" fill="#73BFB7"></rect><rect opacity="0.3" x="52.3949" y="56.7193" width="103.427" height="5.82536" fill="black"></rect><path fill-rule="evenodd" clip-rule="evenodd" d="M68.7442 57.5892V61.2775H67.0597L67.0597 110.567H68.7442V114.255H67.0597V114.255H58.9724V114.255H57.2873L57.2873 110.567H58.9724L58.9724 61.2775H57.2873L57.2873 57.5892L58.9724 57.5892L67.0597 57.5892H68.7442Z" fill="#24326E"></path><path fill-rule="evenodd" clip-rule="evenodd" d="M133.105 57.5892V61.2775H131.421L131.421 110.567H133.105V114.255H131.421V114.255H123.333V114.255H121.648L121.648 110.567H123.333L123.333 61.2775H121.648L121.648 57.5892L123.333 57.5892L131.421 57.5892H133.105Z" fill="#24326E"></path><path fill-rule="evenodd" clip-rule="evenodd" d="M86.9408 57.5892V61.2776H85.2562L85.2562 110.567H86.9408V114.255L75.4838 114.255L75.4838 110.567H77.1689L77.1689 61.2776H75.4838L75.4838 57.5892L77.1689 57.5892L85.2562 57.5892H86.9408Z" fill="#24326E"></path><path fill-rule="evenodd" clip-rule="evenodd" d="M151.302 57.5892V61.2776H149.617L149.617 110.567H151.302V114.255L139.845 114.255L139.845 110.567H141.53L141.53 61.2776H139.845L139.845 57.5892L141.53 57.5892L149.617 57.5892H151.302Z" fill="#24326E"></path><path d="M43.8085 45.183L104.463 14L164.781 45.183V57.5892H43.8085V45.183Z" fill="url(#paint0_linear_3174_110)"></path><rect x="46.8413" y="114.255" width="113.559" height="7.37663" fill="url(#paint1_linear_3174_110)"></rect><rect x="43.8085" y="121.632" width="119.624" height="7.37663" fill="url(#paint2_linear_3174_110)"></rect><path d="M104.878 41.1714C110.152 41.1714 114.428 36.9146 114.428 31.6635C114.428 26.4124 110.152 22.1555 104.878 22.1555C99.6028 22.1555 95.3268 26.4124 95.3268 31.6635C95.3268 36.9146 99.6028 41.1714 104.878 41.1714Z" fill="url(#paint3_linear_3174_110)"></path><path d="M108.293 32.2123C108.099 31.8484 107.833 31.5397 107.516 31.3101C107.207 31.0861 106.872 30.9125 106.52 30.7945C106.326 30.7268 106.091 30.6569 105.823 30.5761C105.608 30.5084 105.373 30.445 105.01 30.3576C104.633 30.2682 104.264 30.1455 103.905 29.9906C103.73 29.9101 103.574 29.7826 103.453 29.6193C103.353 29.4733 103.304 29.2916 103.315 29.1081C103.315 29.0797 103.315 29.0535 103.315 29.0251C103.322 28.8702 103.37 28.7213 103.453 28.5969C103.598 28.3975 103.79 28.2465 104.006 28.16C104.362 28.0248 104.737 27.964 105.113 27.9809C105.404 27.9809 105.693 28.0235 105.975 28.1076C106.161 28.167 106.336 28.2632 106.493 28.3916C106.592 28.4719 106.677 28.5727 106.743 28.6887C106.969 29.0809 107.484 29.1916 107.85 28.9264L107.887 28.8999C108.219 28.6593 108.316 28.2068 108.112 27.851L108.05 27.7428C107.879 27.4429 107.66 27.182 107.403 26.9738C107.101 26.7261 106.762 26.5404 106.402 26.4255C106.262 26.381 106.12 26.3445 105.977 26.3163V25.2622C105.977 24.8333 105.629 24.4857 105.2 24.4857C104.771 24.4857 104.423 24.8333 104.423 25.2622V26.2791C104.112 26.3233 103.806 26.4024 103.509 26.5151C103.024 26.7028 102.594 27.0359 102.264 27.4784L102.243 27.5068C101.944 27.9341 101.774 28.4576 101.758 29.001C101.725 29.5998 101.884 30.1918 102.206 30.67L102.231 30.7071C102.529 31.1162 102.916 31.4316 103.354 31.6225C103.788 31.8073 104.235 31.9534 104.689 32.0594C105.021 32.1424 105.233 32.1992 105.423 32.2603H105.445C105.691 32.3302 105.899 32.3936 106.079 32.4547C106.29 32.5246 106.491 32.6276 106.675 32.7606C106.786 32.8431 106.879 32.952 106.947 33.0795C107.017 33.2364 107.051 33.4108 107.044 33.5863C107.044 33.5994 107.044 33.6125 107.044 33.6256C107.051 33.8377 106.997 34.0467 106.891 34.222C106.737 34.4641 106.522 34.6489 106.274 34.7529C105.897 34.9152 105.494 34.9895 105.091 34.9713H105.043C104.605 34.9862 104.171 34.8829 103.777 34.6698C103.582 34.5513 103.415 34.382 103.29 34.1761C103.053 33.7928 102.536 33.6999 102.182 33.977L102.139 34.0107C101.816 34.2628 101.734 34.7174 101.949 35.0663L102.014 35.1723C102.284 35.6128 102.644 35.9739 103.064 36.2252L103.086 36.2361C103.507 36.4659 103.959 36.6171 104.423 36.684V37.6899C104.423 38.1188 104.771 38.4665 105.2 38.4665C105.629 38.4665 105.977 38.1188 105.977 37.6899V36.6446C106.272 36.5865 106.56 36.4943 106.839 36.3694C107.362 36.1447 107.817 35.7539 108.147 35.2444C108.41 34.8044 108.564 34.2931 108.592 33.7637C108.62 33.2343 108.521 32.7061 108.306 32.2341L108.293 32.2123Z" fill="#24326E"></path><rect x="46.8413" y="45.8537" width="114.907" height="8.71783" rx="1.72677" fill="#24326E"></rect><path d="M93.343 95.6984C93.343 89.8362 98.0953 85.0839 103.958 85.0839C109.82 85.0839 114.572 89.8362 114.572 95.6984V114.255H93.343V95.6984Z" fill="#24326E"></path><path d="M159.185 129.976H139.43C139.43 124.834 143.852 120.665 149.307 120.665C154.762 120.665 159.185 124.834 159.185 129.976Z" fill="#24326E"></path><path d="M41.7107 131.53H61.4661C61.4661 126.387 57.0437 122.218 51.5884 122.218C46.1331 122.218 41.7107 126.387 41.7107 131.53Z" fill="#24326E"></path><path d="M175.821 129.976H146.708C146.708 122.548 153.225 116.526 161.264 116.526C169.304 116.526 175.821 122.548 175.821 129.976Z" fill="#24326E"></path><path d="M25.0746 131.53H54.1878C54.1878 124.102 47.6706 118.08 39.6312 118.08C31.5918 118.08 25.0746 124.102 25.0746 131.53Z" fill="#24326E"></path><path fill-rule="evenodd" clip-rule="evenodd" d="M174.235 98.9166L156.75 106.541L157.642 108.566L157.642 108.565C157.643 108.566 157.643 108.566 157.643 108.566C158.026 109.436 162.25 108.434 167.078 106.329C171.906 104.223 175.51 101.812 175.127 100.942C175.125 100.937 175.123 100.933 175.121 100.929L174.235 98.9166Z" fill="#E8A341"></path><ellipse cx="9.53707" cy="1.72074" rx="9.53707" ry="1.72074" transform="matrix(0.916641 -0.399711 0.403054 0.915176 156.058 104.966)" fill="#F3BF75"></ellipse><ellipse cx="8.22161" cy="1.47492" rx="8.22161" ry="1.47492" transform="matrix(0.916641 -0.399712 0.403054 0.915176 157.363 104.665)" fill="#E8A341"></ellipse><ellipse cx="7.89274" cy="1.2291" rx="7.89274" ry="1.2291" transform="matrix(0.916641 -0.399712 0.403054 0.915176 157.863 104.984)" fill="#F3BF75"></ellipse><path fill-rule="evenodd" clip-rule="evenodd" d="M161.736 103.036L145.853 92.4985L144.621 94.3378L144.621 94.3378C144.62 94.338 144.62 94.3381 144.62 94.3382C144.091 95.1283 147.217 98.1276 151.603 101.037C155.989 103.947 159.974 105.666 160.503 104.876C160.504 104.873 160.506 104.871 160.507 104.869L161.736 103.036Z" fill="#E8A341"></path><ellipse cx="9.53014" cy="1.722" rx="9.53014" ry="1.722" transform="matrix(0.833285 0.552844 -0.556656 0.830743 146.812 91.0682)" fill="#F3BF75"></ellipse><ellipse cx="8.21564" cy="1.476" rx="8.21564" ry="1.476" transform="matrix(0.833285 0.552844 -0.556656 0.830743 147.771 91.9995)" fill="#E8A341"></ellipse><ellipse cx="7.88702" cy="1.23" rx="7.88702" ry="1.23" transform="matrix(0.833285 0.552844 -0.556656 0.830743 147.771 92.5901)" fill="#F3BF75"></ellipse><path fill-rule="evenodd" clip-rule="evenodd" d="M152.346 82.4007C152.295 82.3674 152.249 82.3283 152.209 82.2833C151.316 81.2733 153.75 77.6876 157.646 74.2746C161.524 70.8771 165.389 68.9313 166.306 69.91L166.331 69.8876L168.442 72.2649L154.328 84.6089L152.33 82.4151L152.346 82.4007Z" fill="#F3BF75"></path><ellipse cx="9.36871" cy="2.44455" rx="9.36871" ry="2.44455" transform="matrix(0.752989 -0.659628 0.661937 0.748161 152.626 82.7239)" fill="#E8A341"></ellipse><rect x="149.063" y="119.669" width="20.5901" height="3.45306" rx="0.690611" fill="url(#paint4_linear_3174_110)"></rect><rect x="146.055" y="112.763" width="20.5901" height="3.45306" rx="0.690611" fill="url(#paint5_linear_3174_110)"></rect><rect x="147.906" y="123.122" width="20.5901" height="3.45306" rx="0.690611" fill="url(#paint6_linear_3174_110)"></rect><rect x="144.899" y="116.216" width="20.5901" height="3.45306" rx="0.690611" fill="url(#paint7_linear_3174_110)"></rect><rect x="149.063" y="126.575" width="20.5901" height="3.45306" rx="0.690611" fill="url(#paint8_linear_3174_110)"></rect><defs><linearGradient id="paint0_linear_3174_110" x1="104.295" y1="14" x2="104.295" y2="57.5892" gradientUnits="userSpaceOnUse"><stop stop-color="#54A79E"></stop><stop offset="1" stop-color="#74C0B8"></stop></linearGradient><linearGradient id="paint1_linear_3174_110" x1="103.621" y1="114.255" x2="103.621" y2="121.632" gradientUnits="userSpaceOnUse"><stop stop-color="#54A79E"></stop><stop offset="1" stop-color="#74C0B8"></stop></linearGradient><linearGradient id="paint2_linear_3174_110" x1="103.621" y1="121.632" x2="103.621" y2="129.008" gradientUnits="userSpaceOnUse"><stop stop-color="#54A79E"></stop><stop offset="1" stop-color="#74C0B8"></stop></linearGradient><linearGradient id="paint3_linear_3174_110" x1="95.3286" y1="31.6635" x2="114.428" y2="31.6635" gradientUnits="userSpaceOnUse"><stop stop-color="#EBF2FC"></stop><stop offset="0.98" stop-color="#DEE5FC"></stop></linearGradient><linearGradient id="paint4_linear_3174_110" x1="161.734" y1="123.582" x2="161.949" y2="119.524" gradientUnits="userSpaceOnUse"><stop stop-color="#E8A341"></stop><stop offset="0.98" stop-color="#F3BF75"></stop></linearGradient><linearGradient id="paint5_linear_3174_110" x1="158.726" y1="116.676" x2="158.942" y2="112.618" gradientUnits="userSpaceOnUse"><stop stop-color="#E8A341"></stop><stop offset="0.98" stop-color="#F3BF75"></stop></linearGradient><linearGradient id="paint6_linear_3174_110" x1="160.577" y1="127.035" x2="160.793" y2="122.977" gradientUnits="userSpaceOnUse"><stop stop-color="#E8A341"></stop><stop offset="0.98" stop-color="#F3BF75"></stop></linearGradient><linearGradient id="paint7_linear_3174_110" x1="157.569" y1="120.129" x2="157.785" y2="116.071" gradientUnits="userSpaceOnUse"><stop stop-color="#E8A341"></stop><stop offset="0.98" stop-color="#F3BF75"></stop></linearGradient><linearGradient id="paint8_linear_3174_110" x1="161.734" y1="130.488" x2="161.949" y2="126.431" gradientUnits="userSpaceOnUse"><stop stop-color="#E8A341"></stop><stop offset="0.98" stop-color="#F3BF75"></stop></linearGradient></defs></svg> 