<?xml version="1.0" encoding="UTF-8"?> <svg xmlns="http://www.w3.org/2000/svg" width="63" height="63" viewBox="0 0 63 63" fill="none"><path d="M23.5 44.8093H25.5C26.0523 44.8093 26.5 45.257 26.5 45.8093V59.079C26.5 59.6313 26.0523 60.079 25.5 60.079H23.5C22.9477 60.079 22.5 59.6313 22.5 59.079V45.8093C22.5 45.257 22.9477 44.8093 23.5 44.8093Z" fill="#EEF4FF" stroke="#97AAD6" stroke-width="2"></path><path d="M31.5 44.8093H33.5C34.0523 44.8093 34.5 45.257 34.5 45.8093V59.079C34.5 59.6313 34.0523 60.079 33.5 60.079H31.5C30.9477 60.079 30.5 59.6313 30.5 59.079V45.8093C30.5 45.257 30.9477 44.8093 31.5 44.8093Z" fill="#EEF4FF" stroke="#97AAD6" stroke-width="2"></path><mask id="path-3-outside-1_1992_122" maskUnits="userSpaceOnUse" x="12.5" y="16.8093" width="32" height="29" fill="black"><rect fill="white" x="12.5" y="16.8093" width="32" height="29"></rect><path d="M38.1252 21.3041L42.3827 33.0016C42.3842 33.0057 42.385 33.0101 42.385 33.0145C42.385 33.0188 42.3858 33.0231 42.3872 33.0272C42.5641 33.524 42.532 34.0688 42.2977 34.5427C42.0625 35.0186 41.6427 35.384 41.1307 35.5586C40.6187 35.7332 40.0565 35.7026 39.5677 35.4736C39.0788 35.2446 38.7034 34.8359 38.5241 34.3375L35.5774 26.365C35.5075 26.1758 35.3271 26.0501 35.1253 26.0501C34.7935 26.0501 34.5609 26.3775 34.6701 26.6908L39.71 41.1495C40.1633 42.4499 39.1975 43.8086 37.8204 43.8078L18.7654 43.7977C17.3662 43.797 16.4002 42.3965 16.8965 41.0883L22.3503 26.7122C22.4776 26.3765 22.2296 26.0172 21.8706 26.0172C21.6552 26.0172 21.4627 26.1518 21.3887 26.3541L18.4759 34.3244C18.2966 34.8228 17.9212 35.2314 17.4324 35.4604C16.9435 35.6894 16.3813 35.72 15.8693 35.5454C15.3573 35.3708 14.9375 35.0054 14.7023 34.5295C14.4671 34.0536 14.4357 33.5063 14.615 33.0079L18.9154 21.3041C18.9794 21.0482 19.0748 20.8007 19.1994 20.5669C19.2467 20.4813 19.294 20.3957 19.3481 20.3167C19.643 19.8605 20.0506 19.4835 20.5337 19.2202C21.0168 18.9569 21.56 18.8156 22.1136 18.8093H34.8999C35.4579 18.8124 36.0061 18.9521 36.4941 19.2155C36.9821 19.479 37.3942 19.8576 37.6924 20.3167C37.7477 20.3979 37.7953 20.4838 37.8344 20.5734C37.9648 20.8031 38.0626 21.0489 38.1252 21.3041Z"></path></mask><path d="M38.1252 21.3041L42.3827 33.0016C42.3842 33.0057 42.385 33.0101 42.385 33.0145C42.385 33.0188 42.3858 33.0231 42.3872 33.0272C42.5641 33.524 42.532 34.0688 42.2977 34.5427C42.0625 35.0186 41.6427 35.384 41.1307 35.5586C40.6187 35.7332 40.0565 35.7026 39.5677 35.4736C39.0788 35.2446 38.7034 34.8359 38.5241 34.3375L35.5774 26.365C35.5075 26.1758 35.3271 26.0501 35.1253 26.0501C34.7935 26.0501 34.5609 26.3775 34.6701 26.6908L39.71 41.1495C40.1633 42.4499 39.1975 43.8086 37.8204 43.8078L18.7654 43.7977C17.3662 43.797 16.4002 42.3965 16.8965 41.0883L22.3503 26.7122C22.4776 26.3765 22.2296 26.0172 21.8706 26.0172C21.6552 26.0172 21.4627 26.1518 21.3887 26.3541L18.4759 34.3244C18.2966 34.8228 17.9212 35.2314 17.4324 35.4604C16.9435 35.6894 16.3813 35.72 15.8693 35.5454C15.3573 35.3708 14.9375 35.0054 14.7023 34.5295C14.4671 34.0536 14.4357 33.5063 14.615 33.0079L18.9154 21.3041C18.9794 21.0482 19.0748 20.8007 19.1994 20.5669C19.2467 20.4813 19.294 20.3957 19.3481 20.3167C19.643 19.8605 20.0506 19.4835 20.5337 19.2202C21.0168 18.9569 21.56 18.8156 22.1136 18.8093H34.8999C35.4579 18.8124 36.0061 18.9521 36.4941 19.2155C36.9821 19.479 37.3942 19.8576 37.6924 20.3167C37.7477 20.3979 37.7953 20.4838 37.8344 20.5734C37.9648 20.8031 38.0626 21.0489 38.1252 21.3041Z" fill="#EEF4FF"></path><path d="M42.3827 33.0016L44.2622 32.3177L44.2621 32.3176L42.3827 33.0016ZM38.1252 21.3041L36.1827 21.7802L36.2086 21.8859L36.2458 21.9881L38.1252 21.3041ZM37.8344 20.5734L36.0018 21.3744L36.0437 21.4701L36.0952 21.561L37.8344 20.5734ZM37.6924 20.3167L36.0153 21.4063L36.0272 21.4247L36.0395 21.4427L37.6924 20.3167ZM36.4941 19.2155L37.4441 17.4556L37.4441 17.4556L36.4941 19.2155ZM34.8999 18.8093L34.911 16.8093H34.8999V18.8093ZM22.1136 18.8093V16.8093H22.1023L22.0909 16.8095L22.1136 18.8093ZM20.5337 19.2202L19.5765 17.4641L19.5765 17.4641L20.5337 19.2202ZM19.3481 20.3167L20.9983 21.4468L21.0133 21.4248L21.0278 21.4024L19.3481 20.3167ZM19.1994 20.5669L17.4493 19.5988L17.4418 19.6124L17.4345 19.6261L19.1994 20.5669ZM18.9154 21.3041L20.7927 21.9939L20.8296 21.8934L20.8556 21.7894L18.9154 21.3041ZM14.615 33.0079L12.7377 32.318L12.7331 32.3308L14.615 33.0079ZM14.7023 34.5295L12.9094 35.4157L12.9094 35.4157L14.7023 34.5295ZM15.8693 35.5454L16.5148 33.6524L16.5148 33.6524L15.8693 35.5454ZM18.4759 34.3244L16.5974 33.6378L16.594 33.6473L18.4759 34.3244ZM21.3887 26.3541L23.2672 27.0407L23.2672 27.0407L21.3887 26.3541ZM35.5774 26.365L37.4534 25.6717L37.4534 25.6717L35.5774 26.365ZM38.5241 34.3375L40.406 33.6604L40.4031 33.6523L40.4001 33.6442L38.5241 34.3375ZM39.5677 35.4736L38.7192 37.2847L38.7192 37.2847L39.5677 35.4736ZM42.2977 34.5427L44.0906 35.4289L44.0906 35.4289L42.2977 34.5427ZM42.3872 33.0272L40.5029 33.6974L40.5031 33.698L42.3872 33.0272ZM22.3503 26.7122L24.2202 27.4216L24.2203 27.4216L22.3503 26.7122ZM16.8965 41.0883L18.7665 41.7977L16.8965 41.0883ZM39.71 41.1495L37.8214 41.8078L37.8214 41.8078L39.71 41.1495ZM34.6701 26.6908L32.7816 27.3491L32.7816 27.3491L34.6701 26.6908ZM18.7654 43.7977L18.7665 41.7977L18.7665 41.7977L18.7654 43.7977ZM37.8204 43.8078L37.8193 45.8078L37.8193 45.8078L37.8204 43.8078ZM44.2621 32.3176L40.0046 20.6201L36.2458 21.9881L40.5034 33.6857L44.2621 32.3176ZM40.0677 20.828C39.961 20.3929 39.7946 19.9751 39.5736 19.5859L36.0952 21.561C36.1351 21.6311 36.1642 21.7049 36.1827 21.7802L40.0677 20.828ZM39.667 19.7725C39.578 19.5687 39.4702 19.374 39.3453 19.1907L36.0395 21.4427C36.0253 21.4218 36.0125 21.399 36.0018 21.3744L39.667 19.7725ZM39.3696 19.2271C38.8864 18.4835 38.2228 17.8759 37.4441 17.4556L35.5441 20.9755C35.7414 21.082 35.9019 21.2318 36.0153 21.4063L39.3696 19.2271ZM37.4441 17.4556C36.6657 17.0354 35.7948 16.8143 34.911 16.8094L34.8888 20.8093C35.121 20.8106 35.3465 20.8688 35.5441 20.9755L37.4441 17.4556ZM34.8999 16.8093H22.1136V20.8093H34.8999V16.8093ZM22.0909 16.8095C21.2127 16.8194 20.3484 17.0434 19.5765 17.4641L21.4909 20.9763C21.6852 20.8704 21.9073 20.8118 22.1364 20.8092L22.0909 16.8095ZM19.5765 17.4641C18.8044 17.885 18.1469 18.4909 17.6685 19.231L21.0278 21.4024C21.1391 21.2302 21.2968 21.0821 21.4909 20.9763L19.5765 17.4641ZM17.698 19.1867C17.5808 19.3578 17.4881 19.5286 17.4493 19.5988L20.9495 21.5349C20.9618 21.5126 20.9708 21.4963 20.9794 21.481C20.9877 21.4662 20.9937 21.4558 20.9982 21.4481C21.0077 21.4318 21.0069 21.4342 20.9983 21.4468L17.698 19.1867ZM17.4345 19.6261C17.2334 20.0034 17.079 20.4038 16.9752 20.8188L20.8556 21.7894C20.8798 21.6926 20.9161 21.598 20.9643 21.5076L17.4345 19.6261ZM17.0381 20.6143L12.7377 32.3181L16.4923 33.6976L20.7927 21.9939L17.0381 20.6143ZM12.7331 32.3308C12.3693 33.342 12.4338 34.4537 12.9094 35.4157L16.4952 33.6433C16.4972 33.6474 16.4994 33.6541 16.4999 33.6626C16.5004 33.6711 16.499 33.679 16.4969 33.6849L12.7331 32.3308ZM12.9094 35.4157C13.3839 36.3757 14.2219 37.0968 15.2238 37.4384L16.5148 33.6524C16.5043 33.6489 16.4981 33.6445 16.4952 33.642C16.4923 33.6395 16.4933 33.6394 16.4952 33.6433L12.9094 35.4157ZM15.2238 37.4384C16.2244 37.7796 17.3222 37.7206 18.2808 37.2716L16.5839 33.6493C16.5753 33.6533 16.5641 33.6565 16.5509 33.6572C16.5377 33.6579 16.5253 33.656 16.5148 33.6524L15.2238 37.4384ZM18.2808 37.2716C19.2409 36.8218 19.9946 36.0109 20.3578 35.0014L16.594 33.6473C16.5985 33.6347 16.6015 33.6411 16.5839 33.6493L18.2808 37.2716ZM20.3544 35.0109L23.2672 27.0407L19.5102 25.6676L16.5974 33.6378L20.3544 35.0109ZM33.7015 27.0584L36.6482 35.0309L40.4001 33.6442L37.4534 25.6717L33.7015 27.0584ZM36.6422 35.0146C37.0054 36.024 37.7592 36.835 38.7192 37.2847L40.4161 33.6625C40.3985 33.6542 40.4015 33.6479 40.406 33.6604L36.6422 35.0146ZM38.7192 37.2847C39.6778 37.7338 40.7756 37.7928 41.7762 37.4516L40.4852 33.6656C40.4747 33.6692 40.4623 33.6711 40.4491 33.6704C40.4359 33.6697 40.4247 33.6665 40.4161 33.6625L38.7192 37.2847ZM41.7762 37.4516C42.7781 37.1099 43.6161 36.3889 44.0906 35.4289L40.5048 33.6565C40.5067 33.6526 40.5077 33.6526 40.5048 33.6551C40.5019 33.6577 40.4957 33.662 40.4852 33.6656L41.7762 37.4516ZM44.0906 35.4289C44.5642 34.4709 44.6302 33.3643 44.2714 32.3564L40.5031 33.698C40.5009 33.692 40.4996 33.6841 40.5001 33.6757C40.5006 33.6672 40.5028 33.6605 40.5048 33.6565L44.0906 35.4289ZM20.4803 26.0028L15.0266 40.3789L18.7665 41.7977L24.2202 27.4216L20.4803 26.0028ZM41.5986 40.4912L36.5587 26.0325L32.7816 27.3491L37.8214 41.8078L41.5986 40.4912ZM18.7644 45.7977L37.8193 45.8078L37.8214 41.8078L18.7665 41.7977L18.7644 45.7977ZM36.5587 26.0325C36.9026 27.0191 36.1701 28.0501 35.1253 28.0501V24.0501C33.4169 24.0501 32.2193 25.7359 32.7816 27.3491L36.5587 26.0325ZM21.8706 28.0172C20.83 28.0172 20.1112 26.9758 20.4803 26.0028L24.2203 27.4216C24.8441 25.7773 23.6293 24.0172 21.8706 24.0172V28.0172ZM44.2716 32.3569C44.3452 32.5639 44.385 32.7861 44.385 33.0145H40.385C40.385 33.2515 40.4264 33.4823 40.5029 33.6974L44.2716 32.3569ZM37.4534 25.6717C37.0932 24.6972 36.1642 24.0501 35.1253 24.0501V28.0501C34.4899 28.0501 33.9218 27.6544 33.7015 27.0584L37.4534 25.6717ZM37.8214 41.8078L37.8214 41.8078L37.8193 45.8078C40.5735 45.8093 42.5051 43.0919 41.5986 40.4912L37.8214 41.8078ZM15.0266 40.3789C14.034 42.9954 15.966 45.7962 18.7644 45.7977L18.7665 41.7977L18.7665 41.7977L15.0266 40.3789ZM23.2672 27.0407C23.0529 27.6271 22.495 28.0172 21.8706 28.0172V24.0172C20.8153 24.0172 19.8725 24.6765 19.5102 25.6676L23.2672 27.0407ZM40.5033 33.6856C40.4249 33.4702 40.385 33.243 40.385 33.0145H44.385C44.385 32.7772 44.3436 32.5413 44.2622 32.3177L40.5033 33.6856Z" fill="#97AAD6" mask="url(#path-3-outside-1_1992_122)"></path><circle cx="28.5" cy="8.80933" r="6" fill="#EEF4FF" stroke="#97AAD6" stroke-width="2"></circle><circle cx="46" cy="46" r="14" fill="#F8F8F8" stroke="#97AAD6" stroke-width="2"></circle><path d="M50.0675 47.3867C49.7916 46.8922 49.4134 46.4727 48.9621 46.1606C48.5228 45.8562 48.0454 45.6203 47.5444 45.46C47.2681 45.3679 46.9337 45.2729 46.5523 45.1631C46.2455 45.0711 45.9112 44.985 45.3944 44.8662C44.8588 44.7447 44.333 44.578 43.8219 44.3675C43.5723 44.258 43.3513 44.0848 43.178 43.8628C43.0363 43.6645 42.9666 43.4176 42.9818 43.1681C42.9818 43.1295 42.9818 43.0939 42.9818 43.0553C42.9927 42.8449 43.0609 42.6425 43.178 42.4734C43.3856 42.2025 43.6578 41.9972 43.9656 41.8797C44.4725 41.6959 45.0063 41.6134 45.5408 41.6362C45.9551 41.6363 46.3675 41.6942 46.7679 41.8084C47.0331 41.8892 47.2829 42.0199 47.5057 42.1944C47.6472 42.3036 47.7681 42.4406 47.8622 42.5981L48.4619 43.5956L50.3218 42.3101L49.7221 41.3126C49.4794 40.9051 49.1671 40.5506 48.8018 40.2676C48.3711 39.9309 47.8883 39.6787 47.3758 39.5225C47.1766 39.462 46.9746 39.4124 46.7706 39.374V36.8862H44.5598V39.3236C44.1171 39.3836 43.681 39.4911 43.2582 39.6442C42.5678 39.8994 41.9553 40.352 41.4867 40.9534L41.4563 40.992C41.0308 41.5727 40.7888 42.284 40.7655 43.0226C40.7194 43.8363 40.9458 44.6408 41.4038 45.2908L41.4398 45.3412C41.8632 45.8972 42.4135 46.3258 43.0371 46.5851C43.6554 46.8364 44.2911 47.0349 44.9384 47.1789C45.411 47.2917 45.7122 47.3689 45.983 47.452H46.0134C46.3644 47.547 46.6601 47.6331 46.9171 47.7162C47.2167 47.8112 47.5023 47.9511 47.7655 48.1319C47.9226 48.2439 48.0547 48.3919 48.1524 48.5653C48.2523 48.7785 48.2999 49.0156 48.2906 49.254C48.2906 49.2719 48.2906 49.2897 48.2906 49.3075C48.3 49.5957 48.2235 49.8797 48.0722 50.1179C47.8526 50.4469 47.5466 50.6981 47.1934 50.8394C46.657 51.06 46.0844 51.161 45.5104 51.1362H45.4414C44.8189 51.1565 44.201 51.016 43.6395 50.7265C43.3619 50.5654 43.1241 50.3354 42.9459 50.0556L42.3158 49.0789L40.5002 50.4326L41.1302 51.4094C41.5148 52.008 42.0276 52.4987 42.6253 52.8403L42.6557 52.8551C43.2556 53.1673 43.8986 53.3729 44.5598 53.4637V55.8862H46.7706V53.4103C47.1905 53.3313 47.6017 53.206 47.9976 53.0362C48.7431 52.7309 49.3901 52.1998 49.8603 51.5073C50.235 50.9095 50.4537 50.2146 50.4935 49.4951C50.5334 48.7756 50.393 48.0578 50.0869 47.4164L50.0675 47.3867Z" fill="#97AAD6"></path></svg> 