<?xml version="1.0" encoding="UTF-8"?> <svg xmlns="http://www.w3.org/2000/svg" width="64" height="64" viewBox="0 0 64 64" fill="none"><path fill-rule="evenodd" clip-rule="evenodd" d="M56.4379 38.59C55.6585 37.5382 54.2683 37.1646 53.0762 37.6864L41.1669 42.8989L31.3634 38.1214H18.9774L16.6219 40.5054V52.041L30.2936 55.2591C32.3684 55.7475 34.5495 55.4056 36.3811 54.3048L55.6249 42.74C57.0614 41.8767 57.4403 39.9427 56.4379 38.59ZM53.7632 39.2944C54.2206 39.0942 54.7541 39.2376 55.0531 39.6411C55.4378 40.1602 55.2924 40.9023 54.7412 41.2336L35.4974 52.7984C34.0496 53.6685 32.3257 53.9387 30.6857 53.5527L18.3529 50.6497V41.2311L19.6944 39.8733H30.9684L40.2443 44.3938C40.2088 44.6554 40.1467 44.9312 40.0515 45.1653C39.8791 45.5894 39.7316 45.6048 39.6689 45.6048C39.456 45.6048 38.9331 45.5408 38.1477 45.4115C37.39 45.2868 36.4544 45.1133 35.4615 44.9191C33.4767 44.531 31.2839 44.0647 29.8711 43.7539L29.5034 45.4659C30.925 45.7787 33.1315 46.2478 35.1332 46.6393C36.1335 46.8349 37.0879 47.0121 37.8699 47.1408C38.6241 47.2649 39.2903 47.3568 39.6689 47.3568C40.7892 47.3568 41.3811 46.4991 41.6523 45.8319C41.8371 45.3771 41.9356 44.8817 41.9809 44.4514L53.7632 39.2944Z" fill="#97AAD6"></path><path d="M7.86548 40.2244H17.4874V56.2609H7.86548V40.2244Z" fill="#EEF4FF"></path><path fill-rule="evenodd" clip-rule="evenodd" d="M7 39.3589H18.3529V57.1264H7V39.3589ZM8.73093 41.0898V55.3954H16.6219V41.0898H8.73093Z" fill="#97AAD6"></path><path d="M46.2364 21.5707C46.2364 29.6178 39.7129 36.1413 31.6658 36.1413C23.6186 36.1413 17.0951 29.6178 17.0951 21.5707C17.0951 13.5235 23.6186 7 31.6658 7C39.7129 7 46.2364 13.5235 46.2364 21.5707Z" fill="#EEF4FF"></path><path d="M36.1024 22.4913C35.8344 22.0363 35.467 21.6502 35.0286 21.363C34.6018 21.0829 34.1382 20.8658 33.6515 20.7183C33.3831 20.6336 33.0582 20.5461 32.6878 20.4451C32.3898 20.3604 32.065 20.2811 31.563 20.1719C31.0428 20.0601 30.532 19.9066 30.0356 19.7129C29.7931 19.6121 29.5784 19.4527 29.4101 19.2484C29.2724 19.0659 29.2047 18.8387 29.2195 18.6092C29.2195 18.5736 29.2195 18.5409 29.2195 18.5053C29.2301 18.3117 29.2963 18.1255 29.4101 17.9699C29.6117 17.7205 29.8762 17.5317 30.1752 17.4235C30.6675 17.2543 31.1861 17.1784 31.7053 17.1994C32.1076 17.1995 32.5083 17.2528 32.8972 17.3579C33.1548 17.4322 33.3975 17.5525 33.6139 17.7131C33.7513 17.8136 33.8688 17.9397 33.9602 18.0846V18.0846C34.2806 18.5895 34.9554 18.7323 35.4556 18.4048V18.4048C35.9494 18.0815 36.0953 17.4193 35.7791 16.921L35.7668 16.9017C35.5311 16.5266 35.2278 16.2004 34.8729 15.94C34.4545 15.6302 33.9856 15.398 33.4877 15.2543C33.2942 15.1986 33.098 15.153 32.8999 15.1177V13.902C32.8999 13.309 32.4191 12.8282 31.8261 12.8282V12.8282C31.2331 12.8282 30.7523 13.309 30.7523 13.902V15.0712C30.3223 15.1265 29.8987 15.2253 29.4879 15.3663C28.8173 15.6011 28.2224 16.0177 27.7672 16.5711L27.7377 16.6066C27.3243 17.141 27.0892 17.7956 27.0666 18.4753C27.0218 19.2241 27.2418 19.9644 27.6867 20.5625L27.7216 20.609C28.1329 21.1206 28.6675 21.515 29.2732 21.7537C29.8738 21.9849 30.4913 22.1676 31.1201 22.3001C31.5791 22.4039 31.8717 22.4749 32.1348 22.5514H32.1643C32.5052 22.6389 32.7925 22.7181 33.0421 22.7946C33.3332 22.8819 33.6106 23.0107 33.8663 23.1771C34.0189 23.2802 34.1472 23.4164 34.2421 23.5759C34.3391 23.7721 34.3853 23.9903 34.3763 24.2098C34.3763 24.2261 34.3763 24.2425 34.3763 24.2589C34.3855 24.5242 34.3112 24.7855 34.1642 25.0048C33.9508 25.3075 33.6536 25.5386 33.3106 25.6686C32.7895 25.8717 32.2333 25.9647 31.6758 25.9418H31.6086C31.004 25.9605 30.4038 25.8312 29.8584 25.5648C29.5887 25.4166 29.3577 25.2049 29.1846 24.9474V24.9474C28.8483 24.4535 28.168 24.3343 27.6799 24.6791V24.6791C27.1989 25.0189 27.0746 25.6846 27.4061 26.1714L27.4209 26.1932C27.7945 26.7441 28.2925 27.1956 28.8732 27.51L28.9027 27.5237C29.4854 27.811 30.1101 28.0001 30.7523 28.0837V29.2393C30.7523 29.8323 31.2331 30.313 31.8261 30.313V30.313C32.4191 30.313 32.8999 29.8323 32.8999 29.2393V28.0346C33.3077 27.9619 33.7072 27.8465 34.0917 27.6903C34.8159 27.4094 35.4444 26.9206 35.9011 26.2833C36.2651 25.7331 36.4775 25.0937 36.5162 24.4316C36.5549 23.7695 36.4185 23.1089 36.1212 22.5186L36.1024 22.4913Z" fill="#97AAD6"></path><path fill-rule="evenodd" clip-rule="evenodd" d="M31.6658 34.0598C38.5633 34.0598 44.1549 28.4682 44.1549 21.5707C44.1549 14.6731 38.5633 9.08152 31.6658 9.08152C24.7682 9.08152 19.1766 14.6731 19.1766 21.5707C19.1766 28.4682 24.7682 34.0598 31.6658 34.0598ZM31.6658 36.1413C39.7129 36.1413 46.2364 29.6178 46.2364 21.5707C46.2364 13.5235 39.7129 7 31.6658 7C23.6186 7 17.0951 13.5235 17.0951 21.5707C17.0951 29.6178 23.6186 36.1413 31.6658 36.1413Z" fill="#97AAD6"></path><circle cx="13.2111" cy="51.9842" r="2.13821" fill="#97AAD6"></circle></svg> 