<?xml version="1.0" encoding="UTF-8"?> <svg xmlns="http://www.w3.org/2000/svg" width="63" height="63" viewBox="0 0 63 63" fill="none"><rect x="3.11807" y="15.0361" width="56.7242" height="32.9277" fill="#EEF4FF" stroke="#97AAD6" stroke-width="2"></rect><rect x="10.0054" y="36.9711" width="44.9735" height="2.16007" fill="#97AAD6"></rect><rect x="10.0054" y="25.0001" width="8.9942" height="8.95287" fill="#97AAD6"></rect><mask id="path-4-inside-1_1824_412" fill="white"><ellipse cx="47.8628" cy="21.7601" rx="3.2045" ry="3.2401"></ellipse></mask><ellipse cx="47.8628" cy="21.7601" rx="3.2045" ry="3.2401" fill="#333333"></ellipse><path d="M47.4273 21.7601C47.4273 21.5773 47.5845 21.3602 47.8628 21.3602V28.6402C51.6807 28.6402 54.7073 25.5219 54.7073 21.7601H47.4273ZM47.8628 21.3602C48.1411 21.3602 48.2983 21.5773 48.2983 21.7601H41.0183C41.0183 25.5219 44.0449 28.6402 47.8628 28.6402V21.3602ZM48.2983 21.7601C48.2983 21.943 48.1411 22.16 47.8628 22.16V14.88C44.0449 14.88 41.0183 17.9984 41.0183 21.7601H48.2983ZM47.8628 22.16C47.5845 22.16 47.4273 21.943 47.4273 21.7601H54.7073C54.7073 17.9984 51.6807 14.88 47.8628 14.88V22.16Z" fill="#97AAD6" mask="url(#path-4-inside-1_1824_412)"></path><ellipse cx="52.1358" cy="21.7601" rx="3.2045" ry="3.2401" fill="white"></ellipse></svg> 