<?xml version="1.0" encoding="UTF-8"?> <svg xmlns="http://www.w3.org/2000/svg" width="650" height="550" viewBox="0 0 650 550" fill="none"><g clip-path="url(#clip0)"><g opacity="0.4"><path opacity="0.4" d="M75.6766 160.363C81.5732 160.363 86.3532 155.581 86.3532 149.682C86.3532 143.782 81.5732 139 75.6766 139C69.7801 139 65 143.782 65 149.682C65 155.581 69.7801 160.363 75.6766 160.363Z" fill="#262F63"></path><path d="M79.6302 150.964C79.3818 150.521 79.0414 150.146 78.6353 149.867C78.2399 149.594 77.8103 149.383 77.3594 149.24C77.1106 149.158 76.8097 149.073 76.4665 148.974C76.1904 148.892 75.8894 148.815 75.4243 148.709C74.9423 148.6 74.4691 148.451 74.0091 148.262C73.7844 148.165 73.5855 148.01 73.4296 147.811C73.3021 147.633 73.2393 147.413 73.253 147.189C73.253 147.155 73.253 147.123 73.253 147.088C73.2628 146.9 73.3242 146.719 73.4296 146.568C73.6164 146.325 73.8615 146.142 74.1385 146.037C74.5946 145.872 75.0751 145.798 75.5562 145.819C75.929 145.819 76.3002 145.871 76.6605 145.973C76.8992 146.045 77.124 146.162 77.3245 146.318C77.4519 146.416 77.5607 146.538 77.6454 146.679L78.1851 147.572L79.859 146.422L79.3193 145.529C79.1008 145.165 78.8198 144.847 78.491 144.594C78.1034 144.293 77.6689 144.067 77.2076 143.927C77.0283 143.873 76.8465 143.829 76.6629 143.795V141.569H74.6732V143.75C74.2747 143.803 73.8823 143.899 73.5017 144.036C72.8804 144.265 72.3292 144.67 71.9075 145.208L71.8801 145.242C71.4971 145.762 71.2793 146.398 71.2583 147.059C71.2168 147.787 71.4206 148.507 71.8328 149.089L71.8652 149.134C72.2463 149.631 72.7416 150.015 73.3028 150.247C73.8592 150.471 74.4314 150.649 75.0139 150.778C75.4393 150.879 75.7104 150.948 75.9541 151.022H75.9815C76.2973 151.107 76.5635 151.184 76.7948 151.259C77.0644 151.344 77.3215 151.469 77.5583 151.631C77.6997 151.731 77.8187 151.863 77.9065 152.018C77.9965 152.209 78.0393 152.421 78.0309 152.635C78.0309 152.651 78.0309 152.667 78.0309 152.682C78.0394 152.94 77.9706 153.194 77.8344 153.408C77.6367 153.702 77.3613 153.927 77.0435 154.053C76.5607 154.251 76.0453 154.341 75.5288 154.319H75.4666C74.9064 154.337 74.3503 154.211 73.845 153.952C73.5951 153.808 73.3811 153.602 73.2207 153.352L72.6536 152.478L71.0195 153.689L71.5866 154.563C71.9327 155.099 72.3942 155.538 72.9322 155.843L72.9595 155.857C73.4994 156.136 74.0782 156.32 74.6732 156.401V158.569H76.6629V156.353C77.0409 156.283 77.4109 156.171 77.7673 156.019C78.4382 155.746 79.0205 155.27 79.4436 154.651C79.7809 154.116 79.9777 153.494 80.0136 152.85C80.0494 152.207 79.923 151.564 79.6476 150.99L79.6302 150.964Z" fill="white"></path><path opacity="0.4" d="M147.506 73.0271C156.07 73.0271 163.012 66.0815 163.012 57.5136C163.012 48.9457 156.07 42 147.506 42C138.942 42 132 48.9457 132 57.5136C132 66.0815 138.942 73.0271 147.506 73.0271Z" fill="url(#paint0_linear)"></path><path d="M154.12 58.8629C153.734 58.1602 153.204 57.564 152.572 57.1206C151.957 56.688 151.289 56.3528 150.588 56.125C150.201 55.9942 149.733 55.8592 149.199 55.7031C148.769 55.5723 148.301 55.45 147.577 55.2812C146.828 55.1086 146.092 54.8716 145.376 54.5725C145.027 54.4169 144.717 54.1707 144.475 53.8553C144.276 53.5735 144.179 53.2226 144.2 52.8681C144.2 52.8133 144.2 52.7626 144.2 52.7078C144.215 52.4088 144.311 52.1212 144.475 51.8809C144.765 51.4959 145.146 51.2042 145.577 51.0372C146.287 50.776 147.034 50.6587 147.783 50.6912C148.362 50.6913 148.94 50.7735 149.5 50.9359C149.872 51.0507 150.221 51.2364 150.533 51.4843C150.731 51.6396 150.901 51.8343 151.032 52.0581L151.872 53.4756L154.476 51.6489L153.636 50.2314C153.296 49.6523 152.859 49.1484 152.348 48.7464C151.745 48.2679 151.069 47.9094 150.352 47.6875C150.073 47.6015 149.79 47.5311 149.504 47.4765V43.9412H146.409V47.4048C145.789 47.4902 145.179 47.6428 144.587 47.8604C143.62 48.223 142.763 48.8663 142.107 49.7209L142.064 49.7758C141.469 50.6009 141.13 51.6118 141.097 52.6614C141.032 53.8176 141.349 54.9609 141.991 55.8845L142.041 55.9562C142.634 56.7463 143.404 57.3553 144.277 57.7239C145.143 58.0809 146.033 58.363 146.939 58.5676C147.601 58.7279 148.022 58.8376 148.402 58.9558H148.444C148.935 59.0908 149.349 59.2131 149.709 59.3312C150.129 59.4661 150.529 59.665 150.897 59.9218C151.117 60.0811 151.302 60.2915 151.439 60.5378C151.579 60.8407 151.645 61.1776 151.632 61.5165C151.632 61.5418 151.632 61.5672 151.632 61.5925C151.645 62.0021 151.538 62.4056 151.327 62.7442C151.019 63.2117 150.591 63.5686 150.096 63.7693C149.345 64.0829 148.544 64.2265 147.74 64.1912H147.643C146.772 64.2201 145.907 64.0204 145.121 63.609C144.732 63.3801 144.399 63.0532 144.15 62.6556L143.267 61.2676L140.726 63.1914L141.608 64.5793C142.146 65.43 142.864 66.1274 143.701 66.6128L143.743 66.6339C144.583 67.0775 145.483 67.3696 146.409 67.4987V70.9412H149.504V67.4228C150.092 67.3106 150.668 67.1325 151.222 66.8912C152.266 66.4574 153.172 65.7026 153.83 64.7186C154.354 63.869 154.661 62.8815 154.716 61.8591C154.772 60.8366 154.576 59.8166 154.147 58.9051L154.12 58.8629Z" fill="white"></path><path opacity="0.4" d="M582.492 167.013C599.332 167.013 612.984 153.355 612.984 136.506C612.984 119.658 599.332 106 582.492 106C565.652 106 552 119.658 552 136.506C552 153.355 565.652 167.013 582.492 167.013Z" fill="url(#paint1_linear)"></path><path d="M594.918 140.08C594.229 138.805 593.283 137.723 592.155 136.918C591.057 136.133 589.863 135.525 588.611 135.111C587.92 134.874 587.084 134.629 586.13 134.346C585.363 134.108 584.528 133.886 583.236 133.58C581.897 133.267 580.582 132.837 579.304 132.294C578.68 132.011 578.128 131.565 577.695 130.992C577.34 130.481 577.166 129.844 577.204 129.201C577.204 129.101 577.204 129.009 577.204 128.91C577.231 128.367 577.402 127.845 577.695 127.409C578.214 126.71 578.894 126.181 579.664 125.878C580.931 125.404 582.265 125.191 583.602 125.25C584.637 125.25 585.668 125.399 586.669 125.694C587.332 125.902 587.957 126.239 588.514 126.689C588.868 126.971 589.17 127.324 589.405 127.731L590.904 130.303L595.554 126.988L594.055 124.415C593.448 123.364 592.667 122.45 591.754 121.72C590.677 120.852 589.47 120.202 588.189 119.799C587.691 119.643 587.186 119.515 586.676 119.416V113H581.149V119.286C580.042 119.441 578.952 119.718 577.895 120.113C576.169 120.771 574.638 121.938 573.466 123.489L573.39 123.589C572.327 125.086 571.722 126.921 571.663 128.825C571.548 130.924 572.114 132.999 573.259 134.675L573.349 134.805C574.408 136.239 575.783 137.344 577.342 138.013C578.888 138.661 580.477 139.173 582.096 139.544C583.277 139.835 584.03 140.034 584.707 140.249H584.783C585.661 140.494 586.4 140.716 587.042 140.93C587.791 141.175 588.505 141.536 589.163 142.002C589.556 142.291 589.886 142.673 590.131 143.12C590.38 143.67 590.499 144.281 590.476 144.896C590.476 144.942 590.476 144.988 590.476 145.034C590.5 145.777 590.308 146.509 589.93 147.124C589.381 147.972 588.616 148.62 587.733 148.984C586.392 149.553 584.961 149.814 583.526 149.75H583.353C581.797 149.802 580.252 149.44 578.848 148.693C578.154 148.278 577.56 147.685 577.114 146.963L575.539 144.444L571 147.935L572.575 150.454C573.537 151.998 574.818 153.264 576.313 154.145L576.389 154.183C577.889 154.988 579.496 155.518 581.149 155.752V162H586.676V155.615C587.726 155.411 588.754 155.088 589.744 154.65C591.607 153.863 593.225 152.493 594.4 150.707C595.337 149.165 595.884 147.373 595.983 145.518C596.083 143.662 595.732 141.811 594.967 140.157L594.918 140.08Z" fill="white"></path><path d="M416.104 100.663C417.494 100.663 418.884 100.663 420.275 100.663C422.804 100.663 425.333 100.663 427.862 100.663C429.078 100.663 430.294 100.663 431.51 100.663C432.717 100.663 433.725 99.6553 433.725 98.4477C433.725 97.2401 432.717 96.2324 431.51 96.2324C430.12 96.2324 428.729 96.2324 427.339 96.2324C424.81 96.2324 422.281 96.2324 419.752 96.2324C418.536 96.2324 417.32 96.2324 416.104 96.2324C414.896 96.2324 413.889 97.2401 413.889 98.4477C413.889 99.6553 414.896 100.663 416.104 100.663Z" fill="#E0E7FC"></path></g><path opacity="0.34" d="M338.676 522.468C472.151 522.468 580.353 513.857 580.353 503.234C580.353 492.611 472.151 484 338.676 484C205.202 484 97 492.611 97 503.234C97 513.857 205.202 522.468 338.676 522.468Z" fill="#0A0A0A"></path><rect width="311.972" height="139.731" rx="5.61167" transform="matrix(-0.769156 -0.639061 -0.639061 0.769156 394.363 315.622)" fill="#262F63"></rect><path fill-rule="evenodd" clip-rule="evenodd" d="M374.256 339.822L325.739 398.216C311.787 394.951 296.809 397.782 284.877 406.322L84.0134 239.433C89.9495 226.723 90.2467 212.233 85.2239 199.521L133.027 141.986C147.177 144.924 162.25 141.654 174.055 132.577L373.249 298.079C367.512 311.567 367.97 326.852 374.256 339.822Z" fill="#262F63"></path><ellipse rx="50.2281" ry="50.505" transform="matrix(-0.769156 -0.639061 -0.639061 0.769156 229.701 269.281)" fill="#262F63"></ellipse><path fill-rule="evenodd" clip-rule="evenodd" d="M208.022 273.838L204.203 270.665C202.695 269.412 200.387 269.632 199.127 271.148C197.868 272.663 198.075 274.973 199.582 276.225L200.195 276.735L206.36 281.857L215.858 289.748L224.573 296.989L228.377 300.15C228.383 300.154 228.388 300.159 228.393 300.163L228.393 300.163C229.9 301.415 232.209 301.195 233.468 299.68C234.735 298.155 234.51 295.867 233.013 294.602C233.008 294.598 233.004 294.594 232.999 294.59C232.966 294.544 232.934 294.497 232.902 294.449C232.845 294.304 232.793 294.156 232.748 294.006C232.695 293.647 232.669 293.286 232.665 292.924C232.728 292.195 232.863 291.475 233.053 290.768C233.434 289.652 233.938 288.583 234.536 287.567C235.341 286.365 236.287 285.249 237.226 284.141C237.504 283.814 237.781 283.487 238.053 283.159L240.306 280.448L242.882 282.588C244.389 283.841 246.698 283.621 247.957 282.105C249.217 280.59 249.01 278.28 247.502 277.027L244.926 274.887L245.639 274.029L252.017 266.353C252.932 265.252 253.761 264.131 254.509 262.9C256.298 259.953 257.073 256.501 257.059 253.085C257.044 249.693 255.983 246.338 254.224 243.464C253.313 241.977 252.14 240.622 250.852 239.453C249.398 238.132 247.679 237.015 245.876 236.234C244.104 235.467 242.168 234.92 240.237 234.759C239.144 234.667 238.031 234.628 236.935 234.707C235.828 234.787 234.76 235.009 233.679 235.259C229.822 236.152 226.29 238.476 223.756 241.505C222.491 243.017 222.708 245.334 224.211 246.583C225.722 247.839 228.022 247.611 229.286 246.1C229.623 245.698 229.977 245.313 230.35 244.945C231.133 244.271 231.978 243.677 232.878 243.17C233.785 242.736 234.729 242.39 235.702 242.137C236.684 241.948 237.679 241.853 238.678 241.854C239.679 241.919 240.668 242.081 241.637 242.337C242.611 242.665 243.547 243.089 244.436 243.604C245.302 244.189 246.107 244.857 246.84 245.602C247.507 246.38 248.094 247.221 248.594 248.116C249.025 249.022 249.366 249.968 249.613 250.941C249.796 251.922 249.886 252.916 249.88 253.914C249.809 254.919 249.642 255.913 249.38 256.886C249.046 257.863 248.617 258.803 248.097 259.696C247.822 260.104 247.53 260.5 247.216 260.879C246.279 262.014 245.337 263.145 244.396 264.277C243.934 264.831 243.473 265.385 243.013 265.939L239.396 270.292L233.478 265.376L228.272 261.05C226.765 259.798 224.456 260.017 223.197 261.533C221.938 263.049 222.145 265.358 223.652 266.611L228.205 270.394L234.776 275.853L230.235 281.318C228.396 283.532 226.951 286.121 226.135 288.888L216.738 281.08L208.022 273.838Z" fill="#262F63"></path><rect width="298.35" height="139.731" rx="5.61167" transform="matrix(-0.612271 -0.790648 -0.790648 0.612271 382.532 352.535)" fill="#262F63"></rect><path fill-rule="evenodd" clip-rule="evenodd" d="M357.657 371.798L297.631 418.282C285.061 412.512 270.085 412.363 256.685 418.24L103.773 220.78C112.419 209.783 116.093 196.014 114.267 182.929L173.409 137.13C186.244 142.626 201.414 142.375 214.818 135.959L366.459 331.779C357.821 343.556 354.684 358.227 357.657 371.798Z" fill="#262F63"></path><ellipse rx="48.0348" ry="50.505" transform="matrix(-0.612271 -0.790648 -0.790648 0.612271 236.016 276.984)" fill="#262F63"></ellipse><path fill-rule="evenodd" clip-rule="evenodd" d="M214.232 277.206L211.324 273.451C210.176 271.97 207.919 271.74 206.361 272.946C204.803 274.153 204.46 276.396 205.608 277.878L206.074 278.48L210.768 284.541L217.998 293.877L224.633 302.445L227.529 306.185C227.532 306.19 227.536 306.195 227.54 306.2L227.54 306.2C228.688 307.682 230.945 307.911 232.503 306.705C234.071 305.491 234.391 303.265 233.256 301.773C233.253 301.769 233.249 301.764 233.246 301.759C233.225 301.709 233.205 301.658 233.186 301.607C233.165 301.457 233.151 301.306 233.143 301.154C233.176 300.802 233.236 300.453 233.316 300.106C233.547 299.422 233.845 298.761 234.192 298.123C234.817 297.131 235.548 296.207 236.358 295.351C237.408 294.357 238.573 293.472 239.73 292.594C240.072 292.335 240.413 292.076 240.75 291.815L243.537 289.656L245.499 292.189C246.646 293.671 248.904 293.901 250.462 292.694C252.02 291.488 252.362 289.245 251.215 287.763L249.253 285.23L250.135 284.547L258.026 278.436C259.158 277.56 260.212 276.649 261.215 275.616C263.615 273.145 265.163 269.998 265.948 266.736C266.728 263.497 266.498 260.094 265.489 257.017C264.967 255.425 264.163 253.909 263.206 252.548C262.125 251.012 260.743 249.618 259.203 248.53C257.69 247.461 255.967 246.571 254.159 246.049C253.137 245.754 252.082 245.505 251.016 245.372C249.939 245.238 248.867 245.245 247.775 245.279C243.88 245.397 239.962 246.942 236.831 249.35C235.269 250.552 234.934 252.804 236.078 254.282C237.229 255.767 239.48 255.988 241.042 254.787C241.457 254.467 241.886 254.167 242.328 253.887C243.234 253.393 244.181 252.987 245.159 252.675C246.127 252.432 247.111 252.283 248.099 252.226C249.082 252.232 250.056 252.331 251.01 252.522C251.951 252.775 252.859 253.117 253.724 253.546C254.578 254.045 255.374 254.628 256.103 255.288C256.794 256.011 257.407 256.802 257.933 257.652C258.389 258.521 258.753 259.435 259.022 260.384C259.221 261.331 259.325 262.298 259.334 263.274C259.28 264.244 259.133 265.21 258.893 266.161C258.591 267.106 258.199 268.023 257.721 268.901C257.173 269.77 256.543 270.586 255.837 271.339C255.479 271.676 255.107 271.998 254.719 272.3C253.558 273.205 252.393 274.105 251.228 275.005C250.658 275.446 250.088 275.887 249.518 276.328L245.043 279.793L240.539 273.976L236.576 268.859C235.428 267.377 233.171 267.147 231.613 268.354C230.055 269.56 229.712 271.803 230.86 273.285L234.326 277.761L239.327 284.22L233.709 288.57C231.434 290.332 229.447 292.528 228.02 295.012L220.867 285.774L214.232 277.206Z" fill="#262F63"></path><rect width="313.692" height="139.731" rx="5.61167" transform="matrix(-0.833879 -0.551948 -0.551948 0.833879 372.982 301.459)" fill="#262F63"></rect><path fill-rule="evenodd" clip-rule="evenodd" d="M355.617 327.695L313.713 391.002C299.43 389.229 284.802 393.637 273.848 403.408L54.8823 258.474C59.3897 245.185 58.0736 230.721 51.6479 218.591L92.9352 156.215C107.378 157.641 122.052 152.786 132.819 142.493L349.965 286.223C345.742 300.266 347.902 315.442 355.617 327.695Z" fill="url(#paint2_linear)"></path><circle r="50.505" transform="matrix(-0.833879 -0.551948 -0.551948 0.833879 203.551 272.758)" fill="#262F63"></circle><rect x="263.311" y="315.622" width="311.972" height="139.731" rx="5.61167" transform="rotate(-39.7218 263.311 315.622)" fill="#262F63"></rect><path fill-rule="evenodd" clip-rule="evenodd" d="M283.417 339.822L331.935 398.216C345.887 394.951 360.864 397.782 372.797 406.322L573.66 239.433C567.724 226.723 567.427 212.233 572.45 199.521L524.646 141.986C510.497 144.924 495.423 141.654 483.619 132.577L284.425 298.079C290.162 311.567 289.704 326.852 283.417 339.822Z" fill="#262F63"></path><ellipse cx="427.973" cy="269.281" rx="50.2281" ry="50.505" transform="rotate(-39.7218 427.973 269.281)" fill="#262F63"></ellipse><path fill-rule="evenodd" clip-rule="evenodd" d="M449.652 273.838L453.471 270.665C454.979 269.412 457.287 269.632 458.546 271.148C459.806 272.663 459.599 274.973 458.091 276.225L457.478 276.735L451.314 281.857L441.816 289.748L433.101 296.989L429.296 300.15C429.291 300.154 429.286 300.159 429.281 300.163L429.281 300.163C427.774 301.415 425.465 301.195 424.206 299.68C422.938 298.155 423.164 295.867 424.661 294.602C424.665 294.598 424.67 294.594 424.675 294.59C424.708 294.544 424.74 294.497 424.772 294.449C424.829 294.304 424.88 294.156 424.926 294.006C424.978 293.647 425.004 293.286 425.009 292.924C424.946 292.195 424.81 291.475 424.621 290.768C424.24 289.652 423.736 288.583 423.138 287.567C422.333 286.365 421.387 285.249 420.448 284.141C420.17 283.814 419.893 283.487 419.621 283.159L417.368 280.448L414.792 282.588C413.284 283.841 410.976 283.621 409.716 282.105C408.457 280.59 408.664 278.28 410.172 277.027L412.748 274.887L412.035 274.029L405.657 266.353C404.742 265.252 403.913 264.131 403.165 262.9C401.375 259.953 400.6 256.501 400.615 253.085C400.63 249.693 401.691 246.338 403.45 243.464C404.36 241.977 405.534 240.622 406.822 239.453C408.276 238.132 409.995 237.015 411.798 236.234C413.569 235.467 415.506 234.92 417.437 234.759C418.53 234.667 419.643 234.628 420.739 234.707C421.846 234.787 422.914 235.009 423.995 235.259C427.852 236.152 431.384 238.476 433.918 241.505C435.182 243.017 434.966 245.334 433.463 246.583C431.952 247.839 429.652 247.611 428.388 246.1C428.051 245.698 427.697 245.313 427.324 244.945C426.541 244.271 425.696 243.677 424.796 243.17C423.889 242.736 422.945 242.39 421.972 242.137C420.99 241.948 419.995 241.853 418.996 241.854C417.995 241.919 417.006 242.081 416.037 242.337C415.063 242.665 414.127 243.089 413.238 243.604C412.371 244.189 411.567 244.857 410.834 245.602C410.167 246.38 409.579 247.221 409.079 248.116C408.649 249.022 408.308 249.968 408.061 250.941C407.877 251.922 407.788 252.916 407.794 253.914C407.865 254.919 408.032 255.913 408.294 256.886C408.627 257.863 409.057 258.803 409.577 259.696C409.851 260.104 410.144 260.5 410.457 260.879C411.395 262.014 412.336 263.145 413.278 264.277C413.739 264.831 414.2 265.385 414.661 265.939L418.278 270.292L424.195 265.376L429.402 261.05C430.909 259.798 433.218 260.017 434.477 261.533C435.736 263.049 435.529 265.358 434.022 266.611L429.469 270.394L422.898 275.853L427.439 281.318C429.278 283.532 430.723 286.121 431.539 288.888L440.936 281.08L449.652 273.838Z" fill="#262F63"></path><rect x="275.142" y="352.535" width="298.35" height="139.731" rx="5.61167" transform="rotate(-52.2461 275.142 352.535)" fill="#262F63"></rect><path fill-rule="evenodd" clip-rule="evenodd" d="M300.017 371.798L360.043 418.282C372.613 412.512 387.588 412.363 400.989 418.24L553.901 220.78C545.255 209.783 541.581 196.014 543.407 182.929L484.265 137.13C471.43 142.626 456.26 142.375 442.856 135.959L291.215 331.779C299.853 343.556 302.99 358.227 300.017 371.798Z" fill="#262F63"></path><ellipse cx="421.657" cy="276.984" rx="48.0348" ry="50.505" transform="rotate(-52.2461 421.657 276.984)" fill="#262F63"></ellipse><path fill-rule="evenodd" clip-rule="evenodd" d="M443.442 277.206L446.35 273.451C447.497 271.97 449.755 271.74 451.313 272.946C452.871 274.153 453.213 276.396 452.066 277.878L451.599 278.48L446.906 284.541L439.676 293.877L433.041 302.445L430.145 306.185C430.141 306.19 430.138 306.195 430.134 306.2L430.134 306.2C428.986 307.682 426.728 307.911 425.17 306.705C423.603 305.491 423.283 303.265 424.417 301.773C424.421 301.769 424.424 301.764 424.428 301.759C424.449 301.709 424.469 301.658 424.487 301.607C424.509 301.457 424.523 301.306 424.531 301.154C424.498 300.802 424.438 300.453 424.358 300.106C424.127 299.422 423.829 298.761 423.482 298.123C422.857 297.131 422.126 296.207 421.316 295.351C420.266 294.357 419.101 293.472 417.944 292.594C417.602 292.335 417.261 292.076 416.924 291.815L414.137 289.656L412.175 292.189C411.028 293.671 408.77 293.901 407.212 292.694C405.654 291.488 405.311 289.245 406.459 287.763L408.421 285.23L407.539 284.547L399.648 278.436C398.516 277.56 397.461 276.649 396.458 275.616C394.059 273.145 392.511 269.998 391.726 266.736C390.946 263.497 391.175 260.094 392.184 257.017C392.706 255.425 393.511 253.909 394.468 252.548C395.549 251.012 396.931 249.618 398.471 248.53C399.984 247.461 401.707 246.571 403.515 246.049C404.537 245.754 405.592 245.505 406.658 245.372C407.734 245.238 408.807 245.245 409.898 245.279C413.793 245.397 417.712 246.942 420.842 249.35C422.404 250.552 422.74 252.804 421.595 254.282C420.445 255.767 418.194 255.988 416.632 254.787C416.217 254.467 415.788 254.167 415.346 253.887C414.44 253.393 413.493 252.987 412.515 252.675C411.546 252.432 410.563 252.283 409.574 252.226C408.592 252.232 407.618 252.331 406.664 252.522C405.723 252.775 404.815 253.117 403.949 253.546C403.095 254.045 402.3 254.628 401.571 255.288C400.88 256.011 400.267 256.802 399.741 257.652C399.285 258.521 398.921 259.435 398.652 260.384C398.453 261.331 398.349 262.298 398.34 263.274C398.394 264.244 398.541 265.21 398.78 266.161C399.083 267.106 399.475 268.023 399.953 268.901C400.501 269.77 401.131 270.586 401.837 271.339C402.195 271.676 402.567 271.998 402.955 272.3C404.116 273.205 405.281 274.105 406.446 275.005C407.016 275.446 407.586 275.887 408.156 276.328L412.631 279.793L417.135 273.976L421.098 268.859C422.246 267.377 424.503 267.147 426.061 268.354C427.619 269.56 427.962 271.803 426.814 273.285L423.348 277.761L418.347 284.22L423.964 288.57C426.24 290.332 428.226 292.528 429.653 295.012L436.807 285.774L443.442 277.206Z" fill="#262F63"></path><rect x="284.691" y="301.459" width="313.692" height="139.731" rx="5.61167" transform="rotate(-33.5007 284.691 301.459)" fill="#262F63"></rect><path fill-rule="evenodd" clip-rule="evenodd" d="M302.057 327.695L343.96 391.002C358.244 389.229 372.872 393.637 383.826 403.408L602.792 258.474C598.284 245.185 599.6 230.721 606.026 218.591L564.739 156.215C550.296 157.641 535.621 152.786 524.855 142.493L307.709 286.223C311.931 300.266 309.772 315.442 302.057 327.695Z" fill="url(#paint3_linear)"></path><circle cx="454.123" cy="272.758" r="50.505" transform="rotate(-33.5007 454.123 272.758)" fill="#262F63"></circle><line x1="323.171" y1="36" x2="323.171" y2="153.135" stroke="#F5C17B" stroke-width="3" stroke-dasharray="18 18"></line><line x1="364.618" y1="91.0519" x2="364.618" y2="178.452" stroke="#F5C17B" stroke-width="3" stroke-dasharray="18 18"></line><line x1="277.218" y1="65.8228" x2="277.218" y2="186.562" stroke="#F5C17B" stroke-width="3" stroke-dasharray="18 18"></line><path d="M243.502 491.032C244.411 482.514 228.989 467.068 221.165 460.41C244.997 459.842 288.725 460.154 272.983 465.941C263.811 469.312 262.266 477.391 263.628 485.348C264.872 492.619 260.327 500.892 253.144 499.212C247.487 497.889 243.035 495.409 243.502 491.032Z" fill="#262F63"></path><path d="M402.719 496.705C401.809 488.187 417.232 472.741 425.056 466.083C401.224 465.515 357.496 465.827 373.238 471.614C384.714 475.832 384.25 487.422 381.09 496.921C379.635 501.296 382.479 506.333 387.065 505.859C395.158 505.023 403.344 502.563 402.719 496.705Z" fill="#262F63"></path><path d="M469.313 235.759L453.592 254.804C449.257 260.056 451.153 267.997 457.394 270.722L479.634 280.436C487.336 283.8 495.591 276.975 493.733 268.778L487.214 240.019C485.332 231.715 474.734 229.194 469.313 235.759Z" fill="#E8A341"></path><path d="M156.835 368.463C100.194 361.114 106.023 291.815 131.5 300.5C163 311.239 129.5 366 95.5001 336.5C80.5168 323.5 82.0801 306.92 93.0002 296" stroke="#F5C17B" stroke-width="13.4715" stroke-linecap="round"></path><path fill-rule="evenodd" clip-rule="evenodd" d="M240.42 258.548C189.692 258.548 148.569 299.671 148.569 350.399V377.342C148.569 428.069 189.693 469.193 240.42 469.193H430.858C467.437 469.193 499.022 447.81 513.795 416.863C515.621 413.04 519.371 410.408 523.608 410.408H541.079C562.046 410.408 579.044 393.41 579.044 372.443V360.196C579.044 339.228 562.047 322.231 541.079 322.231H525.778C521.327 322.231 517.438 319.333 515.732 315.222C501.927 281.949 469.125 258.548 430.858 258.548H240.42Z" fill="url(#paint4_linear)"></path><ellipse cx="550.876" cy="366.626" rx="29.3923" ry="41.9453" fill="#E8A341"></ellipse><path d="M220.682 493.68C221.259 488.277 216.728 480.707 210.78 473.394C204.84 466.091 209.396 453.98 218.81 454.04C246.396 454.216 273.683 455.856 258.614 461.395C245.338 466.275 244.481 478.821 247.397 490.186C249.316 497.66 244.545 506.164 236.924 504.95C227.947 503.519 219.978 500.271 220.682 493.68Z" fill="#F5C17C"></path><path d="M425.539 500.979C424.962 495.576 429.492 488.006 435.441 480.693C441.381 473.39 436.825 461.279 427.411 461.339C399.824 461.515 372.537 463.156 387.607 468.695C400.883 473.574 401.74 486.12 398.823 497.485C396.905 504.96 401.676 513.463 409.296 512.249C418.273 510.818 426.242 507.571 425.539 500.979Z" fill="#F5C17C"></path><rect x="267.362" y="260.384" width="113.283" height="17.1455" rx="8.57276" fill="#262F63"></rect><path d="M438.237 241.11L450.782 258.937C455.251 265.288 453.443 274.093 446.832 278.168L427.552 290.053C417.385 296.32 404.693 287.247 407.333 275.599L414.068 245.887C416.65 234.495 431.514 231.556 438.237 241.11Z" fill="#E8A341"></path><path d="M436.556 252.334L446.727 266.788C450.35 271.937 448.884 279.075 443.524 282.379L427.893 292.015C419.651 297.096 409.361 289.74 411.501 280.296L416.961 256.208C419.055 246.971 431.105 244.589 436.556 252.334Z" fill="#262F63"></path><path fill-rule="evenodd" clip-rule="evenodd" d="M475.076 309.066C473.295 316.274 466.784 321.619 459.025 321.619C451.267 321.619 444.756 316.274 442.974 309.066C442.659 310.34 442.492 311.674 442.492 313.046C442.492 322.177 449.894 329.579 459.025 329.579C468.156 329.579 475.559 322.177 475.559 313.046C475.559 311.674 475.391 310.34 475.076 309.066Z" fill="#262F63"></path><ellipse cx="537.405" cy="374.892" rx="4.89872" ry="12.2468" fill="#262F63"></ellipse><ellipse cx="568.634" cy="374.892" rx="4.89872" ry="12.2468" fill="#262F63"></ellipse><circle cx="320.95" cy="220.982" r="51.5396" fill="white"></circle><path d="M332.918 225.08C332.229 223.805 331.283 222.723 330.155 221.918C329.057 221.133 327.863 220.525 326.611 220.111C325.92 219.874 325.084 219.629 324.13 219.346C323.363 219.108 322.528 218.886 321.236 218.58C319.897 218.267 318.582 217.837 317.304 217.294C316.68 217.011 316.128 216.565 315.695 215.992C315.34 215.481 315.166 214.844 315.204 214.201C315.204 214.101 315.204 214.009 315.204 213.91C315.231 213.367 315.402 212.845 315.695 212.409C316.214 211.71 316.894 211.181 317.664 210.878C318.931 210.404 320.265 210.191 321.602 210.25C322.637 210.25 323.668 210.399 324.669 210.694C325.332 210.902 325.957 211.239 326.514 211.689C326.868 211.971 327.17 212.324 327.405 212.731L328.904 215.303L333.554 211.988L332.055 209.415C331.448 208.364 330.667 207.45 329.754 206.72C328.677 205.852 327.47 205.202 326.189 204.799C325.691 204.643 325.186 204.515 324.676 204.416V198H319.149V204.286C318.042 204.441 316.952 204.718 315.895 205.113C314.169 205.771 312.638 206.938 311.466 208.489L311.39 208.589C310.327 210.086 309.722 211.921 309.663 213.825C309.548 215.924 310.114 217.999 311.259 219.675L311.349 219.805C312.408 221.239 313.783 222.344 315.342 223.013C316.888 223.661 318.477 224.173 320.096 224.544C321.277 224.835 322.03 225.034 322.707 225.249H322.783C323.661 225.494 324.4 225.716 325.042 225.93C325.791 226.175 326.505 226.536 327.163 227.002C327.556 227.291 327.886 227.673 328.131 228.12C328.38 228.67 328.499 229.281 328.476 229.896C328.476 229.942 328.476 229.988 328.476 230.034C328.5 230.777 328.308 231.509 327.93 232.124C327.381 232.972 326.616 233.62 325.733 233.984C324.392 234.553 322.961 234.814 321.526 234.75H321.353C319.797 234.802 318.252 234.44 316.848 233.693C316.154 233.278 315.56 232.685 315.114 231.963L313.539 229.444L309 232.935L310.575 235.454C311.537 236.998 312.818 238.264 314.313 239.145L314.389 239.183C315.889 239.988 317.496 240.518 319.149 240.752V247H324.676V240.615C325.726 240.411 326.754 240.088 327.744 239.65C329.607 238.863 331.225 237.493 332.4 235.707C333.337 234.165 333.884 232.373 333.983 230.518C334.083 228.662 333.732 226.811 332.967 225.157L332.918 225.08Z" fill="#61B2A9"></path><rect x="94" y="487" width="89" height="15" rx="3" fill="url(#paint5_linear)"></rect><rect x="81" y="457" width="89" height="15" rx="3" fill="url(#paint6_linear)"></rect><rect x="76" y="472" width="89" height="15" rx="3" fill="url(#paint7_linear)"></rect><path fill-rule="evenodd" clip-rule="evenodd" d="M185.587 402.749L114.909 433.722L118.514 441.947L118.515 441.947C118.515 441.948 118.516 441.948 118.516 441.949C120.064 445.482 137.141 441.413 156.658 432.86C176.175 424.307 190.742 414.509 189.193 410.976C189.186 410.958 189.177 410.941 189.169 410.923L185.587 402.749Z" fill="#E8A341"></path><ellipse cx="150.253" cy="418.236" rx="38.5831" ry="6.98487" transform="rotate(-23.6645 150.253 418.236)" fill="#F3BF75"></ellipse><ellipse cx="150.251" cy="418.235" rx="33.2613" ry="5.98703" transform="rotate(-23.6645 150.251 418.235)" fill="#E8A341"></ellipse><ellipse cx="150.657" cy="419.15" rx="31.9309" ry="4.9892" transform="rotate(-23.6645 150.657 419.15)" fill="#F3BF75"></ellipse><path fill-rule="evenodd" clip-rule="evenodd" d="M135.061 419.483L70.8574 376.676L65.8755 384.147L65.8758 384.148C65.8754 384.148 65.875 384.149 65.8747 384.149C63.7347 387.359 76.3723 399.544 94.1016 411.365C111.831 423.186 127.938 430.167 130.078 426.957C130.084 426.949 130.09 426.94 130.095 426.931L135.061 419.483Z" fill="#E8A341"></path><ellipse cx="102.962" cy="398.08" rx="38.5831" ry="6.98487" transform="rotate(33.6935 102.962 398.08)" fill="#F3BF75"></ellipse><ellipse cx="102.964" cy="398.081" rx="33.2613" ry="5.98703" transform="rotate(33.6935 102.964 398.081)" fill="#E8A341"></ellipse><ellipse cx="102.411" cy="398.912" rx="31.9309" ry="4.9892" transform="rotate(33.6935 102.411 398.912)" fill="#F3BF75"></ellipse><path fill-rule="evenodd" clip-rule="evenodd" d="M499.906 489.654C499.699 489.518 499.514 489.36 499.353 489.177C495.741 485.074 505.58 470.507 521.329 456.642C537.007 442.839 552.632 434.935 556.337 438.91L556.438 438.82L564.973 448.477L507.916 498.625L499.841 489.713L499.906 489.654Z" fill="#F3BF75"></path><ellipse cx="536.093" cy="473.291" rx="37.9936" ry="9.899" transform="rotate(-41.3598 536.093 473.291)" fill="#E8A341"></ellipse></g><defs><linearGradient id="paint0_linear" x1="132" y1="57.5136" x2="163.012" y2="57.5136" gradientUnits="userSpaceOnUse"><stop stop-color="#514975"></stop><stop offset="0.98" stop-color="#6C6491"></stop></linearGradient><linearGradient id="paint1_linear" x1="552.006" y1="136.506" x2="612.984" y2="136.506" gradientUnits="userSpaceOnUse"><stop stop-color="#514975"></stop><stop offset="0.98" stop-color="#6C6491"></stop></linearGradient><linearGradient id="paint2_linear" x1="154.57" y1="349.705" x2="254.385" y2="224.073" gradientUnits="userSpaceOnUse"><stop stop-color="#4FA39A"></stop><stop offset="0.98" stop-color="#74C0B9"></stop></linearGradient><linearGradient id="paint3_linear" x1="503.104" y1="349.705" x2="403.289" y2="224.073" gradientUnits="userSpaceOnUse"><stop stop-color="#4FA39A"></stop><stop offset="0.98" stop-color="#74C0B9"></stop></linearGradient><linearGradient id="paint4_linear" x1="364" y1="259" x2="364" y2="383" gradientUnits="userSpaceOnUse"><stop stop-color="#F4C17A"></stop><stop offset="1" stop-color="#F4C17B"></stop></linearGradient><linearGradient id="paint5_linear" x1="148.769" y1="504" x2="149.711" y2="486.373" gradientUnits="userSpaceOnUse"><stop stop-color="#E8A341"></stop><stop offset="0.98" stop-color="#F3BF75"></stop></linearGradient><linearGradient id="paint6_linear" x1="135.769" y1="474" x2="136.711" y2="456.373" gradientUnits="userSpaceOnUse"><stop stop-color="#E8A341"></stop><stop offset="0.98" stop-color="#F3BF75"></stop></linearGradient><linearGradient id="paint7_linear" x1="130.769" y1="489" x2="131.711" y2="471.373" gradientUnits="userSpaceOnUse"><stop stop-color="#E8A341"></stop><stop offset="0.98" stop-color="#F3BF75"></stop></linearGradient><clipPath id="clip0"><rect width="650" height="550" fill="white"></rect></clipPath></defs></svg> 