<svg width="48" height="48" viewBox="0 0 48 48" fill="none" xmlns="http://www.w3.org/2000/svg">
<circle cx="24" cy="24" r="17" stroke="#0075BE" stroke-width="2"/>
<path d="M13.5 37.5C12.1667 30.6667 12.7027 14.6 31.5027 9" stroke="#0079C1" stroke-width="2"/>
<path d="M9 16C10.8333 21.1667 19.2 31.9 38 33.5" stroke="#0079C1" stroke-width="2"/>
<path d="M15 9.5C15 9.5 13.0005 13.5 16.0017 17.5C19.003 21.5 23.503 21.5 29.5017 20C35.5005 18.5 41.0017 22 41.0017 22" stroke="#0079C1" stroke-width="2"/>
<path d="M7 26.5C7 26.5 8.5 26 11.5 27.5C14.5 29 16.5 31.5 20 36.5C23.5 41.4999 24.5 40.9999 24.5 40.9999" stroke="#0079C1" stroke-width="2"/>
</svg>
