<svg
  xmlns="http://www.w3.org/2000/svg"
  view-box="0 0 24 24"
  enable-background="new 0 0 48 48"
  xml-space="preserve"
  height="24"
  width="24"
>
  <path
    d="M19.4 22H4.6c-.9 0-1.6-.7-1.6-1.6V3.6C3 2.7 3.7 2 4.6 2h14.8c.9 0 1.6.7 1.6 1.6v16.9c0 .8-.7 1.5-1.6 1.5zM5 20h14V4H5v16zM19.4 4zM17 10.8H7c-.6 0-1-.4-1-1v-4c0-.6.4-1 1-1h10c.6 0 1 .4 1 1v3.9c0 .6-.4 1.1-1 1.1zm-9-2h8v-2H8v2zm0 2.6c-.5 0-.9.4-.9.9s.4.9.9.9.9-.4.9-.9-.4-.9-.9-.9zm4 0c-.5 0-.9.4-.9.9s.4.9.9.9.9-.4.9-.9-.4-.9-.9-.9zm3.1.9c0 .5.4.9.9.9s.9-.4.9-.9-.4-.9-.9-.9-.9.4-.9.9zM8 14.4c-.5 0-.9.4-.9.9s.4.9.9.9.9-.4.9-.9-.4-.9-.9-.9zm4 0c-.5 0-.9.4-.9.9s.4.9.9.9.9-.4.9-.9-.4-.9-.9-.9zm3.1.8c0 .5.4.9.9.9s.9-.4.9-.9-.4-.9-.9-.9c-.5.1-.9.5-.9.9zM8 17.4c-.5 0-.9.4-.9.9s.4.9.9.9.9-.4.9-.9-.4-.9-.9-.9zm4 0c-.5 0-.9.4-.9.9s.4.9.9.9.9-.4.9-.9-.4-.9-.9-.9zm3.1.8c0 .5.4.9.9.9s.9-.4.9-.9-.4-.9-.9-.9c-.5.1-.9.5-.9.9z"
    style="fill: #0875bb"
  />
</svg>
