<svg width="24" height="25" viewBox="0 0 24 25" fill="none" xmlns="http://www.w3.org/2000/svg">
<mask id="mask0_8967_103997" style="mask-type:alpha" maskUnits="userSpaceOnUse" x="5" y="5" width="14" height="15">
<path d="M11 7.10542C11.552 7.10542 12 7.55342 12 8.10542C12 8.65742 11.552 9.10542 11 9.10542H7V17.1054H15V13.1054C15 12.5534 15.448 12.1054 16 12.1054C16.552 12.1054 17 12.5534 17 13.1054V18.1054C17 18.6574 16.552 19.1054 16 19.1054H6C5.448 19.1054 5 18.6574 5 18.1054V8.10542C5 7.55342 5.448 7.10542 6 7.10542H11ZM17.896 5.16992C18.448 5.16992 18.896 5.61792 18.896 6.16992V10.1699C18.896 10.7219 18.448 11.1699 17.896 11.1699C17.344 11.1699 16.896 10.7219 16.896 10.1699V8.58392L11.882 13.5979C11.687 13.7929 11.431 13.8909 11.175 13.8909C10.919 13.8909 10.664 13.7929 10.468 13.5979C10.078 13.2069 10.078 12.5739 10.468 12.1839L15.482 7.16992H13.896C13.344 7.16992 12.896 6.72192 12.896 6.16992C12.896 5.61792 13.344 5.16992 13.896 5.16992H17.896Z" fill="white"/>
</mask>
<g mask="url(#mask0_8967_103997)">
<path d="M11 7.10542C11.552 7.10542 12 7.55342 12 8.10542C12 8.65742 11.552 9.10542 11 9.10542H7V17.1054H15V13.1054C15 12.5534 15.448 12.1054 16 12.1054C16.552 12.1054 17 12.5534 17 13.1054V18.1054C17 18.6574 16.552 19.1054 16 19.1054H6C5.448 19.1054 5 18.6574 5 18.1054V8.10542C5 7.55342 5.448 7.10542 6 7.10542H11ZM17.896 5.16992C18.448 5.16992 18.896 5.61792 18.896 6.16992V10.1699C18.896 10.7219 18.448 11.1699 17.896 11.1699C17.344 11.1699 16.896 10.7219 16.896 10.1699V8.58392L11.882 13.5979C11.687 13.7929 11.431 13.8909 11.175 13.8909C10.919 13.8909 10.664 13.7929 10.468 13.5979C10.078 13.2069 10.078 12.5739 10.468 12.1839L15.482 7.16992H13.896C13.344 7.16992 12.896 6.72192 12.896 6.16992C12.896 5.61792 13.344 5.16992 13.896 5.16992H17.896Z" fill="white"/>
</g>
</svg>
