<svg width="48" height="48" viewBox="0 0 48 48" fill="none" xmlns="http://www.w3.org/2000/svg">
<path d="M37.9286 21.4167H33.1714V15.5892C33.1714 7.665 28.1786 6 24 6C19.8214 6 14.8286 7.665 14.8286 15.5892V21.4167H10.0714C9.47969 21.4167 9 21.8768 9 22.4444V41.9722C9 42.5398 9.47969 43 10.0714 43H37.9286C38.5203 43 39 42.5398 39 41.9722V22.4444C39 21.8768 38.5203 21.4167 37.9286 21.4167ZM16.9714 15.5892C16.9714 10.4503 19.2107 8.05556 24 8.05556C28.7893 8.05556 31.0286 10.4503 31.0286 15.5892V21.4167H16.9714V15.5892ZM36.8571 40.9444H11.1429V23.4722H36.8571V40.9444Z" fill="#0075BE"/>
<path d="M19.2422 37.1914L29.2422 27.1914" stroke="#0075BE" stroke-width="2" stroke-linecap="round" stroke-linejoin="round"/>
<circle cx="20.2422" cy="28.1914" r="2" stroke="#0079C1" stroke-width="2"/>
<circle cx="28.2422" cy="36.1914" r="2" stroke="#0079C1" stroke-width="2"/>
</svg>
