<svg xmlns="http://www.w3.org/2000/svg" viewBox="0 0 654 342" width="654" height="342">
  <path fill="#FFF" stroke="#000" strokeMiterlimit="10" d="M167.48 0h319.04v342H167.48z" />
  <g fill="#E10518">
    <path d="M434.69 158.68c-7.07-.99-20.05-3.4-20.05-7.63 0-3.94 6.69-17.16 10.99-25.26.92-1.73-1.03-3.58-2.71-2.56-7.3 4.41-19.08 10.8-24.63 9.84-5.77-.71-7.19-10.59-7.47-17.45-.08-1.89-2.54-2.54-3.56-.95l-23.79 37.07c-.84 1.31-2.87.54-2.64-.99l9.34-61.95c.26-1.74-1.74-2.91-3.12-1.81-6.04 4.84-17.66 12.86-24.33 9.04-6.26-3.59-11.11-19.87-13.61-30.15-.48-1.97-3.28-1.97-3.76 0-2.5 10.27-7.35 26.56-13.61 30.15-6.67 3.82-18.3-4.2-24.33-9.04-1.37-1.1-3.38.07-3.12 1.81l9.34 61.95c.23 1.54-1.8 2.3-2.64.99l-23.79-37.07c-1.02-1.59-3.48-.93-3.56.95-.28 6.86-1.7 16.74-7.47 17.45-5.54.96-17.33-5.43-24.63-9.84-1.68-1.02-3.63.83-2.71 2.56 4.3 8.1 10.99 21.32 10.99 25.26 0 4.23-12.98 6.63-20.05 7.63-1.67.24-2.26 2.35-.95 3.42L275 207.88a5.795 5.795 0 0 1 1.52 7.08l-13.81 27.63c-.76 1.52.66 3.21 2.29 2.72l59.87-17.93-.9 57.15h6.53l-1.81-57.43 60.78 18.2c1.62.49 3.05-1.2 2.29-2.72l-13.81-27.63a5.798 5.798 0 0 1 1.52-7.08l56.18-45.78c1.3-1.07.71-3.18-.96-3.41zM0 0h169.98v342H0zM484.02 0H654v342H484.02z" />
  </g>
</svg>
