<svg xmlns="http://www.w3.org/2000/svg" width="24" height="24" viewBox="0 0 24 24" fill="none">
<mask id="mask0_11773_130281" style="mask-type:alpha" maskUnits="userSpaceOnUse" x="2" y="0" width="19" height="24">
<path d="M19.8125 9.6H17.4375V6.528C17.4375 2.316 15.3238 0 11.5 0C7.67625 0 5.5625 2.316 5.5625 6.528V9.6H3.1875C2.53166 9.6 2 10.1373 2 10.8V22.8C2 23.4627 2.53166 24 3.1875 24H19.8125C20.4683 24 21 23.4627 21 22.8V10.8C21 10.1373 20.4683 9.6 19.8125 9.6ZM7.9375 6.528C7.9375 2.892 9.7425 2.4 11.5 2.4C13.2575 2.4 15.0625 2.892 15.0625 6.528V9.6H7.9375V6.528ZM18.625 21.6H4.375V12H18.625V21.6Z" fill="white"/>
</mask>
<g mask="url(#mask0_11773_130281)">
<path d="M19.8125 9.6H17.4375V6.528C17.5 3 16 0 11.5 0C7.67625 0 5.5625 2.316 5.5625 6.528V9.6H3.1875C2.53166 9.6 2 10.1373 2 10.8V22.8C2 23.4627 2.53166 24 3.1875 24H19.8125C20.4683 24 21 23.4627 21 22.8V10.8C21 10.1373 20.4683 9.6 19.8125 9.6ZM7 6.5C7 2.864 9 1.5 11.5 1.5C14.5781 1.5 16 2.864 16 6.5V9.6H7V6.5ZM19.8125 22.8H11.5H3.1875V11H11.5H19.8125V17V22.8Z" fill="#0075BE"/>
</g>
</svg>
