<svg
  version="1.1"
  xmlns="http://www.w3.org/2000/svg"
  x="0px"
  y="0px"
  view-box="0 0 32 32"
  focusable="false"
>
  <g>
    <path
      fill="#0075be"
      d="M12.47,14.68c-0.73,0-1.32,0.59-1.32,1.32c0,0.73,0.59,1.32,1.32,1.32c0.73,0,1.32-0.59,1.32-1.32 C13.8,15.27,13.21,14.68,12.47,14.68z"
    />
    <circle fill="#0075be" cx="19.52" cy="16" r="1.32" />
    <path
      fill="#0075be"
      d="M25.48,11.59c-1.02-4.3-4.87-7.51-9.48-7.51c-4.61,0-8.46,3.2-9.48,7.5c3.29-0.14,6-2.51,6.63-5.65 c0.7,3.24,3.58,5.66,7.02,5.66H25.48z"
    />
    <path
      fill="#0075be"
      d="M29.62,12.95h-0.37C28.79,6.03,23.03,0.54,16,0.54c-7.03,0-12.79,5.49-13.25,12.41H2.38c-1,0-1.8,0.81-1.8,1.8v4.6 c0,1,0.81,1.8,1.8,1.8h1.6v-2.74v-4.58C3.98,7.21,9.37,1.81,16,1.81c6.63,0,12.02,5.39,12.02,12.02v8.11 c0,3.33-2.71,6.04-6.04,6.04H18.2c-0.35,0-0.64,0.29-0.64,0.64c0,0.35,0.29,0.64,0.64,0.64h3.78c4.03,0,7.32-3.28,7.32-7.31v-0.79 h0.32c1,0,1.8-0.81,1.8-1.8v-4.6C31.42,13.75,30.61,12.95,29.62,12.95z"
    />
  </g>
</svg>
