<svg width="24" height="24" viewBox="0 0 28 28" fill="none" xmlns="http://www.w3.org/2000/svg">
<mask id="mask0_10990_124271" style="mask-type:alpha" maskUnits="userSpaceOnUse" x="2" y="1" width="20" height="20">
<path d="M22 21H18.1569C18.1497 12.0813 10.9252 4.85101 2.00654 4.8366V1C13.0452 1.01441 21.9892 9.96133 22 21ZM2 7.79085V11.6536C7.15889 11.6608 11.3392 15.8411 11.3464 21H15.2026C15.1954 13.7103 9.28967 7.80166 2 7.79085ZM4.66013 15.6667C3.19099 15.6703 2.00294 16.8642 2.00654 18.3333C2.01016 19.8025 3.20407 20.9905 4.67321 20.9869C6.14235 20.9833 7.3304 19.7894 7.32681 18.3203C7.32507 17.6148 7.04314 16.9388 6.54304 16.4412C6.04295 15.9435 5.36564 15.6649 4.66013 15.6667Z" fill="white"/>
</mask>
<g mask="url(#mask0_10990_124271)">
<path d="M22 21H18.1569C18.1497 12.0813 10.9252 4.85101 2.00654 4.8366V1C13.0452 1.01441 21.9892 9.96133 22 21ZM2 7.79085V11.6536C7.15889 11.6608 11.3392 15.8411 11.3464 21H15.2026C15.1954 13.7103 9.28967 7.80166 2 7.79085ZM4.66013 15.6667C3.19099 15.6703 2.00294 16.8642 2.00654 18.3333C2.01016 19.8025 3.20407 20.9905 4.67321 20.9869C6.14235 20.9833 7.3304 19.7894 7.32681 18.3203C7.32507 17.6148 7.04314 16.9388 6.54304 16.4412C6.04295 15.9435 5.36564 15.6649 4.66013 15.6667Z" fill="white"/>
</g>
</svg>
