<svg width="24" height="24" fill="none" xmlns="http://www.w3.org/2000/svg">
    <g mask="url(#a)">
        <path d="M7.12 21.58a2.22 2.22 0 0 1-1.33-.45A2.17 2.17 0 0 1 5 18.68l1.37-4.17L2.81 12a2.21 2.21 0 0 1 1.31-4h4.42l1.39-4.1A2.16 2.16 0 0 1 12 2.42a2.16 2.16 0 0 1 2.09 1.47L15.53 8h4.35a2.21 2.21 0 0 1 1.32 4l-3.57 2.64L19 18.7a2.16 2.16 0 0 1-.8 2.44 2.19 2.19 0 0 1-2.59 0l-3.53-2.5-3.69 2.54c-.372.26-.816.4-1.27.4ZM4.12 10a.2.2 0 0 0-.2.15.19.19 0 0 0 .07.23L7.58 13a1.93 1.93 0 0 1 .7 2.15L6.92 19.3a.17.17 0 0 0 .07.23.18.18 0 0 0 .25 0L10.85 17a2 2 0 0 1 2.35 0l3.54 2.49a.19.19 0 0 0 .25 0 .19.19 0 0 0 .08-.23l-1.33-4.19a1.92 1.92 0 0 1 .7-2.13L20 10.35a.19.19 0 0 0 .07-.23.2.2 0 0 0-.2-.15h-4.33a2 2 0 0 1-1.9-1.33l-1.41-4.1c0-.1-.17-.1-.2-.12a.21.21 0 0 0-.21.12l-1.37 4.09A2 2 0 0 1 8.54 10H4.12Z" fill="#0075BE"/>
    </g>
</svg>
