<!--?xml version="1.0" encoding="UTF-8"?-->
<svg width="66px" height="50px" viewBox="0 0 66 50" version="1.1" xmlns="http://www.w3.org/2000/svg" xmlns:xlink="http://www.w3.org/1999/xlink">
    <!-- Generator: Sketch 43.2 (39069) - http://www.bohemiancoding.com/sketch -->
    <title>Group 20</title>
    <desc>Created with Sketch.</desc>
    <defs></defs>
    <g id="Page-1" stroke="none" stroke-width="1" fill="none" fill-rule="evenodd" stroke-linecap="round">
        <g id="Best-Savings" transform="translate(-863.000000, -437.000000)" stroke="#5A646D">
            <g id="Group-12" transform="translate(609.000000, 381.000000)">
                <g id="Group-20" transform="translate(255.000000, 57.000000)">
                    <g id="Clock-2" transform="translate(16.000000, 0.000000)">
                        <path d="M48.4809,24.4587 C48.4809,37.7137 37.7409,48.4587 24.4929,48.4587 C11.2449,48.4587 0.5049,37.7137 0.5049,24.4587 C0.5049,11.2037 11.2449,0.4587 24.4929,0.4587 C37.7409,0.4587 48.4809,11.2037 48.4809,24.4587 Z" id="Stroke-978" stroke-linejoin="round"></path>
                        <polyline id="Stroke-979" stroke-linejoin="round" points="24.493 12.1093 24.493 24.4583 31.981 24.4583"></polyline>
                        <path d="M24.493,3.8874 L24.493,0.4584" id="Stroke-980"></path>
                        <path d="M45.0782,24.4587 L48.5052,24.4587" id="Stroke-981"></path>
                        <path d="M24.493,47.5346 L24.493,44.1056" id="Stroke-982"></path>
                        <path d="M0.5051,24.4587 L3.9321,24.4587" id="Stroke-983"></path>
                    </g>
                    <g id="Banknote" transform="translate(0.000000, 13.000000)">
                        <path d="M29.4237551,18.3093061 C29.4237551,18.6595102 29.0992653,18.9154286 28.7564082,18.8456327 C26.8388571,18.4568571 25.2164082,18.3129796 24.0004898,18.2603265 C15.9421224,17.9113469 12.1890612,20.9805306 4.86783673,20.0958367 C3.0304898,19.8735918 1.50661224,19.4676735 0.408244898,19.1125714 C0.181714286,19.039102 0.036,18.8278776 0.036,18.5903265 L0.036,1.33604082 C0.036,0.98155102 0.36477551,0.720734694 0.710693878,0.799102041 C1.656,1.014 3.04518367,1.28155102 4.71477551,1.4395102 C11.9600816,2.12277551 15.5545714,-0.114367347 23.4647755,0.0625714286 C24.6390612,0.0888979592 26.5541633,0.183183673 28.9541633,0.56155102 C29.2217143,0.603795918 29.4237551,0.837061224 29.4237551,1.10828571 L29.4237551,18.3093061 Z" id="Stroke-781" fill="#ECEEF1"></path>
                        <path d="M18.4032857,9.81287755 C18.4032857,11.8418571 16.7587959,13.4863469 14.7298163,13.4863469 C12.7008367,13.4863469 11.0563469,11.8418571 11.0563469,9.81287755 C11.0563469,7.7845102 12.7008367,6.13940816 14.7298163,6.13940816 C16.7587959,6.13940816 18.4032857,7.7845102 18.4032857,9.81287755 Z" id="Stroke-782"></path>
                        <path d="M24.0831429,2.22918367 C24.9868163,2.30387755 26.0319184,2.42020408 27.1896735,2.60326531" id="Stroke-783"></path>
                        <path d="M2.52520408,3.40542857 C3.30887755,3.58236735 4.39744898,3.79481633 5.6972449,3.95093878" id="Stroke-784"></path>
                        <path d="M24.0831429,15.8703061 C24.9868163,15.945 26.0319184,16.0613265 27.1896735,16.2443878" id="Stroke-785"></path>
                        <path d="M2.52520408,17.1475714 C3.30887755,17.3245102 4.39744898,17.5369592 5.6972449,17.6930816" id="Stroke-786"></path>
                    </g>
                </g>
            </g>
        </g>
    </g>
</svg>