<?xml version="1.0" encoding="UTF-8"?>
<svg width="18px" height="18px" viewBox="0 0 18 18" version="1.1" xmlns="http://www.w3.org/2000/svg" xmlns:xlink="http://www.w3.org/1999/xlink">
    <title>Shape</title>
    <g id="Page-1" stroke="none" stroke-width="1" fill="none" fill-rule="evenodd">
        <g id="Ad-Zones-Copy" transform="translate(-675.000000, -390.000000)" fill="#12A55C">
            <g id="Group-3" transform="translate(497.000000, 388.000000)">
                <path d="M194.307671,9.47080646 C196.18618,6.72523003 193.347616,3.16560568 190.252113,4.38586187 C189.276561,1.20471271 184.723439,1.20471271 183.747887,4.38586187 C180.652384,3.16479 177.81382,6.72523003 179.692329,9.47080646 C176.808087,11.1307138 177.821161,15.5688247 181.14016,15.8127128 C180.637702,19.1015316 184.740568,21.0771068 187,18.6349631 C189.259432,21.0779225 193.362298,19.1023473 192.85984,15.8127128 C196.178839,15.5696404 197.191913,11.1307138 194.307671,9.47162214 L194.307671,9.47080646 Z M185.277285,4.97315095 C185.729172,3.18355062 188.270828,3.18355062 188.722715,4.97315095 C188.829201,5.39338398 189.11644,5.74482194 189.507072,5.9328165 C189.897704,6.12081107 190.351562,6.12603155 190.746415,5.947072 C192.426714,5.18522756 194.011579,7.17303795 192.894914,8.64126064 C192.632481,8.98652017 192.53661,9.43035546 192.633136,9.85315296 C192.729663,10.2759505 193.008656,10.6342022 193.394925,10.8313595 C195.038519,11.6698778 194.472438,14.1479114 192.628187,14.1903267 C192.194689,14.2004335 191.787969,14.4021697 191.51761,14.7411813 C191.247251,15.0801928 191.141066,15.5216038 191.227666,15.9464842 C191.596353,17.7548452 189.306741,18.8576435 188.12319,17.4416243 C187.845003,17.1089526 187.433657,16.9167148 187,16.9167148 C186.566343,16.9167148 186.154997,17.1089526 185.87681,17.4416243 C184.694075,18.8576435 182.403647,17.7548452 182.772334,15.9464842 C182.858934,15.5216038 182.752749,15.0801928 182.48239,14.7411813 C182.212031,14.4021697 181.805311,14.2004335 181.371813,14.1903267 C179.527562,14.1479114 178.961481,11.6698778 180.605075,10.8313595 C180.991344,10.6342022 181.270337,10.2759505 181.366864,9.85315296 C181.46339,9.43035546 181.367519,8.98652017 181.105086,8.64126064 C179.987605,7.17303795 181.573286,5.18522756 183.253585,5.947072 C183.648354,6.12573235 184.101982,6.12035432 184.492404,5.93238508 C184.882826,5.74441585 185.169934,5.393165 185.27647,4.97315095 L185.277285,4.97315095 Z M190.881002,9.22447132 C191.17517,8.88322724 191.137008,8.36812388 190.795763,8.07395573 C190.454519,7.77978758 189.939416,7.81795014 189.645248,8.15919419 L185.991005,12.3950166 L184.308258,10.7448975 C184.101148,10.5359635 183.797575,10.4547446 183.513804,10.5323462 C183.230032,10.6099479 183.010035,10.8343449 182.938068,11.1195972 C182.8661,11.4048496 182.953314,11.7067544 183.166307,11.9096875 L185.46897,14.1683034 C185.62981,14.3263481 185.8489,14.4107588 186.074203,14.4014871 C186.299507,14.3922153 186.51092,14.2900884 186.65823,14.1193626 L190.880186,9.225287 L190.881002,9.22447132 Z" id="Shape"></path>
            </g>
        </g>
    </g>
</svg>