<svg fill="none" height="432" viewBox="0 0 308 432" width="308" xmlns="http://www.w3.org/2000/svg" xmlns:xlink="http://www.w3.org/1999/xlink"><linearGradient id="a" gradientUnits="userSpaceOnUse" x1="18.6712" x2="18.6712" y1="0" y2="188"><stop offset="0" stop-color="#044737"/><stop offset="1" stop-color="#0b3823"/></linearGradient><linearGradient id="b"><stop offset="0" stop-color="#4cc1e0"/><stop offset="1" stop-color="#08984b"/></linearGradient><linearGradient id="c" gradientUnits="userSpaceOnUse" x1="-95.8489" x2="-82.3639" xlink:href="#b" y1="338.272" y2="458.509"/><linearGradient id="d" gradientUnits="userSpaceOnUse" x1="-95.8489" x2="-82.364" y1="358.272" y2="478.509"><stop offset="0" stop-color="#4cc1e0"/><stop offset="1" stop-color="#984d08"/></linearGradient><linearGradient id="e" gradientUnits="userSpaceOnUse" x1="-95.849" x2="-82.364" xlink:href="#b" y1="358.271" y2="478.509"/><path clip-rule="evenodd" d="m0 20c0-11.0457 8.95431-20 20-20h268c11.046 0 20 8.9543 20 20v97.681 259.063h-308z" fill="url(#a)" fill-rule="evenodd"/><path clip-rule="evenodd" d="m0 376.155 308-110.155v110.155.69l-146.659 52.732c-4.359 1.567-9.126 1.572-13.488.016l-147.853-52.748z" fill="url(#c)" fill-opacity=".5" fill-rule="evenodd"/><path clip-rule="evenodd" d="m308 376.155-308-110.155v110.155.69l146.659 52.732c4.359 1.567 9.126 1.572 13.488.016l147.853-52.748z" fill="url(#d)" fill-opacity=".15" fill-rule="evenodd"/><path d="m67.1738 223.945c-.1113 1.831-.6123 3.458-1.5029 4.88-.8906 1.423-2.1338 2.536-3.7295 3.34-1.5833.804-3.4883 1.206-5.7148 1.206-2.3256 0-4.3295-.526-6.0118-1.577-1.6822-1.064-2.9749-2.573-3.8779-4.527-.903-1.955-1.3545-4.268-1.3545-6.94v-1.651c0-2.684.4639-5.004 1.3916-6.958.9401-1.955 2.2513-3.464 3.9336-4.528 1.6823-1.063 3.6677-1.595 5.9561-1.595 2.276 0 4.1933.42 5.7519 1.261 1.571.829 2.7832 1.967 3.6367 3.415.8659 1.447 1.3855 3.098 1.5586 4.954h-5.8261c-.1114-1.584-.5443-2.784-1.2989-3.6-.7421-.829-2.0162-1.243-3.8222-1.243-1.1999 0-2.1957.291-2.9873.872-.7917.581-1.3854 1.484-1.7813 2.709-.3958 1.212-.5937 2.771-.5937 4.676v1.688c0 1.868.1731 3.414.5195 4.639.3587 1.224.9277 2.14 1.707 2.746.7793.594 1.8122.891 3.0987.891 1.1256 0 2.0533-.167 2.7832-.501.7298-.347 1.2864-.866 1.6699-1.559s.6123-1.559.6865-2.598zm20.7461 9.055h-14.2685v-4.694h14.2685zm-12.3945 0h-5.8447v-27.016h5.8447zm10.5391-11.615h-12.4131v-4.546h12.4131zm1.8369-10.688h-14.25v-4.713h14.25zm12.3406-4.713c2.091 0 3.884.316 5.381.947 1.509.618 2.666 1.534 3.47 2.746.804 1.2 1.206 2.69 1.206 4.471 0 1.485-.248 2.747-.742 3.786-.483 1.039-1.163 1.898-2.041 2.579-.879.68-1.912 1.23-3.099 1.651l-1.855 1.058h-8.6655l-.0371-4.713h6.3646c.94 0 1.725-.155 2.356-.464.631-.322 1.101-.773 1.41-1.355.309-.581.464-1.267.464-2.059 0-1.212-.346-2.171-1.039-2.876-.68-.705-1.738-1.058-3.173-1.058h-4.3416v22.303h-5.8262v-27.016zm-1.2986 15.011 6.1606-.037 6.178 11.764v.278h-6.253zm26.2386 12.005h-5.827v-27.016h5.827zm8.201-22.303h-22.117v-4.713h22.117zm8.259 22.303h-5.827v-27.016h5.827zm9.854 0h-5.845v-27.016h5.845zm10.595-10.929h-12.153v-4.694h12.153zm1.28-11.374h-13.433v-4.713h13.433zm8.296 22.303h-5.826v-27.016h5.826zm25.403-9.055c-.111 1.831-.612 3.458-1.503 4.88-.89 1.423-2.133 2.536-3.729 3.34-1.583.804-3.488 1.206-5.715 1.206-2.325 0-4.329-.526-6.012-1.577-1.682-1.064-2.975-2.573-3.878-4.527-.903-1.955-1.354-4.268-1.354-6.94v-1.651c0-2.684.464-5.004 1.392-6.958.94-1.955 2.251-3.464 3.933-4.528 1.682-1.063 3.668-1.595 5.956-1.595 2.276 0 4.194.42 5.752 1.261 1.571.829 2.783 1.967 3.637 3.415.866 1.447 1.385 3.098 1.558 4.954h-5.826c-.111-1.584-.544-2.784-1.299-3.6-.742-.829-2.016-1.243-3.822-1.243-1.2 0-2.195.291-2.987.872s-1.386 1.484-1.781 2.709c-.396 1.212-.594 2.771-.594 4.676v1.688c0 1.868.173 3.414.519 4.639.359 1.224.928 2.14 1.707 2.746.78.594 1.813.891 3.099.891 1.126 0 2.053-.167 2.783-.501.73-.347 1.287-.866 1.67-1.559.384-.693.612-1.559.687-2.598zm6.496 9.055h-6.215l10.038-27.016h3.933l-.556 5.121zm5.882-21.895-.612-5.121h3.952l10.094 27.016h-6.216zm7.032 16.514h-14.324v-4.713h14.324zm17.741 5.381h-5.826v-27.016h5.826zm8.201-22.303h-22.117v-4.713h22.117zm20.301 22.303h-14.269v-4.694h14.269zm-12.395 0h-5.845v-27.016h5.845zm10.539-11.615h-12.413v-4.546h12.413zm1.837-10.688h-14.25v-4.713h14.25zm-185.8993 49.352c0 2.771-.4886 5.152-1.4658 7.143-.9772 1.98-2.3317 3.507-4.0635 4.583-1.7318 1.064-3.7357 1.596-6.0117 1.596-2.2761 0-4.2923-.532-6.0489-1.596-1.7441-1.076-3.111-2.603-4.1005-4.583-.9896-1.991-1.4844-4.372-1.4844-7.143v-1.095c0-2.771.4886-5.146 1.4658-7.125.9896-1.991 2.3564-3.525 4.1006-4.601 1.7441-1.077 3.7542-1.615 6.0303-1.615 2.276 0 4.2799.538 6.0117 1.615 1.7441 1.076 3.1048 2.61 4.082 4.601.9896 1.979 1.4844 4.354 1.4844 7.125zm-5.8818-1.132c0-1.855-.2227-3.414-.668-4.676s-1.0947-2.214-1.9483-2.857c-.8535-.643-1.8802-.965-3.08-.965-1.2246 0-2.2575.322-3.0987.965-.8411.643-1.4843 1.595-1.9297 2.857-.4329 1.262-.6494 2.821-.6494 4.676v1.132c0 1.843.2227 3.402.668 4.676.4453 1.261 1.0885 2.22 1.9297 2.876.8535.655 1.8926.983 3.1172.983 1.1998 0 2.2203-.328 3.0615-.983.8535-.656 1.4967-1.615 1.9297-2.876.4453-1.274.668-2.833.668-4.676zm14.623 14.083h-5.8447v-27.016h5.8447zm10.5947-10.929h-12.1533v-4.694h12.1533zm1.2803-11.374h-13.4336v-4.713h13.4336zm13.1221 22.303.037-4.694h5.808c1.422 0 2.616-.316 3.581-.947.977-.63 1.713-1.558 2.208-2.783.495-1.224.742-2.727.742-4.509v-1.187c0-1.794-.247-3.297-.742-4.509s-1.225-2.128-2.19-2.746-2.152-.928-3.562-.928h-5.993v-4.713h5.993c2.437 0 4.583.545 6.438 1.633 1.868 1.089 3.328 2.604 4.379 4.546 1.052 1.93 1.577 4.181 1.577 6.754v1.15c0 2.573-.525 4.831-1.577 6.773-1.051 1.942-2.511 3.457-4.379 4.546-1.855 1.076-4.014 1.614-6.475 1.614zm3.321 0h-5.844v-27.016h5.844zm36.073 0h-14.269v-4.694h14.269zm-12.395 0h-5.845v-27.016h5.845zm10.539-11.615h-12.413v-4.546h12.413zm1.837-10.688h-14.25v-4.713h14.25zm5.995 12.896v-4.695h6.791c1.027 0 1.856-.167 2.486-.501.644-.334 1.114-.791 1.411-1.373.296-.581.445-1.249.445-2.003 0-.755-.149-1.46-.445-2.116-.297-.668-.767-1.2-1.411-1.595-.63-.409-1.459-.613-2.486-.613h-4.787v22.303h-5.845v-27.016h10.632c2.14 0 3.977.39 5.511 1.169 1.534.78 2.709 1.85 3.525 3.21.817 1.349 1.225 2.889 1.225 4.62 0 1.757-.408 3.278-1.225 4.565-.816 1.286-1.991 2.282-3.525 2.987s-3.371 1.058-5.511 1.058zm42.14-3.544c0 2.771-.489 5.152-1.466 7.143-.977 1.98-2.332 3.507-4.064 4.583-1.731 1.064-3.735 1.596-6.011 1.596s-4.293-.532-6.049-1.596c-1.744-1.076-3.111-2.603-4.101-4.583-.989-1.991-1.484-4.372-1.484-7.143v-1.095c0-2.771.489-5.146 1.466-7.125.989-1.991 2.356-3.525 4.1-4.601 1.744-1.077 3.755-1.615 6.031-1.615s4.28.538 6.011 1.615c1.744 1.076 3.105 2.61 4.082 4.601.99 1.979 1.485 4.354 1.485 7.125zm-5.882-1.132c0-1.855-.223-3.414-.668-4.676s-1.095-2.214-1.948-2.857c-.854-.643-1.881-.965-3.08-.965-1.225 0-2.258.322-3.099.965s-1.484 1.595-1.93 2.857c-.433 1.262-.649 2.821-.649 4.676v1.132c0 1.843.223 3.402.668 4.676.445 1.261 1.088 2.22 1.93 2.876.853.655 1.892.983 3.117.983 1.2 0 2.22-.328 3.061-.983.854-.656 1.497-1.615 1.93-2.876.445-1.274.668-2.833.668-4.676zm22.75 6.958c0-.606-.13-1.132-.39-1.577s-.76-.866-1.503-1.262c-.729-.408-1.812-.841-3.247-1.299-1.212-.396-2.369-.841-3.469-1.336-1.089-.507-2.054-1.094-2.895-1.762s-1.503-1.448-1.985-2.338c-.483-.891-.724-1.93-.724-3.117 0-1.522.433-2.845 1.299-3.971.866-1.138 2.053-2.023 3.562-2.653 1.522-.631 3.26-.947 5.214-.947 2.004 0 3.754.353 5.251 1.058s2.654 1.688 3.47 2.95c.829 1.249 1.243 2.697 1.243 4.342h-5.808c0-.73-.154-1.373-.463-1.93-.31-.569-.78-1.008-1.411-1.317-.618-.322-1.41-.483-2.375-.483-.927 0-1.7.136-2.319.409-.618.272-1.082.63-1.392 1.076-.296.445-.445.946-.445 1.503 0 .581.204 1.088.612 1.521.409.433 1.002.835 1.782 1.206.779.359 1.725.712 2.839 1.058 1.966.594 3.618 1.293 4.954 2.097s2.338 1.756 3.006 2.857c.68 1.089 1.02 2.381 1.02 3.878 0 1.583-.408 2.938-1.225 4.063-.804 1.126-1.942 1.986-3.414 2.579-1.472.594-3.203.891-5.195.891-1.361 0-2.697-.173-4.008-.519-1.299-.359-2.48-.903-3.544-1.633-1.051-.742-1.892-1.676-2.523-2.802s-.946-2.462-.946-4.008h5.844c0 .804.118 1.485.353 2.041.247.544.594.99 1.039 1.336.458.346 1.002.6 1.633.761.643.148 1.36.223 2.152.223.928 0 1.682-.124 2.264-.372.594-.259 1.033-.606 1.317-1.039.285-.445.427-.94.427-1.484zm14.679 7.125h-5.827v-27.016h5.827zm16.348 0h-5.826v-27.016h5.826zm8.201-22.303h-22.117v-4.713h22.117z" fill="#abf0e4"/><g clip-rule="evenodd" fill-rule="evenodd"><path d="m92.3084 72.3405-24.1111 23.6824c-5.5101 5.4121-14.4436 5.4121-19.9536 0l-24.1111-23.6824c-5.5101-5.4122-5.5101-14.1868 0-19.5989l24.1111-23.6825c5.51-5.4121 14.4435-5.4121 19.9536 0l24.1111 23.6825c5.5101 5.4121 5.5101 14.1867 0 19.5989zm-59.7083.6727c-1.1163 0-2.0216-.8892-2.0216-1.9857v-10.1749c0-6.2779 3.9211-9.4918 9.3556-9.4918 3.0538 0 5.8398 1.0718 7.6151 3.2589 1.6619-2.1626 4.3196-3.2589 7.4935-3.2589 5.1875 0 9.6025 3.0927 9.6025 9.4918v10.1749c0 1.0965-.9053 1.9857-2.0217 1.9857-1.1163 0-2.0216-.8892-2.0216-1.9857v-10.1749c0-3.8215-2.2234-5.8528-5.5884-5.8528s-5.2792 2.2138-5.2792 5.8528v10.1749c-.0039 1.0965-.9092 1.9857-2.0256 1.9857-.0325 0-.0648-.0007-.0969-.0022-.0321.0015-.0644.0022-.0969.0022-1.1163 0-2.0216-.8892-2.0216-1.9857v-10.1749c0-3.8215-2.2234-5.8528-5.5884-5.8528s-5.2791 2.2138-5.2791 5.8528v10.1749c-.004 1.0965-.9093 1.9857-2.0257 1.9857zm51.1545-20.196c1.1163 0 2.0216.8892 2.0216 1.9857v8.7173c0 5.5192-3.0308 8.6703-7.456 9.3512v5.7378c0 1.0965-.9053 1.987-2.023 1.987s-2.023-.8892-2.023-1.987v-5.7838c-4.2027-.7554-7.4561-3.812-7.4561-9.3052v-8.7173c0-1.0965.9053-1.9857 2.0217-1.9857 1.1163 0 2.0216.8892 2.0216 1.9857v8.7173c0 3.8215 2.2234 5.8528 5.5884 5.8528s5.2791-2.2139 5.2791-5.8528v-8.7173c.0027-1.0965.908-1.9857 2.0257-1.9857z" fill="#fff"/><path d="m106.869 46.8477v10.6045h.079c.632-.9557 1.54-1.7119 2.724-2.2686 1.184-.5568 2.448-.8345 3.788-.8345 1.447 0 2.756.2465 3.928.738 1.171.4902 2.171 1.1695 3 2.0352.829.8658 1.467 1.8867 1.914 3.0627.448 1.176.672 2.4486.672 3.8176 0 1.3703-.224 2.6376-.672 3.7993-.447 1.1617-1.084 2.1839-1.914 3.0626-.829.8788-1.829 1.5646-3 2.0561-1.172.4903-2.481.7367-3.928.7367-1.262 0-2.492-.2712-3.69-.8149-1.197-.5424-2.138-1.3038-2.822-2.2869h-.079v2.6363h-3.553v-26.3441zm6.157 23.5527c.947 0 1.803-.1617 2.566-.485.764-.3234 1.407-.7615 1.934-1.3182.526-.5567.934-1.2282 1.224-2.017s.434-1.648.434-2.5789c0-.931-.144-1.7889-.434-2.579-.29-.7888-.698-1.4589-1.224-2.0157-.527-.5567-1.17-.9948-1.934-1.3181-.763-.3234-1.618-.4851-2.566-.4851-.947 0-1.802.1617-2.565.4851-.764.3233-1.409.7614-1.935 1.3181-.526.5568-.934 1.2269-1.223 2.0157-.291.7888-.434 1.648-.434 2.579 0 .9309.144 1.7901.434 2.5789.289.7888.697 1.4603 1.223 2.017s1.171.9948 1.935 1.3182c.763.3233 1.618.485 2.565.485z" fill="#fff"/><path d="m124.355 57.0637c.999-.9049 2.157-1.5829 3.472-2.0353 1.316-.4511 2.631-.6793 3.948-.6793 1.367 0 2.546.1695 3.532.5046.987.3364 1.796.7888 2.428 1.3573.632.5684 1.099 1.2216 1.401 1.9583.302.7366.453 1.5059.453 2.3077v9.3823c0 .6467.014 1.2412.039 1.7836.025.5437.065 1.06.118 1.5515h-3.158c-.079-.9309-.118-1.8618-.118-2.7914h-.078c-.789 1.189-1.725 2.0287-2.802 2.5202-1.08.4903-2.33.7367-3.75.7367-.868 0-1.698-.116-2.487-.3494-.789-.2321-1.48-.5815-2.072-1.047s-1.059-1.0404-1.401-1.7249c-.343-.6845-.513-1.4799-.513-2.3847 0-1.1891.27-2.1839.809-2.9857.539-.8006 1.275-1.4538 2.21-1.9584.934-.5032 2.025-.8657 3.276-1.0847 1.25-.2191 2.586-.3299 4.006-.3299h2.606v-.7758c0-.4654-.093-.9309-.276-1.3964-.185-.4654-.461-.8852-.83-1.2594s-.828-.6728-1.382-.8918c-.552-.2191-1.211-.3299-1.974-.3299-.685 0-1.282.0639-1.796.1943-.514.129-.981.2907-1.402.4837-.42.1942-.803.4211-1.144.6793-.342.2581-.67.5045-.986.7366zm10.024 7.2883c-.843 0-1.704.0443-2.585.1356-.882.0912-1.685.2659-2.408.5228-.724.2595-1.316.6206-1.776 1.0861-.461.4654-.691 1.06-.691 1.7836 0 1.06.361 1.8227 1.086 2.2882.724.4654 1.703.6975 2.942.6975.973 0 1.802-.1603 2.486-.4837.684-.3233 1.237-.7432 1.658-1.2608s.723-1.0913.908-1.7249c.183-.6337.276-1.2608.276-1.8814v-1.163z" fill="#fff"/><path d="m142.393 54.8144h3.552v2.8306h.078c.447-.9831 1.224-1.7771 2.33-2.386 1.104-.6063 2.381-.9113 3.828-.9113.895 0 1.756.1369 2.586.408.829.2712 1.551.6924 2.171 1.2595.618.5685 1.111 1.2999 1.48 2.1917.369.8919.553 1.9453.553 3.1592v11.8243h-3.553v-10.8556c0-.8527-.118-1.5828-.354-2.1904-.236-.6063-.552-1.0978-.946-1.4733-.395-.3742-.849-.6454-1.362-.8149-.513-.1682-1.046-.2516-1.599-.2516-.736 0-1.42.116-2.052.3481-.632.2334-1.184.6011-1.658 1.1056-.474.5046-.843 1.1435-1.105 1.9192-.263.7758-.395 1.6937-.395 2.7537v9.4592h-3.552v-18.376z" fill="#fff"/><path d="m165.523 46.8477v15.9541l8.053-7.9481h4.934l-8.723 8.3366 9.473 10.0015h-5.052l-8.685-9.5374v9.5374h-3.552v-26.3441z" fill="#fff"/><path d="m192.481 57.838h-5.092v8.3366c0 .5176.013 1.0274.04 1.532.025.5032.125.9557.296 1.3559.171.4016.434.7249.79.9701.355.2464.874.3689 1.559.3689.42 0 .855-.0391 1.302-.1173.449-.0769.855-.2177 1.224-.4263v3.1786c-.42.2321-.966.3938-1.638.4851-.671.0899-1.19.1356-1.559.1356-1.369 0-2.428-.1891-3.178-.562-.75-.3742-1.302-.8592-1.658-1.455-.356-.5946-.567-1.2595-.632-1.9962-.065-.7366-.098-1.4798-.098-2.2308v-9.5752h-4.105v-3.0235h4.105v-5.1553h3.552v5.1553h5.092z" fill="#fff"/><path d="m195.48 54.8144h3.553v2.8306h.078c.238-.4915.553-.9374.948-1.339.395-.4003.835-.7419 1.323-1.0274.487-.2843 1.02-.5098 1.598-.678.579-.1682 1.158-.2529 1.738-.2529.577 0 1.106.0782 1.578.2333l-.158 3.7602c-.289-.0782-.578-.1408-.868-.1942-.291-.0522-.579-.077-.868-.077-1.738 0-3.066.4785-3.986 1.4342-.921.957-1.382 2.4434-1.382 4.4578v9.2271h-3.552v-18.3747z" fill="#fff"/><path d="m207.008 57.0637c.999-.9049 2.157-1.5829 3.472-2.0353 1.316-.4511 2.631-.6793 3.947-.6793 1.367 0 2.546.1695 3.532.5046.988.3364 1.796.7888 2.428 1.3573.632.5684 1.099 1.2216 1.402 1.9583.301.7366.454 1.5059.454 2.3077v9.3823c0 .6467.013 1.2412.039 1.7836.026.5437.065 1.06.118 1.5515h-3.157c-.08-.9309-.12-1.8618-.12-2.7914h-.078c-.79 1.189-1.725 2.0287-2.804 2.5202-1.079.4903-2.329.7367-3.748.7367-.87 0-1.698-.116-2.488-.3494-.79-.2321-1.48-.5815-2.072-1.047-.593-.4655-1.059-1.0404-1.402-1.7249-.342-.6845-.513-1.4799-.513-2.3847 0-1.1891.27-2.1839.809-2.9857.539-.8006 1.276-1.4538 2.21-1.9584.935-.5032 2.026-.8657 3.276-1.0847 1.25-.2191 2.586-.3299 4.007-.3299h2.605v-.7758c0-.4654-.093-.9309-.276-1.3964-.184-.4654-.46-.8852-.829-1.2594s-.83-.6728-1.382-.8918c-.552-.2191-1.211-.3299-1.974-.3299-.685 0-1.284.0639-1.796.1943-.514.129-.981.2907-1.402.4837-.421.1942-.803.4211-1.145.6793-.342.2581-.671.5045-.987.7366zm10.026 7.2883c-.843 0-1.705.0443-2.586.1356-.881.0912-1.685.2659-2.408.5228-.723.2595-1.315.6206-1.777 1.0861-.46.4654-.691 1.06-.691 1.7836 0 1.06.361 1.8227 1.086 2.2882.724.4654 1.703.6975 2.942.6975.973 0 1.801-.1603 2.486-.4837.685-.3233 1.237-.7432 1.658-1.2608s.725-1.0913.909-1.7249c.183-.6337.276-1.2608.276-1.8814v-1.163z" fill="#fff"/><path d="m237.636 59.6998c-.657-.6728-1.349-1.1826-2.072-1.532-.725-.3495-1.586-.5229-2.586-.5229-.974 0-1.823.1734-2.547.5229-.724.3494-1.329.8279-1.816 1.4355-.487.6062-.855 1.3051-1.106 2.0939s-.374 1.6089-.374 2.4616.143 1.661.434 2.4238c.289.7627.697 1.4277 1.224 1.9974.527.5685 1.157 1.0144 1.895 1.3377.736.3234 1.565.4851 2.486.4851 1 0 1.856-.1748 2.566-.5242.711-.3494 1.368-.8592 1.974-1.532l2.526 2.4825c-.921 1.0078-1.993 1.7315-3.217 2.1708-1.224.4407-2.52.6598-3.887.6598-1.448 0-2.77-.2334-3.966-.6976-1.198-.4654-2.232-1.1173-3.098-1.9583-.87-.8396-1.54-1.8475-2.014-3.0248-.474-1.1761-.71-2.4747-.71-3.8958 0-1.4212.236-2.7263.71-3.9154s1.137-2.2112 1.994-3.0626c.856-.8514 1.881-1.5177 3.079-1.9975 1.198-.4785 2.533-.7171 4.006-.7171 1.368 0 2.676.2386 3.927.7171 1.249.4785 2.335 1.2087 3.256 2.1917z" fill="#fff"/><path d="m245.253 46.8477v15.9541l8.052-7.9481h4.934l-8.723 8.3366 9.473 10.0015h-5.052l-8.684-9.5374v9.5374h-3.552v-26.3441z" fill="#fff"/><path d="m260.925 65.2829c0 .8005.177 1.5307.532 2.1904.356.6597.823 1.2217 1.402 1.6871.579.4655 1.249.828 2.014 1.0861.763.2582 1.552.3872 2.368.3872 1.106 0 2.065-.2516 2.882-.7562.816-.5045 1.566-1.1682 2.251-1.9974l2.684 2.017c-1.974 2.5072-4.736 3.7602-8.29 3.7602-1.473 0-2.808-.2464-4.004-.7367-1.198-.4902-2.212-1.1695-3.04-2.0365-.83-.8658-1.468-1.8853-1.916-3.0627-.448-1.176-.671-2.4485-.671-3.8188 0-1.3691.243-2.6429.731-3.8176.487-1.1761 1.158-2.1969 2.012-3.0627.855-.8657 1.876-1.5437 3.06-2.0352 1.186-.4903 2.474-.738 3.868-.738 1.658 0 3.06.2856 4.204.854 1.144.5685 2.084 1.3117 2.822 2.2295.737.9179 1.269 1.9518 1.6 3.1018.329 1.15.494 2.3208.494 3.5086v1.2412h-15.003zm11.209-2.7915c-.025-.7757-.152-1.485-.375-2.133-.224-.6454-.558-1.2073-1.007-1.6858-.447-.4785-1.006-.854-1.678-1.1252-.67-.2712-1.453-.4068-2.348-.4068-.87 0-1.665.1617-2.388.485-.725.3233-1.335.7432-1.836 1.2595-.499.5176-.888 1.0926-1.164 1.7262-.276.6337-.414 1.2595-.414 1.8801z" fill="#fff"/><path d="m278.607 54.8144h3.553v2.8306h.079c.236-.4915.552-.9374.948-1.339.394-.4003.835-.7419 1.322-1.0274.487-.2843 1.02-.5098 1.6-.678.577-.1682 1.157-.2529 1.736-.2529s1.106.0782 1.579.2333l-.157 3.7602c-.291-.0782-.579-.1408-.869-.1942-.29-.0522-.578-.077-.869-.077-1.736 0-3.065.4785-3.986 1.4342-.921.957-1.382 2.4434-1.382 4.4578v9.2271h-3.552v-18.3747z" fill="#fff"/><path d="m0 376.155 154.091-55.155 153.909 55.155v.69l-146.659 52.731c-4.359 1.567-9.126 1.573-13.488.017l-147.853-52.748z" fill="url(#e)"/></g><path d="m53.8691 157.679-.0839-10.624h12.5556c3.2754 0 5.571-.49 6.8867-1.47 1.3158-1.008 1.9737-2.506 1.9737-4.493 0-2.352-.6859-4.017-2.0576-4.997-1.3718-1.008-3.5974-1.512-6.6768-1.512h-6.6348v48.417h-15.789v-61.141h22.4238c7.6706 0 13.6615 1.414 17.9727 4.242 4.3391 2.799 6.5087 7.068 6.5087 12.807 0 2.492-.5319 4.857-1.5957 7.097-1.0638 2.211-2.8694 4.003-5.417 5.375-2.5195 1.372-5.9908 2.044-10.414 2.016l-4.1153 4.283zm-3.8212 25.321 5.375-12.682h13.3955c2.8274 0 4.8011-.588 5.9209-1.763 1.1197-1.176 1.6796-2.534 1.6796-4.074 0-1.427-.2379-2.645-.7138-3.653-.4479-1.008-1.1898-1.778-2.2256-2.309-1.0078-.56-2.3656-.84-4.0733-.84h-12.5976l.084-10.624h14.8652l3.6953 4.325c4.2272-.28 7.5446.238 9.9522 1.554 2.4355 1.287 4.1572 3.009 5.165 5.165 1.0358 2.127 1.5537 4.339 1.5537 6.634 0 6.075-1.9596 10.638-5.8789 13.69-3.9193 3.051-9.7282 4.577-17.4267 4.577zm97.3411 0h-32.292v-12.682h32.292zm-26.707 0h-15.789v-61.141h15.789zm22.549-25.237h-28.134v-12.22h28.134zm4.284-23.18h-32.418v-12.724h32.418zm41.533 31.956c0-1.092-.238-2.058-.714-2.897-.448-.84-1.4-1.666-2.855-2.478-1.428-.84-3.612-1.75-6.551-2.729-2.632-.896-5.193-1.918-7.685-3.066-2.491-1.148-4.731-2.491-6.719-4.031-1.987-1.568-3.569-3.401-4.745-5.501-1.175-2.128-1.763-4.605-1.763-7.433 0-3.583 1.035-6.662 3.107-9.238 2.072-2.604 4.899-4.605 8.482-6.005 3.584-1.428 7.657-2.141 12.22-2.141 4.507 0 8.483.769 11.926 2.309 3.471 1.512 6.187 3.695 8.146 6.551 1.988 2.855 2.982 6.271 2.982 10.246h-15.705c0-1.316-.28-2.478-.84-3.485-.532-1.008-1.372-1.792-2.52-2.352-1.119-.56-2.561-.84-4.325-.84-1.707 0-3.149.238-4.325.714-1.148.476-2.016 1.106-2.603 1.89-.56.756-.84 1.609-.84 2.561 0 1.092.448 2.044 1.343 2.856.896.812 2.142 1.567 3.738 2.267 1.595.7 3.443 1.4 5.543 2.1 4.367 1.4 8.062 3.037 11.086 4.913 3.051 1.848 5.375 4.059 6.97 6.635 1.596 2.547 2.394 5.571 2.394 9.07 0 3.723-.938 6.887-2.814 9.49-1.847 2.576-4.479 4.535-7.894 5.879s-7.433 2.016-12.052 2.016c-3.191 0-6.327-.406-9.406-1.218-3.052-.812-5.823-2.072-8.315-3.779-2.463-1.708-4.437-3.892-5.92-6.551-1.456-2.688-2.184-5.893-2.184-9.616h15.789c0 1.679.196 3.079.588 4.199.42 1.12 1.05 2.03 1.89 2.729.839.672 1.889 1.162 3.149 1.47 1.26.28 2.729.42 4.409.42 1.736 0 3.108-.238 4.115-.714 1.036-.476 1.778-1.092 2.226-1.847.448-.756.672-1.554.672-2.394zm58.624 16.461h-15.747v-61.141h15.747zm18.057-48.417h-51.483v-12.724h51.483z" fill="#fff"/><path d="m121.915 391.817h-22.903v-4.544l10.809-11.52q2.226-2.433 3.293-4.246 1.067-1.813 1.067-3.442 0-2.227-1.124-3.5-1.125-1.274-3.213-1.274-2.249 0-3.546 1.549-1.296 1.549-1.296 4.074h-6.656q0-3.053 1.458-5.577 1.457-2.524 4.119-3.959 2.662-1.434 6.036-1.434 5.163 0 8.02 2.478 2.858 2.479 2.858 7 0 2.478-1.285 5.049-1.286 2.57-4.407 5.99l-7.596 8.009h14.366zm28.151-13.815q0 6.93-2.869 10.602-2.869 3.672-8.399 3.672-5.462 0-8.354-3.603-2.891-3.603-2.96-10.327v-6.151q0-6.999 2.903-10.625 2.903-3.626 8.365-3.626 5.462 0 8.353 3.591 2.892 3.592 2.961 10.316zm-6.633-6.748q0-4.153-1.136-6.047-1.136-1.893-3.545-1.893-2.341 0-3.454 1.802-1.113 1.801-1.182 5.634v8.124q0 4.085 1.113 6.07 1.113 1.985 3.569 1.985 2.432 0 3.511-1.905 1.078-1.905 1.124-5.829zm35.609 20.563h-22.903v-4.544l10.809-11.52q2.226-2.433 3.293-4.246 1.067-1.813 1.067-3.442 0-2.227-1.124-3.5-1.125-1.274-3.213-1.274-2.249 0-3.546 1.549-1.296 1.549-1.296 4.074h-6.656q0-3.053 1.458-5.577 1.457-2.524 4.119-3.959 2.662-1.434 6.036-1.434 5.163 0 8.02 2.478 2.858 2.479 2.858 7 0 2.478-1.286 5.049-1.285 2.57-4.406 5.99l-7.596 8.009h14.366zm6.647-16.432 1.928-16.982h18.727v5.531h-13.288l-.826 7.183q2.364-1.262 5.026-1.262 4.773 0 7.481 2.96 2.708 2.96 2.708 8.285 0 3.236-1.365 5.794-1.366 2.559-3.913 3.971-2.548 1.411-6.013 1.411-3.029 0-5.622-1.228-2.594-1.228-4.097-3.454-1.503-2.226-1.595-5.071h6.564q.206 2.088 1.457 3.247 1.251 1.159 3.27 1.159 2.249 0 3.465-1.618 1.217-1.618 1.217-4.578 0-2.846-1.4-4.361-1.4-1.514-3.97-1.514-2.364 0-3.833 1.239l-.642.596z" fill="#fff"/></svg>