<svg width="55" height="60" viewBox="0 0 100 81" xmlns="http://www.w3.org/2000/svg"><title>Group</title><desc>Created with Sketch.</desc><g fill="none"><path d="M58.241 66.625h-18.823v12.401h-11.8v-12.749c-7.537-1.758-15.288-9.992-16.324-20.184h-10.282v-14.078h10.883c.505-1.941 1.258-3.782 2.223-5.487l-.04.014v-10.724c0-2.752 3.322-4.113 5.252-2.183l3.949 3.949c3.205-1.712 6.867-2.683 10.762-2.683h29.864c12.623 0 22.841 10.25 22.873 22.841v6.011c0 10.493-7.105 19.346-16.735 22.035v13.239h-11.8v-12.401z" fill="#ffed8d" fill-rule="nonzero"></path><path d="M69.6 65.454c10.819-1.392 16.164-10.661 16.164-21.575v-6.232c0-11.99-9.775-21.765-21.765-21.765h-30.054c-3.575 0-7.086.886-10.218 2.531l-.917-1.74c3.417-1.803 7.276-2.784 11.136-2.784h30.054c13.097 0 23.758 10.661 23.758 23.758v6.232c0 11.927-6.073 22.05-17.904 23.569-1.012.127-1.171-1.866-.253-1.993z" id="Shape" fill="#616363" fill-rule="nonzero"></path><path fill="#646564" d="M39.437 66.197h19.014v2.113h-19.014z"></path><path d="M94.59 40.968h-5.536v-1.993h5.536c1.55 0 2.816-1.265 2.816-2.816 0-1.234-1.012-2.246-2.246-2.246-1.265 0-2.278 1.012-2.278 2.246h-1.993c0-2.309 1.898-4.208 4.208-4.208 2.373 0 4.239 1.898 4.239 4.208.063 2.657-2.088 4.809-4.745 4.809z" id="Shape" fill="#616363" fill-rule="nonzero"></path><g id="Shape" fill-rule="nonzero"><path d="M61.151 11.674c0 3.448-1.677 6.485-4.239 8.383h-12.401c-2.562-1.898-4.239-4.935-4.239-8.383 0-5.758 4.682-10.44 10.44-10.44 5.758 0 10.44 4.65 10.44 10.44z" fill="#fff"></path><path d="M57.26 21.038h-13.065l-.253-.19c-2.91-2.151-4.619-5.568-4.619-9.174 0-6.295 5.125-11.42 11.42-11.42s11.42 5.125 11.42 11.42c0 3.606-1.74 7.055-4.65 9.174l-.253.19zm-12.401-1.993h11.737c2.246-1.772 3.575-4.524 3.575-7.403 0-5.22-4.239-9.459-9.459-9.459s-9.427 4.239-9.427 9.459c0 2.942 1.297 5.599 3.575 7.403z" fill="#616363"></path><path d="M54.192 13.951c0 1.519-1.076 2.594-2.879 2.721v1.803h-1.012v-1.835c-1.107-.127-2.183-.601-3.037-1.455l.791-.917c.823.823 1.898 1.234 2.879 1.234 1.107 0 1.898-.538 1.898-1.487 0-1.076-.854-1.424-2.246-1.866-1.645-.538-3.1-1.044-3.1-2.816 0-1.455 1.012-2.562 2.816-2.626v-1.898h1.012v1.961c.917.158 1.866.569 2.531 1.076l-.759.917c-.791-.569-1.772-.886-2.499-.886-1.044 0-1.772.475-1.772 1.36 0 .917.917 1.265 2.151 1.677 1.835.633 3.227 1.107 3.227 3.037z" fill="#646666"></path></g><path id="Rectangle-path" fill="#616363" fill-rule="nonzero" d="M39.766 19.045h21.038v1.993h-21.038z"></path><path d="M27.143 66.656c-7.086-2.12-12.844-7.498-15.47-14.426-.032-.063-.823-2.056-1.265-5.125h-10.376v-16.071h16.514v1.993h-14.552v12.085h10.187l.095.886c.38 3.258 1.265 5.505 1.265 5.505 2.404 6.359 7.687 11.294 14.173 13.224l-.569 1.93zM12.844 32.268l-1.93-.475c.475-1.93 1.234-3.765 2.183-5.505v-10.471c0-1.677.949-3.132 2.499-3.765 1.55-.633 3.258-.316 4.429.886l8.289 8.289-1.392 1.392-8.289-8.289c-.633-.633-1.455-.791-2.278-.443-.823.348-1.297 1.044-1.297 1.93v10.978l-.127.221c-.917 1.645-1.645 3.417-2.088 5.252zM40.43 80.038h-13.793v-22.683h1.993v20.69h9.807v-15.786h1.993zM71.022 80.038h-13.793v-17.779h1.993v15.786h9.807v-20.69h1.993z" fill="#616363" fill-rule="nonzero"></path><path fill="#616363" fill-rule="nonzero" d="M25.593 34.166h4.049v1.993h-4.049z"></path></g></svg>