<svg width="22" height="23" viewBox="0 0 22 23" fill="none" xmlns="http://www.w3.org/2000/svg">
<path fill-rule="evenodd" clip-rule="evenodd" d="M16.3616 14.2278C17.2435 12.8226 17.7575 11.1537 17.7575 9.36216C17.7575 4.36974 13.7826 0.322266 8.87876 0.322266C3.97489 0.322266 0 4.36974 0 9.36216C0 14.3556 3.97489 18.4031 8.87876 18.4031C10.7967 18.4031 12.5707 17.7826 14.0216 16.7301L19.0795 22.1261C19.7255 22.8155 20.7984 22.8409 21.4754 22.1819C22.1524 21.5249 22.1774 20.4319 21.5314 19.7424L16.3616 14.2278ZM8.87876 3.0973C12.2767 3.0973 15.0316 5.90275 15.0316 9.36216C15.0316 12.8226 12.2767 15.627 8.87876 15.627C5.48085 15.627 2.72693 12.8226 2.72693 9.36216C2.72693 5.90275 5.48085 3.0973 8.87876 3.0973Z" fill="#5A656D"/>
</svg>
