<?xml version="1.0" encoding="UTF-8"?>
<svg width="20px" height="15px" viewBox="0 0 20 15" version="1.1" xmlns="http://www.w3.org/2000/svg" xmlns:xlink="http://www.w3.org/1999/xlink">
    <defs></defs>
    <g id="Page-1" stroke="none" stroke-width="1">
        <g id="ehl" fill-rule="nonzero">
            <path d="M0.0452488688,5.71646341 C0.171945701,5.65243902 0.307692308,5.60670732 0.43438914,5.53353659 C3.55656109,3.74085366 6.68778281,1.94817073 9.80995475,0.146341463 C10.0361991,0.00914634146 10.199095,0.0274390244 10.4253394,0.155487805 C13.5022624,1.99390244 16.5791855,3.82317073 19.6651584,5.64329268 C19.8642534,5.76219512 19.9457014,5.88109756 19.9457014,6.11890244 C19.9276018,6.67682927 19.9366516,7.2347561 19.9366516,7.83841463 C19.4117647,7.83841463 18.9140271,7.83841463 18.3800905,7.83841463 C18.3800905,10.2439024 18.3800905,12.6036585 18.3800905,14.9908537 C12.7873303,14.9908537 7.21266968,14.9908537 1.6199095,14.9908537 C1.6199095,12.6310976 1.6199095,10.2621951 1.6199095,7.84756098 C1.07692308,7.84756098 0.561085973,7.84756098 0.0542986425,7.84756098 C0.0452488688,7.13414634 0.0452488688,6.42073171 0.0452488688,5.71646341 Z M16.4162896,13.179878 C16.4253394,13.0792683 16.4434389,12.9969512 16.4434389,12.9237805 C16.4434389,10.6920732 16.4434389,8.4695122 16.4524887,6.23780488 C16.4524887,6.00914634 16.3438914,5.91768293 16.1809955,5.81707317 C14.2352941,4.64634146 12.2986425,3.47560976 10.361991,2.29573171 C10.1719457,2.17682927 10.0361991,2.18597561 9.84615385,2.29573171 C7.87330317,3.47560976 5.89140271,4.64634146 3.90950226,5.81707317 C3.71040724,5.93597561 3.63800905,6.06402439 3.63800905,6.30182927 C3.64705882,8.4695122 3.64705882,10.6463415 3.64705882,12.8140244 C3.64705882,12.9329268 3.64705882,13.0518293 3.64705882,13.179878 C7.92760181,13.179878 12.1538462,13.179878 16.4162896,13.179878 Z" id="Shape"></path>
            <path d="M6.68778281,8.70731707 C6.68778281,8.13109756 6.68778281,7.56402439 6.68778281,6.97865854 C8.90497738,6.97865854 11.1040724,6.97865854 13.3303167,6.97865854 C13.3303167,7.55487805 13.3303167,8.12195122 13.3303167,8.70731707 C11.1221719,8.70731707 8.91402715,8.70731707 6.68778281,8.70731707 Z" id="Shape"></path>
            <path d="M13.3393665,9.61280488 C13.3393665,10.1981707 13.3393665,10.7469512 13.3393665,11.3323171 C11.1221719,11.3323171 8.92307692,11.3323171 6.68778281,11.3323171 C6.68778281,10.7652439 6.68778281,10.1981707 6.68778281,9.61280488 C8.90497738,9.61280488 11.1040724,9.61280488 13.3393665,9.61280488 Z" id="Shape"></path>
        </g>
    </g>
</svg>