<svg width="350" height="350" viewBox="0 0 350 350" fill="none" xmlns="http://www.w3.org/2000/svg">
<rect x="13" y="16" width="325" height="232.994" fill="#0C2074"/>
<rect x="40.2812" y="44.5988" width="270.438" height="174.61" fill="#0A41C5"/>
<ellipse cx="40.281" cy="45.7714" rx="27.281" ry="29.7714" fill="#0C2074"/>
<ellipse cx="40.281" cy="219.222" rx="27.281" ry="29.7714" fill="#0C2074"/>
<ellipse cx="310.281" cy="45.7714" rx="27.281" ry="29.7714" fill="#0C2074"/>
<ellipse cx="310.281" cy="219.222" rx="27.281" ry="29.7714" fill="#0C2074"/>
<path d="M146.75 252.965V341L180.5 312.538L216.75 341V252.965H146.75Z" fill="#C8E2F9"/>
<ellipse cx="181.125" cy="229.798" rx="50.625" ry="53.6151" fill="#DE162B"/>
<ellipse cx="181.75" cy="229.136" rx="38.75" ry="41.0387" fill="#A0101F"/>
<path d="M184.328 234.707C184.328 233.576 184.049 232.688 183.49 232.043C182.932 231.398 181.951 230.79 180.547 230.217C179.143 229.644 177.847 229.064 176.658 228.477C175.469 227.889 174.445 227.209 173.586 226.436C172.727 225.662 172.068 224.767 171.609 223.75C171.151 222.733 170.922 221.501 170.922 220.055C170.922 217.634 171.738 215.643 173.371 214.082C175.004 212.507 177.181 211.59 179.902 211.332V206.799H183.318V211.418C185.939 211.805 187.995 212.886 189.484 214.662C190.988 216.424 191.74 218.665 191.74 221.387H184.479C184.479 219.897 184.192 218.751 183.619 217.949C183.046 217.147 182.23 216.746 181.17 216.746C180.225 216.746 179.487 217.047 178.957 217.648C178.441 218.236 178.184 219.052 178.184 220.098C178.184 221.158 178.484 222.003 179.086 222.633C179.688 223.249 180.654 223.843 181.986 224.416C183.318 224.975 184.572 225.562 185.746 226.178C186.935 226.779 187.959 227.467 188.818 228.24C189.678 229.014 190.351 229.916 190.838 230.947C191.325 231.979 191.568 233.217 191.568 234.664C191.568 237.113 190.788 239.111 189.227 240.658C187.68 242.205 185.567 243.107 182.889 243.365V247.684H179.473V243.344C176.35 243.014 173.951 241.947 172.275 240.143C170.614 238.324 169.783 235.932 169.783 232.967H177.023C177.023 234.6 177.382 235.846 178.098 236.705C178.828 237.55 179.859 237.973 181.191 237.973C182.165 237.973 182.932 237.686 183.49 237.113C184.049 236.526 184.328 235.724 184.328 234.707Z" fill="white"/>
<rect x="76.75" y="104.697" width="210" height="7.94297" fill="#D9D9D9"/>
<rect x="101.75" y="140.44" width="160" height="7.94297" fill="#D9D9D9"/>
</svg>
