<svg xmlns="http://www.w3.org/2000/svg" viewBox="0 0 56 56"><g data-name="Icon Layer"><path d="M32.57 30.19a.75.75 0 00-1.05.12l-8.78 11.17a.75.75 0 00.12 1.05.76.76 0 00.47.16.75.75 0 00.59-.29l8.78-11.16a.76.76 0 00-.13-1.05zm-8.64 5.93a2.81 2.81 0 002.76-2.78 2.87 2.87 0 00-.74-2 2.71 2.71 0 00-1.94-.9h-.07a2.87 2.87 0 00-2 4.8 2.67 2.67 0 001.94.9zm-1.26-2.88a1.32 1.32 0 011.27-1.32 1.24 1.24 0 01.87.41 1.37 1.37 0 01.35 1 1.29 1.29 0 01-1.29 1.32 1.2 1.2 0 01-.88-.41 1.4 1.4 0 01-.32-1zm8.83 3.44h-.07a2.82 2.82 0 00-2.76 2.78 2.91 2.91 0 00.78 2.07 2.73 2.73 0 001.91.85h.07a2.81 2.81 0 002.76-2.78 2.87 2.87 0 00-.78-2.06 2.74 2.74 0 00-1.91-.86zm-.11 4.2a1.23 1.23 0 01-.85-.39 1.36 1.36 0 01-.37-1 1.31 1.31 0 011.26-1.32 1.23 1.23 0 01.85.39 1.37 1.37 0 01.37 1 1.29 1.29 0 01-1.26 1.32zM28 13.65a3.82 3.82 0 103.79 3.81A3.81 3.81 0 0028 13.65zm0 6.13a2.32 2.32 0 112.29-2.32A2.31 2.31 0 0128 19.78z"/><path d="M50.46 19.92L29.25 7.81a2.89 2.89 0 00-2.52.19L5.55 20a2.68 2.68 0 00-1.46 3 3.32 3.32 0 003.4 2.29h3.77v21.62H7.19a.75.75 0 100 1.5h41.62a.75.75 0 000-1.5h-4V25.5a.25.25 0 01.25-.25h3.44A3.34 3.34 0 0051.91 23a2.68 2.68 0 00-1.45-3.08zm0 2.65a1.87 1.87 0 01-2 1.18H45a1.75 1.75 0 00-1.75 1.75v21.41H12.76V25.25h24.62a.75.75 0 000-1.5H7.49a1.85 1.85 0 01-1.94-1.17 1.21 1.21 0 01.74-1.36l21.18-12a1.36 1.36 0 011.12-.11l21.13 12.11a1.21 1.21 0 01.73 1.35z"/></g></svg>