<svg width="306" height="290" viewBox="0 0 306 290" fill="none" xmlns="http://www.w3.org/2000/svg">
<rect x="231.616" y="176.142" width="17.1574" height="17.1574" rx="2.76732" fill="#F3BF75"/>
<ellipse cx="141.678" cy="231.212" rx="104.881" ry="7.47176" fill="#262F63" fill-opacity="0.1"/>
<rect x="47.8662" y="54.3799" width="187.624" height="141.133" fill="#EDF0FC"/>
<rect x="47.8662" y="54.3799" width="187.624" height="13.8366" fill="#3245A6"/>
<line x1="90.2642" y1="163.915" x2="193.716" y2="163.915" stroke="#CED4F2" stroke-width="3.39187"/>
<line x1="99.5923" y1="175.786" x2="184.389" y2="175.786" stroke="#CED4F2" stroke-width="3.39187"/>
<circle cx="55.498" cy="61.1638" r="2.5439" fill="#EDF0FC"/>
<circle cx="65.6738" cy="61.1638" r="2.5439" fill="#F3BF75"/>
<circle cx="75.8491" cy="61.1638" r="2.5439" fill="#72BFB6"/>
<path opacity="0.1" d="M134.024 89.525C135.089 87.6801 137.752 87.6801 138.817 89.525L171.89 146.808C172.955 148.653 171.623 150.959 169.493 150.959H103.348C101.217 150.959 99.8861 148.653 100.951 146.808L134.024 89.525Z" fill="#3245A6"/>
<path d="M138.452 85.6505C139.517 83.8056 142.18 83.8056 143.245 85.6505L176.317 142.934C177.382 144.779 176.051 147.085 173.921 147.085H107.776C105.645 147.085 104.314 144.779 105.379 142.934L138.452 85.6505Z" fill="#F3BF75"/>
<path d="M141.281 129.789H139.395L138.444 118.668V110.781H142.232V118.668L141.281 129.789ZM138.046 136.846V132.245H142.664V136.846H138.046Z" fill="#3245A6"/>
<path fill-rule="evenodd" clip-rule="evenodd" d="M235.49 93.269C230.935 96.3176 225.487 98.0904 219.635 98.0904C203.632 98.0904 190.66 84.8364 190.66 68.4868C190.66 63.3792 191.926 58.5738 194.155 54.3801H235.49V93.269Z" fill="#3245A6" fill-opacity="0.1"/>
<path d="M226.277 91.4486C242.279 91.4486 255.252 78.1947 255.252 61.8451C255.252 45.4954 242.279 32.2415 226.277 32.2415C210.274 32.2415 197.301 45.4954 197.301 61.8451C197.301 78.1947 210.274 91.4486 226.277 91.4486Z" fill="#72BFB6"/>
<path d="M238.075 51.3557L214.202 75.2285M238.466 75.2286L214.594 51.3557" stroke="white" stroke-width="5.53463"/>
<rect x="17.979" y="15.0842" width="45.384" height="34.3147" rx="2.76732" fill="#EDF0FC"/>
<rect x="14.6582" y="57.1472" width="8.85542" height="8.85542" rx="2.21385" fill="#72BFB6"/>
<rect x="249.327" y="160.091" width="8.85542" height="8.85542" rx="2.21385" fill="#72BFB6"/>
<path fill-rule="evenodd" clip-rule="evenodd" d="M48.8531 32.2412C48.8531 36.76 45.1899 40.4231 40.6712 40.4231C39.5176 40.4231 38.4199 40.1844 37.4246 39.7537L47.2012 27.3107C48.2381 28.6818 48.8531 30.3897 48.8531 32.2412ZM33.9874 36.9616L43.6772 24.6292C42.7466 24.2614 41.7325 24.0593 40.6712 24.0593C36.1524 24.0593 32.4892 27.7225 32.4892 32.2412C32.4892 33.9993 33.0437 35.6279 33.9874 36.9616ZM53.2808 32.2412C53.2808 39.2053 47.6353 44.8509 40.6712 44.8509C33.707 44.8509 28.0615 39.2053 28.0615 32.2412C28.0615 25.2771 33.707 19.6316 40.6712 19.6316C47.6353 19.6316 53.2808 25.2771 53.2808 32.2412Z" fill="#F3BF75"/>
<path d="M162.987 95.6128L179.314 81.4995L172.119 92.0153H179.867L164.647 104.745L169.905 95.6128H162.987Z" fill="#F3BF75"/>
<path d="M116.219 93.9524L99.8916 79.8391L107.087 90.3549H99.3381L114.558 103.085L109.3 93.9524H116.219Z" fill="#F3BF75"/>
<path d="M29.4635 189.218C41.8242 201.579 61.8648 201.579 74.2256 189.218C86.5863 176.857 86.5863 156.817 74.2256 144.456C61.8648 132.095 41.8242 132.095 29.4635 144.456C17.1027 156.817 17.1027 176.857 29.4635 189.218Z" fill="#3346A6"/>
<circle r="23.7337" transform="matrix(-0.707107 0.707107 0.707107 0.707107 51.8438 166.837)" fill="white"/>
<path d="M78.1885 184.188L68.9493 193.428C70.4072 194.886 72.7709 194.886 74.2288 193.428L78.1885 189.468C79.6464 188.01 79.6464 185.646 78.1885 184.188Z" fill="#3346A6"/>
<path fill-rule="evenodd" clip-rule="evenodd" d="M67.2426 187.076L72.0822 182.236L94.4616 204.615C95.798 205.952 95.798 208.119 94.4616 209.455C93.1251 210.791 90.9584 210.791 89.622 209.455L67.2426 187.076ZM92.7799 207.921C91.9295 208.771 90.5506 208.771 89.7002 207.921C88.8497 207.071 88.8497 205.692 89.7002 204.841C90.5506 203.991 91.9295 203.991 92.7799 204.841C93.6304 205.692 93.6304 207.071 92.7799 207.921Z" fill="#3346A6"/>
<rect x="129.225" y="188.318" width="129.51" height="19.3712" rx="1.10693" fill="#3245A6"/>
<path d="M253.594 193.299L243.792 202.708M253.754 202.708L243.953 193.299" stroke="white" stroke-width="1.66039"/>
<rect x="130.332" y="189.425" width="107.925" height="17.1574" fill="white"/>
</svg>