<svg width="26" height="26" viewBox="0 0 26 26" fill="none" xmlns="http://www.w3.org/2000/svg">
<path fill-rule="evenodd" clip-rule="evenodd" d="M23.1801 0L13.609 0.895558C12.974 0.954678 12.3806 1.23276 11.9295 1.68492L1.55805 12.055C0.0395046 13.5746 -0.504631 14.6366 0.537657 15.6788L10.3212 25.4621C11.3634 26.5044 12.4254 25.9613 13.9451 24.4417L24.3154 14.0706C24.7676 13.6195 25.0457 13.0261 25.1048 12.39L25.9982 2.85418C26.0004 2.76441 26.0004 2.70966 25.9993 2.65383C25.9544 1.17036 24.7391 0 23.2633 0C23.2359 0 23.2074 0 23.1801 0ZM11.0941 24.687L1.3128 14.9048C0.932895 14.526 1.24602 13.9151 2.3321 12.829L12.7024 2.45895C12.974 2.18744 13.3298 2.01993 13.7119 1.9849L23.2479 1.09262C24.1194 1.06744 24.876 1.78017 24.9055 2.68667C24.9066 2.72061 24.9066 2.75346 24.9055 2.7863L24.0154 12.2882C23.9793 12.6703 23.8118 13.0261 23.5414 13.2965L13.171 23.6677C12.3773 24.4614 11.8375 24.8413 11.4554 24.8413C11.3153 24.8413 11.197 24.7899 11.0941 24.687ZM17.0424 4.31357C15.7592 5.59669 15.7592 7.67574 17.0424 8.95777C18.3234 10.2409 20.4046 10.2409 21.6867 8.95777C22.9699 7.67574 22.9699 5.59669 21.6867 4.31357C21.0451 3.67201 20.2054 3.35123 19.3645 3.35123C18.5237 3.35123 17.6829 3.67201 17.0424 4.31357ZM17.8164 8.18374C16.9614 7.32869 16.9614 5.94156 17.8164 5.08651C18.6715 4.23255 20.0576 4.23255 20.9126 5.08651C21.7677 5.94156 21.7677 7.32869 20.9126 8.18374C20.4846 8.61181 19.924 8.8253 19.3645 8.8253C18.804 8.8253 18.2445 8.61181 17.8164 8.18374Z" fill="#333333"/>
</svg>
