<svg width="978" height="132" viewBox="0 0 978 132" fill="none" xmlns="http://www.w3.org/2000/svg">
<path fill-rule="evenodd" clip-rule="evenodd" d="M45.458 37.3333H43.8145V25.9583C43.8145 25.0603 43.0871 24.3333 42.1885 24.3333H23.7595C22.8619 24.3333 22.1334 25.0603 22.1334 25.9583V37.3333H20.542C20.2417 37.3333 20 37.576 20 37.875V38.9583C20 40.4544 21.2131 41.6667 22.7101 41.6667H43.2899C44.7869 41.6667 46 40.4544 46 38.9583V37.875C46 37.576 45.7572 37.3333 45.458 37.3333ZM44.9159 38.9583C44.9159 39.8553 44.1875 40.5833 43.2899 40.5833H22.7101C21.8115 40.5833 21.0841 39.8553 21.0841 38.9583V38.4167H29.4985L30.4221 39.3418C30.5251 39.4426 30.6628 39.5 30.8059 39.5H35.1421C35.2863 39.5 35.424 39.4426 35.5259 39.3418L36.4506 38.4167H44.9159V38.9583ZM23.7595 25.4167C23.4603 25.4167 23.2175 25.6593 23.2175 25.9583V37.3333H29.724C29.8682 37.3333 30.0058 37.3908 30.1077 37.4915L31.0314 38.4167H34.9177L35.8435 37.4915C35.9454 37.3908 36.0831 37.3333 36.2262 37.3333H42.7305V25.9583C42.7305 25.6593 42.4887 25.4167 42.1885 25.4167H23.7595ZM33.5164 34.0833H40.0208C40.32 34.0833 40.5628 33.8407 40.5628 33.5417C40.5628 33.2427 40.32 33 40.0208 33H33.5164C33.2172 33 32.9744 33.2427 32.9744 33.5417C32.9744 33.8407 33.2172 34.0833 33.5164 34.0833ZM33.5164 30.8333H40.0208C40.32 30.8333 40.5628 30.5907 40.5628 30.2917C40.5628 29.9927 40.32 29.75 40.0208 29.75H33.5164C33.2172 29.75 32.9744 29.9927 32.9744 30.2917C32.9744 30.5907 33.2172 30.8333 33.5164 30.8333ZM29.9933 33.2994C29.9933 32.5227 29.5922 31.9442 28.8593 31.6582C27.8772 31.2595 27.3167 31.0299 27.2192 30.9854C26.9861 30.8804 26.7725 30.6659 26.7725 30.4416C26.7725 29.9509 27.037 29.7504 27.7493 29.7504C28.2534 29.7504 28.61 29.8501 28.8344 30.0321C29.0664 30.2206 29.4079 30.1849 29.5965 29.953C29.7851 29.7201 29.7493 29.3789 29.5174 29.1914C29.2724 28.9932 28.9753 28.8589 28.6382 28.7733V28.1254C28.6382 27.8254 28.3954 27.5838 28.0962 27.5838C27.797 27.5838 27.5541 27.8254 27.5541 28.1254V28.679C26.4148 28.7419 25.6885 29.3409 25.6885 30.4416C25.6885 31.2054 26.1926 31.7102 26.7725 31.9724C26.8907 32.0254 27.4403 32.2519 28.4582 32.6646C28.7845 32.7914 28.9092 32.9712 28.9092 33.2994C28.9092 33.5334 28.8669 33.6429 28.7499 33.7544C28.4712 34.0177 28.2479 34.0838 27.8143 34.0838C27.3807 34.0838 26.907 33.9473 26.5373 33.6515C26.3031 33.4652 25.9617 33.5031 25.7752 33.7371C25.5887 33.9711 25.6267 34.3124 25.8608 34.4987C26.366 34.9017 26.9698 35.0999 27.5541 35.1465V35.7088C27.5541 36.0078 27.797 36.2504 28.0962 36.2504C28.3954 36.2504 28.6382 36.0078 28.6382 35.7088V35.0544C28.9396 34.9624 29.2138 34.8064 29.4946 34.542C29.8426 34.2127 29.9933 33.8162 29.9933 33.2994Z" fill="#333333"/>
<path fill-rule="evenodd" clip-rule="evenodd" d="M113.141 32.402L120.917 26.1295V39.8597L113.141 32.402ZM105.713 33.0834L107.662 34.6629C108.424 35.1667 109.641 35.1775 110.318 34.6792L112.29 33.0878L120.106 40.5833H97.8677L105.713 33.0834ZM109.657 33.8212C109.376 34.027 108.652 34.0216 108.3 33.7898L97.9728 25.4167H120.074L109.657 33.8212ZM97.0833 26.0905L104.864 32.3966L97.0833 39.8348V26.0905ZM120.211 24.3333H97.7875C96.8114 24.3333 96 25.0895 96 26.0363V39.9648C96 40.9116 96.8114 41.6667 97.7875 41.6667H120.211C121.189 41.6667 122 40.9116 122 39.9648V26.0363C122 25.0895 121.189 24.3333 120.211 24.3333Z" fill="#333333"/>
<path fill-rule="evenodd" clip-rule="evenodd" d="M192.702 23.5987C192.245 23.7925 191.599 24.2049 190.782 24.8329C190.607 24.9673 190.368 24.9821 190.177 24.8703C188.271 23.7503 185.947 23.1772 183.392 23.257C177.018 23.4559 173.083 27.3027 173.083 32.4625C173.083 35.5378 174.396 38.2454 176.826 39.8945C176.977 39.9966 177.066 40.1676 177.063 40.3495V43.2922C177.063 43.5913 177.306 43.8337 177.605 43.8337H181.091C181.39 43.8337 181.632 43.5913 181.632 43.2922V42.1711C181.632 41.8559 181.901 41.6073 182.215 41.6312C182.612 41.6613 183.02 41.6766 183.439 41.6766C184.146 41.6766 184.831 41.6307 185.492 41.5403C185.817 41.4958 186.107 41.7486 186.107 42.0768V43.2922C186.107 43.5913 186.349 43.8337 186.649 43.8337H190.134C190.433 43.8337 190.676 43.5913 190.676 43.2922V40.3568C190.676 40.2823 190.661 40.2109 190.633 40.1448C190.533 39.9119 190.609 39.6413 190.814 39.4932C192.232 38.4715 193.313 37.1409 193.973 35.6362C194.06 35.4395 194.254 35.3124 194.469 35.3124H196.375C196.674 35.3124 196.917 35.07 196.917 34.7709V30.097C196.917 29.798 196.674 29.5556 196.375 29.5556H194.597C194.379 29.5556 194.182 29.4246 194.097 29.2234C193.791 28.4935 193.374 27.7986 192.857 27.1582C192.734 27.0055 192.703 26.7981 192.776 26.6161C192.834 26.4735 192.888 26.3074 192.94 26.1182C193.167 25.2788 193.609 24.3376 194.263 23.2896C193.59 23.3389 193.069 23.4436 192.702 23.5987ZM191.746 40.1493C191.755 40.2177 191.759 40.287 191.759 40.3568V43.2922C191.759 44.1894 191.032 44.9167 190.134 44.9167H186.649C185.751 44.9167 185.024 44.1894 185.024 43.2922V42.6848C184.507 42.7345 183.978 42.7595 183.439 42.7595C183.194 42.7595 182.953 42.7547 182.716 42.745V43.2922C182.716 44.1894 181.988 44.9167 181.091 44.9167H177.605C176.708 44.9167 175.98 44.1894 175.98 43.2922V40.6241C173.392 38.7523 172 35.7829 172 32.4625C172 26.7045 176.412 22.3913 183.358 22.1745C185.976 22.0928 188.387 22.6508 190.409 23.7568C191.162 23.1965 191.782 22.8122 192.28 22.6015C192.976 22.3067 193.975 22.1695 195.294 22.1742C195.73 22.1758 195.986 22.6667 195.736 23.025C194.821 24.3406 194.238 25.4695 193.985 26.4015C193.955 26.5131 193.923 26.6195 193.89 26.7205C194.309 27.2729 194.664 27.86 194.95 28.4726H196.375C197.272 28.4726 198 29.1999 198 30.097V34.7709C198 35.6681 197.272 36.3954 196.375 36.3954H194.816C194.12 37.8382 193.076 39.1226 191.746 40.1493ZM188.514 26.575C188.776 26.721 188.869 27.051 188.723 27.312C188.577 27.573 188.247 27.6662 187.986 27.5202C186.74 26.8234 185.243 26.5061 183.606 26.5061C182.354 26.5061 180.916 26.9226 179.848 27.5202C179.587 27.6662 179.257 27.573 179.111 27.312C178.965 27.051 179.058 26.721 179.319 26.575C180.541 25.8914 182.158 25.4232 183.606 25.4232C185.415 25.4232 187.09 25.7783 188.514 26.575Z" fill="#333333"/>
<path fill-rule="evenodd" clip-rule="evenodd" d="M264.705 25.0374C265.292 24.4492 266.063 24.1556 266.833 24.1556C267.604 24.1556 268.375 24.4492 268.962 25.0374C270.139 26.2128 270.139 28.1195 268.962 29.2949C268.375 29.8832 267.604 30.1767 266.833 30.1767C266.063 30.1767 265.292 29.8832 264.705 29.2949C263.528 28.1195 263.528 26.2128 264.705 25.0374ZM266.833 29.0934C267.349 29.0934 267.832 28.893 268.196 28.529C268.56 28.165 268.761 27.6807 268.761 27.1662C268.761 26.6516 268.56 26.1673 268.196 25.8033C267.832 25.4393 267.349 25.2389 266.833 25.2389C266.319 25.2389 265.835 25.4393 265.471 25.8033C265.107 26.1673 264.906 26.6516 264.906 27.1662C264.906 27.6807 265.107 28.165 265.471 28.529C265.835 28.893 266.319 29.0934 266.833 29.0934Z" fill="#333333"/>
<path d="M262.689 30.1371C262.905 29.9204 263.258 29.9193 263.476 30.1371C263.692 30.3538 263.692 30.7058 263.476 30.9236L262.931 31.4685C263.308 31.9528 263.53 32.4457 263.591 32.9353C263.628 33.2408 263.411 33.5193 263.107 33.5572C263.086 33.5593 263.062 33.5615 263.04 33.5615C262.764 33.5615 262.522 33.3546 262.487 33.074C262.437 32.6699 262.176 32.2301 261.711 31.7653C261.027 31.0828 260.534 30.994 260.063 31.4653C259.828 31.6993 259.852 32.1304 259.98 32.4543C260.031 32.5822 260.333 33.2766 260.878 34.5192C261.266 35.375 261.129 36.1983 260.491 36.8353C260.083 37.2448 259.652 37.4366 259.142 37.4366C259.109 37.4366 259.075 37.4366 259.042 37.4344C258.427 37.4041 257.968 37.2405 257.512 36.8873L256.971 37.4279C256.863 37.5373 256.72 37.5915 256.578 37.5915C256.435 37.5915 256.293 37.5373 256.185 37.4279C255.968 37.2113 255.968 36.8581 256.185 36.6425L256.728 36.0998C256.304 35.5462 256.035 34.9113 255.949 34.2581C255.93 34.1108 255.968 33.9656 256.059 33.8475C256.149 33.7294 256.28 33.6536 256.428 33.6341C256.572 33.6168 256.72 33.6536 256.839 33.7446C256.956 33.8345 257.032 33.9656 257.052 34.1129C257.128 34.6903 257.427 35.2775 257.872 35.7217C258.309 36.1593 258.596 36.2991 259.096 36.3251C259.328 36.3392 259.49 36.2633 259.706 36.0488C260.021 35.7336 260.066 35.4216 259.863 34.972C259.284 33.6568 259.002 33.0047 258.945 32.8617C258.613 32.0178 258.734 31.2226 259.278 30.6788C260.113 29.8435 261.132 29.8403 262.156 30.6712L262.689 30.1371Z" fill="#333333"/>
<path fill-rule="evenodd" clip-rule="evenodd" d="M270.249 21.0844C270.275 21.0833 270.301 21.0833 270.327 21.0833C271.677 21.0833 272.792 22.1569 272.833 23.5165C272.834 23.5663 272.834 23.6173 272.831 23.6996L272.013 32.4421C271.958 33.0238 271.703 33.5688 271.289 33.9826L261.784 43.4888C260.881 44.3902 260.156 44.9167 259.496 44.9167C259.136 44.9167 258.797 44.7596 258.46 44.4238L249.493 35.4559C248.538 34.5004 249.036 33.5265 250.428 32.1344L259.935 22.6282C260.348 22.2143 260.893 21.9576 261.476 21.9045L270.249 21.0844ZM270.935 32.3403L271.749 23.6281C271.75 23.5956 271.75 23.5728 271.749 23.549C271.727 22.7733 271.1 22.1667 270.327 22.1667H270.31L261.576 22.9824C261.246 23.0138 260.936 23.159 260.7 23.3941L251.195 32.9003C250.579 33.5157 250.213 33.988 250.108 34.3022C250.07 34.4159 250.049 34.4798 250.259 34.69L259.227 43.6578C259.279 43.7109 259.411 43.8333 259.496 43.8333C259.619 43.8333 260.014 43.725 261.018 42.7218L270.523 33.2167C270.757 32.9816 270.904 32.6707 270.935 32.3403Z" fill="#333333"/>
<path fill-rule="evenodd" clip-rule="evenodd" d="M325.083 20C324.485 20 324 20.4843 324 21.0833V44.9167C324 45.5147 324.485 46 325.083 46H348.917C349.516 46 350 45.5147 350 44.9167V21.0833C350 20.4843 349.516 20 348.917 20H325.083ZM325.083 44.9167H348.917V21.0833H325.083V44.9167ZM331.583 24.875V27.5833H328.875C328.575 27.5833 328.333 27.826 328.333 28.125C328.333 28.424 328.575 28.6667 328.875 28.6667H331.583V31.375C331.583 31.6751 331.826 31.9167 332.125 31.9167C332.424 31.9167 332.667 31.6751 332.667 31.375V28.6667H335.375C335.674 28.6667 335.917 28.424 335.917 28.125C335.917 27.826 335.674 27.5833 335.375 27.5833H332.667V24.875C332.667 24.576 332.424 24.3333 332.125 24.3333C331.826 24.3333 331.583 24.576 331.583 24.875ZM339.708 27.5833C339.409 27.5833 339.167 27.826 339.167 28.125C339.167 28.424 339.409 28.6667 339.708 28.6667H345.125C345.424 28.6667 345.667 28.424 345.667 28.125C345.667 27.826 345.424 27.5833 345.125 27.5833H339.708ZM339.708 36.25C339.409 36.25 339.167 36.4927 339.167 36.7917C339.167 37.0907 339.409 37.3333 339.708 37.3333H345.125C345.424 37.3333 345.667 37.0907 345.667 36.7917C345.667 36.4927 345.424 36.25 345.125 36.25H339.708ZM333.908 36.4082L332.125 38.1924L330.341 36.4082C330.13 36.1969 329.787 36.1969 329.576 36.4082C329.364 36.6205 329.364 36.9628 329.576 37.1752L331.359 38.9583L329.576 40.7426C329.364 40.9538 329.364 41.2962 329.576 41.5074C329.787 41.7198 330.13 41.7198 330.341 41.5074L332.125 39.7243L333.908 41.5074C334.121 41.7198 334.463 41.7198 334.675 41.5074C334.886 41.2962 334.886 40.9538 334.675 40.7426L332.891 38.9583L334.675 37.1752C334.886 36.9628 334.886 36.6205 334.675 36.4082C334.568 36.3031 334.43 36.25 334.292 36.25C334.153 36.25 334.013 36.3031 333.908 36.4082ZM339.708 39.5C339.409 39.5 339.167 39.7416 339.167 40.0417C339.167 40.3407 339.409 40.5833 339.708 40.5833H345.125C345.424 40.5833 345.667 40.3407 345.667 40.0417C345.667 39.7416 345.424 39.5 345.125 39.5H339.708Z" fill="#333333"/>
<path fill-rule="evenodd" clip-rule="evenodd" d="M422.044 26.6439V43.8093H416.392V36.6114C416.392 36.3058 416.138 36.0577 415.826 36.0577H410.174C409.862 36.0577 409.609 36.3058 409.609 36.6114V43.8093H403.957V26.6439C403.957 26.6318 403.95 26.6207 403.95 26.6085L413 21.2023L422.052 26.6085C422.05 26.6207 422.044 26.6318 422.044 26.6439ZM425.73 27.5099L413.294 20.0806C413.114 19.9731 412.886 19.9731 412.706 20.0806L400.272 27.5099C400.005 27.6683 399.92 28.0093 400.083 28.2707C400.246 28.532 400.593 28.614 400.859 28.4545L402.826 27.2807V44.363C402.826 44.6686 403.08 44.9167 403.392 44.9167H410.174C410.486 44.9167 410.739 44.6686 410.739 44.363V37.1651H415.261V44.363C415.261 44.6686 415.514 44.9167 415.826 44.9167H422.609C422.921 44.9167 423.174 44.6686 423.174 44.363V27.2807L425.14 28.4545C425.408 28.614 425.755 28.532 425.918 28.2707C426.079 28.0093 425.996 27.6683 425.73 27.5099Z" fill="#333333"/>
<path d="M494.35 29.4767C494.203 29.2159 493.874 29.1218 493.612 29.2668L489 31.8261L484.388 29.2668C484.127 29.1218 483.797 29.2159 483.652 29.4767C483.507 29.7386 483.601 30.0676 483.862 30.2126L488.737 32.918C488.901 33.0089 489.1 33.0089 489.263 32.918L494.138 30.2126C494.401 30.0676 494.494 29.7386 494.35 29.4767Z" fill="#333333"/>
<path fill-rule="evenodd" clip-rule="evenodd" d="M478.167 30.8216C478.167 24.7182 482.522 20 489 20C495.479 20 499.833 24.7182 499.833 30.8216C499.833 34.4512 497.706 37.7918 494.417 39.652V43.2946C494.417 43.5922 494.175 43.8357 493.875 43.8357H493.333V45.4589C493.333 45.7565 493.092 46 492.792 46H485.208C484.909 46 484.667 45.7565 484.667 45.4589V43.8357H484.125C483.826 43.8357 483.583 43.5922 483.583 43.2946V39.652C480.295 37.7918 478.167 34.4512 478.167 30.8216ZM493.333 39.3317C493.333 39.1326 493.445 38.9486 493.621 38.8545C496.733 37.2085 498.75 34.1384 498.75 30.8216C498.75 25.2972 494.861 21.0822 489 21.0822C483.14 21.0822 479.25 25.2972 479.25 30.8216C479.25 34.1384 481.268 37.2085 484.378 38.8545C484.556 38.9486 484.667 39.1326 484.667 39.3317V40.5892H493.333V39.3317ZM493.333 41.6714V42.7535H484.667V41.6714H493.333ZM492.25 43.8357V44.9178H485.75V43.8357H492.25Z" fill="#333333"/>
<path fill-rule="evenodd" clip-rule="evenodd" d="M573.125 35.1667H570.958C570.659 35.1667 570.417 34.924 570.417 34.625V31.375C570.417 31.076 570.659 30.8333 570.958 30.8333H573.125C573.424 30.8333 573.667 31.076 573.667 31.375V34.625C573.667 34.924 573.424 35.1667 573.125 35.1667ZM572.583 34.0833H571.5V31.9167H572.583V34.0833Z" fill="#333333"/>
<path fill-rule="evenodd" clip-rule="evenodd" d="M577.458 25.4167C577.757 25.4167 578 25.174 578 24.875V21.625C578 21.326 577.757 21.0833 577.458 21.0833H552.542C552.243 21.0833 552 21.326 552 21.625V24.875C552 25.174 552.243 25.4167 552.542 25.4167H553.083V43.8333H552.542C552.243 43.8333 552 44.076 552 44.375C552 44.674 552.243 44.9167 552.542 44.9167H577.458C577.757 44.9167 578 44.674 578 44.375C578 44.076 577.757 43.8333 577.458 43.8333H576.917V25.4167H577.458ZM575.833 25.4167V43.8333H567.167V31.9167C567.167 31.3187 566.682 30.8333 566.083 30.8333H559.583C558.985 30.8333 558.5 31.3187 558.5 31.9167V43.8333H554.167V25.4167H575.833ZM566.083 43.8333H559.583V31.9167H566.083V43.8333ZM553.083 22.1667H576.917V24.3333H553.083V22.1667Z" fill="#333333"/>
<path fill-rule="evenodd" clip-rule="evenodd" d="M649.667 40.5844H641.542C640.675 40.5844 639.917 41.3417 639.917 42.2094V44.9177H632.875C632.55 44.9177 632.333 44.7 632.333 44.3761V21.625C632.333 21.3 632.55 21.0833 632.875 21.0833H649.125C649.45 21.0833 649.667 21.3 649.667 21.625V40.5844ZM641 44.7V42.2094C641 41.8833 641.217 41.6677 641.542 41.6677H647.717L641 44.7ZM649.125 20H632.875C632.008 20 631.25 20.7583 631.25 21.625V44.3761C631.25 45.2417 632.008 46.0011 632.875 46.0011H640.35C640.567 46.0011 640.783 46.0011 641 45.8917L649.775 41.9917C650.425 41.6677 650.75 41.1261 650.75 40.475V21.625C650.75 20.7583 649.992 20 649.125 20ZM645.875 33.5418C646.2 33.5418 646.417 33.3251 646.417 33.0001V27.5834C646.417 27.2584 646.2 27.0418 645.875 27.0418C645.55 27.0418 645.333 27.2584 645.333 27.5834V33.0001C645.333 33.3251 645.55 33.5418 645.875 33.5418ZM642.625 33.5418C642.95 33.5418 643.167 33.3251 643.167 33.0001V29.7501C643.167 29.4251 642.95 29.2084 642.625 29.2084C642.3 29.2084 642.083 29.4251 642.083 29.7501V33.0001C642.083 33.3251 642.3 33.5418 642.625 33.5418ZM639.375 33.5418C639.7 33.5418 639.917 33.3251 639.917 33.0001V31.3751C639.917 31.0501 639.7 30.8334 639.375 30.8334C639.05 30.8334 638.833 31.0501 638.833 31.3751V33.0001C638.833 33.3251 639.05 33.5418 639.375 33.5418ZM646.525 35.1673H637.208C636.884 35.1673 636.666 34.9507 636.666 34.6257V25.959C636.666 25.634 636.45 25.4173 636.125 25.4173C635.801 25.4173 635.583 25.634 635.583 25.959V34.6257C635.583 35.4923 636.342 36.2507 637.208 36.2507H646.525C646.851 36.2507 647.066 36.034 647.066 35.709C647.066 35.3829 646.851 35.1673 646.525 35.1673Z" fill="#333333"/>
<path fill-rule="evenodd" clip-rule="evenodd" d="M721.875 44.9163C717.986 44.9163 714.833 41.7638 714.833 37.8746C714.833 33.9855 717.986 30.833 721.875 30.833C725.764 30.833 728.917 33.9855 728.917 37.8746C728.917 41.7638 725.764 44.9163 721.875 44.9163ZM721.875 29.7496C717.387 29.7496 713.75 33.3875 713.75 37.8746C713.75 39.7065 714.363 41.3911 715.386 42.7496H705.888C705.444 42.7496 705.083 42.3965 705.083 41.9729V21.083C705.083 20.784 704.841 20.5413 704.542 20.5413C704.243 20.5413 704 20.784 704 21.083V41.9729C704 42.9988 704.85 43.833 705.888 43.833H716.364C717.814 45.173 719.745 45.9996 721.875 45.9996C726.363 45.9996 730 42.3629 730 37.8746C730 33.3875 726.363 29.7496 721.875 29.7496ZM724.599 35.472L720.87 39.3623C720.649 39.5822 720.307 39.5822 720.096 39.3709L719.008 38.2811C718.797 38.0688 718.453 38.0688 718.242 38.2811C718.031 38.4934 718.031 38.8358 718.242 39.0481L719.33 40.1379C719.965 40.7728 720.994 40.7728 721.628 40.1379L721.651 40.113L725.381 36.2228C725.587 36.0061 725.581 35.6638 725.365 35.4558C725.149 35.2488 724.805 35.2564 724.599 35.472ZM708.117 37.8291C708.39 37.9483 708.708 37.8226 708.828 37.5475L712.664 28.6685H719.132L722.904 20.7796C723.034 20.5088 722.922 20.1838 722.652 20.0538C722.383 19.9238 722.061 20.0375 721.931 20.3073L718.454 27.5819H711.954L707.836 37.1141C707.717 37.3904 707.843 37.71 708.117 37.8291Z" fill="#333333"/>
<path fill-rule="evenodd" clip-rule="evenodd" d="M793.907 41.6082H792.255L790.988 39.4849C791.645 39.3928 792.311 39.3337 792.989 39.3337C793.739 39.3337 794.471 39.411 795.194 39.5247L793.907 41.6082ZM805.91 45.0611C803.102 40.7485 798.275 38.087 792.989 38.087C787.718 38.087 782.903 40.7327 780.091 45.0262C779.921 45.2858 779.996 45.6343 780.26 45.8029C780.522 45.9726 780.875 45.8973 781.046 45.6365C783.068 42.5502 786.212 40.4012 789.799 39.5863L791.295 42.0601L789.725 45.1881C789.586 45.4668 789.701 45.804 789.982 45.9411C790.264 46.0794 790.605 45.9658 790.745 45.6882L792.301 42.5828H793.863L795.475 45.6691C795.62 45.9445 795.963 46.0535 796.242 45.9108C796.52 45.768 796.631 45.4286 796.486 45.1532L794.869 42.0579L796.39 39.6256C799.903 40.4798 802.972 42.6255 804.953 45.6691C805.123 45.931 805.475 46.0063 805.739 45.8377C806.003 45.6702 806.079 45.3229 805.91 45.0611ZM793 21.1304C796.745 21.1304 799.783 24.1679 799.783 27.913C799.783 31.6582 796.745 34.6957 793 34.6957C789.255 34.6957 786.217 31.6582 786.217 27.913C786.217 24.1679 789.255 21.1304 793 21.1304ZM793 35.8261C797.37 35.8261 800.913 32.2833 800.913 27.913C800.913 23.5428 797.37 20 793 20C788.63 20 785.087 23.5428 785.087 27.913C785.087 32.2833 788.63 35.8261 793 35.8261Z" fill="#333333"/>
<path d="M874.35 29.4767C874.203 29.2159 873.874 29.1218 873.612 29.2668L869 31.8261L864.388 29.2668C864.127 29.1218 863.797 29.2159 863.652 29.4767C863.507 29.7386 863.601 30.0676 863.862 30.2126L868.737 32.918C868.901 33.0089 869.1 33.0089 869.263 32.918L874.138 30.2126C874.401 30.0676 874.494 29.7386 874.35 29.4767Z" fill="#333333"/>
<path fill-rule="evenodd" clip-rule="evenodd" d="M858.167 30.8216C858.167 24.7182 862.522 20 869 20C875.479 20 879.833 24.7182 879.833 30.8216C879.833 34.4512 877.706 37.7918 874.417 39.652V43.2946C874.417 43.5922 874.175 43.8357 873.875 43.8357H873.333V45.4589C873.333 45.7565 873.092 46 872.792 46H865.208C864.909 46 864.667 45.7565 864.667 45.4589V43.8357H864.125C863.826 43.8357 863.583 43.5922 863.583 43.2946V39.652C860.295 37.7918 858.167 34.4512 858.167 30.8216ZM873.333 39.3317C873.333 39.1326 873.445 38.9486 873.622 38.8545C876.733 37.2085 878.75 34.1384 878.75 30.8216C878.75 25.2972 874.861 21.0822 869 21.0822C863.14 21.0822 859.25 25.2972 859.25 30.8216C859.25 34.1384 861.268 37.2085 864.379 38.8545C864.556 38.9486 864.667 39.1326 864.667 39.3317V40.5892H873.333V39.3317ZM873.333 41.6714V42.7535H864.667V41.6714H873.333ZM872.25 43.8357V44.9178H865.75V43.8357H872.25Z" fill="#333333"/>
<path fill-rule="evenodd" clip-rule="evenodd" d="M944.582 45.8028C938.364 38.2559 935.25 32.8236 935.25 29.3936C935.25 24.2485 939.719 20 945 20C950.281 20 954.75 24.2485 954.75 29.3936C954.75 32.8236 951.636 38.2559 945.418 45.8028C945.201 46.0657 944.799 46.0657 944.582 45.8028ZM953.667 29.3936C953.667 24.8594 949.695 21.0833 945 21.0833C940.305 21.0833 936.333 24.8594 936.333 29.3936C936.333 32.4101 939.219 37.515 945 44.6039C950.781 37.515 953.667 32.4101 953.667 29.3936ZM939.583 29.75C939.583 32.7415 942.008 35.1667 945 35.1667C947.992 35.1667 950.417 32.7415 950.417 29.75C950.417 26.7585 947.992 24.3333 945 24.3333C942.008 24.3333 939.583 26.7585 939.583 29.75ZM949.333 29.75C949.333 32.1432 947.393 34.0833 945 34.0833C942.607 34.0833 940.667 32.1432 940.667 29.75C940.667 27.3568 942.607 25.4167 945 25.4167C947.393 25.4167 949.333 27.3568 949.333 29.75Z" fill="#333333"/>
<g clip-path="url(#clip0_15426_400)">
<path fill-rule="evenodd" clip-rule="evenodd" d="M26.9537 93.7059C26.9537 88.8982 30.7691 85 35.4769 85C40.1836 85 44 88.8982 44 93.7059C44 98.5136 40.1836 102.412 35.4769 102.412C33.1886 102.412 31.115 101.486 29.5848 99.9874L22.8556 106.851C22.659 107.05 22.3422 107.049 22.1466 106.85C21.9511 106.65 21.9511 106.325 22.1466 106.126L28.897 99.2397C27.6827 97.7362 26.9537 95.8076 26.9537 93.7059ZM27.9564 93.7059C27.9564 97.9492 31.3226 101.388 35.4769 101.388C39.6301 101.388 42.9973 97.9492 42.9973 93.7059C42.9973 89.4635 39.6301 86.0242 35.4769 86.0242C31.3226 86.0242 27.9564 89.4635 27.9564 93.7059Z" fill="#04208F"/>
</g>
<g clip-path="url(#clip1_15426_400)">
<path fill-rule="evenodd" clip-rule="evenodd" d="M106 102.999C105.732 102.999 105.465 102.892 105.268 102.68C104.892 102.275 104.915 101.643 105.319 101.267L110.982 95.9989L105.319 90.7309C104.915 90.3549 104.892 89.7229 105.268 89.3179C105.645 88.9139 106.277 88.8929 106.681 89.2669L112.398 94.5859C112.794 94.9539 113.02 95.4689 113.02 95.9999C113.02 96.5299 112.794 97.0449 112.399 97.4119L106.681 102.731C106.488 102.91 106.244 102.999 106 102.999Z" fill="#04208F"/>
</g>
<g clip-path="url(#clip2_15426_400)">
<path fill-rule="evenodd" clip-rule="evenodd" d="M198.847 103.021C198.847 103.339 198.59 103.598 198.272 103.598H176.336C176.017 103.598 175.76 103.339 175.76 103.021V102.162H195.968C196.923 102.162 197.696 101.387 197.696 100.433V92.0457H198.272C198.59 92.0457 198.847 92.3034 198.847 92.6224V103.021ZM173.456 100.433V99.8576H193.665C194.619 99.8576 195.392 99.0834 195.392 98.1276V89.4575H195.968C196.286 89.4575 196.544 89.7152 196.544 90.0342V100.433C196.544 100.752 196.286 101.01 195.968 101.01H174.031C173.714 101.01 173.456 100.752 173.456 100.433ZM171.153 98.1276V87.7288C171.153 87.411 171.41 87.1521 171.727 87.1521H179.439C177.57 88.393 176.336 90.5146 176.336 92.9288C176.336 95.3406 177.57 97.4634 179.439 98.7044H171.727C171.41 98.7044 171.153 98.4454 171.153 98.1276ZM183.259 98.7044C180.071 98.7044 177.487 96.1174 177.487 92.9288C177.487 89.7377 180.071 87.1521 183.259 87.1521C186.446 87.1521 189.03 89.7377 189.03 92.9288C189.03 96.1174 186.446 98.7044 183.259 98.7044ZM193.665 87.1521C193.982 87.1521 194.24 87.411 194.24 87.7288V98.1276C194.24 98.4454 193.982 98.7044 193.665 98.7044H187.08C188.949 97.4634 190.182 95.3406 190.182 92.9288C190.182 90.5146 188.949 88.393 187.08 87.1521H193.665ZM198.272 90.8936H197.696V90.0342C197.696 89.0785 196.923 88.3054 195.968 88.3054H195.392V87.7288C195.392 86.7743 194.619 86 193.665 86H171.727C170.774 86 170 86.7743 170 87.7288V98.1276C170 99.0834 170.774 99.8576 171.727 99.8576H172.304V100.433C172.304 101.387 173.077 102.162 174.031 102.162H174.608V103.021C174.608 103.977 175.381 104.75 176.336 104.75H198.272C199.226 104.75 200 103.977 200 103.021V92.6224C200 91.6667 199.226 90.8936 198.272 90.8936ZM184.629 92.3749C183.481 91.9721 182.829 91.7407 182.712 91.6957C182.439 91.5881 182.188 91.3704 182.188 91.1866C182.188 90.7337 182.515 90.5198 183.38 90.5198C183.994 90.5198 184.435 90.6274 184.711 90.8213C184.972 91.0039 185.331 90.9414 185.514 90.6799C185.696 90.4197 185.634 90.0595 185.373 89.8768C184.974 89.5979 184.438 89.4678 183.822 89.4165V88.8811C183.822 88.5634 183.565 88.3057 183.247 88.3057C182.929 88.3057 182.671 88.5634 182.671 88.8811V89.4315C181.661 89.6104 181.035 90.1883 181.035 91.1866C181.035 91.9997 181.62 92.505 182.294 92.769C182.429 92.8215 183.071 93.0504 184.254 93.4657C184.65 93.5996 184.788 93.7709 184.788 94.0674C184.788 94.2776 184.749 94.3676 184.616 94.4765C184.276 94.7542 183.989 94.8267 183.457 94.8267C182.926 94.8267 182.347 94.6829 181.901 94.3751C181.64 94.1938 181.281 94.2601 181.101 94.5215C180.92 94.7842 180.986 95.1432 181.248 95.3233C181.68 95.6223 182.174 95.8012 182.671 95.895V96.4654C182.671 96.7832 182.929 97.0408 183.247 97.0408C183.565 97.0408 183.822 96.7832 183.822 96.4654V95.96C184.404 95.9175 184.862 95.7637 185.344 95.3696C185.755 95.0331 185.94 94.6128 185.94 94.0674C185.94 93.2493 185.465 92.6576 184.629 92.3749Z" fill="#5E676B"/>
</g>
<g clip-path="url(#clip3_15426_400)">
<path fill-rule="evenodd" clip-rule="evenodd" d="M264.42 88.6499C264.962 88.1069 265.674 87.8359 266.385 87.8359C267.096 87.8359 267.808 88.1069 268.35 88.6499C269.436 89.7349 269.436 91.4949 268.35 92.5799C267.808 93.1229 267.096 93.3939 266.385 93.3939C265.674 93.3939 264.962 93.1229 264.42 92.5799C263.334 91.4949 263.334 89.7349 264.42 88.6499ZM266.385 92.3939C266.861 92.3939 267.307 92.2089 267.643 91.8729C267.979 91.5369 268.164 91.0899 268.164 90.6149C268.164 90.1399 267.979 89.6929 267.643 89.3569C267.307 89.0209 266.861 88.8359 266.385 88.8359C265.91 88.8359 265.463 89.0209 265.127 89.3569C264.791 89.6929 264.606 90.1399 264.606 90.6149C264.606 91.0899 264.791 91.5369 265.127 91.8729C265.463 92.2089 265.91 92.3939 266.385 92.3939Z" fill="#5E676B"/>
<path d="M262.559 93.3573C262.758 93.1573 263.084 93.1563 263.285 93.3573C263.485 93.5573 263.485 93.8823 263.285 94.0833L262.782 94.5863C263.13 95.0333 263.335 95.4883 263.391 95.9403C263.426 96.2223 263.225 96.4793 262.945 96.5143C262.925 96.5163 262.903 96.5183 262.883 96.5183C262.628 96.5183 262.405 96.3273 262.372 96.0683C262.326 95.6953 262.085 95.2893 261.656 94.8603C261.025 94.2303 260.57 94.1483 260.135 94.5833C259.918 94.7993 259.94 95.1973 260.058 95.4963C260.105 95.6143 260.384 96.2553 260.887 97.4023C261.245 98.1923 261.119 98.9523 260.53 99.5403C260.153 99.9183 259.755 100.095 259.285 100.095C259.254 100.095 259.223 100.095 259.192 100.093C258.625 100.065 258.201 99.9143 257.78 99.5883L257.281 100.087C257.181 100.188 257.049 100.238 256.918 100.238C256.786 100.238 256.655 100.188 256.555 100.087C256.355 99.8873 256.355 99.5613 256.555 99.3623L257.056 98.8613C256.665 98.3503 256.417 97.7643 256.337 97.1613C256.32 97.0253 256.355 96.8913 256.439 96.7823C256.522 96.6733 256.643 96.6033 256.779 96.5853C256.912 96.5693 257.049 96.6033 257.159 96.6873C257.267 96.7703 257.337 96.8913 257.355 97.0273C257.426 97.5603 257.702 98.1023 258.112 98.5123C258.516 98.9163 258.781 99.0453 259.242 99.0693C259.456 99.0823 259.606 99.0123 259.805 98.8143C260.096 98.5233 260.138 98.2353 259.95 97.8203C259.416 96.6063 259.155 96.0043 259.103 95.8723C258.796 95.0933 258.908 94.3593 259.41 93.8573C260.181 93.0863 261.122 93.0833 262.067 93.8503L262.559 93.3573Z" fill="#5E676B"/>
<path fill-rule="evenodd" clip-rule="evenodd" d="M269.614 85.001C269.638 85 269.662 85 269.686 85C270.932 85 271.961 85.991 271.999 87.246C272 87.292 272 87.339 271.997 87.415L271.242 95.485C271.192 96.022 270.956 96.525 270.574 96.907L261.8 105.682C260.967 106.514 260.297 107 259.688 107C259.356 107 259.043 106.855 258.732 106.545L250.455 98.267C249.573 97.385 250.033 96.486 251.318 95.201L260.093 86.426C260.475 86.044 260.978 85.807 261.516 85.758L269.614 85.001ZM270.247 95.391L270.999 87.349C271 87.319 271 87.298 270.999 87.276C270.978 86.56 270.4 86 269.686 86H269.67L261.608 86.753C261.304 86.782 261.017 86.916 260.8 87.133L252.026 95.908C251.457 96.476 251.119 96.912 251.022 97.202C250.987 97.307 250.968 97.366 251.162 97.56L259.44 105.838C259.488 105.887 259.61 106 259.688 106C259.802 106 260.166 105.9 261.093 104.974L269.867 96.2C270.083 95.983 270.219 95.696 270.247 95.391Z" fill="#5E676B"/>
</g>
<path d="M341.278 92.2593C341.083 92.0643 340.766 92.0643 340.571 92.2593L336.328 96.5023L334.56 94.7343C334.365 94.5393 334.049 94.5393 333.853 94.7343C333.658 94.9293 333.658 95.2463 333.853 95.4413L335.975 97.5623C336.17 97.7583 336.487 97.7583 336.682 97.5623L341.278 92.9663C341.473 92.7713 341.473 92.4543 341.278 92.2593Z" fill="#5E676B"/>
<path fill-rule="evenodd" clip-rule="evenodd" d="M329.5 84H344.5C345.328 84 346 84.671 346 85.5V102.858C346 103.448 345.654 103.983 345.117 104.227L337.043 107.867C336.85 107.955 336.64 108 336.427 108H329.5C328.671 108 328 107.328 328 106.5V85.5C328 84.671 328.671 84 329.5 84ZM329 85.5V106.5C329 106.776 329.224 107 329.5 107H336V104.5C336 103.672 336.671 103 337.5 103H344.958C344.963 102.986 344.968 102.971 344.974 102.957C344.987 102.926 345 102.894 345 102.858V85.5C345 85.224 344.776 85 344.5 85H329.5C329.224 85 329 85.224 329 85.5ZM337 106.79V104.5C337 104.224 337.224 104 337.5 104H343.186L337 106.79Z" fill="#5E676B"/>
<g clip-path="url(#clip4_15426_400)">
<path d="M414 102.15C413.732 102.15 413.465 102.043 413.268 101.831C412.892 101.426 412.915 100.794 413.319 100.418L418.982 95.1495L413.319 89.8815C412.915 89.5055 412.892 88.8735 413.268 88.4685C413.645 88.0645 414.277 88.0435 414.681 88.4175L420.398 93.7365C420.794 94.1045 421.02 94.6195 421.02 95.1505C421.02 95.6805 420.794 96.1955 420.399 96.5625L414.681 101.882C414.488 102.061 414.244 102.15 414 102.15Z" fill="black"/>
<mask id="mask0_15426_400" style="mask-type:luminance" maskUnits="userSpaceOnUse" x="413" y="88" width="9" height="15">
<path d="M414 102.15C413.732 102.15 413.465 102.043 413.268 101.831C412.892 101.426 412.915 100.794 413.319 100.418L418.982 95.1495L413.319 89.8815C412.915 89.5055 412.892 88.8735 413.268 88.4685C413.645 88.0645 414.277 88.0435 414.681 88.4175L420.398 93.7365C420.794 94.1045 421.02 94.6195 421.02 95.1505C421.02 95.6805 420.794 96.1955 420.399 96.5625L414.681 101.882C414.488 102.061 414.244 102.15 414 102.15Z" fill="white"/>
</mask>
<g mask="url(#mask0_15426_400)">
<path d="M428 83H404V107H428V83Z" fill="white"/>
</g>
</g>
<g clip-path="url(#clip5_15426_400)">
<path fill-rule="evenodd" clip-rule="evenodd" d="M490.707 85C495.24 85 498.912 88.7499 498.912 93.37C498.912 97.9908 495.241 101.74 490.707 101.74C488.715 101.74 486.834 101.013 485.362 99.7205L479.558 105.639C479.201 106.002 478.62 106.002 478.263 105.638C477.912 105.28 477.912 104.701 478.264 104.342L484.123 98.3652C483.079 96.936 482.503 95.1977 482.503 93.37C482.503 88.8352 486.039 85.1392 490.456 85.0038L490.707 85ZM490.707 86.8427C487.185 86.8427 484.326 89.7627 484.326 93.37C484.326 96.8995 487.062 99.7701 490.479 99.8933L490.707 99.8974C494.23 99.8974 497.088 96.9776 497.088 93.37C497.088 89.7631 494.229 86.8427 490.707 86.8427Z" fill="white"/>
</g>
<g clip-path="url(#clip6_15426_400)">
<path fill-rule="evenodd" clip-rule="evenodd" d="M652.5 101C653.052 101 653.5 101.448 653.5 102C653.5 102.552 653.052 103 652.5 103H629.5C628.948 103 628.5 102.552 628.5 102C628.5 101.448 628.948 101 629.5 101H652.5ZM652.5 95C653.052 95 653.5 95.4477 653.5 96C653.5 96.5523 653.052 97 652.5 97H629.5C628.948 97 628.5 96.5523 628.5 96C628.5 95.4477 628.948 95 629.5 95H652.5ZM652.5 89C653.052 89 653.5 89.4477 653.5 90C653.5 90.5523 653.052 91 652.5 91H629.5C628.948 91 628.5 90.5523 628.5 90C628.5 89.4477 628.948 89 629.5 89H652.5Z" fill="white"/>
</g>
<g clip-path="url(#clip7_15426_400)">
<path fill-rule="evenodd" clip-rule="evenodd" d="M707.71 86.8869C707.405 87.279 707.432 87.8466 707.793 88.2068L715.571 95.985L707.793 103.764C707.402 104.154 707.402 104.788 707.793 105.178L707.887 105.261C708.279 105.566 708.847 105.538 709.207 105.178L716.985 97.399L724.764 105.178C725.154 105.568 725.788 105.568 726.178 105.178L726.261 105.084C726.566 104.692 726.538 104.124 726.178 103.764L718.399 95.985L726.178 88.2068C726.568 87.8165 726.568 87.183 726.178 86.7927L726.084 86.7096C725.692 86.4047 725.124 86.4325 724.764 86.7927L716.985 94.571L709.207 86.7927C708.817 86.4024 708.183 86.4024 707.793 86.7927L707.71 86.8869Z" fill="#04208F"/>
</g>
<g clip-path="url(#clip8_15426_400)">
<path fill-rule="evenodd" clip-rule="evenodd" d="M783.71 86.8869C783.405 87.279 783.432 87.8466 783.793 88.2068L791.571 95.985L783.793 103.764C783.402 104.154 783.402 104.788 783.793 105.178L783.887 105.261C784.279 105.566 784.847 105.538 785.207 105.178L792.985 97.399L800.764 105.178C801.154 105.568 801.788 105.568 802.178 105.178L802.261 105.084C802.566 104.692 802.538 104.124 802.178 103.764L794.399 95.985L802.178 88.2068C802.568 87.8165 802.568 87.183 802.178 86.7927L802.084 86.7096C801.692 86.4047 801.124 86.4325 800.764 86.7927L792.985 94.571L785.207 86.7927C784.817 86.4024 784.183 86.4024 783.793 86.7927L783.71 86.8869Z" fill="white"/>
</g>
<g clip-path="url(#clip9_15426_400)">
<path fill-rule="evenodd" clip-rule="evenodd" d="M576.5 101C577.052 101 577.5 101.448 577.5 102C577.5 102.552 577.052 103 576.5 103H553.5C552.948 103 552.5 102.552 552.5 102C552.5 101.448 552.948 101 553.5 101H576.5ZM576.5 95C577.052 95 577.5 95.4477 577.5 96C577.5 96.5523 577.052 97 576.5 97H553.5C552.948 97 552.5 96.5523 552.5 96C552.5 95.4477 552.948 95 553.5 95H576.5ZM576.5 89C577.052 89 577.5 89.4477 577.5 90C577.5 90.5523 577.052 91 576.5 91H553.5C552.948 91 552.5 90.5523 552.5 90C552.5 89.4477 552.948 89 553.5 89H576.5Z" fill="#04208F"/>
</g>
<defs>
<clipPath id="clip0_15426_400">
<rect width="22" height="22" fill="white" transform="translate(22 85)"/>
</clipPath>
<clipPath id="clip1_15426_400">
<rect width="9" height="14" fill="white" transform="translate(105 89)"/>
</clipPath>
<clipPath id="clip2_15426_400">
<rect width="30" height="18.75" fill="white" transform="translate(170 86)"/>
</clipPath>
<clipPath id="clip3_15426_400">
<rect width="22" height="22" fill="white" transform="translate(250 85)"/>
</clipPath>
<clipPath id="clip4_15426_400">
<rect width="9" height="15" fill="white" transform="translate(413 88)"/>
</clipPath>
<clipPath id="clip5_15426_400">
<rect width="21" height="21" fill="white" transform="translate(478 85)"/>
</clipPath>
<clipPath id="clip6_15426_400">
<rect width="26" height="26" fill="white" transform="translate(628 83)"/>
</clipPath>
<clipPath id="clip7_15426_400">
<rect width="26" height="26" fill="white" transform="translate(704 83)"/>
</clipPath>
<clipPath id="clip8_15426_400">
<rect width="26" height="26" fill="white" transform="translate(780 83)"/>
</clipPath>
<clipPath id="clip9_15426_400">
<rect width="26" height="26" fill="white" transform="translate(552 83)"/>
</clipPath>
</defs>
</svg>
