<?xml version="1.0" encoding="UTF-8"?><svg id="Layer_2" xmlns="http://www.w3.org/2000/svg" xmlns:xlink="http://www.w3.org/1999/xlink" viewBox="0 0 308 430.76"><defs><linearGradient id="linear-gradient" x1="154" y1="434" x2="154" y2="246" gradientTransform="translate(0 434) scale(1 -1)" gradientUnits="userSpaceOnUse"><stop offset="0" stop-color="#044737"/><stop offset="1" stop-color="#0b3823"/></linearGradient><linearGradient id="linear-gradient-2" x1="152.76" y1="123.61" x2="166.25" y2="3.37" gradientTransform="translate(0 434) scale(1 -1)" gradientUnits="userSpaceOnUse"><stop offset="0" stop-color="#4cc1e0"/><stop offset="1" stop-color="#08984b"/></linearGradient><linearGradient id="linear-gradient-3" x1="148.88" y1="103.17" x2="162.36" y2="-17.06" gradientTransform="translate(0 434) scale(1 -1)" gradientUnits="userSpaceOnUse"><stop offset="0" stop-color="#4cc1e0"/><stop offset="1" stop-color="#984d08"/></linearGradient><linearGradient id="linear-gradient-4" x1="148.88" y1="103.18" x2="162.36" y2="-17.06" xlink:href="#linear-gradient-2"/></defs><g id="Layer_1-2"><path d="M0,20C0,8.95,8.95,0,20,0h268c11.05,0,20,8.95,20,20v356.74H0V20Z" fill="url(#linear-gradient)" fill-rule="evenodd"/><path d="M0,376.15l308-110.15v110.85l-146.66,52.73c-4.36,1.57-9.13,1.57-13.49.02L0,376.84v-.69Z" fill="url(#linear-gradient-2)" fill-opacity=".5" fill-rule="evenodd"/><path d="M308,376.15L0,266v110.85l146.66,52.73c4.36,1.57,9.13,1.57,13.49.02l147.85-52.75v-.69Z" fill="url(#linear-gradient-3)" fill-opacity=".15" fill-rule="evenodd"/><polygon points="105.55 245.98 102.88 245.98 96.2 265.26 89.5 245.98 86.81 245.98 84.58 245.98 81.87 245.98 81.87 273 87.72 273 87.72 266.01 87.14 253.16 94.19 273 98.17 273 105.23 253.18 104.66 266.01 104.66 273 110.5 273 110.5 245.98 107.8 245.98 105.55 245.98" fill="#abf0e4"/><path d="M129.23,231.77c1.76,1.06,3.77,1.6,6.05,1.6s4.28-.53,6.01-1.6c1.73-1.08,3.09-2.6,4.06-4.58.98-1.99,1.46-4.37,1.46-7.14v-1.1c0-2.77-.49-5.15-1.48-7.12-.98-1.99-2.34-3.53-4.08-4.6-1.73-1.08-3.74-1.61-6.01-1.61s-4.29.54-6.03,1.61c-1.74,1.08-3.11,2.61-4.1,4.6-.98,1.98-1.47,4.35-1.47,7.12v1.09c0,2.77.49,5.15,1.48,7.14.99,1.98,2.36,3.51,4.1,4.58ZM129.56,218.92c0-1.85.22-3.41.65-4.68.45-1.26,1.09-2.21,1.93-2.86.84-.64,1.87-.96,3.1-.96s2.23.32,3.08.96c.85.64,1.5,1.6,1.95,2.86.45,1.26.67,2.82.67,4.68v1.13c0,1.84-.22,3.4-.67,4.68-.43,1.26-1.08,2.22-1.93,2.88-.84.65-1.86.98-3.06.98s-2.26-.33-3.12-.98c-.84-.66-1.48-1.62-1.93-2.88-.44-1.27-.67-2.83-.67-4.68v-1.13Z" fill="#abf0e4"/><polygon points="97.96 226.01 97.38 213.16 104.44 233 108.41 233 115.47 213.18 114.9 226.01 114.9 233 120.75 233 120.75 205.98 118.04 205.98 115.79 205.98 113.12 205.98 106.44 225.26 99.74 205.98 97.05 205.98 92.12 205.98 92.12 233 97.96 233 97.96 226.01" fill="#abf0e4"/><polygon points="155.54 215.61 166.02 233 171.85 233 171.85 205.98 166.04 205.98 166.04 223.39 155.54 205.98 149.72 205.98 149.72 233 155.54 233 155.54 215.61" fill="#abf0e4"/><polygon points="181.39 233 193.78 233 193.78 228.31 181.39 228.31 181.39 221.39 191.93 221.39 191.93 216.84 181.39 216.84 181.39 210.7 193.77 210.7 193.77 206.31 202.43 223.22 202.43 233 208.35 233 208.35 223.22 217.17 205.98 210.82 205.98 205.38 217.97 199.97 205.98 193.77 205.98 193.6 205.98 181.39 205.98 179.52 205.98 175.54 205.98 175.54 233 179.52 233 181.39 233" fill="#abf0e4"/><polygon points="226.7 245.98 218.5 245.98 212.68 245.98 204.59 245.98 204.59 250.7 212.68 250.7 212.68 273 218.5 273 218.5 250.7 226.7 250.7 226.7 245.98" fill="#abf0e4"/><polygon points="191.26 261.39 201.8 261.39 201.8 256.84 191.26 256.84 191.26 250.7 203.64 250.7 203.64 245.98 191.26 245.98 189.39 245.98 185.42 245.98 185.42 273 189.39 273 191.26 273 203.66 273 203.66 268.31 191.26 268.31 191.26 261.39" fill="#abf0e4"/><polygon points="184.25 245.98 177.08 245.98 170.46 254.7 168.1 258.03 168.1 245.98 162.26 245.98 162.26 273 168.1 273 168.1 265.45 170.94 262.39 177.55 273 184.47 273 174.81 257.98 184.25 245.98" fill="#abf0e4"/><path d="M156.38,260.51c.88-.68,1.56-1.54,2.04-2.58.49-1.04.74-2.3.74-3.79,0-1.78-.4-3.27-1.21-4.47-.8-1.21-1.96-2.13-3.47-2.75-1.5-.63-3.29-.95-5.38-.95h-10.17v27.02h5.83v-9.78h4.17l4.96,9.78h6.25v-.28l-5.78-11.01c.74-.34,1.42-.74,2.01-1.2ZM144.76,250.7h4.34c1.43,0,2.49.35,3.17,1.06.69.7,1.04,1.66,1.04,2.88,0,.79-.15,1.48-.46,2.06-.31.58-.78,1.03-1.41,1.35-.63.31-1.42.46-2.36.46h-4.32v-7.81Z" fill="#abf0e4"/><path d="M125.94,245.98h-3.93l-10.04,27.02h6.22l1.77-5.38h9.56l1.77,5.38h6.22l-10.09-27.02h-1.47ZM121.51,262.91l3.22-9.8,3.23,9.8h-6.45Z" fill="#abf0e4"/><path d="M92.31,72.34l-24.11,23.68c-5.51,5.41-14.44,5.41-19.95,0l-24.11-23.68c-5.51-5.41-5.51-14.19,0-19.6l24.11-23.68c5.51-5.41,14.44-5.41,19.95,0l24.11,23.68c5.51,5.41,5.51,14.19,0,19.6ZM32.6,73.01c-1.12,0-2.02-.89-2.02-1.99v-10.17c0-6.28,3.92-9.49,9.36-9.49,3.05,0,5.84,1.07,7.62,3.26,1.66-2.16,4.32-3.26,7.49-3.26,5.19,0,9.6,3.09,9.6,9.49v10.17c0,1.1-.91,1.99-2.02,1.99s-2.02-.89-2.02-1.99v-10.17c0-3.82-2.22-5.85-5.59-5.85s-5.28,2.21-5.28,5.85v10.17c0,1.1-.91,1.99-2.03,1.99-.03,0-.06,0-.1,0-.03,0-.06,0-.1,0-1.12,0-2.02-.89-2.02-1.99v-10.17c0-3.82-2.22-5.85-5.59-5.85s-5.28,2.21-5.28,5.85v10.17c0,1.1-.91,1.99-2.03,1.99ZM83.75,52.82c1.12,0,2.02.89,2.02,1.99v8.72c0,5.52-3.03,8.67-7.46,9.35v5.74c0,1.1-.91,1.99-2.02,1.99s-2.02-.89-2.02-1.99v-5.78c-4.2-.76-7.46-3.81-7.46-9.31v-8.72c0-1.1.91-1.99,2.02-1.99s2.02.89,2.02,1.99v8.72c0,3.82,2.22,5.85,5.59,5.85s5.28-2.21,5.28-5.85v-8.72c0-1.1.91-1.99,2.03-1.99Z" fill="#fff" fill-rule="evenodd"/><path d="M106.87,46.85v10.6h.08c.63-.96,1.54-1.71,2.72-2.27,1.18-.56,2.45-.83,3.79-.83,1.45,0,2.76.25,3.93.74,1.17.49,2.17,1.17,3,2.04.83.87,1.47,1.89,1.91,3.06.45,1.18.67,2.45.67,3.82s-.22,2.64-.67,3.8c-.45,1.16-1.08,2.18-1.91,3.06-.83.88-1.83,1.56-3,2.06-1.17.49-2.48.74-3.93.74-1.26,0-2.49-.27-3.69-.81-1.2-.54-2.14-1.3-2.82-2.29h-.08v2.64h-3.55v-26.34h3.55ZM113.03,70.4c.95,0,1.8-.16,2.57-.49.76-.32,1.41-.76,1.93-1.32.53-.56.93-1.23,1.22-2.02s.43-1.65.43-2.58-.14-1.79-.43-2.58c-.29-.79-.7-1.46-1.22-2.02-.53-.56-1.17-.99-1.93-1.32-.76-.32-1.62-.49-2.57-.49s-1.8.16-2.57.49c-.76.32-1.41.76-1.93,1.32-.53.56-.93,1.23-1.22,2.02-.29.79-.43,1.65-.43,2.58s.14,1.79.43,2.58c.29.79.7,1.46,1.22,2.02s1.17.99,1.93,1.32c.76.32,1.62.49,2.57.49Z" fill="#fff" fill-rule="evenodd"/><path d="M124.36,57.06c1-.9,2.16-1.58,3.47-2.04,1.32-.45,2.63-.68,3.95-.68s2.55.17,3.53.5c.99.34,1.8.79,2.43,1.36.63.57,1.1,1.22,1.4,1.96.3.74.45,1.51.45,2.31v9.38c0,.65.01,1.24.04,1.78.02.54.07,1.06.12,1.55h-3.16c-.08-.93-.12-1.86-.12-2.79h-.08c-.79,1.19-1.73,2.03-2.8,2.52-1.08.49-2.33.74-3.75.74-.87,0-1.7-.12-2.49-.35-.79-.23-1.48-.58-2.07-1.05s-1.06-1.04-1.4-1.72c-.34-.68-.51-1.48-.51-2.38,0-1.19.27-2.18.81-2.99.54-.8,1.28-1.45,2.21-1.96.93-.5,2.03-.87,3.28-1.08,1.25-.22,2.59-.33,4.01-.33h2.61v-.78c0-.47-.09-.93-.28-1.4-.18-.47-.46-.89-.83-1.26s-.83-.67-1.38-.89c-.55-.22-1.21-.33-1.97-.33-.68,0-1.28.06-1.8.19-.51.13-.98.29-1.4.48-.42.19-.8.42-1.14.68-.34.26-.67.5-.99.74l-2.13-2.17ZM134.38,64.35c-.84,0-1.7.04-2.59.14-.88.09-1.68.27-2.41.52-.72.26-1.32.62-1.78,1.09-.46.47-.69,1.06-.69,1.78,0,1.06.36,1.82,1.09,2.29.72.47,1.7.7,2.94.7.97,0,1.8-.16,2.49-.48.68-.32,1.24-.74,1.66-1.26s.72-1.09.91-1.72c.18-.63.28-1.26.28-1.88v-1.16h-1.9Z" fill="#fff" fill-rule="evenodd"/><path d="M142.39,54.81h3.55v2.83h.08c.45-.98,1.22-1.78,2.33-2.39,1.1-.61,2.38-.91,3.83-.91.9,0,1.76.14,2.59.41.83.27,1.55.69,2.17,1.26.62.57,1.11,1.3,1.48,2.19.37.89.55,1.95.55,3.16v11.82h-3.55v-10.86c0-.85-.12-1.58-.35-2.19-.24-.61-.55-1.1-.95-1.47-.4-.37-.85-.65-1.36-.81-.51-.17-1.05-.25-1.6-.25-.74,0-1.42.12-2.05.35-.63.23-1.18.6-1.66,1.11-.47.5-.84,1.14-1.1,1.92-.26.78-.4,1.69-.4,2.75v9.46h-3.55v-18.38h0Z" fill="#fff" fill-rule="evenodd"/><path d="M165.52,46.85v15.95l8.05-7.95h4.93l-8.72,8.34,9.47,10h-5.05l-8.68-9.54v9.54h-3.55v-26.34h3.55Z" fill="#fff" fill-rule="evenodd"/><path d="M192.48,57.84h-5.09v8.34c0,.52.01,1.03.04,1.53.02.5.12.96.3,1.36.17.4.43.72.79.97.35.25.87.37,1.56.37.42,0,.85-.04,1.3-.12.45-.08.85-.22,1.22-.43v3.18c-.42.23-.97.39-1.64.49-.67.09-1.19.14-1.56.14-1.37,0-2.43-.19-3.18-.56-.75-.37-1.3-.86-1.66-1.46-.36-.59-.57-1.26-.63-2-.07-.74-.1-1.48-.1-2.23v-9.58h-4.1v-3.02h4.1v-5.16h3.55v5.16h5.09v3.02Z" fill="#fff" fill-rule="evenodd"/><path d="M195.48,54.81h3.55v2.83h.08c.24-.49.55-.94.95-1.34.4-.4.84-.74,1.32-1.03.49-.28,1.02-.51,1.6-.68.58-.17,1.16-.25,1.74-.25s1.11.08,1.58.23l-.16,3.76c-.29-.08-.58-.14-.87-.19-.29-.05-.58-.08-.87-.08-1.74,0-3.07.48-3.99,1.43-.92.96-1.38,2.44-1.38,4.46v9.23h-3.55v-18.37h0Z" fill="#fff" fill-rule="evenodd"/><path d="M207.01,57.06c1-.9,2.16-1.58,3.47-2.04,1.32-.45,2.63-.68,3.95-.68s2.55.17,3.53.5c.99.34,1.8.79,2.43,1.36.63.57,1.1,1.22,1.4,1.96.3.74.45,1.51.45,2.31v9.38c0,.65.01,1.24.04,1.78.03.54.07,1.06.12,1.55h-3.16c-.08-.93-.12-1.86-.12-2.79h-.08c-.79,1.19-1.73,2.03-2.8,2.52-1.08.49-2.33.74-3.75.74-.87,0-1.7-.12-2.49-.35-.79-.23-1.48-.58-2.07-1.05-.59-.47-1.06-1.04-1.4-1.72-.34-.68-.51-1.48-.51-2.38,0-1.19.27-2.18.81-2.99.54-.8,1.28-1.45,2.21-1.96.93-.5,2.03-.87,3.28-1.08,1.25-.22,2.59-.33,4.01-.33h2.6v-.78c0-.47-.09-.93-.28-1.4-.18-.47-.46-.89-.83-1.26s-.83-.67-1.38-.89c-.55-.22-1.21-.33-1.97-.33-.68,0-1.28.06-1.8.19-.51.13-.98.29-1.4.48-.42.19-.8.42-1.15.68-.34.26-.67.5-.99.74l-2.13-2.17ZM217.03,64.35c-.84,0-1.71.04-2.59.14-.88.09-1.68.27-2.41.52-.72.26-1.32.62-1.78,1.09-.46.47-.69,1.06-.69,1.78,0,1.06.36,1.82,1.09,2.29.72.47,1.7.7,2.94.7.97,0,1.8-.16,2.49-.48.68-.32,1.24-.74,1.66-1.26s.73-1.09.91-1.72c.18-.63.28-1.26.28-1.88v-1.16h-1.9Z" fill="#fff" fill-rule="evenodd"/><path d="M237.64,59.7c-.66-.67-1.35-1.18-2.07-1.53-.73-.35-1.59-.52-2.59-.52s-1.82.17-2.55.52c-.72.35-1.33.83-1.82,1.44-.49.61-.85,1.31-1.11,2.09s-.37,1.61-.37,2.46.14,1.66.43,2.42c.29.76.7,1.43,1.22,2,.53.57,1.16,1.01,1.9,1.34.74.32,1.57.49,2.49.49,1,0,1.86-.17,2.57-.52.71-.35,1.37-.86,1.97-1.53l2.53,2.48c-.92,1.01-1.99,1.73-3.22,2.17-1.22.44-2.52.66-3.89.66-1.45,0-2.77-.23-3.97-.7-1.2-.47-2.23-1.12-3.1-1.96-.87-.84-1.54-1.85-2.01-3.02-.47-1.18-.71-2.47-.71-3.9s.24-2.73.71-3.92,1.14-2.21,1.99-3.06c.86-.85,1.88-1.52,3.08-2,1.2-.48,2.53-.72,4.01-.72,1.37,0,2.68.24,3.93.72,1.25.48,2.34,1.21,3.26,2.19l-2.68,2.4Z" fill="#fff" fill-rule="evenodd"/><path d="M245.25,46.85v15.95l8.05-7.95h4.93l-8.72,8.34,9.47,10h-5.05l-8.68-9.54v9.54h-3.55v-26.34h3.55Z" fill="#fff" fill-rule="evenodd"/><path d="M260.92,65.28c0,.8.18,1.53.53,2.19.36.66.82,1.22,1.4,1.69.58.47,1.25.83,2.01,1.09.76.26,1.55.39,2.37.39,1.11,0,2.07-.25,2.88-.76.82-.5,1.57-1.17,2.25-2l2.68,2.02c-1.97,2.51-4.74,3.76-8.29,3.76-1.47,0-2.81-.25-4-.74-1.2-.49-2.21-1.17-3.04-2.04-.83-.87-1.47-1.89-1.92-3.06-.45-1.18-.67-2.45-.67-3.82s.24-2.64.73-3.82c.49-1.18,1.16-2.2,2.01-3.06.86-.87,1.88-1.54,3.06-2.04,1.19-.49,2.47-.74,3.87-.74,1.66,0,3.06.29,4.2.85,1.14.57,2.08,1.31,2.82,2.23.74.92,1.27,1.95,1.6,3.1.33,1.15.49,2.32.49,3.51v1.24h-15ZM272.13,62.49c-.02-.78-.15-1.49-.38-2.13-.22-.65-.56-1.21-1.01-1.69-.45-.48-1.01-.85-1.68-1.13-.67-.27-1.45-.41-2.35-.41s-1.67.16-2.39.49c-.73.32-1.33.74-1.84,1.26-.5.52-.89,1.09-1.16,1.73-.28.63-.41,1.26-.41,1.88h11.21Z" fill="#fff" fill-rule="evenodd"/><path d="M278.61,54.81h3.55v2.83h.08c.24-.49.55-.94.95-1.34.39-.4.83-.74,1.32-1.03.49-.28,1.02-.51,1.6-.68.58-.17,1.16-.25,1.74-.25s1.11.08,1.58.23l-.16,3.76c-.29-.08-.58-.14-.87-.19-.29-.05-.58-.08-.87-.08-1.74,0-3.07.48-3.99,1.43-.92.96-1.38,2.44-1.38,4.46v9.23h-3.55v-18.37h0Z" fill="#fff" fill-rule="evenodd"/><path d="M0,376.15l154.09-55.15,153.91,55.15v.69l-146.66,52.73c-4.36,1.57-9.13,1.57-13.49.02L0,376.84v-.69Z" fill="url(#linear-gradient-4)" fill-rule="evenodd"/><path d="M123.45,391.3h-23.37v-5.06l10.77-11.32c2.65-3.02,3.98-5.42,3.98-7.2,0-1.44-.31-2.54-.94-3.29-.63-.75-1.54-1.13-2.74-1.13s-2.14.5-2.88,1.51c-.74,1-1.1,2.26-1.1,3.76h-7.78c0-2.05.51-3.95,1.54-5.69,1.03-1.74,2.45-3.1,4.28-4.08s3.87-1.47,6.12-1.47c3.62,0,6.41.84,8.36,2.51,1.96,1.67,2.93,4.07,2.93,7.2,0,1.32-.25,2.6-.74,3.85s-1.25,2.56-2.29,3.93c-1.04,1.37-2.7,3.21-5,5.51l-4.33,4.99h13.18v5.98Z" fill="#fff"/><path d="M151.57,377.61c0,4.52-1.02,8.01-3.05,10.47-2.03,2.45-4.9,3.68-8.59,3.68s-6.61-1.23-8.65-3.7c-2.04-2.47-3.06-5.95-3.06-10.44v-6.12c0-4.52,1.02-8.01,3.05-10.47,2.03-2.45,4.9-3.68,8.62-3.68s6.59,1.23,8.63,3.7c2.04,2.47,3.06,5.96,3.06,10.47v6.1ZM143.81,370.5c0-2.41-.31-4.21-.94-5.39s-1.63-1.78-2.99-1.78-2.3.55-2.91,1.66c-.61,1.1-.93,2.78-.98,5.02v8.56c0,2.5.31,4.33.94,5.49.63,1.16,1.63,1.74,2.99,1.74s2.29-.56,2.92-1.69c.63-1.13.95-2.89.97-5.3v-8.28Z" fill="#fff"/><path d="M179.91,391.3h-23.37v-5.06l10.77-11.32c2.65-3.02,3.98-5.42,3.98-7.2,0-1.44-.31-2.54-.94-3.29-.63-.75-1.54-1.13-2.74-1.13s-2.14.5-2.88,1.51c-.74,1-1.1,2.26-1.1,3.76h-7.78c0-2.05.51-3.95,1.54-5.69,1.03-1.74,2.45-3.1,4.28-4.08s3.87-1.47,6.12-1.47c3.62,0,6.41.84,8.36,2.51,1.96,1.67,2.93,4.07,2.93,7.2,0,1.32-.25,2.6-.74,3.85s-1.25,2.56-2.29,3.93c-1.04,1.37-2.7,3.21-5,5.51l-4.33,4.99h13.18v5.98Z" fill="#fff"/><path d="M203.49,357.32v6.1h-.34c-2.9,0-5.28.69-7.14,2.08-1.86,1.39-3.01,3.32-3.44,5.79,1.75-1.72,3.96-2.58,6.63-2.58,2.9,0,5.21,1.06,6.92,3.17,1.72,2.12,2.58,4.89,2.58,8.33,0,2.13-.5,4.09-1.51,5.87-1,1.78-2.41,3.17-4.21,4.18-1.8,1-3.8,1.51-5.99,1.51-2.38,0-4.5-.54-6.37-1.62-1.87-1.08-3.33-2.63-4.37-4.64-1.04-2.01-1.58-4.33-1.61-6.95v-3.11c0-3.45.74-6.55,2.22-9.31,1.48-2.75,3.59-4.91,6.34-6.48s5.79-2.35,9.13-2.35h1.17ZM196.49,374.65c-1.03,0-1.89.24-2.58.71s-1.2,1.06-1.54,1.75v2.32c0,4.23,1.46,6.35,4.39,6.35,1.18,0,2.17-.53,2.96-1.59.79-1.06,1.19-2.38,1.19-3.98s-.4-2.98-1.21-4.01c-.81-1.04-1.88-1.55-3.21-1.55Z" fill="#fff"/><path d="M85.41,152.93c-.77-.42-1.65-.75-2.61-1.01.4-.17.78-.35,1.14-.54,2.55-1.37,4.35-3.16,5.42-5.38,1.06-2.24,1.6-4.6,1.6-7.1,0-5.74-2.17-10.01-6.51-12.81-4.31-2.83-10.3-4.24-17.97-4.24h-22.42v61.14h24.78c7.7,0,13.51-1.53,17.43-4.58,3.92-3.05,5.88-7.61,5.88-13.69,0-2.29-.52-4.51-1.55-6.63-1.01-2.16-2.73-3.88-5.17-5.17ZM66.47,134.58c3.08,0,5.3.5,6.68,1.51,1.37.98,2.06,2.64,2.06,5,0,1.99-.66,3.49-1.97,4.49-1.32.98-3.61,1.47-6.89,1.47h-6.51v-12.47h6.63ZM74.74,168.55c-1.12,1.17-3.09,1.76-5.92,1.76h-8.99v-12.64h9.57c1.71,0,3.07.28,4.07.84,1.04.53,1.78,1.3,2.23,2.31.48,1.01.71,2.23.71,3.65,0,1.54-.56,2.9-1.68,4.07Z" fill="#fff"/><polygon points="115.1 121.86 104.89 121.86 104.89 183 115.1 183 120.68 183 147.39 183 147.39 170.32 120.68 170.32 120.68 157.76 143.23 157.76 143.23 145.54 120.68 145.54 120.68 134.58 147.52 134.58 147.52 121.86 120.68 121.86 115.1 121.86" fill="#fff"/><path d="M177.16,134.16c1.18-.48,2.62-.71,4.33-.71s3.21.28,4.33.84c1.15.56,1.99,1.34,2.52,2.35.56,1.01.84,2.17.84,3.48h15.71c0-3.97-.99-7.39-2.98-10.25-1.96-2.86-4.68-5.04-8.15-6.55-3.44-1.54-7.42-2.31-11.93-2.31s-8.64.71-12.22,2.14c-3.58,1.4-6.41,3.4-8.48,6-2.07,2.58-3.11,5.66-3.11,9.24,0,2.83.59,5.3,1.76,7.43,1.18,2.1,2.76,3.93,4.74,5.5,1.99,1.54,4.23,2.88,6.72,4.03,2.49,1.15,5.05,2.17,7.68,3.07,2.94.98,5.12,1.89,6.55,2.73,1.46.81,2.41,1.64,2.85,2.48.48.84.71,1.81.71,2.9,0,.84-.22,1.64-.67,2.39-.45.76-1.19,1.37-2.23,1.85-1.01.48-2.38.71-4.11.71s-3.15-.14-4.41-.42c-1.26-.31-2.31-.8-3.15-1.47-.84-.7-1.47-1.61-1.89-2.73-.39-1.12-.59-2.52-.59-4.2h-15.79c0,3.72.73,6.93,2.18,9.62,1.48,2.66,3.46,4.84,5.92,6.55,2.49,1.71,5.26,2.97,8.32,3.78,3.08.81,6.22,1.22,9.41,1.22,4.62,0,8.64-.67,12.05-2.02s6.05-3.3,7.89-5.88c1.88-2.6,2.81-5.77,2.81-9.49,0-3.5-.8-6.52-2.39-9.07-1.59-2.58-3.92-4.79-6.97-6.64-3.02-1.88-6.72-3.51-11.09-4.91-2.1-.7-3.95-1.4-5.54-2.1-1.6-.7-2.84-1.46-3.74-2.27-.9-.81-1.34-1.76-1.34-2.86,0-.95.28-1.81.84-2.56.59-.78,1.45-1.41,2.6-1.89Z" fill="#fff"/><polygon points="265.73 121.86 247.67 121.86 231.92 121.86 214.25 121.86 214.25 134.58 231.92 134.58 231.92 183 247.67 183 247.67 134.58 265.73 134.58 265.73 121.86" fill="#fff"/></g></svg>