<svg width="86" height="11" viewBox="0 0 86 11" fill="none" xmlns="http://www.w3.org/2000/svg">
<g id="forbes-advisor.svg" clip-path="url(#clip0_1353_13098)">
<path id="Vector" d="M42.2995 7.40607C42.0454 6.898 41.5797 6.55505 40.6059 6.14436C39.8099 5.80988 39.4077 5.58124 39.1621 5.31451C38.9631 5.09858 38.9039 4.92075 38.925 4.59897C38.942 4.29837 39.0182 4.12054 39.2045 3.92155C39.4458 3.66328 39.776 3.57436 40.174 3.65904C40.8261 3.79453 41.241 4.24756 41.6009 5.20019C41.7279 5.53891 41.7448 5.55161 41.9735 5.46693L42.1174 5.41189L42.1132 5.02237C42.1089 4.80644 42.1005 4.35341 42.0878 4.01893L42.0708 3.39654L41.9608 3.34997C41.3638 3.09593 40.2291 2.93928 39.4924 3.00702C38.6541 3.08323 38.0359 3.34997 37.5617 3.8411C37.0917 4.328 36.8758 4.90382 36.9139 5.58548C36.9436 6.14859 37.1129 6.55505 37.4601 6.90646C37.7819 7.23671 38.0528 7.39336 38.8276 7.69397C40.0767 8.18087 40.4111 8.47302 40.4069 9.07423C40.4069 9.5823 40.1359 9.95489 39.6448 10.1285C39.4712 10.192 39.0266 10.192 38.7895 10.1285C38.1672 9.96336 37.693 9.42565 37.2865 8.42644L37.1807 8.17241L37.0579 8.17664C36.9901 8.18087 36.897 8.20204 36.8546 8.22321L36.77 8.26132L36.7784 8.69741C36.7827 8.93875 36.7954 9.44257 36.8038 9.82364L36.8208 10.5095L36.9605 10.5688C37.2442 10.6916 38.0994 10.8779 38.6329 10.9372C38.7006 10.9456 39.0647 10.9456 39.4458 10.9414C40.1063 10.9329 40.1529 10.9287 40.4874 10.844C41.4696 10.5858 42.1047 10.0396 42.3842 9.20972C42.4688 8.95568 42.4815 8.87524 42.4942 8.49841C42.5112 7.99882 42.4646 7.73631 42.2995 7.40607Z" fill="#333333"/>
<path id="Vector_2" d="M34.7119 3.28536C33.8863 2.87043 32.6077 2.90007 31.672 3.35733C30.7871 3.78919 30.1774 4.50896 29.8387 5.5251C29.6609 6.05435 29.6058 6.48197 29.6228 7.16787C29.6355 7.59973 29.6524 7.82413 29.699 8.02736C30.0462 9.58544 31.1173 10.6439 32.6077 10.9149C32.9379 10.9742 33.6831 10.9742 34.0176 10.9191C34.4918 10.8345 35.038 10.627 35.3851 10.3899C35.8043 10.1062 36.2404 9.67859 36.2404 9.5431C36.2404 9.46266 36.0964 9.27636 36.0329 9.27636C36.0075 9.27636 35.889 9.33564 35.7747 9.41185C35.364 9.67859 34.9702 9.78867 34.4198 9.78867C33.6662 9.78867 33.1835 9.59814 32.7051 9.11548C32.4934 8.89955 32.4045 8.78523 32.2944 8.5693C32.053 8.09933 31.9218 7.56162 31.9006 6.95194L31.8922 6.68943L34.1192 6.68097L36.3462 6.6725L36.3547 6.52008C36.3589 6.4354 36.3505 6.21947 36.3293 6.03741C36.1896 4.68255 35.6434 3.75109 34.7119 3.28536ZM32.468 6.02894L31.9049 6.03741V5.91463C31.9049 5.84688 31.926 5.66906 31.9472 5.52087C32.1335 4.30997 32.5865 3.58173 33.1539 3.58173C33.6746 3.58173 33.9964 4.29727 34.0642 5.60978L34.0811 5.98237L33.5561 5.9993C33.2682 6.01201 32.777 6.02471 32.468 6.02894Z" fill="#333333"/>
<path id="Vector_3" d="M26.6405 3.14157C26.4627 3.10347 26.3018 3.09923 25.9589 3.1077C25.4381 3.12464 25.0824 3.20508 24.6929 3.38291C24.5659 3.44218 24.4516 3.49299 24.4431 3.49299C24.4346 3.49299 24.4346 2.70548 24.4473 1.74861C24.46 0.393755 24.4558 0 24.4262 0C24.3288 0 21.255 0.584282 21.2211 0.609685C21.1957 0.630855 21.1872 0.694364 21.1915 0.791744C21.1999 0.961101 21.183 0.948399 21.5556 1.03308C21.6699 1.05848 21.8011 1.10929 21.8477 1.14316C21.9747 1.23207 22.0763 1.42683 22.1483 1.70204C22.2034 1.91797 22.2118 2.07462 22.2372 3.55226C22.2626 5.05954 22.2584 6.60492 22.2161 9.44166L22.1991 10.6187L22.4193 10.6695C22.7368 10.7415 23.6514 10.8939 23.9477 10.9235C24.3838 10.9701 25.4084 10.9616 25.7302 10.9151C27.1444 10.7034 28.2071 9.88198 28.7024 8.62874C28.8337 8.29426 28.9607 7.78196 29.003 7.40514C29.0538 6.96057 29.0242 6.06722 28.948 5.70733C28.6559 4.33131 27.8006 3.38291 26.6405 3.14157ZM24.4939 10.2461C24.4558 10.1445 24.4092 6.61763 24.4262 5.20773L24.4389 4.10691L24.6379 4.04763C24.7691 4.00953 24.9258 3.98836 25.1078 3.98836C25.3619 3.98836 25.3957 3.99683 25.6117 4.10267C26.1282 4.35671 26.4839 4.99603 26.649 5.96137C26.7083 6.31702 26.7167 7.29505 26.6617 7.72268C26.5262 8.7727 26.1832 9.62371 25.726 10.0344C25.5439 10.1995 25.3746 10.2842 25.1544 10.3265C24.9978 10.3562 24.9469 10.3562 24.6633 10.335C24.5447 10.3265 24.5193 10.3138 24.4939 10.2461Z" fill="#333333"/>
<path id="Vector_4" d="M20.8965 2.98145C20.5451 2.98145 20.3588 3.01955 20.0751 3.1508C19.5586 3.3879 19.1733 3.77319 18.8261 4.39981L18.7161 4.59457L18.7288 4.24739C18.7372 4.05686 18.7499 3.70121 18.7584 3.45565L18.7711 3.01108H18.6991C18.606 3.01108 15.621 3.60807 15.5321 3.64617C15.4729 3.67158 15.4644 3.69698 15.4644 3.84093C15.4644 3.98912 15.4729 4.00606 15.5321 4.01876C15.5702 4.02723 15.7057 4.05263 15.837 4.07803C16.0995 4.12884 16.1799 4.17118 16.29 4.31513C16.489 4.58187 16.5313 5.0476 16.5313 7.03331C16.5313 8.65491 16.4975 9.46358 16.417 9.71762C16.3239 10.0267 16.1545 10.1876 15.8624 10.2384C15.7692 10.2553 15.6422 10.2807 15.5872 10.2934L15.4813 10.3146L15.4729 10.5221C15.4686 10.666 15.4771 10.738 15.5025 10.7549C15.5237 10.7676 16.544 10.7761 17.7677 10.7719L19.9947 10.7634L20.0032 10.5305C20.0074 10.4035 20.0032 10.2977 19.9862 10.2977C19.8126 10.2977 19.2834 10.2257 19.1987 10.1918C18.9489 10.086 18.8261 9.86158 18.7753 9.40431C18.7118 8.8666 18.6779 7.52868 18.6949 6.43633C18.7118 5.33128 18.7118 5.32704 18.7796 5.25083C18.9405 5.07724 19.3511 4.94175 19.7153 4.94175C20.0074 4.94175 20.3122 5.01797 20.634 5.17039C20.7907 5.2466 20.9304 5.2974 20.9516 5.29317C20.9939 5.27623 21.7221 3.34556 21.7221 3.25665C21.7264 3.11693 21.3115 2.98145 20.8965 2.98145Z" fill="#333333"/>
<path id="Vector_5" d="M15.4686 6.338C15.3119 5.00008 14.7446 4.02204 13.8089 3.47163C12.7716 2.86194 11.1923 2.82384 10.0703 3.38695C9.26167 3.79341 8.59695 4.57668 8.30481 5.47428C7.99996 6.40151 7.99996 7.62088 8.30481 8.56928C8.49957 9.17473 8.76207 9.61929 9.16853 10.0216C9.65543 10.5042 10.2947 10.8133 11.023 10.9191C11.2855 10.9573 12.1069 10.9573 12.3778 10.9191C12.5048 10.9022 12.725 10.8514 12.869 10.8133C14.1942 10.428 15.096 9.41183 15.4051 7.95536C15.4855 7.60818 15.5152 6.74445 15.4686 6.338ZM12.1196 10.3433C11.2982 10.5889 10.7097 9.80558 10.481 8.16282C10.4091 7.63358 10.4091 6.18558 10.481 5.58012C10.6419 4.25914 11.0484 3.59018 11.6919 3.58594C11.9798 3.58594 12.1407 3.65792 12.3694 3.88232C12.9071 4.42426 13.1653 5.46157 13.1611 7.09164C13.1569 8.39145 13.0298 9.2086 12.7377 9.76324C12.5938 10.03 12.3313 10.2798 12.1196 10.3433Z" fill="#333333"/>
<path id="Vector_6" d="M4.64573 0.858946H5.60503C6.70565 0.858946 6.88552 0.880703 7.27523 1.07652C7.84053 1.35936 8.25166 1.91635 8.61567 2.88673C8.76128 3.28271 8.76128 3.27836 9.08676 3.17828L9.30517 3.113L9.28375 1.68572C9.27091 0.902461 9.25378 0.201875 9.24521 0.132251L9.2238 0.01041L5.0226 0.0017071C2.71001 -0.00264437 0.774289 0.0017071 0.722899 0.01041L0.620117 0.0278159L0.628682 0.280201L0.637247 0.532586L0.95844 0.571749C1.37385 0.623967 1.62224 0.741456 1.76785 0.95903C2.09761 1.45075 2.15756 2.12087 2.15756 5.29744C2.15756 8.68288 2.08904 9.50531 1.76785 9.93175C1.60083 10.1537 1.46807 10.2233 1.09548 10.2929C0.607269 10.3843 0.6244 10.3712 0.6244 10.628C0.6244 10.7716 0.637247 10.8456 0.662943 10.8586C0.718616 10.8804 6.09324 10.8847 6.14891 10.8586C6.22172 10.8282 6.21744 10.4278 6.14463 10.3887C6.11465 10.3712 5.93479 10.3364 5.74207 10.306C5.54935 10.2755 5.33523 10.2277 5.27099 10.1972C4.91982 10.0405 4.72282 9.60974 4.65002 8.83083C4.59863 8.27384 4.5558 7.24255 4.5558 6.48104V5.7848L4.88127 5.79351C5.57933 5.81526 5.93907 5.85443 6.08468 5.9197C6.40159 6.0633 6.65426 6.45493 6.78702 7.00757L6.85554 7.30347L7.10393 7.31217L7.35232 7.32087V3.60907L7.10393 3.61777L6.85554 3.62648L6.78273 3.91803C6.64141 4.48807 6.41443 4.83618 6.07611 4.99719C5.93907 5.06246 5.84057 5.07987 5.51081 5.10162C5.2924 5.11468 4.98834 5.12773 4.82988 5.12773H4.54723V4.20522C4.54723 3.28271 4.59434 1.32455 4.6286 1.01995L4.64573 0.858946Z" fill="#333333"/>
</g>
<defs>
<clipPath id="clip0_1353_13098">
<rect width="85" height="11" fill="white" transform="translate(0.620117)"/>
</clipPath>
</defs>
</svg>
