<svg width="306" height="290" viewBox="0 0 306 290" fill="none" xmlns="http://www.w3.org/2000/svg">
<path d="M39.1782 156.392C39.6684 158.352 44.6927 163.744 47.1436 166.195V186.415H23.8603C22.3898 186.415 22.0222 183.147 22.0222 181.513C19.5713 181.023 19.7755 177.632 20.184 175.999C16.2626 173.548 18.5501 170.076 20.184 168.646C15.7724 165.705 18.3459 162.927 20.184 161.906H33.6638C30.6002 153.941 33.6638 150.264 36.7274 150.264C39.7909 150.264 38.5655 153.941 39.1782 156.392Z" fill="#72BFB6"/>
<rect width="8.57804" height="24.5087" rx="0.612" transform="matrix(-1 0 0 1 58.7856 166.195)" fill="#72BFB6"/>
<ellipse cx="156.366" cy="276.642" rx="115.974" ry="8.262" fill="#262F63" fill-opacity="0.1"/>
<rect x="56.3042" y="112.932" width="207.221" height="102.204" fill="#EDF0FC"/>
<rect x="56.3042" y="112.932" width="207.468" height="15.3" fill="#3245A6"/>
<g opacity="0.2">
<path d="M92.821 146.798C93.3824 145.07 95.8267 145.07 96.388 146.798L98.2885 152.647C98.5396 153.42 99.2596 153.943 100.072 153.943H106.222C108.039 153.943 108.794 156.268 107.325 157.336L102.349 160.951C101.692 161.428 101.417 162.275 101.668 163.047L103.568 168.896C104.13 170.624 102.152 172.061 100.682 170.993L95.7068 167.378C95.0495 166.901 94.1595 166.901 93.5022 167.378L88.5266 170.993C87.0569 172.061 85.0795 170.624 85.6408 168.896L87.5414 163.047C87.7924 162.275 87.5174 161.428 86.8601 160.951L81.8845 157.336C80.4148 156.268 81.1701 153.943 82.9868 153.943H89.137C89.9494 153.943 90.6694 153.42 90.9205 152.647L92.821 146.798Z" fill="#3245A6"/>
<path d="M136.891 146.798C137.453 145.07 139.897 145.07 140.458 146.798L142.359 152.647C142.61 153.42 143.33 153.943 144.142 153.943H150.293C152.109 153.943 152.865 156.268 151.395 157.336L146.419 160.951C145.762 161.428 145.487 162.275 145.738 163.047L147.638 168.896C148.2 170.624 146.222 172.061 144.753 170.993L139.777 167.378C139.12 166.901 138.23 166.901 137.573 167.378L132.597 170.993C131.127 172.061 129.15 170.624 129.711 168.896L131.612 163.047C131.863 162.275 131.588 161.428 130.93 160.951L125.955 157.336C124.485 156.268 125.24 153.943 127.057 153.943H133.207C134.02 153.943 134.74 153.42 134.991 152.647L136.891 146.798Z" fill="#3245A6"/>
<path d="M180.96 146.798C181.521 145.07 183.965 145.07 184.527 146.798L186.427 152.647C186.678 153.42 187.398 153.943 188.211 153.943H194.361C196.178 153.943 196.933 156.268 195.463 157.336L190.488 160.951C189.83 161.428 189.555 162.275 189.806 163.047L191.707 168.896C192.268 170.624 190.291 172.061 188.821 170.993L183.845 167.378C183.188 166.901 182.298 166.901 181.641 167.378L176.665 170.993C175.196 172.061 173.218 170.624 173.78 168.896L175.68 163.047C175.931 162.275 175.656 161.428 174.999 160.951L170.023 157.336C168.553 156.268 169.309 153.943 171.125 153.943H177.276C178.088 153.943 178.808 153.42 179.059 152.647L180.96 146.798Z" fill="#3245A6"/>
<path d="M225.03 146.798C225.591 145.07 228.036 145.07 228.597 146.798L230.498 152.647C230.749 153.42 231.469 153.943 232.281 153.943H238.431C240.248 153.943 241.003 156.268 239.533 157.336L234.558 160.951C233.901 161.428 233.626 162.275 233.877 163.047L235.777 168.896C236.339 170.624 234.361 172.061 232.891 170.993L227.916 167.378C227.259 166.901 226.368 166.901 225.711 167.378L220.736 170.993C219.266 172.061 217.288 170.624 217.85 168.896L219.75 163.047C220.001 162.275 219.726 161.428 219.069 160.951L214.094 157.336C212.624 156.268 213.379 153.943 215.196 153.943H221.346C222.158 153.943 222.878 153.42 223.129 152.647L225.03 146.798Z" fill="#3245A6"/>
</g>
<path d="M93.4328 143.738C93.9942 142.01 96.4385 142.01 96.9999 143.738L98.9004 149.587C99.1514 150.36 99.8714 150.883 100.684 150.883H106.834C108.651 150.883 109.406 153.208 107.936 154.275L102.961 157.89C102.303 158.368 102.028 159.214 102.279 159.987L104.18 165.836C104.741 167.564 102.764 169.001 101.294 167.933L96.3186 164.318C95.6613 163.84 94.7713 163.84 94.1141 164.318L89.1385 167.933C87.6688 169.001 85.6913 167.564 86.2527 165.836L88.1532 159.987C88.4042 159.214 88.1292 158.368 87.4719 157.89L82.4963 154.275C81.0266 153.208 81.782 150.883 83.5986 150.883H89.7488C90.5612 150.883 91.2812 150.36 91.5323 149.587L93.4328 143.738Z" fill="#F3BF75"/>
<path d="M137.503 143.738C138.065 142.01 140.509 142.01 141.07 143.738L142.971 149.587C143.222 150.36 143.942 150.883 144.754 150.883H150.904C152.721 150.883 153.476 153.208 152.007 154.275L147.031 157.89C146.374 158.368 146.099 159.214 146.35 159.987L148.25 165.836C148.812 167.564 146.834 169.001 145.365 167.933L140.389 164.318C139.732 163.84 138.842 163.84 138.184 164.318L133.209 167.933C131.739 169.001 129.762 167.564 130.323 165.836L132.223 159.987C132.475 159.214 132.2 158.368 131.542 157.89L126.567 154.275C125.097 153.208 125.852 150.883 127.669 150.883H133.819C134.632 150.883 135.352 150.36 135.603 149.587L137.503 143.738Z" fill="#F3BF75"/>
<path d="M181.572 143.738C182.134 142.01 184.578 142.01 185.139 143.738L187.04 149.587C187.291 150.36 188.011 150.883 188.824 150.883H194.974C196.79 150.883 197.546 153.208 196.076 154.275L191.1 157.89C190.443 158.368 190.168 159.214 190.419 159.987L192.32 165.836C192.881 167.564 190.904 169.001 189.434 167.933L184.458 164.318C183.801 163.84 182.911 163.84 182.254 164.318L177.278 167.933C175.808 169.001 173.831 167.564 174.392 165.836L176.293 159.987C176.544 159.214 176.269 158.368 175.612 157.89L170.636 154.275C169.166 153.208 169.922 150.883 171.738 150.883H177.888C178.701 150.883 179.421 150.36 179.672 149.587L181.572 143.738Z" fill="#F3BF75"/>
<path d="M225.642 143.738C226.204 142.01 228.648 142.01 229.209 143.738L231.11 149.587C231.361 150.36 232.081 150.883 232.893 150.883H239.044C240.86 150.883 241.616 153.208 240.146 154.275L235.17 157.89C234.513 158.368 234.238 159.214 234.489 159.987L236.389 165.836C236.951 167.564 234.973 169.001 233.504 167.933L228.528 164.318C227.871 163.84 226.981 163.84 226.324 164.318L221.348 167.933C219.878 169.001 217.901 167.564 218.462 165.836L220.363 159.987C220.614 159.214 220.339 158.368 219.681 157.89L214.706 154.275C213.236 153.208 213.991 150.883 215.808 150.883H221.958C222.771 150.883 223.491 150.36 223.742 149.587L225.642 143.738Z" fill="#F3BF75"/>
<line x1="103.187" y1="183.256" x2="217.58" y2="183.256" stroke="#CED4F2" stroke-width="3.75061"/>
<line x1="113.501" y1="196.383" x2="207.266" y2="196.383" stroke="#CED4F2" stroke-width="3.75061"/>
<circle cx="64.7431" cy="120.434" r="2.81295" fill="#EDF0FC"/>
<circle cx="75.9951" cy="120.434" r="2.81295" fill="#F3BF75"/>
<circle cx="87.2466" cy="120.434" r="2.81295" fill="#72BFB6"/>
<path d="M246.066 191.09C245.101 194.95 235.21 205.564 230.386 210.389V250.193H276.22C279.115 250.193 279.839 243.76 279.839 240.543C284.664 239.578 284.261 232.904 283.457 229.688C291.177 224.863 286.674 218.028 283.457 215.214C292.142 209.424 287.076 203.956 283.457 201.946H256.922C262.952 186.265 256.922 179.028 250.891 179.028C244.86 179.028 247.272 186.265 246.066 191.09Z" fill="#3245A6"/>
<rect x="207.468" y="210.389" width="16.8864" height="48.2469" rx="0.612" fill="#3245A6"/>
<path d="M205.02 83.5563C205.02 82.2043 206.116 81.1083 207.468 81.1083H252.756C254.108 81.1083 255.204 82.2043 255.204 83.5563V105.588C255.204 106.94 254.108 108.036 252.756 108.036H228.22C227.481 108.036 226.782 108.37 226.317 108.944L218.669 118.392C217.962 119.266 216.549 118.803 216.495 117.68L216.147 110.368C216.085 109.063 215.009 108.036 213.702 108.036H207.468C206.116 108.036 205.02 106.94 205.02 105.588V83.5563Z" fill="#EDF0FC"/>
<circle cx="214.812" cy="94.5722" r="4.284" fill="#F3BF75"/>
<circle cx="228.888" cy="94.5722" r="4.284" fill="#F3BF75"/>
<circle cx="242.965" cy="94.5722" r="4.284" fill="#F3BF75"/>
<path d="M96.1309 64.349C96.1309 62.789 94.8662 61.5244 93.3062 61.5244H48.1124C46.5524 61.5244 45.2878 62.789 45.2878 64.349V89.7706C45.2878 91.3306 46.5524 92.5952 48.1124 92.5952H69.3618C70.2141 92.5952 71.0209 92.9801 71.5572 93.6426L80.3818 104.544C81.1983 105.552 82.8285 105.018 82.8902 103.722L83.292 95.2854C83.3637 93.7794 84.6056 92.5952 86.1134 92.5952H93.3062C94.8662 92.5952 96.1309 91.3306 96.1309 89.7706V64.349Z" fill="#EDF0FC"/>
<path d="M70.3159 85.442C70.3159 85.442 83.6146 76.6542 77.0335 70.4628C74.7568 69.1473 71.9222 69.6707 70.2501 71.5729C68.5786 69.6746 65.748 69.1516 63.4728 70.4642C56.9557 76.1166 70.3159 85.442 70.3159 85.442Z" fill="#72BFB6"/>
<line x1="243.429" y1="148.043" x2="249.478" y2="142.876" stroke="#F3BF75" stroke-width="1.224"/>
<line x1="246.24" y1="152.992" x2="254.063" y2="151.542" stroke="#F3BF75" stroke-width="1.224"/>
<line y1="-0.612" x2="7.956" y2="-0.612" transform="matrix(0.33379 -0.942647 -0.942647 -0.33379 238.204 144.054)" stroke="#F3BF75" stroke-width="1.224"/>
<line x1="77.2428" y1="144.67" x2="71.6198" y2="139.041" stroke="#F3BF75" stroke-width="1.224"/>
<line x1="81.9581" y1="141.48" x2="79.9026" y2="133.794" stroke="#F3BF75" stroke-width="1.224"/>
<line y1="-0.612" x2="7.956" y2="-0.612" transform="matrix(-0.9658 -0.259287 -0.259287 0.9658 73.6738 150.189)" stroke="#F3BF75" stroke-width="1.224"/>
<g opacity="0.5">
<path d="M250.933 17.1971C250.612 18.4837 247.315 22.0218 245.707 23.63V36.8979H260.985C261.95 36.8979 262.191 34.7536 262.191 33.6814C263.799 33.3598 263.665 31.1351 263.397 30.0629C265.97 28.4547 264.469 26.1764 263.397 25.2382C266.292 23.3084 264.603 21.4857 263.397 20.8156H254.552C256.562 15.5889 254.552 13.1765 252.542 13.1765C250.531 13.1765 251.335 15.5889 250.933 17.1971Z" fill="#EDF0FC"/>
<rect x="238.068" y="23.6301" width="5.6288" height="16.0823" rx="0.612" fill="#EDF0FC"/>
</g>
<g opacity="0.5">
<path d="M76.3774 226.994C76.6405 228.047 79.338 230.942 80.6538 232.257V243.113H68.1535C67.364 243.113 67.1666 241.359 67.1666 240.481C65.8508 240.218 65.9604 238.398 66.1797 237.521C64.0744 236.205 65.3025 234.341 66.1797 233.573C63.8113 231.994 65.1929 230.503 66.1797 229.955H73.4168C71.772 225.678 73.4168 223.705 75.0616 223.705C76.7063 223.705 76.0484 225.678 76.3774 226.994Z" fill="#EDF0FC"/>
<rect width="4.60539" height="13.1582" rx="0.612" transform="matrix(-1 0 0 1 86.9043 232.257)" fill="#EDF0FC"/>
</g>
</svg>