<svg width="323" height="388" viewBox="0 0 323 388" fill="none" xmlns="http://www.w3.org/2000/svg">
<g opacity="0.5">
<path d="M230.108 21.6361C229.769 22.991 226.297 26.7171 224.604 28.4108V42.3837H240.693C241.71 42.3837 241.964 40.1254 241.964 38.9963C243.657 38.6576 243.516 36.3146 243.234 35.1855C245.944 33.4918 244.363 31.0925 243.234 30.1045C246.283 28.0721 244.504 26.1525 243.234 25.4468H233.919C236.036 19.9424 233.919 17.4019 231.802 17.4019C229.685 17.4019 230.531 19.9424 230.108 21.6361Z" fill="#EDF0FC"/>
<rect x="216.559" y="28.4106" width="5.92789" height="16.9368" rx="0.644518" fill="#EDF0FC"/>
</g>
<g opacity="0.5">
<path d="M34.2893 151.059C34.0122 152.168 31.1714 155.216 29.7856 156.602V168.034H42.9502C43.7816 168.034 43.9895 166.187 43.9895 165.263C45.3752 164.986 45.2597 163.069 45.0288 162.145C47.246 160.759 45.9526 158.796 45.0288 157.988C47.5231 156.325 46.0681 154.754 45.0288 154.177H37.4072C39.1394 149.673 37.4072 147.595 35.675 147.595C33.9429 147.595 34.6357 149.673 34.2893 151.059Z" fill="#EDF0FC"/>
<rect x="23.2031" y="156.602" width="4.85009" height="13.8574" rx="0.644518" fill="#EDF0FC"/>
</g>
<g opacity="0.5">
<path d="M264.267 279.443C263.928 280.798 260.456 284.524 258.763 286.218V300.191H274.853C275.869 300.191 276.123 297.933 276.123 296.804C277.817 296.465 277.675 294.122 277.393 292.993C280.103 291.299 278.522 288.9 277.393 287.912C280.442 285.879 278.663 283.96 277.393 283.254H268.078C270.195 277.75 268.078 275.209 265.961 275.209C263.844 275.209 264.691 277.75 264.267 279.443Z" fill="#EDF0FC"/>
<rect x="250.718" y="286.218" width="5.92789" height="16.9368" rx="0.644518" fill="#EDF0FC"/>
</g>
<path d="M248.14 164.997C248.14 163.573 249.294 162.419 250.718 162.419H298.412C299.836 162.419 300.99 163.573 300.99 164.997V188.199C300.99 189.623 299.836 190.778 298.412 190.778H272.572C271.794 190.778 271.058 191.129 270.568 191.733L262.514 201.683C261.769 202.604 260.281 202.116 260.225 200.933L259.858 193.233C259.792 191.858 258.659 190.778 257.283 190.778H250.718C249.294 190.778 248.14 189.623 248.14 188.199V164.997Z" fill="#EDF0FC"/>
<circle cx="258.452" cy="176.598" r="4.51163" fill="#F3BF75"/>
<circle cx="273.276" cy="176.598" r="4.51163" fill="#F3BF75"/>
<circle cx="288.1" cy="176.598" r="4.51163" fill="#F3BF75"/>
<path d="M92.166 43.8271C92.166 42.4033 91.0118 41.249 89.5879 41.249H41.8936C40.4698 41.249 39.3155 42.4033 39.3155 43.8271V67.0298C39.3155 68.4536 40.4698 69.6078 41.8936 69.6078H67.7334C68.5114 69.6078 69.2477 69.9591 69.7372 70.5638L77.7916 80.5133C78.5368 81.4338 80.0247 80.9466 80.0811 79.7636L80.4478 72.0633C80.5132 70.6887 81.6468 69.6078 83.0229 69.6078H89.5879C91.0118 69.6078 92.166 68.4536 92.166 67.0298V43.8271Z" fill="#EDF0FC"/>
<circle r="4.51163" transform="matrix(-1 0 0 1 81.8536 55.4284)" fill="#CED4F2"/>
<circle r="4.51163" transform="matrix(-1 0 0 1 67.0299 55.4284)" fill="#CED4F2"/>
<circle r="4.51163" transform="matrix(-1 0 0 1 52.2057 55.4284)" fill="#CED4F2"/>
<path d="M89.6377 207.931C89.6377 206.289 88.3059 204.957 86.663 204.957H39.0678C37.4249 204.957 36.0931 206.289 36.0931 207.931V234.704C36.0931 236.347 37.4249 237.678 39.0678 237.678H61.4463C62.3439 237.678 63.1935 238.084 63.7583 238.782L73.0518 250.262C73.9117 251.324 75.6285 250.762 75.6935 249.397L76.1166 240.512C76.1922 238.926 77.5001 237.678 79.088 237.678H86.663C88.3059 237.678 89.6377 236.347 89.6377 234.704V207.931Z" fill="#EDF0FC"/>
<path d="M62.4513 230.145C62.4513 230.145 76.4565 220.89 69.5258 214.37C67.1281 212.985 64.1429 213.536 62.3819 215.539C60.6216 213.54 57.6406 212.989 55.2445 214.372C48.3811 220.324 62.4513 230.145 62.4513 230.145Z" fill="#72BFB6"/>
<rect x="83.1431" y="97.5493" width="170.797" height="232.61" rx="11.3865" fill="#3245A6"/>
<rect x="92.0898" y="105.107" width="152.904" height="219.597" rx="11.3865" fill="#F9FAFF"/>
<circle cx="113.243" cy="159.149" r="10.6631" fill="#3245A6"/>
<path fill-rule="evenodd" clip-rule="evenodd" d="M119.327 153.377C119.696 153.683 119.748 154.23 119.442 154.599L111.321 164.41C111.171 164.591 110.954 164.704 110.719 164.722C110.485 164.74 110.253 164.662 110.077 164.506L106.712 161.524C106.353 161.206 106.32 160.658 106.638 160.299C106.956 159.94 107.505 159.907 107.863 160.225L110.556 162.611L118.105 153.492C118.41 153.123 118.958 153.071 119.327 153.377Z" fill="white"/>
<path fill-rule="evenodd" clip-rule="evenodd" d="M164 164.694H132.438V162.135H164V164.694Z" fill="#CED4F2"/>
<path fill-rule="evenodd" clip-rule="evenodd" d="M192.151 158.296H132.438V155.737H192.151V158.296Z" fill="#CED4F2"/>
<circle cx="113.243" cy="229.052" r="10.6631" fill="#3245A6"/>
<path fill-rule="evenodd" clip-rule="evenodd" d="M119.327 223.28C119.696 223.586 119.748 224.133 119.442 224.502L111.321 234.313C111.171 234.494 110.954 234.606 110.719 234.625C110.485 234.643 110.253 234.565 110.077 234.409L106.712 231.427C106.353 231.109 106.32 230.56 106.638 230.202C106.956 229.843 107.505 229.81 107.863 230.128L110.556 232.514L118.105 223.395C118.41 223.026 118.958 222.974 119.327 223.28Z" fill="white"/>
<path fill-rule="evenodd" clip-rule="evenodd" d="M164 234.597H132.438V232.038H164V234.597Z" fill="#CED4F2"/>
<path fill-rule="evenodd" clip-rule="evenodd" d="M192.151 228.199H132.438V225.64H192.151V228.199Z" fill="#CED4F2"/>
<circle cx="113.243" cy="194.208" r="10.6631" fill="#3245A6"/>
<path fill-rule="evenodd" clip-rule="evenodd" d="M119.327 188.437C119.696 188.742 119.748 189.29 119.442 189.659L111.321 199.469C111.171 199.651 110.954 199.763 110.719 199.781C110.485 199.799 110.253 199.722 110.077 199.565L106.712 196.584C106.353 196.266 106.32 195.717 106.638 195.358C106.956 194.999 107.505 194.966 107.863 195.284L110.556 197.67L118.105 188.552C118.41 188.182 118.958 188.131 119.327 188.437Z" fill="white"/>
<path fill-rule="evenodd" clip-rule="evenodd" d="M164 199.754H132.438V197.195H164V199.754Z" fill="#CED4F2"/>
<path fill-rule="evenodd" clip-rule="evenodd" d="M192.151 193.356H132.438V190.796H192.151V193.356Z" fill="#CED4F2"/>
<circle cx="113.243" cy="264.111" r="10.6631" fill="#3245A6"/>
<path fill-rule="evenodd" clip-rule="evenodd" d="M119.327 258.339C119.696 258.645 119.748 259.192 119.442 259.562L111.321 269.372C111.171 269.553 110.954 269.666 110.719 269.684C110.485 269.702 110.253 269.624 110.077 269.468L106.712 266.487C106.353 266.169 106.32 265.62 106.638 265.261C106.956 264.902 107.505 264.869 107.863 265.187L110.556 267.573L118.105 258.455C118.41 258.085 118.958 258.034 119.327 258.339Z" fill="white"/>
<path fill-rule="evenodd" clip-rule="evenodd" d="M164 269.656H132.438V267.097H164V269.656Z" fill="#CED4F2"/>
<path fill-rule="evenodd" clip-rule="evenodd" d="M192.151 263.258H132.438V260.699H192.151V263.258Z" fill="#CED4F2"/>
<path d="M132.052 102.017C131.212 96.1376 135.775 90.8772 141.714 90.8772H195.982C201.921 90.8772 206.484 96.1376 205.644 102.017L204.167 112.354C203.48 117.162 199.362 120.734 194.505 120.734H143.191C138.334 120.734 134.216 117.162 133.529 112.354L132.052 102.017Z" fill="#3245A6"/>
<rect x="136.006" y="127.985" width="66.964" height="5.97132" fill="#CED4F2"/>
<path d="M254.167 140.489C272.803 140.489 287.91 125.055 287.91 106.015C287.91 86.976 272.803 71.5415 254.167 71.5415C235.532 71.5415 220.425 86.976 220.425 106.015C220.425 125.055 235.532 140.489 254.167 140.489Z" fill="#72BFB6"/>
<ellipse cx="156.94" cy="337.405" rx="122.136" ry="8.701" fill="#262F63" fill-opacity="0.1"/>
<path d="M247.356 125.431C246.41 125.433 245.493 125.098 244.765 124.486L235.119 116.39C233.982 115.457 233.426 113.976 233.666 112.512C233.905 111.049 234.901 109.828 236.275 109.317C237.649 108.805 239.188 109.081 240.305 110.039L246.924 115.595L267.612 91.948C269.102 90.2446 271.673 90.0887 273.354 91.5998C275.034 93.1109 275.188 95.7168 273.697 97.4202L250.402 124.045C249.63 124.929 248.521 125.434 247.356 125.431Z" fill="white"/>
<rect x="20.6245" y="267.475" width="142.439" height="70.2525" fill="#EDF0FC"/>
<path d="M46.1464 288.65C46.5322 287.463 48.2124 287.463 48.5983 288.65L49.9046 292.671C50.0772 293.202 50.5721 293.562 51.1306 293.562H55.358C56.6068 293.562 57.126 295.159 56.1157 295.893L52.6956 298.378C52.2438 298.707 52.0548 299.288 52.2273 299.819L53.5337 303.84C53.9196 305.028 52.5603 306.015 51.5501 305.281L48.13 302.796C47.6782 302.468 47.0664 302.468 46.6146 302.796L43.1945 305.281C42.1843 306.015 40.825 305.028 41.2109 303.84L42.5173 299.819C42.6898 299.288 42.5008 298.707 42.049 298.378L38.6289 295.893C37.6187 295.159 38.1379 293.562 39.3866 293.562H43.614C44.1725 293.562 44.6674 293.202 44.84 292.671L46.1464 288.65Z" fill="#F3BF75"/>
<path d="M76.4388 288.65C76.8247 287.463 78.5049 287.463 78.8907 288.65L80.1971 292.671C80.3697 293.202 80.8646 293.562 81.423 293.562H85.6505C86.8992 293.562 87.4184 295.159 86.4082 295.893L82.9881 298.378C82.5363 298.707 82.3473 299.288 82.5198 299.819L83.8262 303.84C84.2121 305.028 82.8528 306.015 81.8426 305.281L78.4225 302.796C77.9707 302.468 77.3589 302.468 76.9071 302.796L73.487 305.281C72.4768 306.015 71.1175 305.028 71.5034 303.84L72.8097 299.819C72.9823 299.288 72.7933 298.707 72.3415 298.378L68.9214 295.893C67.9111 295.159 68.4303 293.562 69.6791 293.562H73.9065C74.465 293.562 74.9599 293.202 75.1325 292.671L76.4388 288.65Z" fill="#F3BF75"/>
<path d="M106.731 288.65C107.117 287.463 108.797 287.463 109.183 288.65L110.489 292.671C110.662 293.202 111.157 293.562 111.715 293.562H115.943C117.191 293.562 117.71 295.159 116.7 295.893L113.28 298.378C112.828 298.707 112.639 299.288 112.812 299.819L114.118 303.84C114.504 305.028 113.145 306.015 112.135 305.281L108.714 302.796C108.263 302.468 107.651 302.468 107.199 302.796L103.779 305.281C102.769 306.015 101.41 305.028 101.795 303.84L103.102 299.819C103.274 299.288 103.085 298.707 102.633 298.378L99.2134 295.893C98.2031 295.159 98.7223 293.562 99.971 293.562H104.199C104.757 293.562 105.252 293.202 105.424 292.671L106.731 288.65Z" fill="#F3BF75"/>
<path d="M137.023 288.65C137.409 287.463 139.089 287.463 139.475 288.65L140.782 292.671C140.954 293.202 141.449 293.562 142.008 293.562H146.235C147.484 293.562 148.003 295.159 146.993 295.893L143.573 298.378C143.121 298.707 142.932 299.288 143.104 299.819L144.411 303.84C144.797 305.028 143.437 306.015 142.427 305.281L139.007 302.796C138.555 302.468 137.943 302.468 137.492 302.796L134.071 305.281C133.061 306.015 131.702 305.028 132.088 303.84L133.394 299.819C133.567 299.288 133.378 298.707 132.926 298.378L129.506 295.893C128.496 295.159 129.015 293.562 130.264 293.562H134.491C135.049 293.562 135.544 293.202 135.717 292.671L137.023 288.65Z" fill="#CED4F2"/>
<line x1="52.8506" y1="315.814" x2="131.482" y2="315.814" stroke="#CED4F2" stroke-width="2.57807"/>
<line x1="59.9404" y1="324.837" x2="124.392" y2="324.837" stroke="#CED4F2" stroke-width="2.57807"/>
<circle cx="26.4253" cy="272.631" r="1.93355" fill="#3245A6"/>
<circle cx="34.1596" cy="272.631" r="1.93355" fill="#F3BF75"/>
<circle cx="41.894" cy="272.631" r="1.93355" fill="#72BFB6"/>
</svg>