<?xml version="1.0" encoding="UTF-8" ?>
<svg width="25" height="24" viewBox="0 0 25 24" fill="none" xmlns="http://www.w3.org/2000/svg">
<path d="M9.002 5C8.745 3.325 9.042 1.438 10.231 0H17.49C16.968 0.736 15.722 2.175 16.099 5H14.945C14.798 3.664 15.011 2.147 15.507 1H10.782C10.116 2.003 9.891 3.785 10.125 5H9.002ZM19.5 4V24H5.5V4H7.874V4.675C7.874 5.407 8.457 6 9.176 6H15.823C16.544 6 17.127 5.407 17.127 4.675V4H19.5ZM10.5 21H8.5V22H10.5V21ZM10.5 19H8.5V20H10.5V19ZM10.5 17H8.5V18H10.5V17ZM13.5 21H11.5V22H13.5V21ZM13.5 19H11.5V20H13.5V19ZM13.5 17H11.5V18H13.5V17ZM16.5 21H14.5V22H16.5V21ZM16.5 19H14.5V20H16.5V19ZM16.5 17H14.5V18H16.5V17ZM10.5 15H8.5V16H10.5V15ZM13.5 15H11.5V16H13.5V15ZM16.5 15H14.5V16H16.5V15ZM17.5 8H7.5V13H17.5V8Z" fill="#20964F"/>
</svg>
