<?xml version="1.0" encoding="utf-8"?>
<!-- Generator: Adobe Illustrator 26.5.0, SVG Export Plug-In . SVG Version: 6.00 Build 0)  -->
<svg version="1.1" id="Icons" xmlns:ns0="http://www.w3.org/2000/svg"
	 xmlns="http://www.w3.org/2000/svg" xmlns:xlink="http://www.w3.org/1999/xlink" x="0px" y="0px" viewBox="0 0 72 72"
	 style="enable-background:new 0 0 72 72;" xml:space="preserve">
<style type="text/css">
	.st0{fill:#EAF6FF;}
	.st1{fill:#FFB619;}
	.st2{fill:#FF9D4D;}
	.st3{fill:#FFFFFF;}
	.st4{fill:#3F9CF3;}
	.st5{fill:#002F6C;}
	.st6{fill:#005EB8;}
</style>
<circle id="backgroundPrimary1" class="st0" cx="36" cy="36" r="36"/>
<circle id="accentPrimary1" class="st1" cx="36" cy="32.4" r="14.4"/>
<path id="shadowPrimary1" class="st2" d="M46.2,22.2c5.6,5.6,5.6,14.8-0.1,20.4c-5.6,5.6-14.7,5.6-20.3,0"/>
<path id="fillPrimary1" class="st3" d="M40.8,34.7c-0.1-0.9-0.6-1.7-1.3-2.2c-0.8-0.5-1.6-0.9-2.5-1.1c-0.3-0.1-0.5-0.1-0.7-0.2
	C36,31.1,35.8,31,35.6,31c-0.4-0.1-0.8-0.3-1.1-0.5c-0.5-0.3-0.7-1-0.4-1.5c0.1-0.2,0.2-0.3,0.4-0.4c0.4-0.3,0.9-0.4,1.3-0.4
	c1,0,1.9,0.3,2.7,0.8c0.5,0.3,1.2,0.2,1.5-0.3c0.3-0.5,0.2-1.2-0.3-1.5c-0.8-0.6-1.7-0.9-2.7-1.1l0-0.6c0-0.6-0.5-1.1-1.1-1.1h0
	c-0.6,0-1.1,0.5-1.1,1.1l0,0.6c-0.7,0.1-1.3,0.4-1.9,0.8c-1.5,1.1-1.7,3.2-0.6,4.7c0.2,0.3,0.4,0.5,0.7,0.7c0.6,0.4,1.2,0.7,1.8,0.8
	c0.4,0.1,0.6,0.2,0.8,0.2c0.2,0,0.3,0.1,0.6,0.2c0.6,0.1,1.2,0.3,1.7,0.6c0.3,0.2,0.5,0.5,0.5,0.8c0,0.3,0,0.5-0.2,0.7
	c-0.1,0.2-0.3,0.4-0.5,0.5c-0.7,0.3-1.5,0.4-2.3,0.2c-1-0.2-1.8-0.7-2.5-1.3c-0.4-0.4-1.1-0.4-1.6,0c-0.4,0.4-0.4,1.1,0,1.6
	c0.9,0.9,2,1.5,3.3,1.8v0.9c0,0.6,0.5,1.1,1.1,1.1c0.6,0,1.1-0.5,1.1-1.1c0,0,0,0,0,0v-0.6c0.7-0.1,1.4-0.3,2-0.6
	c0.5-0.3,1-0.7,1.3-1.3C40.7,36.2,40.9,35.4,40.8,34.7z"/>
<rect id="fillSecondary1" x="19.8" y="46.8" class="st4" width="28.8" height="3.6"/>
<rect id="fillQuaternary1" x="23.4" y="50.4" class="st5" width="28.8" height="3.6"/>
<rect id="fillTertiary1" x="23.4" y="46.8" class="st6" width="1.8" height="3.6"/>
<rect id="fillTertiary2" x="30" y="46.8" class="st6" width="1.8" height="3.6"/>
<rect id="fillTertiary3" x="36.6" y="46.8" class="st6" width="1.8" height="3.6"/>
<rect id="fillTertiary4" x="43.2" y="46.8" class="st6" width="1.8" height="3.6"/>
</svg>
