<?xml version="1.0" encoding="utf-8"?>
<!-- Generator: Adobe Illustrator 26.5.0, SVG Export Plug-In . SVG Version: 6.00 Build 0)  -->
<svg version="1.1" id="Layer_1" xmlns:ns0="http://www.w3.org/2000/svg"
	 xmlns="http://www.w3.org/2000/svg" xmlns:xlink="http://www.w3.org/1999/xlink" x="0px" y="0px" viewBox="0 0 72 72"
	 style="enable-background:new 0 0 72 72;" xml:space="preserve">
<style type="text/css">
	.st0{fill:#EAF6FF;}
	.st1{fill:#002F6C;}
	.st2{fill:#3F9CF3;}
	.st3{fill:#005EB8;}
	.st4{fill:#FFB619;}
	.st5{fill:#FFFFFF;}
</style>
<path id="backgroundPrimary1" class="st0" d="M36,72c19.9,0,36-16.1,36-36S55.9,0,36,0S0,16.1,0,36S16.1,72,36,72z"/>
<path id="fillQuaternary1" class="st1" d="M18,38.7c-1.2,0-2.3-0.5-3.2-1.3c-0.8-0.8-1.3-2-1.3-3.2c0-0.2,0.1-0.5,0.3-0.6
	c0.2-0.2,0.4-0.3,0.6-0.3c0.2,0,0.5,0.1,0.6,0.3c0.2,0.2,0.3,0.4,0.3,0.6c0,0.7,0.3,1.4,0.8,1.9c0.5,0.5,1.2,0.8,1.9,0.8
	s1.4-0.3,1.9-0.8c0.5-0.5,0.8-1.2,0.8-1.9c0-0.2,0.1-0.5,0.3-0.6c0.2-0.2,0.4-0.3,0.6-0.3c0.2,0,0.5,0.1,0.6,0.3
	c0.2,0.2,0.3,0.4,0.3,0.6c0,1.2-0.5,2.3-1.3,3.2C20.3,38.2,19.2,38.7,18,38.7z"/>
<path id="fillSecondary1" class="st2" d="M57.6,32.4h-4.2c-0.5-1.6-1.3-3-2.4-4.3c0.7-0.7,1.2-1.6,1.6-2.5c0.5-1.3,0.7-2.6,0.5-4
	c-1.4-0.2-2.7,0-4,0.5c-1,0.4-1.9,1-2.7,1.8c-0.1,0.1-0.1,0.2-0.2,0.2c-3.1-1.7-6.6-2.5-10.2-2.5c-9.9,0-18,6.4-18,14.4
	s8.1,14.4,18,14.4c7.6,0,14-3.7,16.7-9l4.9-1.8V32.4z"/>
<path id="fillTertiary1" class="st3" d="M53.8,38c-2.6,4.2-8.1,7.6-14.9,8.5c-2,0.3-4,0.3-5.9,0.2c-3.4-0.1-6.7-1.1-9.6-2.9
	c-2.5-1.5-4.3-3.5-5.2-5.8c0.6,3.5,2.8,6.7,6,8.9L27,54h5.4v-3.9c2.4,0.4,4.8,0.4,7.2,0V54H45l2.9-7.2C51,44.6,53.2,41.5,53.8,38z"
	/>
<path id="accentPrimary1" class="st4" d="M36,26.1c3,0,5.4-2.4,5.4-5.4c0-3-2.4-5.4-5.4-5.4s-5.4,2.4-5.4,5.4
	C30.6,23.7,33,26.1,36,26.1z"/>
<path id="fillPrimary1" class="st5" d="M41.4,27.9c-0.1,0-0.2,0-0.3,0c-3.3-1.1-6.9-1.1-10.2,0c-0.1,0-0.2,0.1-0.3,0s-0.2,0-0.3-0.1
	c-0.2-0.1-0.4-0.3-0.5-0.5c-0.1-0.2-0.1-0.5,0.1-0.7c0.1-0.2,0.3-0.4,0.5-0.5c3.7-1.2,7.7-1.2,11.4,0c0.2,0.1,0.4,0.2,0.5,0.4
	c0.1,0.2,0.2,0.4,0.1,0.6c0,0.2-0.1,0.4-0.3,0.5C41.8,27.8,41.6,27.9,41.4,27.9L41.4,27.9z"/>
<path id="fillQuaternary2" class="st1" d="M46.8,34.2c1,0,1.8-0.8,1.8-1.8s-0.8-1.8-1.8-1.8c-1,0-1.8,0.8-1.8,1.8
	S45.8,34.2,46.8,34.2z"/>
</svg>
