<?xml version="1.0" encoding="utf-8"?>
<!-- Generator: Adobe Illustrator 26.5.0, SVG Export Plug-In . SVG Version: 6.00 Build 0)  -->
<svg version="1.1" id="Layer_1" xmlns:ns0="http://www.w3.org/2000/svg"
	 xmlns="http://www.w3.org/2000/svg" xmlns:xlink="http://www.w3.org/1999/xlink" x="0px" y="0px" viewBox="0 0 72 72"
	 style="enable-background:new 0 0 72 72;" xml:space="preserve">
<style type="text/css">
	.st0{fill:#EAF6FF;}
	.st1{fill:#8BC544;}
	.st2{fill:#3F9CF3;}
	.st3{fill:#005EB8;}
	.st4{fill:#FFFFFF;}
	.st5{fill:#002F6C;}
</style>
<path id="backgroundPrimary1" class="st0" d="M36,72c19.9,0,36-16.1,36-36S55.9,0,36,0S0,16.1,0,36S16.1,72,36,72z"/>
<path id="accentSecondary1" class="st1" d="M52.2,22.5H14.4v21.6h37.8V22.5z"/>
<path id="fillSecondary1" class="st2" d="M57.6,27.9H19.8v21.6h37.8V27.9z"/>
<path id="fillTertiary1" class="st3" d="M44,27.9v0.7c0.2,11.4-8.9,20.7-20.3,20.9c-0.1,0-0.2,0-0.3,0h34.2V27.9H44z"/>
<path id="fillPrimary1" class="st4" d="M38.7,45.9c4,0,7.2-3.2,7.2-7.2s-3.2-7.2-7.2-7.2s-7.2,3.2-7.2,7.2S34.7,45.9,38.7,45.9z"/>
<path id="fillQuaternary1" class="st5" d="M41.3,39.8c-0.1-0.5-0.3-0.9-0.7-1.2c-0.4-0.3-0.9-0.5-1.4-0.6l-0.4-0.1
	c-0.1,0-0.2,0-0.4-0.1c-0.2,0-0.4-0.1-0.6-0.3c-0.2-0.1-0.3-0.3-0.3-0.5c0-0.2,0.1-0.4,0.3-0.5c0.2-0.1,0.4-0.2,0.7-0.2
	c0.5,0,1,0.1,1.4,0.4c0.3,0.2,0.6,0.1,0.8-0.1c0.2-0.3,0.1-0.6-0.1-0.8c-0.5-0.3-0.9-0.5-1.4-0.6v-0.3c0-0.3-0.3-0.6-0.6-0.6
	c-0.3,0-0.6,0.3-0.6,0.6v0.3c-0.4,0-0.7,0.2-1,0.4c-0.8,0.6-0.9,1.8-0.3,2.5c0.1,0.1,0.2,0.2,0.4,0.4c0.3,0.2,0.6,0.4,1,0.4
	c0.2,0.1,0.3,0.1,0.5,0.1c0.1,0,0.2,0,0.3,0.1c0.3,0,0.6,0.2,0.9,0.4c0.1,0.1,0.3,0.3,0.3,0.5c0,0.1,0,0.3-0.1,0.4
	c-0.1,0.1-0.2,0.2-0.3,0.3c-0.4,0.2-0.8,0.2-1.2,0.1c-0.5-0.1-1-0.4-1.3-0.7c-0.2-0.2-0.6-0.3-0.9,0c-0.3,0.2-0.3,0.6,0,0.9
	c0,0,0,0,0,0c0.5,0.5,1.1,0.8,1.8,1v0.4c0,0.3,0.3,0.6,0.6,0.6c0.3,0,0.6-0.3,0.6-0.6v-0.4c0.4,0,0.8-0.1,1.1-0.3
	c0.3-0.2,0.5-0.4,0.7-0.7C41.2,40.6,41.3,40.2,41.3,39.8z"/>
</svg>
