<svg xmlns="http://www.w3.org/2000/svg" width="500px" height="500px" viewBox="0 0 500 500"><title>SVG Icon Masters-A_v4_bank_icon_reminder_rgb_red</title><g style="isolation:isolate"><path d="M373.321 213.412v-136.443a9.732 9.732 0 0 0-9.748-9.748h-227.148a9.74 9.74 0 0 0-9.748 9.748v136.443l-26.843 27.443v11.353s0 9.748 9.748 9.748h280.848c9.736 0 9.736-9.748 9.736-9.748v-11.353zm-17.838-8.112h-210.954v-120.228h210.954v120.228z" fill="#d1c8bf"/><path d="M400.166 131.3a23.02 23.02 0 0 1-23.027 23h-93.907a23.03 23.03 0 0 1-23.027-23v-93.935a23.038 23.038 0 0 1 23.027-23.027h93.906a23.028 23.028 0 0 1 23.027 23.027v93.935z" fill="#C41230" style="mix-blend-mode:multiply"/><path d="M336.888 110.617a2.392 2.392 0 1 1 2.4 2.348 2.359 2.359 0 0 1-2.4-2.348m.444 0a1.941 1.941 0 1 0 1.951-1.847 1.9 1.9 0 0 0-1.951 1.847" fill="#fff" fill-rule="evenodd"/><path d="M340.464 111.934h-.448l-.766-1.2h-.468v1.2h-.382v-2.591h1.149a1.2 1.2 0 0 1 .66.124.6.6 0 0 1 .305.554.733.733 0 0 1-.859.713zm-1.238-1.513c.362 0 .892.071.892-.4 0-.338-.3-.377-.644-.377h-.692v.776h.444zM316.683 67.71c3.556 1.409 7.027 2.89 10.489 4.507a233.818 233.818 0 0 0-31.772 15.777c-3.406-1.8-6.9-3.5-10.412-5.076a220.14 220.14 0 0 1 31.695-15.208M303.579 63.091a179.985 179.985 0 0 0-32.779 14.092c3.316 1.2 6.591 2.454 9.846 3.817a186.1 186.1 0 0 1 31.83-14.868c-2.924-1.09-5.882-2.114-8.9-3.041M340.509 67.266a192.337 192.337 0 0 0-27.847-10.9c-3.372.966-6.713 2.016-10.033 3.177a190.811 190.811 0 0 1 28.682 11.027c3.039-1.167 6.126-2.277 9.2-3.308M355.153 62.908a210.226 210.226 0 0 0-28.384-10.021c-3.08.639-6.167 1.33-9.182 2.147a190.206 190.206 0 0 1 28.005 10.6c3.145-.971 6.322-1.892 9.561-2.727M378.645 70.8a247.157 247.157 0 0 0-64.109 32.657c4.868 2.967 9.621 6.165 14.269 9.512a259.587 259.587 0 0 1 60.778-35.969c-3.589-2.179-7.251-4.243-10.937-6.206M362.8 63.26a224.852 224.852 0 0 0-66.7 29.993c4.546 2.259 9.047 4.666 13.447 7.2a233.053 233.053 0 0 1 65.453-31.529q-6.019-3.006-12.2-5.664" fill="#fff" fill-rule="evenodd"/></g></svg>