<?xml version="1.0" encoding="utf-8"?>
<!-- Generator: Adobe Illustrator 26.5.0, SVG Export Plug-In . SVG Version: 6.00 Build 0)  -->
<svg version="1.1" id="Layer_1" xmlns:ns0="http://www.w3.org/2000/svg"
	 xmlns="http://www.w3.org/2000/svg" xmlns:xlink="http://www.w3.org/1999/xlink" x="0px" y="0px" viewBox="0 0 72 72"
	 style="enable-background:new 0 0 72 72;" xml:space="preserve">
<style type="text/css">
	.st0{fill:#EAF6FF;}
	.st1{fill:#3F9CF3;}
	.st2{fill:#005EB8;}
	.st3{fill:#002F6C;}
	.st4{fill:#8BC544;}
	.st5{fill:#57971C;}
	.st6{fill:#FFFFFF;}
</style>
<path id="backgroundPrimary1" class="st0" d="M36,72c19.9,0,36-16.1,36-36S55.9,0,36,0S0,16.1,0,36S16.1,72,36,72z"/>
<path id="fillSecondary1" class="st1" d="M52.2,23.4H19.8c-1,0-1.8,0.8-1.8,1.8v14.4c0,1,0.8,1.8,1.8,1.8h32.4c1,0,1.8-0.8,1.8-1.8
	V25.2C54,24.2,53.2,23.4,52.2,23.4z"/>
<path id="fillTertiary1" class="st2" d="M52.2,41.4H27l18-18h7.2c0.5,0,0.9,0.2,1.3,0.5c0.3,0.3,0.5,0.8,0.5,1.3v14.4
	c0,0.5-0.2,0.9-0.5,1.3C53.1,41.2,52.7,41.4,52.2,41.4z"/>
<path id="fillQuaternary1" class="st3" d="M48.6,28.8H23.4V36h25.2V28.8z"/>
<path id="accentSecondary1" class="st4" d="M45,54V30.6H27V54H45z"/>
<path id="shadowSecondary1" class="st5" d="M27,51.4h0.6c2.3,0,4.5-0.4,6.7-1.2c2.1-0.8,4-2.1,5.7-3.7c1.6-1.6,2.9-3.5,3.8-5.6
	c0.9-2.1,1.3-4.4,1.3-6.6l0,0V54H27V51.4z"/>
<path id="shadowSecondary2" class="st5" d="M45,32.4v-1.8H27v1.8H45z"/>
<path id="fillPrimary1" class="st6" d="M36,45c3,0,5.4-2.4,5.4-5.4c0-3-2.4-5.4-5.4-5.4s-5.4,2.4-5.4,5.4C30.6,42.6,33,45,36,45z"/>
<path id="fillQuaternary2" class="st3" d="M37,37.7c-0.4,0.1-0.7,0.2-0.9,0.5c-0.2,0.3-0.4,0.7-0.4,1c0,0.1-0.1,0.2-0.1,0.3
	c0,0.1,0,0.2-0.1,0.3c0,0.2-0.1,0.3-0.2,0.5c0,0.1-0.1,0.1-0.2,0.2c-0.1,0-0.1,0.1-0.2,0.1c-0.1,0-0.2,0-0.2-0.1
	c-0.1,0-0.1-0.1-0.2-0.1c-0.1-0.2-0.2-0.3-0.2-0.5c0-0.4,0.1-0.8,0.3-1.1c0.1-0.1,0.1-0.2,0.1-0.3c0-0.1-0.1-0.2-0.2-0.3
	c-0.1-0.1-0.2-0.1-0.3-0.1c-0.1,0-0.2,0.1-0.3,0.2c-0.2,0.3-0.4,0.7-0.4,1.1h-0.2c-0.1,0-0.2,0-0.3,0.1c-0.1,0.1-0.1,0.2-0.1,0.3
	c0,0.1,0,0.2,0.1,0.3c0.1,0.1,0.2,0.1,0.3,0.1h0.2c0,0.3,0.2,0.5,0.3,0.7c0.1,0.2,0.3,0.3,0.5,0.4c0.2,0.1,0.4,0.1,0.6,0.1
	c0.2,0,0.4-0.1,0.6-0.2c0.2-0.1,0.3-0.2,0.5-0.4c0.1-0.2,0.3-0.5,0.3-0.7c0-0.2,0.1-0.2,0.1-0.3c0-0.1,0-0.1,0.1-0.2
	c0-0.2,0.1-0.5,0.3-0.7c0.1-0.1,0.2-0.2,0.3-0.2c0.1,0,0.2,0,0.3,0.1c0.1,0.1,0.1,0.1,0.2,0.2c0.1,0.3,0.2,0.6,0.1,0.9
	c-0.1,0.4-0.3,0.7-0.5,1c0,0-0.1,0.1-0.1,0.1c0,0.1,0,0.1,0,0.2c0,0.1,0,0.1,0,0.2c0,0.1,0.1,0.1,0.1,0.1c0,0,0.1,0.1,0.1,0.1
	c0.1,0,0.1,0,0.2,0c0.1,0,0.1,0,0.2,0c0.1,0,0.1-0.1,0.1-0.1c0.4-0.4,0.6-0.8,0.7-1.3h0.3c0.1,0,0.2,0,0.3-0.1
	c0.1-0.1,0.1-0.2,0.1-0.3c0-0.1,0-0.2-0.1-0.3c-0.1-0.1-0.2-0.1-0.3-0.1h-0.3c0-0.3-0.1-0.6-0.2-0.8c-0.1-0.2-0.3-0.4-0.5-0.5
	C37.6,37.7,37.3,37.6,37,37.7L37,37.7z"/>
</svg>
