<svg xmlns="http://www.w3.org/2000/svg" width="48" height="48" viewBox="0 0 48 48" fill="none">
<mask id="mask0_7797_2894" style="mask-type:alpha" maskUnits="userSpaceOnUse" x="11" y="6" width="26" height="36">
<path d="M32.5499 23.3586C32.5999 22.6586 32.6299 21.9486 32.6299 21.2386C32.6299 14.3686 27.4199 8.67858 25.1799 6.55858C24.406 5.8157 23.1838 5.8157 22.4099 6.55858C20.1053 8.69577 18.1842 11.2122 16.7299 13.9986C15.5914 16.2126 14.9789 18.6593 14.9399 21.1486C14.9399 21.9586 14.9399 22.7586 15.0499 23.5386C13.0499 24.8086 11.7499 27.7786 11.7499 31.1686C11.7499 31.5086 11.7499 31.8486 11.7499 32.1686C11.8433 33.2023 12.712 33.9928 13.7499 33.9886H34.2499C35.2878 33.9928 36.1565 33.2023 36.2501 32.1686C36.2501 31.8486 36.2501 31.5086 36.2501 31.1686C36.2699 27.6186 34.7699 24.4386 32.5499 23.3586ZM23.7599 7.99858C25.4586 9.61873 26.9379 11.4543 28.1599 13.4586H19.3499C20.5713 11.4511 22.0543 9.61501 23.7599 7.99858ZM13.7599 31.2486C13.683 29.3709 14.2395 27.5219 15.3399 25.9986C15.6851 28.1317 16.3812 30.1929 17.3999 32.0986H13.7699C13.7408 31.8162 13.7274 31.5324 13.7299 31.2486H13.7599ZM27.4599 32.0686H19.7099C17.9599 29.4786 16.9199 25.4686 16.9199 21.2286C16.9552 19.229 17.4226 17.2607 18.2899 15.4586H29.2199C30.0872 17.2607 30.5546 19.229 30.5899 21.2286C30.5899 25.4686 29.5899 29.4786 27.7999 32.0686H27.4599ZM34.2799 32.0686H30.1199C31.1937 30.0358 31.9107 27.8339 32.2399 25.5586C33.6546 27.1032 34.377 29.1585 34.2399 31.2486C34.2699 31.5386 34.2599 31.8186 34.2499 32.0686H34.2799ZM23.9999 16.3886C21.5533 16.3886 19.5699 18.372 19.5699 20.8186C19.5699 23.2652 21.5533 25.2486 23.9999 25.2486C26.4465 25.2486 28.4299 23.2652 28.4299 20.8186C28.4244 18.3742 26.4442 16.3941 23.9999 16.3886ZM24.0799 35.9986C24.6322 35.9986 25.0799 36.4463 25.0799 36.9986V40.9986C25.0799 41.5509 24.6322 41.9986 24.0799 41.9986C23.5276 41.9986 23.0799 41.5509 23.0799 40.9986V36.9986C23.0799 36.4463 23.5276 35.9986 24.0799 35.9986ZM27.9999 35.9986C28.5522 35.9986 28.9999 36.4463 28.9999 36.9986V39.9986C28.9999 40.5509 28.5522 40.9986 27.9999 40.9986C27.4476 40.9986 26.9999 40.5509 26.9999 39.9986V36.9986C26.9999 36.4463 27.4476 35.9986 27.9999 35.9986ZM20.1799 35.9986C20.7322 35.9986 21.1799 36.4463 21.1799 36.9986V39.9986C21.1799 40.5509 20.7322 40.9986 20.1799 40.9986C19.6276 40.9986 19.1799 40.5509 19.1799 39.9986V36.9986C19.1799 36.4463 19.6276 35.9986 20.1799 35.9986ZM23.9999 18.3886C25.342 18.3886 26.4299 19.4765 26.4299 20.8186C26.4299 22.1606 25.342 23.2486 23.9999 23.2486C22.6579 23.2486 21.5699 22.1606 21.5699 20.8186C21.5699 19.4765 22.6579 18.3886 23.9999 18.3886Z" fill="white"/>
</mask>
<g mask="url(#mask0_7797_2894)">
<path d="M32.5499 23.3586C32.5999 22.6586 32.6299 21.9486 32.6299 21.2386C32.6299 14.3686 27.4199 8.67858 25.1799 6.55858C24.406 5.8157 23.1838 5.8157 22.4099 6.55858C20.1053 8.69577 18.1842 11.2122 16.7299 13.9986C15.5914 16.2126 14.9789 18.6593 14.9399 21.1486C14.9399 21.9586 14.9399 22.7586 15.0499 23.5386C13.0499 24.8086 11.7499 27.7786 11.7499 31.1686C11.7499 31.5086 11.7499 31.8486 11.7499 32.1686C11.8433 33.2023 12.712 33.9928 13.7499 33.9886H34.2499C35.2878 33.9928 36.1565 33.2023 36.2501 32.1686C36.2501 31.8486 36.2501 31.5086 36.2501 31.1686C36.2699 27.6186 34.7699 24.4386 32.5499 23.3586ZM23.7599 7.99858C25.4586 9.61873 26.9379 11.4543 28.1599 13.4586H19.3499C20.5713 11.4511 22.0543 9.61501 23.7599 7.99858ZM13.7599 31.2486C13.683 29.3709 14.2395 27.5219 15.3399 25.9986C15.6851 28.1317 16.3812 30.1929 17.3999 32.0986H13.7699C13.7408 31.8162 13.7274 31.5324 13.7299 31.2486H13.7599ZM27.4599 32.0686H19.7099C17.9599 29.4786 16.9199 25.4686 16.9199 21.2286C16.9552 19.229 17.4226 17.2607 18.2899 15.4586H29.2199C30.0872 17.2607 30.5546 19.229 30.5899 21.2286C30.5899 25.4686 29.5899 29.4786 27.7999 32.0686H27.4599ZM34.2799 32.0686H30.1199C31.1937 30.0358 31.9107 27.8339 32.2399 25.5586C33.6546 27.1032 34.377 29.1585 34.2399 31.2486C34.2699 31.5386 34.2599 31.8186 34.2499 32.0686H34.2799ZM23.9999 16.3886C21.5533 16.3886 19.5699 18.372 19.5699 20.8186C19.5699 23.2652 21.5533 25.2486 23.9999 25.2486C26.4465 25.2486 28.4299 23.2652 28.4299 20.8186C28.4244 18.3742 26.4442 16.3941 23.9999 16.3886ZM24.0799 35.9986C24.6322 35.9986 25.0799 36.4463 25.0799 36.9986V40.9986C25.0799 41.5509 24.6322 41.9986 24.0799 41.9986C23.5276 41.9986 23.0799 41.5509 23.0799 40.9986V36.9986C23.0799 36.4463 23.5276 35.9986 24.0799 35.9986ZM27.9999 35.9986C28.5522 35.9986 28.9999 36.4463 28.9999 36.9986V39.9986C28.9999 40.5509 28.5522 40.9986 27.9999 40.9986C27.4476 40.9986 26.9999 40.5509 26.9999 39.9986V36.9986C26.9999 36.4463 27.4476 35.9986 27.9999 35.9986ZM20.1799 35.9986C20.7322 35.9986 21.1799 36.4463 21.1799 36.9986V39.9986C21.1799 40.5509 20.7322 40.9986 20.1799 40.9986C19.6276 40.9986 19.1799 40.5509 19.1799 39.9986V36.9986C19.1799 36.4463 19.6276 35.9986 20.1799 35.9986ZM23.9999 18.3886C25.342 18.3886 26.4299 19.4765 26.4299 20.8186C26.4299 22.1606 25.342 23.2486 23.9999 23.2486C22.6579 23.2486 21.5699 22.1606 21.5699 20.8186C21.5699 19.4765 22.6579 18.3886 23.9999 18.3886Z" fill="#0075BE"/>
</g>
</svg>
