<svg width="34" height="34" xmlns="http://www.w3.org/2000/svg" viewBox="0 0 41.42 30.44">
    <path d="M20.9 17.2h-3.76a1.15 1.15 0 0 0 0 2.3h3.8a1.15 1.15 0 0 0 0-2.3m-7.7 0H9.48a1.15 1.15 0 0 0 0 2.3h3.81a1.15 1.15 0 0 0 0-2.3" transform="translate(3.56 -1.88)" style="fill:#0075be"/>
    <path d="M28.64 26.69a1.14 1.14 0 0 0-1.15 1.15v1.64c0 .24-.34.53-.8.53H-.47c-.46 0-.79-.29-.79-.53V12.74c0-.24.33-.53.79-.53h1.72a1.15 1.15 0 0 0 0-2.3H-.47a3 3 0 0 0-3.09 2.83v16.74a3 3 0 0 0 3.09 2.83h27.16a3 3 0 0 0 3.1-2.83v-1.64a1.15 1.15 0 0 0-1.15-1.15m2.22-5.91a3.62 3.62 0 1 1 3.61-3.61 3.62 3.62 0 0 1-3.61 3.61Zm0-4.93a1.32 1.32 0 1 0 1.31 1.32 1.32 1.32 0 0 0-1.31-1.32Z" transform="translate(3.56 -1.88)" style="fill:#0075be"/>
    <path d="M34.89 24.24H7.66a3 3 0 0 1-3-3V4.85a3 3 0 0 1 3-3h27.23a3 3 0 0 1 3 3v16.42a3 3 0 0 1-3 2.97ZM7.66 4.18a.67.67 0 0 0-.66.67v16.42a.67.67 0 0 0 .68.67h27.21a.67.67 0 0 0 .67-.67V4.85a.67.67 0 0 0-.67-.67Z" transform="translate(3.56 -1.88)" style="fill:#0075be"/>
    <path d="M10.46 3.66h28.75v2.27H10.46zm0 4.57h28.75v2.27H10.46z" style="fill:#0075be"/>
</svg>
