<svg width="49" height="48" viewBox="0 0 49 48" fill="none" xmlns="http://www.w3.org/2000/svg">
<path d="M24.0011 6C20.4411 6 16.9611 7.06 14.0011 9.03C11.0411 11.01 8.73112 13.82 7.37112 17.11C6.00112 20.4 5.65112 24.02 6.35112 27.51C7.04112 31 8.76112 34.21 11.2811 36.73C13.8011 39.25 17.0011 40.96 20.5011 41.66C23.9911 42.35 27.6111 42 30.9011 40.64C34.1911 39.28 37.0011 36.97 38.9811 34.01C40.9611 31.05 42.0111 27.57 42.0111 24.01C42.0111 19.24 40.1111 14.66 36.7411 11.28C33.3511 7.9 28.7711 6 24.0011 6ZM10.6811 19.76L8.38112 22.26H8.20112C8.20112 22.26 8.15112 22.23 8.13112 22.2C8.11112 22.17 8.11112 22.14 8.11112 22.11C8.34112 20.2 8.91112 18.35 9.80112 16.65C9.81112 16.63 9.83112 16.6 9.85112 16.59C9.87112 16.58 9.90112 16.57 9.93112 16.57C9.96112 16.57 9.99112 16.59 10.0111 16.61C10.0311 16.63 10.0511 16.66 10.0611 16.69L10.7011 19.62C10.7011 19.62 10.7011 19.67 10.7011 19.69C10.7011 19.71 10.6911 19.74 10.6811 19.76ZM17.7311 22.56L23.9311 18C23.9311 18 23.9911 17.97 24.0211 17.97C24.0511 17.97 24.0811 17.98 24.1111 18L30.3111 22.52C30.3111 22.52 30.3611 22.57 30.3711 22.6C30.3711 22.63 30.3711 22.67 30.3711 22.7L27.8811 29.7C27.8811 29.7 27.8511 29.76 27.8311 29.77C27.8011 29.79 27.7711 29.8 27.7411 29.8H20.2811C20.2811 29.8 20.2211 29.8 20.1911 29.77C20.1711 29.75 20.1511 29.73 20.1411 29.7L17.6811 22.7C17.6811 22.7 17.6811 22.65 17.6911 22.62C17.7011 22.6 17.7211 22.57 17.7411 22.56H17.7311ZM35.3911 19.25C35.3911 19.25 35.3711 19.29 35.3611 19.31C35.3511 19.33 35.3311 19.34 35.3111 19.35L31.6911 21.1H31.6011L25.0611 16.33C25.0611 16.33 25.0211 16.3 25.0111 16.28C25.0011 16.26 24.9911 16.24 25.0011 16.21V11.77C25.0011 11.77 25.0011 11.72 25.0211 11.69C25.0311 11.67 25.0511 11.65 25.0811 11.64L29.7411 9.13H29.8711C32.4511 10.16 34.7211 11.84 36.4711 14C36.4711 14.02 36.4811 14.04 36.4811 14.06C36.4811 14.08 36.4811 14.1 36.4711 14.13L35.3911 19.25ZM26.8111 8.37C26.8111 8.37 26.8111 8.43 26.7911 8.46C26.7811 8.49 26.7511 8.51 26.7311 8.53L24.1011 9.94C24.1011 9.94 24.0811 9.97 24.0611 9.98C24.0411 9.99 24.0211 10 24.0011 10C23.9711 10 23.9511 10 23.9211 10L21.3111 8.52C21.3111 8.52 21.2611 8.48 21.2511 8.45C21.2411 8.42 21.2311 8.39 21.2411 8.36C21.2411 8.33 21.2611 8.3 21.2811 8.28C21.3011 8.26 21.3311 8.24 21.3611 8.23C22.2311 8.08 23.1211 8 24.0011 8C24.9011 8 25.7911 8.09 26.6811 8.24C26.7111 8.24 26.7411 8.26 26.7711 8.28C26.7911 8.3 26.8111 8.33 26.8111 8.37ZM23.0011 16.19C23.0011 16.19 23.0011 16.24 22.9911 16.26C22.9811 16.28 22.9611 16.3 22.9411 16.31L16.4011 21.08H16.2511L12.6811 19.34C12.6811 19.34 12.6111 19.27 12.5911 19.23L11.4811 14.08C11.4811 14.08 11.4611 13.99 11.4811 13.95C13.2211 11.79 15.5011 10.12 18.0911 9.1H18.1511L23.0011 11.63C23.0011 11.63 23.0411 11.66 23.0611 11.69C23.0711 11.71 23.0811 11.74 23.0811 11.77L23.0011 16.19ZM8.11112 25.44L12.0011 21.27C12.0011 21.27 12.0711 21.22 12.1111 21.22L15.6211 23C15.6211 23 15.6611 23.01 15.6711 23.03C15.6811 23.04 15.6911 23.06 15.7011 23.08L18.3311 30.56C18.3311 30.56 18.3511 30.61 18.3511 30.64C18.3511 30.67 18.3511 30.69 18.3311 30.71L16.1011 33.38C16.1011 33.38 16.0811 33.41 16.0611 33.42C16.0411 33.43 16.0211 33.44 16.0011 33.44L10.9411 33.16C10.9411 33.16 10.9011 33.15 10.8811 33.14C10.8611 33.13 10.8411 33.11 10.8311 33.09C9.30112 30.86 8.36112 28.29 8.09112 25.6C8.08112 25.57 8.07112 25.55 8.08112 25.52C8.08112 25.49 8.10112 25.46 8.11112 25.44ZM17.6111 34.55L19.8811 31.83C19.8811 31.83 19.9111 31.8 19.9311 31.79C19.9511 31.78 19.9711 31.77 20.0011 31.77H28.0011C28.0011 31.77 28.0511 31.77 28.0711 31.78C28.0911 31.79 28.1111 31.81 28.1211 31.83L30.3511 34.47C30.3511 34.47 30.3811 34.52 30.3811 34.55C30.3811 34.58 30.3811 34.61 30.3511 34.63L28.1611 39.37C28.1611 39.37 28.1411 39.41 28.1211 39.43C28.1011 39.45 28.0811 39.46 28.0611 39.46C25.1011 40.26 21.9711 40.18 19.0611 39.23C19.0411 39.23 19.0111 39.21 19.0011 39.19C18.9811 39.17 18.9711 39.15 18.9611 39.13L17.5911 34.7C17.5911 34.7 17.5811 34.65 17.5911 34.62C17.5911 34.59 17.6011 34.57 17.6211 34.55H17.6111ZM31.0011 38.28C31.0011 38.28 30.9811 38.22 30.9811 38.2C30.9811 38.18 30.9811 38.14 31.0011 38.12L32.2911 35.34C32.2911 35.34 32.3111 35.3 32.3311 35.28C32.3511 35.26 32.3711 35.25 32.4011 35.25L35.6711 34.61C35.6711 34.61 35.7211 34.61 35.7411 34.63C35.7611 34.64 35.7811 34.66 35.8011 34.68C35.8211 34.71 35.8311 34.74 35.8311 34.77C35.8311 34.8 35.8311 34.83 35.8011 34.86C34.4711 36.3 32.8911 37.48 31.1311 38.33C31.1111 38.33 31.0811 38.33 31.0611 38.33C31.0411 38.33 31.0211 38.31 31.0011 38.29V38.28ZM31.9411 33.28L29.7011 30.66C29.7011 30.66 29.6811 30.61 29.6811 30.58C29.6811 30.55 29.6811 30.53 29.7011 30.51L32.3411 23C32.3411 23 32.3511 22.97 32.3611 22.95C32.3711 22.94 32.3911 22.93 32.4111 22.92L35.9011 21.21H36.0011C36.0011 21.21 36.0511 21.21 36.0711 21.21C36.0911 21.21 36.1111 21.23 36.1211 21.25L39.9311 25.41C39.9311 25.41 39.9411 25.48 39.9311 25.52C39.7011 27.84 38.9611 30.09 37.7711 32.09C37.7611 32.11 37.7511 32.12 37.7311 32.14C37.7111 32.15 37.6911 32.16 37.6711 32.16L32.0011 33.3C32.0011 33.3 31.9611 33.3 31.9411 33.28C31.9211 33.27 31.9011 33.25 31.8911 33.24L31.9411 33.27V33.28ZM12.8511 35.28C12.8511 35.28 12.8811 35.23 12.9011 35.21C12.9211 35.19 12.9511 35.19 12.9811 35.19L15.6811 35.34C15.6811 35.34 15.7411 35.34 15.7711 35.37C15.7911 35.39 15.8111 35.41 15.8211 35.44L16.5911 37.87C16.5911 37.87 16.6111 37.92 16.6111 37.95C16.6111 37.98 16.6111 38.01 16.5911 38.03C16.5611 38.04 16.5311 38.05 16.5011 38.05C16.4711 38.05 16.4411 38.05 16.4111 38.03C15.1411 37.32 13.9611 36.45 12.9211 35.43C12.8811 35.43 12.8511 35.4 12.8311 35.37C12.8111 35.34 12.8011 35.3 12.8011 35.27H12.8511V35.28ZM39.7811 22.28C39.7811 22.28 39.7111 22.29 39.6711 22.28L37.4011 19.79C37.4011 19.79 37.3811 19.75 37.3811 19.72C37.3811 19.69 37.3811 19.67 37.4011 19.65L38.0311 16.75C38.0311 16.75 38.0511 16.69 38.0811 16.67C38.1011 16.65 38.1311 16.63 38.1611 16.63C38.1911 16.63 38.2111 16.63 38.2411 16.65C38.2611 16.66 38.2811 16.68 38.2911 16.71C39.1711 18.41 39.7311 20.24 39.9511 22.14C39.8911 22.18 39.8611 22.24 39.7311 22.28H39.7811Z" fill="#0075BE"/>
</svg>
