<svg
  xmlns="http://www.w3.org/2000/svg"
  view-box="0 0 24 24"
  enable-background="new 0 0 48 48"
  xml-space="preserve"
  height="24"
  width="24"
>
  <path
    d="M16 13H8c-.6 0-1-.4-1-1s.4-1 1-1h8c.6 0 1 .4 1 1s-.4 1-1 1zm-5-5c0-.6-.4-1-1-1H8c-.6 0-1 .4-1 1s.4 1 1 1h2c.6 0 1-.4 1-1zm10 0v12c0 .6-.4 1-1 1H4c-.6 0-1-.4-1-1V4c0-.6.4-1 1-1h11c.2 0 .4.1.6.2l5 4c.3.2.4.5.4.8zm-6-2.7V8h3.4L15 5.3zM19 19v-9h-5c-.6 0-1-.4-1-1V5H5v14h14zm-2-3c0-.6-.4-1-1-1H8c-.6 0-1 .4-1 1s.4 1 1 1h8c.6 0 1-.4 1-1z"
    style="fill: #0875bb"
  />
</svg>
