<svg width="48" height="48" viewBox="0 0 48 48" fill="none" xmlns="http://www.w3.org/2000/svg">
<path fill-rule="evenodd" clip-rule="evenodd" d="M35.5805 26.252C37.4755 26.252 39.6475 27.029 40.8405 27.499C40.1765 29.082 38.6835 32.306 36.5925 33.186C35.4045 33.688 33.6445 33.105 32.6085 32.214C33.9705 31.343 35.4235 30.732 36.9255 30.424C37.4665 30.314 37.8165 29.786 37.7045 29.245C37.5945 28.704 37.0635 28.353 36.5255 28.465C34.8495 28.808 33.2335 29.476 31.7175 30.418C31.6975 29.843 31.8055 29.183 32.0645 28.548C32.4565 27.585 33.0845 26.864 33.7855 26.568C34.3195 26.343 34.9335 26.252 35.5805 26.252ZM24.0007 10.3197C24.5537 10.3197 25.0007 10.7667 25.0007 11.3197V11.9157C26.3387 12.2587 27.2907 13.2607 27.2907 14.4897C27.2907 15.0427 26.8437 15.4897 26.2907 15.4897C25.7377 15.4897 25.2907 15.0427 25.2907 14.4897C25.2907 14.1997 24.7877 13.7787 24.0007 13.7787C23.2137 13.7787 22.7107 14.1997 22.7107 14.4897C22.7107 14.7957 23.2977 15.1027 24.0757 15.2057L24.1957 15.2217C26.1007 15.4727 27.2907 16.5077 27.2907 17.9197C27.2907 19.1487 26.3387 20.1507 25.0007 20.4937V21.1577C25.0007 21.7107 24.5537 22.1577 24.0007 22.1577C23.4477 22.1577 23.0007 21.7107 23.0007 21.1577V20.4937C21.6627 20.1507 20.7107 19.1487 20.7107 17.9197C20.7107 17.3667 21.1577 16.9197 21.7107 16.9197C22.2637 16.9197 22.7107 17.3667 22.7107 17.9197C22.7107 18.2097 23.2137 18.6307 24.0007 18.6307C24.7877 18.6307 25.2907 18.2097 25.2907 17.9197C25.2907 17.6137 24.7027 17.3057 23.9237 17.2037L23.8037 17.1867C21.8997 16.9347 20.7107 15.9017 20.7107 14.4897C20.7107 13.2607 21.6627 12.2587 23.0007 11.9157V11.3197C23.0007 10.7667 23.4477 10.3197 24.0007 10.3197ZM15.9445 16.033C15.9445 11.604 19.5585 8 24.0005 8C28.4435 8 32.0575 11.604 32.0575 16.033C32.0575 20.461 28.4435 24.064 24.0005 24.064C19.5585 24.064 15.9445 20.461 15.9445 16.033ZM11.4075 33.528C9.31752 32.648 7.82452 29.424 7.16052 27.84C8.76252 27.21 12.1255 26.029 14.2135 26.909C14.9165 27.206 15.5445 27.928 15.9375 28.89C16.1965 29.525 16.3035 30.185 16.2835 30.76C14.7685 29.818 13.1525 29.15 11.4765 28.807C10.9385 28.697 10.4065 29.045 10.2965 29.586C10.1855 30.127 10.5345 30.656 11.0755 30.766C12.5775 31.074 14.0305 31.685 15.3935 32.556C14.3565 33.447 12.5955 34.028 11.4075 33.528ZM42.8845 26.638C42.7305 26.271 42.4425 25.987 42.0725 25.837C39.5105 24.799 35.7835 23.555 33.0095 24.724C31.8055 25.232 30.8125 26.323 30.2125 27.794C29.6585 29.153 29.5745 30.572 29.9275 31.7C28.0205 33.254 26.3325 35.28 24.9655 37.671V26.015C30.0595 25.529 34.0575 21.239 34.0575 16.033C34.0575 10.5 29.5455 6 24.0005 6C18.4555 6 13.9445 10.5 13.9445 16.033C13.9445 21.215 17.9055 25.492 22.9655 26.011V37.888C21.6115 35.551 19.9475 33.57 18.0735 32.041C18.4265 30.914 18.3425 29.495 17.7885 28.136C17.1905 26.665 16.1965 25.576 14.9905 25.066C12.2165 23.898 8.48952 25.141 5.92752 26.179C5.55952 26.329 5.27152 26.613 5.11652 26.98C4.96352 27.345 4.96052 27.748 5.11152 28.114C6.15152 30.669 7.85652 34.203 10.6315 35.372C11.2065 35.614 11.8225 35.723 12.4455 35.723C14.1525 35.723 15.9055 34.9 17.0255 33.759C19.3495 35.719 21.3175 38.488 22.6775 41.826C22.7545 42.014 22.8825 42.165 23.0385 42.271C23.1845 42.644 23.5415 42.909 23.9655 42.909C24.5105 42.909 24.9485 42.473 24.9605 41.931C25.1175 41.824 25.2465 41.673 25.3235 41.484C26.6845 38.146 28.6525 35.377 30.9775 33.417C32.0975 34.558 33.8495 35.381 35.5565 35.381C36.1785 35.381 36.7945 35.272 37.3685 35.03C40.1445 33.861 41.8495 30.33 42.8905 27.774C43.0405 27.408 43.0385 27.004 42.8845 26.638Z" fill="#0075BE"/>
</svg>
