<svg width="48" height="48" viewBox="0 0 48 48" fill="none" xmlns="http://www.w3.org/2000/svg">
<path fill-rule="evenodd" clip-rule="evenodd" d="M41.6818 12.6713L36.6138 17.5113C36.3068 17.8033 35.8968 17.9643 35.4578 17.9643H31.9658L38.5158 11.5593H41.1408C41.4498 11.5593 41.7208 11.7253 41.8318 11.9833C41.9348 12.2203 41.8778 12.4843 41.6818 12.6713ZM30.3048 13.0883C30.3048 12.6983 30.4668 12.3293 30.7598 12.0503L35.8278 7.21027C36.0458 7.00227 36.3758 6.94227 36.6658 7.05727C36.9388 7.16527 37.1078 7.39727 37.1078 7.66227V10.1383L30.3048 16.7913V13.0883ZM21.81 9.68687C23.448 9.68687 25.068 9.92187 26.622 10.3859C27.151 10.5429 27.452 11.1009 27.295 11.6299C27.136 12.1589 26.581 12.4569 26.05 12.3019C24.681 11.8939 23.255 11.6869 21.81 11.6869C13.643 11.6869 7 18.3299 7 26.4969C7 34.6639 13.643 41.3069 21.81 41.3069C29.976 41.3069 36.62 34.6639 36.62 26.4969C36.62 25.2499 36.465 24.0119 36.16 22.8169C36.023 22.2819 36.346 21.7379 36.881 21.6009C37.418 21.4619 37.961 21.7879 38.097 22.3229C38.444 23.6789 38.62 25.0829 38.62 26.4969C38.62 35.7659 31.079 43.3069 21.81 43.3069C12.541 43.3069 5 35.7659 5 26.4969C5 17.2279 12.541 9.68687 21.81 9.68687ZM21.8098 14.6698C23.2608 14.6698 24.6788 14.9288 26.0218 15.4418C26.5378 15.6388 26.7968 16.2168 26.5998 16.7328C26.4028 17.2488 25.8228 17.5068 25.3088 17.3108C24.1938 16.8848 23.0168 16.6698 21.8098 16.6698C16.3908 16.6698 11.9818 21.0788 11.9818 26.4978C11.9818 31.9168 16.3908 36.3258 21.8098 36.3258C27.2288 36.3258 31.6378 31.9168 31.6378 26.4978C31.6378 25.3078 31.4278 24.1458 31.0148 23.0438C30.8198 22.5258 31.0818 21.9498 31.5988 21.7548C32.1158 21.5628 32.6928 21.8238 32.8868 22.3398C33.3848 23.6688 33.6378 25.0668 33.6378 26.4978C33.6378 33.0198 28.3318 38.3258 21.8098 38.3258C15.2878 38.3258 9.9818 33.0198 9.9818 26.4978C9.9818 19.9748 15.2878 14.6698 21.8098 14.6698ZM21.8098 20.4418C22.0488 20.4418 22.2848 20.4558 22.5168 20.4828C23.0648 20.5458 23.4578 21.0428 23.3948 21.5908C23.3318 22.1388 22.8338 22.5398 22.2868 22.4688C22.1298 22.4518 21.9708 22.4418 21.8098 22.4418C19.5738 22.4418 17.7548 24.2608 17.7548 26.4978C17.7548 28.7328 19.5738 30.5518 21.8098 30.5518C24.0458 30.5518 25.8648 28.7328 25.8648 26.4978C25.8648 25.9448 26.3128 25.4978 26.8648 25.4978C27.4168 25.4978 27.8648 25.9448 27.8648 26.4978C27.8648 29.8368 25.1488 32.5518 21.8098 32.5518C18.4708 32.5518 15.7548 29.8368 15.7548 26.4978C15.7548 23.1588 18.4708 20.4418 21.8098 20.4418ZM34.4468 5.76327C35.2288 5.01727 36.3898 4.79627 37.4018 5.19727C38.4378 5.60727 39.1078 6.57427 39.1078 7.66227V9.55927H41.1408C42.2468 9.55927 43.2378 10.1973 43.6668 11.1873C44.1058 12.1963 43.8688 13.3483 43.0628 14.1173L37.9938 18.9583C37.3128 19.6073 36.4128 19.9643 35.4578 19.9643H29.9208L22.5088 27.2123C22.3138 27.4023 22.0618 27.4973 21.8098 27.4973C21.5498 27.4973 21.2908 27.3973 21.0948 27.1963C20.7088 26.8023 20.7158 26.1683 21.1108 25.7823L28.3048 18.7473V13.0883C28.3048 12.1473 28.6858 11.2653 29.3778 10.6043L34.4468 5.76327Z" fill="#0075BE"/>
</svg>
