<svg width="48" height="48" viewBox="0 0 48 48" fill="none" xmlns="http://www.w3.org/2000/svg">
<mask id="mask0_10251_124116" style="mask-type:alpha" maskUnits="userSpaceOnUse" x="4" y="11" width="40" height="27">
<path d="M33.2999 31.4003C33.8521 31.4003 34.2999 31.848 34.2999 32.4003C34.2999 32.9526 33.8521 33.4003 33.2999 33.4003H30.3899C29.8376 33.4003 29.3899 32.9526 29.3899 32.4003C29.3899 31.848 29.8376 31.4003 30.3899 31.4003H33.2999ZM39.0999 31.4003C39.6521 31.4003 40.0999 31.848 40.0999 32.4003C40.0999 32.9526 39.6521 33.4003 39.0999 33.4003H36.1999C35.6476 33.4003 35.1999 32.9526 35.1999 32.4003C35.1999 31.848 35.6476 31.4003 36.1999 31.4003H39.0999ZM40.6599 19.7103H28.1899L23.8299 15.6003C23.4267 15.2192 22.7909 15.2371 22.4099 15.6403C22.0288 16.0434 22.0467 16.6792 22.4499 17.0603L29.9999 24.1303C30.2792 24.3981 30.4371 24.7683 30.4371 25.1553C30.4371 25.5422 30.2792 25.9125 29.9999 26.1803C29.4759 26.7121 28.6309 26.7513 28.0599 26.2703L22.7099 21.7303C22.5273 21.579 22.2969 21.4975 22.0599 21.5003H20.4299C18.4137 21.4944 16.5354 20.4763 15.4299 18.7903C15.2505 18.4559 14.8973 18.2518 14.518 18.2634C14.1387 18.2751 13.7986 18.5004 13.6401 18.8452C13.4816 19.1899 13.5318 19.5947 13.7699 19.8903C14.6726 21.2444 15.9668 22.2909 17.4799 22.8903V34.7503C17.5551 36.0428 18.6458 37.0404 19.9399 37.0003H40.6599C41.971 37.0568 43.0804 36.0413 43.1399 34.7303V22.0003C43.1165 21.3671 42.8416 20.7694 42.3761 20.3395C41.9106 19.9097 41.2929 19.6832 40.6599 19.7103ZM30.3099 21.7103H40.6599C40.9499 21.7103 41.1399 21.8703 41.1399 21.9803V24.2303H32.2699C32.1119 23.6335 31.7897 23.0931 31.3399 22.6703L30.3099 21.7103ZM40.6599 35.0003H19.9399C19.6599 35.0003 19.4599 34.8403 19.4599 34.7303V23.4403C19.7916 23.4814 20.1256 23.5015 20.4599 23.5003H21.7199L26.7999 27.7903C27.4231 28.3183 28.213 28.6087 29.0299 28.6103C29.9054 28.6186 30.7479 28.2766 31.3699 27.6603C31.4214 27.6188 31.4684 27.5718 31.5099 27.5203C31.8581 27.1538 32.1181 26.7125 32.2699 26.2303H41.1699V34.7503C41.1399 34.8603 40.9999 35.0003 40.6599 35.0003ZM15.8099 25.5103C13.6761 24.8928 12.2056 22.9416 12.1999 20.7203V13.0003H25.1399C26.2306 13.0062 27.2875 13.3796 28.1399 14.0603L34.1399 18.5403C34.5817 18.8716 35.2085 18.7821 35.5399 18.3403C35.8712 17.8984 35.7817 17.2716 35.3399 16.9403L29.3399 12.4803C28.146 11.5288 26.6664 11.0074 25.1399 11.0001H11.7299C11.5483 10.9976 11.368 11.0316 11.1999 11.1003C11.1389 11.0566 11.0714 11.0228 10.9999 11.0001H5.85986C5.30758 11.0001 4.85986 11.448 4.85986 12.0003V22.5803C4.85986 23.1326 5.30758 23.5803 5.85986 23.5803H10.8599C11.6991 25.4484 13.3143 26.8553 15.2799 27.4303C15.3693 27.4448 15.4605 27.4448 15.5499 27.4303C16.009 27.4485 16.4216 27.1515 16.5499 26.7103C16.6751 26.1749 16.3445 25.6388 15.8099 25.5103ZM9.99986 21.5803H6.85986V13.0003H9.99986V21.5803Z" fill="white"/>
</mask>
<g mask="url(#mask0_10251_124116)">
<path d="M33.2999 31.4003C33.8521 31.4003 34.2999 31.848 34.2999 32.4003C34.2999 32.9526 33.8521 33.4003 33.2999 33.4003H30.3899C29.8376 33.4003 29.3899 32.9526 29.3899 32.4003C29.3899 31.848 29.8376 31.4003 30.3899 31.4003H33.2999ZM39.0999 31.4003C39.6521 31.4003 40.0999 31.848 40.0999 32.4003C40.0999 32.9526 39.6521 33.4003 39.0999 33.4003H36.1999C35.6476 33.4003 35.1999 32.9526 35.1999 32.4003C35.1999 31.848 35.6476 31.4003 36.1999 31.4003H39.0999ZM40.6599 19.7103H28.1899L23.8299 15.6003C23.4267 15.2192 22.7909 15.2371 22.4099 15.6403C22.0288 16.0434 22.0467 16.6792 22.4499 17.0603L29.9999 24.1303C30.2792 24.3981 30.4371 24.7683 30.4371 25.1553C30.4371 25.5422 30.2792 25.9125 29.9999 26.1803C29.4759 26.7121 28.6309 26.7513 28.0599 26.2703L22.7099 21.7303C22.5273 21.579 22.2969 21.4975 22.0599 21.5003H20.4299C18.4137 21.4944 16.5354 20.4763 15.4299 18.7903C15.2505 18.4559 14.8973 18.2518 14.518 18.2634C14.1387 18.2751 13.7986 18.5004 13.6401 18.8452C13.4816 19.1899 13.5318 19.5947 13.7699 19.8903C14.6726 21.2444 15.9668 22.2909 17.4799 22.8903V34.7503C17.5551 36.0428 18.6458 37.0404 19.9399 37.0003H40.6599C41.971 37.0568 43.0804 36.0413 43.1399 34.7303V22.0003C43.1165 21.3671 42.8416 20.7694 42.3761 20.3395C41.9106 19.9097 41.2929 19.6832 40.6599 19.7103ZM30.3099 21.7103H40.6599C40.9499 21.7103 41.1399 21.8703 41.1399 21.9803V24.2303H32.2699C32.1119 23.6335 31.7897 23.0931 31.3399 22.6703L30.3099 21.7103ZM40.6599 35.0003H19.9399C19.6599 35.0003 19.4599 34.8403 19.4599 34.7303V23.4403C19.7916 23.4814 20.1256 23.5015 20.4599 23.5003H21.7199L26.7999 27.7903C27.4231 28.3183 28.213 28.6087 29.0299 28.6103C29.9054 28.6186 30.7479 28.2766 31.3699 27.6603C31.4214 27.6188 31.4684 27.5718 31.5099 27.5203C31.8581 27.1538 32.1181 26.7125 32.2699 26.2303H41.1699V34.7503C41.1399 34.8603 40.9999 35.0003 40.6599 35.0003ZM15.8099 25.5103C13.6761 24.8928 12.2056 22.9416 12.1999 20.7203V13.0003H25.1399C26.2306 13.0062 27.2875 13.3796 28.1399 14.0603L34.1399 18.5403C34.5817 18.8716 35.2085 18.7821 35.5399 18.3403C35.8712 17.8984 35.7817 17.2716 35.3399 16.9403L29.3399 12.4803C28.146 11.5288 26.6664 11.0074 25.1399 11.0001H11.7299C11.5483 10.9976 11.368 11.0316 11.1999 11.1003C11.1389 11.0566 11.0714 11.0228 10.9999 11.0001H5.85986C5.30758 11.0001 4.85986 11.448 4.85986 12.0003V22.5803C4.85986 23.1326 5.30758 23.5803 5.85986 23.5803H10.8599C11.6991 25.4484 13.3143 26.8553 15.2799 27.4303C15.3693 27.4448 15.4605 27.4448 15.5499 27.4303C16.009 27.4485 16.4216 27.1515 16.5499 26.7103C16.6751 26.1749 16.3445 25.6388 15.8099 25.5103ZM9.99986 21.5803H6.85986V13.0003H9.99986V21.5803Z" fill="#0075BE"/>
</g>
</svg>
