<svg
  version="1.1"
  id="Layer_1"
  xmlns="http://www.w3.org/2000/svg"
  xmlns:xlink="http://www.w3.org/1999/xlink"
  height= "48px"
  width= "48px"
  view-box="0 0 48 48"
  enable-background="new 0 0 48 48"
  xml-space="preserve"
>
  <path
    fill="#0875BB"
    d="M37.4,42.86H13.61c-2.21,0-4-1.79-4-4V9.71c0-0.04,0-0.07,0.01-0.11c-0.05-1.12,0.35-2.22,1.1-3.05 c0.81-0.9,1.97-1.41,3.17-1.41H37.4c0.55,0,1,0.45,1,1v35.72C38.4,42.42,37.95,42.86,37.4,42.86z M11.6,9.88v28.98c0,1.1,0.9,2,2,2 H36.4V7.14H13.88c-0.64,0-1.25,0.27-1.69,0.75c-0.42,0.47-0.63,1.1-0.58,1.73C11.62,9.71,11.62,9.8,11.6,9.88z"
  />
  <path
    fill="#0875BB"
    d="M14.58,42.62c-0.55,0-1-0.45-1-1V13.36c0-0.55,0.45-1,1-1s1,0.45,1,1v28.26 C15.58,42.17,15.13,42.62,14.58,42.62z"
  />
  <path
    fill="#0875BB"
    d="M18.75,13.73h-5.2c-1.37,0-2.64-0.68-3.41-1.82c-0.31-0.46-0.19-1.08,0.27-1.39 c0.46-0.31,1.08-0.19,1.39,0.27c0.4,0.59,1.05,0.94,1.75,0.94h5.2c0.55,0,1,0.45,1,1S19.3,13.73,18.75,13.73z"
  />
  <path
    fill="#0875BB"
    d="M37.4,13.73H24.7c-0.55,0-1-0.45-1-1s0.45-1,1-1H37.4c0.55,0,1,0.45,1,1S37.95,13.73,37.4,13.73z"
  />
  <path
    fill="#0875BB"
    d="M18.75,27.61c-0.16,0-0.33-0.04-0.47-0.12c-0.32-0.17-0.53-0.51-0.53-0.88V12.23 c0-0.16,0.04-0.31,0.11-0.45l0.96-1.93c0.17-0.34,0.52-0.55,0.89-0.55h5.81c0.35,0,0.67,0.18,0.85,0.47s0.2,0.66,0.04,0.97 l-0.72,1.44c0,0,0,0.01,0,0.02v14.41c0,0.37-0.2,0.71-0.53,0.88c-0.32,0.17-0.72,0.16-1.02-0.05l-2.43-1.6l-2.43,1.6 C19.13,27.56,18.94,27.61,18.75,27.61z M19.75,12.47v12.29l1.43-0.94c0.33-0.22,0.77-0.22,1.1,0l1.43,0.94v-12.3 c-0.09-0.24-0.08-0.5,0.02-0.74l0.02-0.04c0.02-0.06,0.04-0.12,0.06-0.17l0.08-0.16l0.9,0.45l-0.89-0.45l0.02-0.03h-3.58 L19.75,12.47z"
  />
  <path
    fill="#0875BB"
    d="M36.96,10.26h-7.31c-0.55,0-1-0.45-1-1s0.45-1,1-1h7.31c0.55,0,1,0.45,1,1S37.51,10.26,36.96,10.26z"
  />
</svg>
