<svg width="34" height="34" xmlns="http://www.w3.org/2000/svg" viewBox="0 0 41.42 26.56">
    <path d="M13.37 16.18c-1 0-1.67-.5-1.67-.95a1.14 1.14 0 1 0-2.28 0 3.35 3.35 0 0 0 2.81 3.13v.88a1.14 1.14 0 0 0 2.28 0v-.88a3.32 3.32 0 0 0 2.79-3.09c0-1.67-1.43-2.92-3.72-3.21h-.13c-1-.14-1.75-.54-1.75-1s.71-1 1.67-1 1.65.51 1.65 1a1.14 1.14 0 0 0 2.28 0A3.34 3.34 0 0 0 14.51 8v-.79a1.14 1.14 0 0 0-2.28 0V8a3.35 3.35 0 0 0-2.81 3.09c0 1.57 1.46 2.85 3.74 3.15h.14c1 .14 1.74.53 1.74 1s-.71 1-1.65 1M36.72 10h-2.38a1.14 1.14 0 0 0 0 2.28h1.24v15.37H6v-1.14a1.14 1.14 0 0 0-2.28 0v2.28a1.14 1.14 0 0 0 1.14 1.14h31.86a1.14 1.14 0 0 0 1.14-1.14V11.14A1.14 1.14 0 0 0 36.72 10" transform="translate(3.56 -3.37)" style="fill:#0075be;fill-rule:evenodd"/>
    <path d="M30.27 23H-2.42a1.14 1.14 0 0 1-1.14-1.1V4.51a1.14 1.14 0 0 1 1.14-1.14h32.69a1.14 1.14 0 0 1 1.14 1.14V21.9a1.14 1.14 0 0 1-1.14 1.1Zm-31.55-2.24h30.41V5.65H-1.28Z" transform="translate(3.56 -3.37)" style="fill:#0075be"/>
</svg>
