<svg width="48" height="48" viewBox="0 0 48 48" fill="none" xmlns="http://www.w3.org/2000/svg">
<mask id="mask0_10251_124172" style="mask-type:alpha" maskUnits="userSpaceOnUse" x="6" y="4" width="36" height="40">
<path d="M23.32 11.2507C21.4794 11.2672 19.9991 12.7698 20.01 14.6105C20.0211 16.4512 21.5192 17.936 23.3599 17.9306C25.2006 17.9251 26.6899 16.4314 26.69 14.5907C26.679 12.7389 25.1718 11.2452 23.32 11.2507ZM37.04 39.7907C37.0236 41.5684 35.5778 43.0008 33.8 43.0007V43.0307H9.71002V43.0007C7.92907 42.9952 6.48633 41.558 6.47016 39.7809L6.47 39.7807V37.5507C6.46794 37.2633 6.58961 36.9889 6.80398 36.7975C7.01835 36.6061 7.30471 36.5162 7.59002 36.5507H10.45L10.45 8.8807C10.4555 6.744 12.1833 5.01168 14.32 5.0007H29.9V4.9707H38.29L38.29 5.1417L38.4286 5.14602C40.07 5.23764 41.3978 6.54995 41.49 8.2107V10.4407C41.4905 10.9777 41.0666 11.4192 40.53 11.4407H37.04L37.04 39.7907ZM30.56 39.7907V38.5607H8.47002V39.7507C8.47 40.4372 9.02357 40.9952 9.71002 41.0007V41.0307L30.8189 41.0319C30.656 40.6503 30.5642 40.2312 30.5602 39.791L30.56 39.7907ZM35.04 8.2107H35C35.0247 7.76704 35.1375 7.34825 35.3209 6.97095L29.9 6.9707V7.0007H14.32C13.2785 7.01714 12.4444 7.86908 12.45 8.9107L12.45 36.5507H31.59C31.8552 36.5507 32.1096 36.6561 32.2971 36.8436C32.4847 37.0311 32.59 37.2855 32.59 37.5507L32.56 39.7607C32.56 40.4455 33.1152 41.0007 33.8 41.0007C34.4849 41.0007 35.04 40.4455 35.04 39.7607V8.2107ZM31.7 31.1207C32.2523 31.1207 32.7 31.5684 32.7 32.1207C32.7 32.673 32.2523 33.1207 31.7 33.1207H15.7C15.1477 33.1207 14.7 32.673 14.7 32.1207C14.7 31.5684 15.1477 31.1207 15.7 31.1207H31.7ZM27.34 26.9407C27.8923 26.9407 28.34 27.3884 28.34 27.9407C28.34 28.493 27.8923 28.9407 27.34 28.9407H15.67C15.1177 28.9407 14.67 28.493 14.67 27.9407C14.67 27.3884 15.1177 26.9407 15.67 26.9407H27.34ZM23.36 9.25079C26.3052 9.25628 28.69 11.6454 28.69 14.5907C28.6875 15.9448 28.1718 17.2449 27.2512 18.2311L27.25 23.3507C27.25 23.7038 27.0637 24.0306 26.76 24.2107C26.5998 24.3058 26.4163 24.3543 26.23 24.3507C26.0582 24.3502 25.8895 24.3054 25.74 24.2207L23.32 22.8707L20.9 24.2207C20.5906 24.3946 20.2123 24.3915 19.9058 24.2126C19.5993 24.0336 19.4106 23.7056 19.41 23.3507L19.4097 18.195C18.5359 17.2401 18.0048 15.9669 18.01 14.5708C18.0211 11.6256 20.4147 9.24531 23.36 9.25079ZM21.41 19.5675L21.41 21.6407L22.83 20.8507C23.1394 20.6721 23.5206 20.6721 23.83 20.8507L25.25 21.6407L25.2508 19.5779C24.6402 19.8114 23.9863 19.9332 23.32 19.9307C22.6463 19.9269 22.0023 19.7985 21.41 19.5675ZM38.245 7.07239C37.5979 7.07239 37.0578 7.56622 37 8.2107H37.04L37.04 9.4407H39.49V8.2107C39.4322 7.56622 38.8921 7.07239 38.245 7.07239Z" fill="white"/>
</mask>
<g mask="url(#mask0_10251_124172)">
<path d="M23.32 11.2507C21.4794 11.2672 19.9991 12.7698 20.01 14.6105C20.0211 16.4512 21.5192 17.936 23.3599 17.9306C25.2006 17.9251 26.6899 16.4314 26.69 14.5907C26.679 12.7389 25.1718 11.2452 23.32 11.2507ZM37.04 39.7907C37.0236 41.5684 35.5778 43.0008 33.8 43.0007V43.0307H9.71002V43.0007C7.92907 42.9952 6.48633 41.558 6.47016 39.7809L6.47 39.7807V37.5507C6.46794 37.2633 6.58961 36.9889 6.80398 36.7975C7.01835 36.6061 7.30471 36.5162 7.59002 36.5507H10.45L10.45 8.8807C10.4555 6.744 12.1833 5.01168 14.32 5.0007H29.9V4.9707H38.29L38.29 5.1417L38.4286 5.14602C40.07 5.23764 41.3978 6.54995 41.49 8.2107V10.4407C41.4905 10.9777 41.0666 11.4192 40.53 11.4407H37.04L37.04 39.7907ZM30.56 39.7907V38.5607H8.47002V39.7507C8.47 40.4372 9.02357 40.9952 9.71002 41.0007V41.0307L30.8189 41.0319C30.656 40.6503 30.5642 40.2312 30.5602 39.791L30.56 39.7907ZM35.04 8.2107H35C35.0247 7.76704 35.1375 7.34825 35.3209 6.97095L29.9 6.9707V7.0007H14.32C13.2785 7.01714 12.4444 7.86908 12.45 8.9107L12.45 36.5507H31.59C31.8552 36.5507 32.1096 36.6561 32.2971 36.8436C32.4847 37.0311 32.59 37.2855 32.59 37.5507L32.56 39.7607C32.56 40.4455 33.1152 41.0007 33.8 41.0007C34.4849 41.0007 35.04 40.4455 35.04 39.7607V8.2107ZM31.7 31.1207C32.2523 31.1207 32.7 31.5684 32.7 32.1207C32.7 32.673 32.2523 33.1207 31.7 33.1207H15.7C15.1477 33.1207 14.7 32.673 14.7 32.1207C14.7 31.5684 15.1477 31.1207 15.7 31.1207H31.7ZM27.34 26.9407C27.8923 26.9407 28.34 27.3884 28.34 27.9407C28.34 28.493 27.8923 28.9407 27.34 28.9407H15.67C15.1177 28.9407 14.67 28.493 14.67 27.9407C14.67 27.3884 15.1177 26.9407 15.67 26.9407H27.34ZM23.36 9.25079C26.3052 9.25628 28.69 11.6454 28.69 14.5907C28.6875 15.9448 28.1718 17.2449 27.2512 18.2311L27.25 23.3507C27.25 23.7038 27.0637 24.0306 26.76 24.2107C26.5998 24.3058 26.4163 24.3543 26.23 24.3507C26.0582 24.3502 25.8895 24.3054 25.74 24.2207L23.32 22.8707L20.9 24.2207C20.5906 24.3946 20.2123 24.3915 19.9058 24.2126C19.5993 24.0336 19.4106 23.7056 19.41 23.3507L19.4097 18.195C18.5359 17.2401 18.0048 15.9669 18.01 14.5708C18.0211 11.6256 20.4147 9.24531 23.36 9.25079ZM21.41 19.5675L21.41 21.6407L22.83 20.8507C23.1394 20.6721 23.5206 20.6721 23.83 20.8507L25.25 21.6407L25.2508 19.5779C24.6402 19.8114 23.9863 19.9332 23.32 19.9307C22.6463 19.9269 22.0023 19.7985 21.41 19.5675ZM38.245 7.07239C37.5979 7.07239 37.0578 7.56622 37 8.2107H37.04L37.04 9.4407H39.49V8.2107C39.4322 7.56622 38.8921 7.07239 38.245 7.07239Z" fill="#0075BE"/>
</g>
</svg>
