<svg xmlns="http://www.w3.org/2000/svg" view-box="0 0 24 24" height="24" width="24">
  <g
    xmlns="http://www.w3.org/2000/svg"
    stroke="none"
    stroke-width="1"
    fill="none"
    fill-rule="evenodd"
  >
    <path
      d="M11.061,15.687 L16.728,9.687 C17.107,9.286 17.089,8.653 16.687,8.273 C16.286,7.895 15.654,7.912 15.273,8.314 L10.334,13.544 L8.728,11.843 C8.348,11.441 7.716,11.424 7.314,11.803 C6.912,12.182 6.894,12.815 7.273,13.216 L9.607,15.687 C9.796,15.887 10.059,16 10.334,16 C10.609,16 10.872,15.887 11.061,15.687 M12,4 C7.589,4 4,7.589 4,12 C4,16.412 7.589,20 12,20 C16.412,20 20,16.412 20,12 C20,7.589 16.412,4 12,4 M12,22 C6.486,22 2,17.515 2,12 C2,6.486 6.486,2 12,2 C17.515,2 22,6.486 22,12 C22,17.515 17.515,22 12,22"
      fill="#0075BE"
    />
  </g>
</svg>
