<svg
  width="21"
  height="21"
  view-box="0 0 21 21"
  fill="none"
  xmlns="http://www.w3.org/2000/svg"
>
  <mask
    id="mask0_5620_36227"
    style="mask-type: alpha"
    maskUnits="userSpaceOnUse"
    x="3"
    y="3"
    width="15"
    height="15"
  >
    <path
      d="M11.7339 10.4997L17.2464 4.99592C17.5895 4.65282 17.5895 4.09653 17.2464 3.75342C16.9033 3.41032 16.347 3.41032 16.0039 3.75342L10.5002 9.26592L4.99644 3.75342C4.65333 3.41032 4.09705 3.41032 3.75394 3.75342C3.41083 4.09653 3.41083 4.65282 3.75394 4.99592L9.26644 10.4997L3.75394 16.0034C3.58829 16.1677 3.49512 16.3914 3.49512 16.6247C3.49512 16.858 3.58829 17.0816 3.75394 17.2459C3.91824 17.4116 4.14188 17.5047 4.37519 17.5047C4.6085 17.5047 4.83214 17.4116 4.99644 17.2459L10.5002 11.7334L16.0039 17.2459C16.1682 17.4116 16.3919 17.5047 16.6252 17.5047C16.8585 17.5047 17.0821 17.4116 17.2464 17.2459C17.4121 17.0816 17.5053 16.858 17.5053 16.6247C17.5053 16.3914 17.4121 16.1677 17.2464 16.0034L11.7339 10.4997Z"
      fill="white"
    />
  </mask>
  <g mask="url(#mask0_5620_36227)">
    <path
      d="M11.7339 10.4997L17.2464 4.99592C17.5895 4.65282 17.5895 4.09653 17.2464 3.75342C16.9033 3.41032 16.347 3.41032 16.0039 3.75342L10.5002 9.26592L4.99644 3.75342C4.65333 3.41032 4.09705 3.41032 3.75394 3.75342C3.41083 4.09653 3.41083 4.65282 3.75394 4.99592L9.26644 10.4997L3.75394 16.0034C3.58829 16.1677 3.49512 16.3914 3.49512 16.6247C3.49512 16.858 3.58829 17.0816 3.75394 17.2459C3.91824 17.4116 4.14188 17.5047 4.37519 17.5047C4.6085 17.5047 4.83214 17.4116 4.99644 17.2459L10.5002 11.7334L16.0039 17.2459C16.1682 17.4116 16.3919 17.5047 16.6252 17.5047C16.8585 17.5047 17.0821 17.4116 17.2464 17.2459C17.4121 17.0816 17.5053 16.858 17.5053 16.6247C17.5053 16.3914 17.4121 16.1677 17.2464 16.0034L11.7339 10.4997Z"
      fill="#0075BE"
    />
  </g>
</svg>
