<svg width="24" height="24" viewBox="0 0 24 24" fill="none" xmlns="http://www.w3.org/2000/svg">
<g clip-path="url(#clip0_8801_102204)">
<rect width="24" height="24" fill="white"/>
<path d="M11.9978 1.53809C9.92949 1.53809 7.90761 2.15135 6.18779 3.30034C4.46797 4.44933 3.12745 6.08245 2.33569 7.99323C1.54394 9.90401 1.33652 12.0066 1.73964 14.0353C2.14277 16.064 3.13835 17.9275 4.60051 19.3904C6.06266 20.8533 7.92575 21.8498 9.9542 22.254C11.9826 22.6581 14.0854 22.4518 15.9966 21.661C17.9077 20.8702 19.5415 19.5305 20.6914 17.8112C21.8412 16.092 22.4555 14.0704 22.4566 12.0021C22.4552 9.22819 21.353 6.56824 19.392 4.60631C17.4311 2.64438 14.7717 1.54087 11.9978 1.53809V1.53809Z" stroke="#0075BE" stroke-width="1.5" stroke-linecap="round" stroke-linejoin="round"/>
<path d="M15.6369 7.63031L10.7778 10.6035C10.7088 10.6488 10.6498 10.7078 10.6045 10.7769L7.63129 15.6359C7.56988 15.7368 7.54426 15.8554 7.55855 15.9726C7.57285 16.0899 7.62623 16.1989 7.71008 16.282C7.80707 16.381 7.93924 16.4376 8.0778 16.4396C8.17436 16.439 8.26887 16.4117 8.35095 16.3608L13.2152 13.3876C13.2831 13.3408 13.3418 13.2821 13.3886 13.2143L16.3618 8.34997C16.4219 8.24962 16.4468 8.13209 16.4325 8.016C16.4182 7.89991 16.3656 7.79191 16.283 7.70911C16.1998 7.62525 16.0908 7.57187 15.9736 7.55757C15.8564 7.54328 15.7378 7.5689 15.6369 7.63031ZM11.9965 12.8833C11.8182 12.8833 11.6439 12.8302 11.4959 12.7308C11.3479 12.6314 11.2328 12.4901 11.1653 12.3251C11.0978 12.16 11.0809 11.9786 11.1169 11.8039C11.1528 11.6293 11.24 11.4693 11.3672 11.3443C11.4944 11.2193 11.6559 11.135 11.8312 11.1022C12.0064 11.0693 12.1875 11.0894 12.3514 11.1598C12.5152 11.2302 12.6544 11.3478 12.7511 11.4975C12.8479 11.6473 12.8979 11.8225 12.8948 12.0008C12.8921 12.2377 12.7964 12.4641 12.6284 12.6311C12.4603 12.7981 12.2335 12.8925 11.9965 12.8938V12.8833Z" fill="#0075BE"/>
</g>
<defs>
<clipPath id="clip0_8801_102204">
<rect width="24" height="24" fill="white"/>
</clipPath>
</defs>
</svg>
