<svg width="48" height="48" viewBox="0 0 48 48" fill="none" xmlns="http://www.w3.org/2000/svg">
<path d="M24.5 6C14.2827 6 6 14.2827 6 24.5C6 34.7173 14.2827 43 24.5 43C34.7173 43 43 34.7173 43 24.5C42.989 14.2873 34.7127 6.01102 24.5 6ZM39.18 17H32.71C31.3249 13.7666 29.3971 10.7937 27.01 8.21C32.24 9.02268 36.7645 12.2906 39.18 17ZM32.25 24.5C32.2369 26.3713 31.9229 28.2284 31.32 30H25.5V19H31.32C31.9229 20.7716 32.2369 22.6287 32.25 24.5ZM16.75 24.5C16.7631 22.6287 17.0771 20.7716 17.68 19H23.5V30H17.68C17.0771 28.2284 16.7631 26.3713 16.75 24.5ZM18.5 17C19.777 14.2611 21.4629 11.7322 23.5 9.5V17H18.5ZM23.5 32V39.5C21.4646 37.2739 19.7788 34.7519 18.5 32.02L23.5 32ZM25.5 32H30.5C29.223 34.7389 27.5371 37.2678 25.5 39.5V32ZM25.5 17V9.5C27.5354 11.7261 29.2212 14.2481 30.5 16.98L25.5 17ZM21.99 8.21C19.6029 10.7937 17.6751 13.7666 16.29 17H9.82C12.2355 12.2906 16.76 9.02268 21.99 8.21ZM8.96 19H15.58C14.4735 22.5832 14.4735 26.4168 15.58 30H8.96C7.6804 26.445 7.6804 22.555 8.96 19ZM9.82 32H16.29C17.6751 35.2334 19.6029 38.2063 21.99 40.79C16.76 39.9773 12.2355 36.7094 9.82 32ZM27.01 40.79C29.3971 38.2063 31.3249 35.2334 32.71 32H39.18C36.7645 36.7094 32.24 39.9773 27.01 40.79ZM40.01 30H33.42C34.5265 26.4168 34.5265 22.5832 33.42 19H40.04C41.3196 22.555 41.3196 26.445 40.04 30H40.01Z" fill="#0075BE"/>
</svg>
