<svg width="58" height="61" viewBox="0 0 58 61" fill="none" xmlns="http://www.w3.org/2000/svg">
<path d="M5.59462 57H4.74826L1.57552 52.1128V57H0.733507V50.6806H1.57552L4.76128 55.5807V50.6806H5.59462V57ZM8.2474 50.6806L10.309 55.8455L12.3707 50.6806H13.191L10.6259 57H9.98785L7.42708 50.6806H8.2474ZM7.88281 50.6806L8 54.5304V57H7.16233V50.6806H7.88281ZM13.4557 50.6806V57H12.6181V54.5304L12.7352 50.6806H13.4557ZM18.8516 57H15.6918V56.3229H18.8516V57ZM15.8568 57H15.0148V50.6806H15.8568V57ZM23.2535 55.4028C23.2535 55.2031 23.2115 55.0339 23.1276 54.895C23.0437 54.7561 22.8932 54.6302 22.6762 54.5174C22.4592 54.4045 22.151 54.2902 21.7517 54.1745C21.4392 54.0848 21.1571 53.9835 20.9054 53.8707C20.6565 53.7549 20.4424 53.6233 20.263 53.4757C20.0836 53.3281 19.9462 53.1589 19.8507 52.9679C19.7552 52.7769 19.7075 52.5584 19.7075 52.3125C19.7075 51.9826 19.7957 51.6889 19.9722 51.4314C20.1516 51.171 20.4019 50.967 20.7231 50.8194C21.0443 50.669 21.4204 50.5938 21.8516 50.5938C22.329 50.5938 22.7341 50.6849 23.0668 50.8672C23.3996 51.0466 23.6528 51.2824 23.8264 51.5747C24 51.864 24.0868 52.1736 24.0868 52.5035H23.2404C23.2404 52.2662 23.1898 52.055 23.0885 51.8698C22.9902 51.6846 22.8383 51.5399 22.6328 51.4358C22.4274 51.3287 22.167 51.2752 21.8516 51.2752C21.5564 51.2752 21.3119 51.32 21.1181 51.4097C20.9271 51.4994 20.7853 51.6209 20.6927 51.7743C20.6001 51.9277 20.5538 52.1027 20.5538 52.2995C20.5538 52.476 20.6045 52.6337 20.7057 52.7726C20.807 52.9086 20.9661 53.0315 21.1832 53.1415C21.4002 53.2514 21.6808 53.3556 22.0252 53.454C22.5026 53.5871 22.8947 53.7419 23.2014 53.9184C23.5081 54.0949 23.7338 54.3032 23.8785 54.5434C24.026 54.7836 24.0998 55.0671 24.0998 55.3941C24.0998 55.7355 24.0087 56.0336 23.8264 56.2882C23.6441 56.5428 23.388 56.7396 23.0582 56.8785C22.7283 57.0174 22.3406 57.0868 21.895 57.0868C21.6027 57.0868 21.3148 57.0463 21.0312 56.9653C20.7506 56.8843 20.4945 56.7627 20.263 56.6007C20.0344 56.4387 19.8507 56.239 19.7118 56.0017C19.5758 55.7616 19.5078 55.4838 19.5078 55.1684H20.3498C20.3498 55.3854 20.3918 55.572 20.4757 55.7283C20.5596 55.8845 20.6739 56.0133 20.8186 56.1146C20.9633 56.2159 21.1282 56.2911 21.3134 56.3403C21.4986 56.3866 21.6924 56.4097 21.895 56.4097C22.1872 56.4097 22.4332 56.3692 22.6328 56.2882C22.8354 56.2043 22.9887 56.0871 23.0929 55.9366C23.1999 55.7862 23.2535 55.6082 23.2535 55.4028ZM31.6016 55.5286H27.0356V55.0599L29.8611 50.6806H30.5208L29.8177 51.9436L27.9514 54.8776H31.6016V55.5286ZM30.7248 57H29.9132V50.6806H30.7248V57ZM36.3811 54.3047C36.3811 54.9905 36.3001 55.5373 36.138 55.9453C35.9789 56.3504 35.7503 56.6427 35.4523 56.822C35.1542 56.9986 34.8012 57.0868 34.3932 57.0868C33.991 57.0868 33.6395 56.9986 33.3385 56.822C33.0376 56.6427 32.8032 56.3504 32.6354 55.9453C32.4705 55.5373 32.388 54.9905 32.388 54.3047V53.3368C32.388 52.6481 32.469 52.1042 32.6311 51.7049C32.796 51.3056 33.0275 51.0205 33.3255 50.8498C33.6264 50.6791 33.9795 50.5938 34.3845 50.5938C34.7925 50.5938 35.1455 50.6791 35.4436 50.8498C35.7416 51.0205 35.9716 51.3056 36.1337 51.7049C36.2986 52.1042 36.3811 52.6481 36.3811 53.3368V54.3047ZM35.5694 53.2023C35.5694 52.7277 35.5246 52.3472 35.4349 52.0608C35.3452 51.7743 35.2121 51.5674 35.0356 51.4401C34.8591 51.3099 34.6421 51.2448 34.3845 51.2448C34.1299 51.2448 33.9144 51.3099 33.7378 51.4401C33.5613 51.5674 33.4268 51.7743 33.3342 52.0608C33.2445 52.3472 33.1997 52.7277 33.1997 53.2023V54.4306C33.1997 54.9022 33.2459 55.2856 33.3385 55.5807C33.4311 55.8759 33.5657 56.0929 33.7422 56.2318C33.9216 56.3678 34.1386 56.4358 34.3932 56.4358C34.6536 56.4358 34.8707 56.3678 35.0443 56.2318C35.2179 56.0929 35.3481 55.8759 35.4349 55.5807C35.5246 55.2856 35.5694 54.9022 35.5694 54.4306V53.2023ZM40.1406 57H39.329V51.6398L37.7144 52.2344V51.5095L40.0148 50.6458H40.1406V57ZM46.5477 54.3047C46.5477 54.9905 46.4667 55.5373 46.3047 55.9453C46.1455 56.3504 45.917 56.6427 45.6189 56.822C45.3209 56.9986 44.9679 57.0868 44.5599 57.0868C44.1577 57.0868 43.8061 56.9986 43.5052 56.822C43.2043 56.6427 42.9699 56.3504 42.8021 55.9453C42.6372 55.5373 42.5547 54.9905 42.5547 54.3047V53.3368C42.5547 52.6481 42.6357 52.1042 42.7977 51.7049C42.9627 51.3056 43.1942 51.0205 43.4922 50.8498C43.7931 50.6791 44.1461 50.5938 44.5512 50.5938C44.9592 50.5938 45.3122 50.6791 45.6102 50.8498C45.9083 51.0205 46.1383 51.3056 46.3003 51.7049C46.4653 52.1042 46.5477 52.6481 46.5477 53.3368V54.3047ZM45.7361 53.2023C45.7361 52.7277 45.6913 52.3472 45.6016 52.0608C45.5119 51.7743 45.3788 51.5674 45.2023 51.4401C45.0258 51.3099 44.8087 51.2448 44.5512 51.2448C44.2966 51.2448 44.081 51.3099 43.9045 51.4401C43.728 51.5674 43.5935 51.7743 43.5009 52.0608C43.4112 52.3472 43.3663 52.7277 43.3663 53.2023V54.4306C43.3663 54.9022 43.4126 55.2856 43.5052 55.5807C43.5978 55.8759 43.7323 56.0929 43.9089 56.2318C44.0883 56.3678 44.3053 56.4358 44.5599 56.4358C44.8203 56.4358 45.0373 56.3678 45.2109 56.2318C45.3845 56.0929 45.5148 55.8759 45.6016 55.5807C45.6913 55.2856 45.7361 54.9022 45.7361 54.4306V53.2023ZM48.033 53.8273L48.3542 50.6806H51.5964V51.4141H49.0399L48.8533 53.1458C48.9661 53.0793 49.1108 53.0171 49.2873 52.9592C49.4667 52.9013 49.6722 52.8724 49.9036 52.8724C50.2914 52.8724 50.6256 52.9592 50.9062 53.1328C51.1869 53.3064 51.4025 53.5509 51.5529 53.8663C51.7063 54.1817 51.783 54.555 51.783 54.9861C51.783 55.3883 51.7092 55.7486 51.5616 56.0668C51.417 56.3822 51.197 56.6311 50.9019 56.8134C50.6068 56.9957 50.2335 57.0868 49.7821 57.0868C49.5275 57.0868 49.2859 57.0521 49.0573 56.9826C48.8316 56.9103 48.629 56.8018 48.4496 56.6571C48.2731 56.5095 48.1285 56.3273 48.0156 56.1102C47.9028 55.8903 47.8333 55.6328 47.8073 55.3377H48.5755C48.6247 55.6965 48.7535 55.9699 48.9618 56.158C49.1701 56.3432 49.4436 56.4358 49.7821 56.4358C50.0339 56.4358 50.248 56.3779 50.4245 56.2622C50.6039 56.1435 50.7399 55.9771 50.8325 55.763C50.9251 55.546 50.9714 55.2899 50.9714 54.9948C50.9714 54.7286 50.9222 54.4899 50.8238 54.2786C50.7283 54.0674 50.5865 53.8996 50.3984 53.7752C50.2132 53.6508 49.9847 53.5885 49.7127 53.5885C49.4436 53.5885 49.241 53.6247 49.105 53.697C48.969 53.7665 48.8287 53.8649 48.684 53.9922L48.033 53.8273ZM56.8924 57H52.7474V56.4271L54.8177 54.1224C55.0752 53.8388 55.2734 53.5987 55.4123 53.4019C55.5541 53.2023 55.6525 53.0229 55.7075 52.8637C55.7624 52.7046 55.7899 52.5425 55.7899 52.3776C55.7899 52.0651 55.6944 51.7989 55.5035 51.579C55.3154 51.3562 55.0463 51.2448 54.6962 51.2448C54.4126 51.2448 54.1768 51.2998 53.9887 51.4097C53.8035 51.5197 53.6646 51.6716 53.572 51.8655C53.4823 52.0593 53.4375 52.2836 53.4375 52.5382H52.6259C52.6259 52.1823 52.704 51.8568 52.8602 51.5616C53.0165 51.2665 53.248 51.0321 53.5547 50.8585C53.8643 50.682 54.2448 50.5938 54.6962 50.5938C55.2922 50.5938 55.7581 50.7486 56.0937 51.0582C56.4323 51.3678 56.6016 51.7758 56.6016 52.2821C56.6016 52.531 56.548 52.7813 56.441 53.033C56.3339 53.2847 56.1907 53.535 56.0113 53.7839C55.8319 54.0298 55.6337 54.27 55.4167 54.5043L53.724 56.349H56.8924V57Z" fill="white"/>
<g clip-path="url(#clip0_10903_124246)">
<path d="M5 13.4477L28.8925 0.00390625L52.2512 13.5802V18.3053H48.5245V35.0113H8.65952V18.3073H5V13.4477ZM28.8906 5.06887L13.5171 13.9873V30.7585H43.9299V13.9873L28.8906 5.06887ZM20.7133 20.3751V16.249H36.6186V20.3751H20.7133ZM20.7133 22.4333H36.6186V26.5594H20.7133V22.4333ZM29.3571 47.9962V42.7393H32.1526C34.1494 42.7393 35.5472 43.3383 35.5472 45.4676C35.5472 47.5316 34.2838 47.9962 32.0854 47.9962H29.3571ZM30.8202 43.8682V46.8634H32.0182C33.1491 46.8634 33.9478 46.6637 33.9478 45.4657C33.9478 44.4001 33.0819 43.8682 32.1507 43.8682H30.8202ZM43.8704 47.9962V42.7393H47.7296C49.1926 42.7393 49.7936 43.2058 49.7936 44.4039C49.7936 45.2698 49.327 45.6692 48.3286 45.8017L49.8589 47.9981H48.2614L46.7312 45.8017H45.3334V47.9981L43.8704 47.9962ZM47.5242 43.8701H45.3277V44.6689H47.457C48.1885 44.6689 48.3882 44.6689 48.3882 44.2695C48.3901 43.9354 48.1232 43.8701 47.5242 43.8701ZM21.3738 42.7393V47.9962H22.7715V44.8013L25.567 47.9962H27.2317V42.7393H25.832V45.9994L23.0365 42.7393H21.3738ZM7.72256 42.7393V47.9962H12.9795V46.8653L9.1856 46.7981V42.7393H7.72256ZM14.4522 47.9962H19.5766V46.8653H15.9824V45.7345H18.9776V44.6689H15.9824V43.8701H19.5766V42.7393H14.4522V47.9962ZM37.1485 42.7393V47.9962L42.2058 47.9309V46.8653H38.6115V45.7345H41.672V44.6689H38.6115V43.8701H42.2058V42.7393H37.1485ZM18.1059 41.4049L19.4365 36.6797H20.5674L21.8979 41.4049H20.8611L20.5674 40.3393H19.3693L19.0755 41.4049H18.1059ZM19.9741 37.6877L19.5747 39.5501H20.4406L19.9741 37.6877ZM10.7216 39.6749V38.4097C10.7216 37.2116 11.121 36.5473 12.319 36.5473C13.6496 36.5473 13.9165 37.346 13.9165 38.4769V39.4753C13.9165 40.0743 13.8493 40.3412 13.6496 40.7405L14.4483 41.0074L14.3811 41.3396C11.6528 41.3396 10.7216 41.2724 10.7216 39.6749ZM11.7181 38.4769V39.6077C11.7181 40.4737 11.8506 40.7386 12.3171 40.7386C12.849 40.7386 12.9162 40.539 12.9162 39.673V38.4077C12.9162 37.4765 12.8509 37.3421 12.3843 37.3421C11.7834 37.3441 11.7181 37.6109 11.7181 38.4769ZM37.7418 40.1396C37.7418 40.8711 38.2083 41.4701 39.272 41.4701C40.1379 41.4701 40.9366 40.8711 40.9366 40.1396C40.9366 39.0087 38.8074 38.4749 38.8074 37.7434C38.8074 37.4765 39.0742 37.3441 39.3392 37.3441C39.7386 37.3441 39.9382 37.6109 40.1379 38.0103L40.8042 37.7434C40.7389 37.0772 40.2723 36.5453 39.2739 36.5453C38.4752 36.5453 37.8109 36.9447 37.8109 37.7434C37.8109 39.074 39.9402 39.4081 39.9402 40.2721C39.9402 40.6042 39.7405 40.7386 39.3411 40.7386C38.9418 40.7386 38.6749 40.4717 38.5424 40.0071L37.7418 40.1396ZM30.561 39.8746V38.3425C30.561 37.0772 31.16 36.5453 32.1584 36.5453C33.4237 36.5453 33.7558 37.0119 33.7558 38.21V39.6749C33.7558 40.9402 33.4237 41.4721 32.1584 41.4721C30.895 41.4701 30.561 41.0055 30.561 39.8746ZM31.5574 38.2772V39.7402C31.5574 40.4065 31.6227 40.7386 32.1565 40.7386C32.5558 40.7386 32.7555 40.4718 32.7555 39.673V38.2753C32.7555 37.7434 32.6902 37.2769 32.1565 37.2769C31.6246 37.2788 31.5574 37.6781 31.5574 38.2772ZM46.593 39.6749C46.593 41.0727 46.9923 41.4721 48.3229 41.4721C49.3539 41.4721 49.6534 40.9882 49.6534 40.4737V38.9434H48.2576V39.6749H48.7242V40.2068C48.7242 40.6062 48.5917 40.8058 48.2576 40.8058C47.5914 40.8058 47.5261 40.3393 47.5261 39.6749V38.6093C47.5261 37.8106 47.5914 37.2788 48.2576 37.2788C48.7242 37.2788 48.9891 37.6109 49.0563 38.0775L49.7206 37.8106C49.6554 37.0119 49.1216 36.5453 48.1904 36.5453C46.8598 36.5453 46.593 37.2769 46.593 38.2753V39.6749ZM34.1552 36.6797V39.4081C34.1552 41.0055 34.4298 41.5162 35.8256 41.5162C36.8912 41.5162 37.281 40.9383 37.281 39.5405V36.6778H36.3498V39.4061C36.3498 40.4717 36.2826 40.7367 35.7507 40.7367C35.2189 40.7367 35.1517 40.3373 35.1517 39.3389V36.6759H34.1552V36.6797ZM43.0006 36.6797V41.4049H43.7994V38.21L44.9302 41.4049H46.1283V36.6797H45.3296V39.6077L44.264 36.6797H43.0006ZM14.8534 36.6797V39.5425C14.8534 40.873 14.9859 41.4721 16.3184 41.4721C17.8486 41.4721 17.9158 40.7405 17.9158 39.4081V36.6797H16.9846V39.4753C16.9846 40.4065 16.8522 40.6733 16.3856 40.6733C15.8538 40.6733 15.7866 40.4065 15.7866 39.3428V36.6797H14.8534ZM26.8976 36.6797V41.4049H27.8288V39.2756H28.9597V41.4049H29.8909V36.6797H28.9616V38.4769H27.8288V36.6797H26.8976ZM7.66304 36.6797V41.4049H10.0592V40.6733H8.59424V39.3409H9.9248V38.6746H8.59424V37.4113H10.0592V36.6797H7.66304ZM22.303 36.6797V41.4049H24.4995V40.6733H23.1018V36.6797H22.303ZM41.4128 36.6797H42.2787V41.4049H41.4128V36.6797Z" fill="white"/>
</g>
<defs>
<clipPath id="clip0_10903_124246">
<rect width="47.2512" height="48" fill="white" transform="translate(5)"/>
</clipPath>
</defs>
</svg>
