<svg
  width="25"
  height="13"
  view-box="0 0 25 13"
  fill="none"
  xmlns="http://www.w3.org/2000/svg"
>
  <g clipPath="url(#clip0_5327_34980)">
    <path d="M25 0H0V13H25V0Z" fill="#EE1C25" />
    <path
      d="M3.24909 1.30078L4.39527 4.82836L1.39453 2.6482H5.10365L2.10291 4.82836L3.24909 1.30078Z"
      fill="#FFFF00"
    />
    <path
      d="M6.75444 0.700889L6.6459 1.93249L6.00979 0.872308L7.14758 1.35612L5.94271 1.63348L6.75444 0.700889Z"
      fill="#FFFF00"
    />
    <path
      d="M8.26637 2.14684L7.68841 3.2398L7.51356 2.01586L8.37444 2.90328L7.15636 2.69135L8.26637 2.14684Z"
      fill="#FFFF00"
    />
    <path
      d="M8.4112 4.3268L7.43766 5.08891L7.77731 3.90011L8.20128 5.06152L7.17563 4.37112L8.4112 4.3268Z"
      fill="#FFFF00"
    />
    <path
      d="M6.72882 5.24155L6.67145 6.47659L5.99193 5.44369L7.14879 5.87991L5.95647 6.20699L6.72882 5.24155Z"
      fill="#FFFF00"
    />
  </g>
  <defs>
    <clipPath id="clip0_5327_34980">
      <rect width="25" height="13" fill="white" />
    </clipPath>
  </defs>
</svg>
