<svg
  xmlns="http://www.w3.org/2000/svg"
  view-box="0 0 654 342"
  width="654"
  height="342"
>
  <path fill="#CC0027" d="M0 0h653.37v26.31H0z" />
  <path fill="#FFF" d="M0 26.31h653.37v26.31H0z" />
  <path fill="#CC0027" d="M0 52.62h653.37v26.31H0z" />
  <path fill="#FFF" d="M0 78.92h653.37v26.31H0z" />
  <path fill="#CC0027" d="M0 105.23h653.37v26.31H0z" />
  <path fill="#FFF" d="M0 131.54h653.37v26.31H0z" />
  <g>
    <path fill="#CC0027" d="M0 157.85h653.37v26.31H0z" />
    <path fill="#FFF" d="M0 184.15h653.37v26.31H0z" />
  </g>
  <g>
    <path fill="#CC0027" d="M0 210.46h653.37v26.31H0z" />
    <path fill="#FFF" d="M0 236.77h653.37v26.31H0z" />
  </g>
  <g>
    <path fill="#CC0027" d="M0 263.08h653.37v26.31H0zM0 315.69h653.37V342H0z" />
    <path fill="#FFF" d="M0 289.38h653.37v26.31H0z" />
  </g>
  <g>
    <path fill="#2F2F70" d="M0 0h260.21v184.15H0z" />
    <g fill="#FFF">
      <path d="m21.88 6.38 2.71 8.35h8.77l-7.09 5.15 2.71 8.35-7.1-5.16-7.1 5.16 2.71-8.35-7.09-5.15h8.77zM21.88 42.92l2.71 8.35h8.77l-7.09 5.16 2.71 8.34-7.1-5.16-7.1 5.16 2.71-8.34-7.09-5.16h8.77zM21.88 79.46l2.71 8.35h8.77l-7.09 5.16 2.71 8.34-7.1-5.16-7.1 5.16 2.71-8.34-7.09-5.16h8.77zM21.88 116.01l2.71 8.34h8.77l-7.09 5.16 2.71 8.34-7.1-5.16-7.1 5.16 2.71-8.34-7.09-5.16h8.77zM21.88 152.55l2.71 8.34h8.77l-7.09 5.16 2.71 8.34-7.1-5.16-7.1 5.16 2.71-8.34-7.09-5.16h8.77zM43.53 25.4l2.72 8.34h8.77l-7.1 5.16 2.71 8.34-7.1-5.16-7.09 5.16 2.71-8.34-7.1-5.16h8.77zM43.53 61.94l2.72 8.34h8.77l-7.1 5.16 2.71 8.34-7.1-5.15-7.09 5.15 2.71-8.34-7.1-5.16h8.77zM43.53 98.48l2.72 8.34h8.77l-7.1 5.16 2.71 8.34-7.1-5.15-7.09 5.15 2.71-8.34-7.1-5.16h8.77zM43.53 135.02l2.72 8.34h8.77l-7.1 5.16 2.71 8.34-7.1-5.15-7.09 5.15 2.71-8.34-7.1-5.16h8.77zM65.19 6.38l2.71 8.35h8.77l-7.1 5.15 2.72 8.35-7.1-5.16-7.1 5.16 2.71-8.35-7.1-5.15h8.78zM65.19 42.92l2.71 8.35h8.77l-7.1 5.16 2.72 8.34-7.1-5.16-7.1 5.16 2.71-8.34-7.1-5.16h8.78zM65.19 79.46l2.71 8.35h8.77l-7.1 5.16 2.72 8.34-7.1-5.16-7.1 5.16 2.71-8.34-7.1-5.16h8.78zM65.19 116.01l2.71 8.34h8.77l-7.1 5.16 2.72 8.34-7.1-5.16-7.1 5.16 2.71-8.34-7.1-5.16h8.78zM65.19 152.55l2.71 8.34h8.77l-7.1 5.16 2.72 8.34-7.1-5.16-7.1 5.16 2.71-8.34-7.1-5.16h8.78z" />
      <g>
        <path d="m86.84 25.4 2.71 8.34h8.78l-7.1 5.16 2.71 8.34-7.1-5.16-7.1 5.16 2.71-8.34-7.09-5.16h8.77zM86.84 61.94l2.71 8.34h8.78l-7.1 5.16 2.71 8.34-7.1-5.15-7.1 5.15 2.71-8.34-7.09-5.16h8.77zM86.84 98.48l2.71 8.34h8.78l-7.1 5.16 2.71 8.34-7.1-5.15-7.1 5.15 2.71-8.34-7.09-5.16h8.77zM86.84 135.02l2.71 8.34h8.78l-7.1 5.16 2.71 8.34-7.1-5.15-7.1 5.15 2.71-8.34-7.09-5.16h8.77z" />
      </g>
      <g>
        <path d="m108.49 6.38 2.72 8.35h8.77l-7.1 5.15 2.71 8.35-7.1-5.16-7.09 5.16 2.71-8.35-7.1-5.15h8.77zM108.49 42.92l2.72 8.35h8.77l-7.1 5.16 2.71 8.34-7.1-5.16-7.09 5.16 2.71-8.34-7.1-5.16h8.77zM108.49 79.46l2.72 8.35h8.77l-7.1 5.16 2.71 8.34-7.1-5.16-7.09 5.16 2.71-8.34-7.1-5.16h8.77zM108.49 116.01l2.72 8.34h8.77l-7.1 5.16 2.71 8.34-7.1-5.16-7.09 5.16 2.71-8.34-7.1-5.16h8.77zM108.49 152.55l2.72 8.34h8.77l-7.1 5.16 2.71 8.34-7.1-5.16-7.09 5.16 2.71-8.34-7.1-5.16h8.77z" />
      </g>
      <g>
        <path d="m130.15 25.4 2.71 8.34h8.77l-7.1 5.16 2.72 8.34-7.1-5.16-7.1 5.16 2.71-8.34-7.1-5.16h8.78zM130.15 61.94l2.71 8.34h8.77l-7.1 5.16 2.72 8.34-7.1-5.15-7.1 5.15 2.71-8.34-7.1-5.16h8.78zM130.15 98.48l2.71 8.34h8.77l-7.1 5.16 2.72 8.34-7.1-5.15-7.1 5.15 2.71-8.34-7.1-5.16h8.78zM130.15 135.02l2.71 8.34h8.77l-7.1 5.16 2.72 8.34-7.1-5.15-7.1 5.15 2.71-8.34-7.1-5.16h8.78z" />
      </g>
      <g>
        <path d="m151.8 6.38 2.71 8.35h8.78l-7.1 5.15 2.71 8.35-7.1-5.16-7.1 5.16 2.71-8.35-7.09-5.15h8.77zM151.8 42.92l2.71 8.35h8.78l-7.1 5.16 2.71 8.34-7.1-5.16-7.1 5.16 2.71-8.34-7.09-5.16h8.77zM151.8 79.46l2.71 8.35h8.78l-7.1 5.16 2.71 8.34-7.1-5.16-7.1 5.16 2.71-8.34-7.09-5.16h8.77zM151.8 116.01l2.71 8.34h8.78l-7.1 5.16 2.71 8.34-7.1-5.16-7.1 5.16 2.71-8.34-7.09-5.16h8.77zM151.8 152.55l2.71 8.34h8.78l-7.1 5.16 2.71 8.34-7.1-5.16-7.1 5.16 2.71-8.34-7.09-5.16h8.77z" />
      </g>
      <g>
        <path d="m173.46 25.4 2.71 8.34h8.77l-7.1 5.16 2.71 8.34-7.09-5.16-7.1 5.16 2.71-8.34-7.1-5.16h8.77zM173.46 61.94l2.71 8.34h8.77l-7.1 5.16 2.71 8.34-7.09-5.15-7.1 5.15 2.71-8.34-7.1-5.16h8.77zM173.46 98.48l2.71 8.34h8.77l-7.1 5.16 2.71 8.34-7.09-5.15-7.1 5.15 2.71-8.34-7.1-5.16h8.77zM173.46 135.02l2.71 8.34h8.77l-7.1 5.16 2.71 8.34-7.09-5.15-7.1 5.15 2.71-8.34-7.1-5.16h8.77z" />
      </g>
      <g>
        <path d="m195.11 6.38 2.71 8.35h8.77l-7.09 5.15 2.71 8.35-7.1-5.16-7.1 5.16 2.71-8.35-7.1-5.15h8.78zM195.11 42.92l2.71 8.35h8.77l-7.09 5.16 2.71 8.34-7.1-5.16-7.1 5.16 2.71-8.34-7.1-5.16h8.78zM195.11 79.46l2.71 8.35h8.77l-7.09 5.16 2.71 8.34-7.1-5.16-7.1 5.16 2.71-8.34-7.1-5.16h8.78zM195.11 116.01l2.71 8.34h8.77l-7.09 5.16 2.71 8.34-7.1-5.16-7.1 5.16 2.71-8.34-7.1-5.16h8.78zM195.11 152.55l2.71 8.34h8.77l-7.09 5.16 2.71 8.34-7.1-5.16-7.1 5.16 2.71-8.34-7.1-5.16h8.78z" />
      </g>
      <g>
        <path d="m238.42 6.38 2.71 8.35h8.77l-7.1 5.15 2.71 8.35-7.09-5.16-7.1 5.16 2.71-8.35-7.1-5.15h8.77zM238.42 42.92l2.71 8.35h8.77l-7.1 5.16 2.71 8.34-7.09-5.16-7.1 5.16 2.71-8.34-7.1-5.16h8.77zM238.42 79.46l2.71 8.35h8.77l-7.1 5.16 2.71 8.34-7.09-5.16-7.1 5.16 2.71-8.34-7.1-5.16h8.77zM238.42 116.01l2.71 8.34h8.77l-7.1 5.16 2.71 8.34-7.09-5.16-7.1 5.16 2.71-8.34-7.1-5.16h8.77zM238.42 152.55l2.71 8.34h8.77l-7.1 5.16 2.71 8.34-7.09-5.16-7.1 5.16 2.71-8.34-7.1-5.16h8.77z" />
      </g>
      <g>
        <path d="m216.76 25.4 2.71 8.34h8.78l-7.1 5.16 2.71 8.34-7.1-5.16-7.1 5.16 2.72-8.34-7.1-5.16h8.77zM216.76 61.94l2.71 8.34h8.78l-7.1 5.16 2.71 8.34-7.1-5.15-7.1 5.15 2.72-8.34-7.1-5.16h8.77zM216.76 98.48l2.71 8.34h8.78l-7.1 5.16 2.71 8.34-7.1-5.15-7.1 5.15 2.72-8.34-7.1-5.16h8.77zM216.76 135.02l2.71 8.34h8.78l-7.1 5.16 2.71 8.34-7.1-5.15-7.1 5.15 2.72-8.34-7.1-5.16h8.77z" />
      </g>
    </g>
  </g>
</svg>
