<svg width="24" height="24" viewBox="0 0 24 24" fill="none" xmlns="http://www.w3.org/2000/svg">
<mask id="mask0_2287_227" style="mask-type:alpha" maskUnits="userSpaceOnUse" x="4" y="2" width="16" height="20">
<path d="M12 21.55C11.7278 21.549 11.4678 21.437 11.28 21.24L6 15.76C3.16354 12.5438 3.36756 7.66303 6.46253 4.69473C9.5575 1.72642 14.4425 1.72642 17.5375 4.69473C20.6324 7.66303 20.8365 12.5438 18 15.76L17.13 16.67L12.67 21.28C12.4881 21.4503 12.2492 21.5466 12 21.55ZM12 4.44994C9.62884 4.43897 7.4736 5.82541 6.50055 7.98775C5.5275 10.1501 5.91919 12.6826 7.5 14.45L12 19.11L16.56 14.38C17.5009 13.2881 18.0127 11.8913 18 10.45C18 7.13629 15.3137 4.44994 12 4.44994ZM12 14.45C9.79086 14.45 8 12.6591 8 10.45C8 8.24086 9.79086 6.45 12 6.45C14.2091 6.45 16 8.24086 16 10.45C16 11.5109 15.5786 12.5283 14.8284 13.2784C14.0783 14.0286 13.0609 14.45 12 14.45ZM12 8.45C10.8954 8.45 10 9.34543 10 10.45C10 11.5546 10.8954 12.45 12 12.45C13.1046 12.45 14 11.5546 14 10.45C14 9.34543 13.1046 8.45 12 8.45Z" fill="white"/>
</mask>
<g mask="url(#mask0_2287_227)">
<path d="M12 21.55C11.7278 21.549 11.4678 21.437 11.28 21.24L6 15.76C3.16354 12.5438 3.36756 7.66303 6.46253 4.69473C9.5575 1.72642 14.4425 1.72642 17.5375 4.69473C20.6324 7.66303 20.8365 12.5438 18 15.76L17.13 16.67L12.67 21.28C12.4881 21.4503 12.2492 21.5466 12 21.55ZM12 4.44994C9.62884 4.43897 7.4736 5.82541 6.50055 7.98775C5.5275 10.1501 5.91919 12.6826 7.5 14.45L12 19.11L16.56 14.38C17.5009 13.2881 18.0127 11.8913 18 10.45C18 7.13629 15.3137 4.44994 12 4.44994ZM12 14.45C9.79086 14.45 8 12.6591 8 10.45C8 8.24086 9.79086 6.45 12 6.45C14.2091 6.45 16 8.24086 16 10.45C16 11.5109 15.5786 12.5283 14.8284 13.2784C14.0783 14.0286 13.0609 14.45 12 14.45ZM12 8.45C10.8954 8.45 10 9.34543 10 10.45C10 11.5546 10.8954 12.45 12 12.45C13.1046 12.45 14 11.5546 14 10.45C14 9.34543 13.1046 8.45 12 8.45Z" fill="white"/>
</g>
</svg>
