<svg width="24" height="24" viewBox="0 0 24 24" fill="none" xmlns="http://www.w3.org/2000/svg">
<path d="M11.92 11.61C11.92 11.61 11.88 11.61 11.86 11.61C11.32 11.57 10.9 11.13 10.92 10.58C10.92 10.46 10.97 9.87 11.35 9.34C11.65 8.92 11.74 8.82 12.21 8.45C12.52 8.2 12.48 8.05 12.47 7.99C12.44 7.83 12.25 7.79 12.25 7.79C12.1 7.76 11.92 7.74 11.68 7.86C11.43 7.99 11.39 8.38 11.39 8.39C11.35 8.93 10.87 9.37 10.33 9.32C9.79 9.29 9.37 8.84 9.39 8.29C9.41 7.72 9.73 6.62 10.75 6.09C11.37 5.77 12.02 5.68 12.69 5.84C13.34 5.99 14.19 6.53 14.41 7.57C14.61 8.48 14.25 9.37 13.44 10.02C13.24 10.18 13.0833 10.3367 12.97 10.49C12.97 10.49 12.91 10.63 12.91 10.68C12.87 11.2 12.43 11.61 11.91 11.61H11.92Z" fill="white"/>
<path d="M11.93 14.13C12.4823 14.13 12.93 13.6823 12.93 13.13C12.93 12.5777 12.4823 12.13 11.93 12.13C11.3777 12.13 10.93 12.5777 10.93 13.13C10.93 13.6823 11.3777 14.13 11.93 14.13Z" fill="white"/>
<path d="M20 5V15.02H18.63C17.29 15.02 16.2 16.11 16.2 17.45V18.16L13.76 15.72C13.3 15.26 12.69 15.01 12.04 15.01H4V5H20ZM20.8 3H3.2C2.54 3 2 3.54 2 4.2V15.81C2 16.47 2.54 17.01 3.2 17.01H12.04C12.16 17.01 12.27 17.06 12.35 17.14L16.88 21.67C17.02 21.81 17.22 21.89 17.42 21.89C17.52 21.89 17.61 21.87 17.7 21.84C17.99 21.72 18.18 21.44 18.18 21.12V17.44C18.18 17.2 18.37 17.01 18.61 17.01H20.77C21.44 17.01 21.97 16.47 21.97 15.81V4.2C21.97 3.53 21.43 3 20.77 3H20.8Z" fill="white"/>
</svg>
