<svg
  width="48"
  height="48"
  view-box="0 0 48 48"
  fill="none"
  xmlns="http://www.w3.org/2000/svg"
>
  <path
    d="M41.9658 23.3018C42.5181 23.3018 42.9658 23.7495 42.9658 24.3018V30.5518C42.9604 31.1001 42.5142 31.5418 41.9658 31.5418C41.4136 31.5418 40.9658 31.094 40.9658 30.5418L40.965 26.768L30.3258 37.3818C29.9507 37.7573 29.4417 37.9683 28.9108 37.9683C28.38 37.9683 27.871 37.7573 27.4958 37.3818L19.4958 29.3818L7.71585 41.3018C7.52877 41.4926 7.27309 41.6007 7.00585 41.6018C6.59958 41.6041 6.23227 41.3605 6.07647 40.9852C5.92068 40.61 6.00739 40.1779 6.29585 39.8918L18.0758 27.9818C18.4077 27.6479 18.8452 27.4432 19.3103 27.4002L19.4858 27.3918C20.014 27.3913 20.5209 27.5998 20.8958 27.9718L28.8958 35.9718L39.611 25.301L36.1858 25.3018C35.6336 25.3018 35.1858 24.854 35.1858 24.3018C35.1858 23.7495 35.6336 23.3018 36.1858 23.3018H41.9658ZM19.6208 7C25.0955 7 29.8951 10.6584 31.346 15.9373C32.7969 21.2161 30.5414 26.8137 25.8358 29.6118C25.673 29.7085 25.4848 29.7538 25.2958 29.7418C24.8521 29.7344 24.4663 29.4355 24.3484 29.0077C24.2304 28.5798 24.4086 28.1254 24.7858 27.8918C28.7187 25.5548 30.6047 20.8777 29.393 16.4663C28.1812 12.0549 24.1706 8.99738 19.5958 8.99738C15.0211 8.99738 11.0105 12.0549 9.79873 16.4663C8.58699 20.8777 10.473 25.5548 14.4058 27.8918C14.8206 28.1934 14.9399 28.7598 14.6822 29.2031C14.4244 29.6464 13.8731 29.823 13.4058 29.6118C8.7003 26.8137 6.44475 21.2161 7.89568 15.9373C9.34661 10.6584 14.1462 7 19.6208 7ZM19.6558 12.3018C20.2081 12.3018 20.6558 12.7495 20.6558 13.3018L20.6557 14.2616C22.3073 14.6048 23.4858 15.798 23.4858 17.3018C23.4858 17.854 23.0381 18.3018 22.4858 18.3018C21.9336 18.3018 21.4858 17.854 21.4858 17.3018C21.4858 16.7818 20.7358 16.1918 19.6658 16.1918C18.5958 16.1918 17.8358 16.7818 17.8358 17.3018C17.8358 17.8218 18.7858 18.3018 19.7258 18.4218H19.8658C22.0958 18.7118 23.4858 19.9018 23.4858 21.5218C23.4858 22.8775 22.3023 24.1212 20.656 24.4908L20.6558 25.4918C20.6558 26.044 20.2081 26.4918 19.6558 26.4918C19.1036 26.4918 18.6558 26.044 18.6558 25.4918L18.6554 24.4999C17.0095 24.1522 15.8258 22.9523 15.8258 21.4918C15.8258 20.9395 16.2736 20.4918 16.8258 20.4918C17.3781 20.4918 17.8258 20.9395 17.8258 21.4918C17.8258 22.0118 18.5758 22.6018 19.6458 22.6018C20.7158 22.6018 21.4858 22.0118 21.4858 21.4918C21.4858 20.9718 20.5358 20.4918 19.5958 20.3718H19.4458C17.2258 20.0818 15.8358 18.8918 15.8358 17.2718C15.8358 15.9163 17.012 14.6519 18.6554 14.275L18.6558 13.3018C18.6558 12.7495 19.1036 12.3018 19.6558 12.3018Z"
    fill="#0075BE"
  />
</svg>
