<svg
  xmlns="http://www.w3.org/2000/svg"
  view-box="0 0 24 24"
  enable-background="new 0 0 48 48"
  xml-space="preserve"
  height="24"
  width="24"
>
  <path
    d="M15.7 10c-.3 1.1-1.1 1.9-1.8 2.6-.4.4-1 1-1 1.3 0 .5-.4 1-1 1-.5 0-1-.4-1-1 0-1.1.7-1.9 1.5-2.6l.1-.1c.6-.6 1.1-1.2 1.3-1.8.2-.4.1-.8-.1-1.1-.3-.4-.9-.6-1.7-.6-.8 0-1.4.3-1.7.9-.3.5-.3 1-.3 1 0 .5-.4.9-.9.9s-.9-.4-.9-.9c0 0 0-.9.5-1.9.5-.9 1.4-2 3.4-2 1.8 0 2.7.7 3.2 1.3.5.9.7 1.9.4 3zm-3.6 5.7c-.7 0-1.2.6-1.2 1.2s.6 1.2 1.2 1.2 1.2-.6 1.2-1.2-.5-1.2-1.2-1.2zm7 3.4C23 15.2 23 8.9 19.1 5 15.2 1 8.8 1 4.9 4.9 1 8.8 1 15.2 4.9 19.1 6.9 21 9.4 22 12 22c2.6 0 5.1-1 7.1-2.9zM17.7 6.3c3.1 3.1 3.1 8.2 0 11.3-3.1 3.1-8.2 3.1-11.3 0-3.1-3.1-3.1-8.2 0-11.3C7.9 4.8 10 4 12 4s4.1.8 5.7 2.3z"
    style="fill: #0875bb"
  />
</svg>
