<svg
  width="48"
  height="48"
  view-box="0 0 48 48"
  fill="none"
  xmlns="http://www.w3.org/2000/svg"
>
  <path
    d="M23 37H10C9.44772 37 9 36.5523 9 36V16.9538C9 16.6654 9.12448 16.3911 9.3415 16.2012L20.3415 6.57619C20.7185 6.24629 21.2815 6.24629 21.6585 6.57619L33 16.5"
    stroke="#0079C1"
    stroke-width="2"
    stroke-linecap="round"
  />
  <path
    d="M33 16.5V22"
    stroke="#0079C1"
    stroke-width="2"
    stroke-linecap="round"
  />
  <path
    d="M21 6L5 20"
    stroke="#0079C1"
    stroke-width="2"
    stroke-linecap="round"
  />
  <path
    d="M21 6L37 20"
    stroke="#0079C1"
    stroke-width="2"
    stroke-linecap="round"
  />
  <path
    d="M32.8118 25.0525C35.5403 25.3874 37.819 27.2962 38.6327 29.9285C39.4464 32.5609 38.6438 35.4269 36.5823 37.25H38.1272C38.6092 37.25 39 37.6418 39 38.125C39 38.6082 38.6092 39 38.1272 39H34.3043C33.8222 39 33.4315 38.6082 33.4315 38.125V34.2925C33.4315 33.8093 33.8222 33.4175 34.3043 33.4175C34.7863 33.4175 35.1771 33.8093 35.1771 34.2925V36.1737C36.8622 34.8719 37.5942 32.6774 37.0292 30.6212C36.4643 28.565 34.7147 27.0558 32.6023 26.8025C32.1202 26.7445 31.7764 26.3057 31.8342 25.8225C31.8921 25.3393 32.3297 24.9945 32.8118 25.0525ZM29.6871 25C30.1691 25 30.5599 25.3918 30.5599 25.875V29.6988C30.5599 30.182 30.1691 30.5738 29.6871 30.5738C29.205 30.5738 28.8143 30.182 28.8143 29.6988V27.8262C27.1326 29.12 26.3948 31.3024 26.9452 33.3546C27.4957 35.4067 29.2259 36.9238 31.328 37.1975C31.81 37.2289 32.1754 37.6461 32.1441 38.1294C32.1127 38.6126 31.6966 38.9789 31.2145 38.9475H31.1098C27.6176 38.5064 24.9989 35.5286 25.0001 32C24.9901 29.9886 25.8535 28.0723 27.3654 26.75H25.8729C25.3909 26.75 25.0001 26.3582 25.0001 25.875C25.0001 25.3918 25.3909 25 25.8729 25H29.6871Z"
    fill="#0075BE"
  />
</svg>
