<svg
  width="48"
  height="48"
  view-box="0 0 48 48"
  fill="none"
  xmlns="http://www.w3.org/2000/svg"
>
  <path
    d="M41.6927 22.2487L24.6927 7.24873C24.3152 6.91709 23.7503 6.91709 23.3727 7.24873L6.37275 22.2487C6.08641 22.4794 5.94972 22.8485 6.01682 23.21C6.08392 23.5715 6.34397 23.867 6.69401 23.9796C7.04404 24.0921 7.42758 24.0034 7.69275 23.7487L11.0327 20.8287V39.0287C11.0327 39.581 11.4805 40.0287 12.0327 40.0287H36.0327C36.585 40.0287 37.0327 39.581 37.0327 39.0287V20.8287L40.3527 23.7487C40.5351 23.9095 40.7697 23.9984 41.0127 23.9987C41.4284 23.9981 41.8003 23.7405 41.947 23.3516C42.0936 22.9627 41.9845 22.5236 41.6727 22.2487H41.6927ZM35.0327 38.0287H13.0327V19.5187C13.0323 19.3912 13.0051 19.2651 12.9527 19.1487L24.0327 9.33873L35.0327 19.0587V38.0287Z"
    fill="#0075BE"
  />
  <path
    d="M24.48 21.23C25.83 21.23 26.97 21.97 26.97 22.84C26.97 23.3923 27.4177 23.84 27.97 23.84C28.5223 23.84 28.97 23.3923 28.97 22.84C28.97 21.09 27.5 19.68 25.49 19.32V18C25.49 17.4477 25.0423 17 24.49 17C23.9377 17 23.49 17.4477 23.49 18V19.32C21.6345 19.4997 20.1691 20.9735 20 22.83C20 24.7 21.64 26.08 24.26 26.43H24.44C25.61 26.59 26.97 27.1 26.97 28.05C26.97 29 25.83 29.66 24.48 29.66C23.13 29.66 22 28.92 22 28.05C22 27.4977 21.5523 27.05 21 27.05C20.4477 27.05 20 27.4977 20 28.05C20 29.79 21.47 31.21 23.49 31.57V33.02C23.49 33.5723 23.9377 34.02 24.49 34.02C25.0423 34.02 25.49 33.5723 25.49 33.02V31.6C27.49 31.24 28.97 29.82 28.97 28.08C28.97 26.34 27.33 24.83 24.71 24.48H24.53C23.36 24.32 22 23.81 22 22.86C22 21.91 23.14 21.23 24.48 21.23Z"
    fill="#0075BE"
  />
</svg>
