<svg width="48" height="48" viewBox="0 0 48 48" fill="none" xmlns="http://www.w3.org/2000/svg">
<mask id="mask0_10251_124158" style="mask-type:alpha" maskUnits="userSpaceOnUse" x="5" y="6" width="38" height="36">
<path d="M11.926 10.2572C17.5633 5.51489 25.5212 4.68622 32.0146 8.16536C38.5079 11.6445 42.2259 18.7291 41.4001 26.0494C41.3608 26.4067 41.1338 26.7158 40.8048 26.8604C40.4757 27.005 40.0945 26.9631 39.8048 26.7504C39.515 26.5378 39.3608 26.1867 39.4001 25.8294C40.1379 19.321 36.8342 13.0202 31.0613 9.92554C25.2884 6.83086 18.2123 7.56739 13.2004 11.7846C8.18857 16.0018 6.25333 22.8479 8.31566 29.0648C10.378 35.2818 16.0213 39.6138 22.5601 39.9994C23.1123 40.016 23.5466 40.4771 23.5301 41.0294C23.5135 41.5817 23.0523 42.016 22.5001 41.9994H22.4401C15.0865 41.5601 8.74282 36.6843 6.42649 29.6912C4.11017 22.6982 6.28878 14.9995 11.926 10.2572ZM41.5001 30.9993C41.767 30.9967 42.0239 31.1009 42.2136 31.2887C42.4033 31.4766 42.5101 31.7324 42.5101 31.9994V35.9994C42.5101 36.5517 42.0623 36.9994 41.5101 36.9994C40.9578 36.9994 40.5101 36.5517 40.5101 35.9994V34.8494L36.5101 38.7194C36.1225 39.0941 35.5077 39.0941 35.1201 38.7194L33.2201 36.8894L28.2201 41.7194C28.0347 41.8981 27.7875 41.9984 27.5301 41.9994C27.2579 41.9984 26.9979 41.8864 26.8101 41.6894C26.4223 41.2994 26.4223 40.6694 26.8101 40.2794L32.5101 34.7794C32.8977 34.4047 33.5125 34.4047 33.9001 34.7794L35.8001 36.6094L39.5001 32.9994H37.5001C36.9478 32.9994 36.5001 32.5517 36.5001 31.9994C36.5001 31.4471 36.9478 30.9993 37.5001 30.9993H41.5001ZM23.6301 12.9994C24.1823 12.9994 24.6301 13.4471 24.6301 13.9994V15.4194C27.5301 15.7994 29.7601 17.7894 29.7601 20.1894C29.7601 20.7417 29.3123 21.1894 28.7601 21.1894C28.2078 21.1894 27.7601 20.7417 27.7601 20.1894C27.7601 18.6494 25.8701 17.3494 23.6301 17.3494C21.3901 17.3494 19.5001 18.6494 19.5001 20.1894C19.5001 21.8794 21.6301 22.7694 23.6301 23.0294H23.8901C27.5001 23.5094 29.7601 25.3494 29.7601 27.8494C29.7601 30.2494 27.5301 32.2394 24.6301 32.6194V33.9994C24.6301 34.5517 24.1823 34.9994 23.6301 34.9994C23.0778 34.9994 22.6301 34.5517 22.6301 33.9994V32.5794C19.7201 32.1994 17.5001 30.2094 17.5001 27.8094C17.5001 27.2571 17.9478 26.8094 18.5001 26.8094C19.0523 26.8094 19.5001 27.2571 19.5001 27.8094C19.5001 29.3494 21.3901 30.6494 23.6301 30.6494C25.8701 30.6494 27.7601 29.3494 27.7601 27.8094C27.7601 26.1194 25.6201 25.2294 23.6201 24.9694H23.3701C19.7501 24.4894 17.5001 22.5494 17.5001 20.1494C17.5001 17.7494 19.7201 15.7594 22.6301 15.3794V13.9994C22.6301 13.4471 23.0778 12.9994 23.6301 12.9994Z" fill="white"/>
</mask>
<g mask="url(#mask0_10251_124158)">
<path d="M11.926 10.2572C17.5633 5.51489 25.5212 4.68622 32.0146 8.16536C38.5079 11.6445 42.2259 18.7291 41.4001 26.0494C41.3608 26.4067 41.1338 26.7158 40.8048 26.8604C40.4757 27.005 40.0945 26.9631 39.8048 26.7504C39.515 26.5378 39.3608 26.1867 39.4001 25.8294C40.1379 19.321 36.8342 13.0202 31.0613 9.92554C25.2884 6.83086 18.2123 7.56739 13.2004 11.7846C8.18857 16.0018 6.25333 22.8479 8.31566 29.0648C10.378 35.2818 16.0213 39.6138 22.5601 39.9994C23.1123 40.016 23.5466 40.4771 23.5301 41.0294C23.5135 41.5817 23.0523 42.016 22.5001 41.9994H22.4401C15.0865 41.5601 8.74282 36.6843 6.42649 29.6912C4.11017 22.6982 6.28878 14.9995 11.926 10.2572ZM41.5001 30.9993C41.767 30.9967 42.0239 31.1009 42.2136 31.2887C42.4033 31.4766 42.5101 31.7324 42.5101 31.9994V35.9994C42.5101 36.5517 42.0623 36.9994 41.5101 36.9994C40.9578 36.9994 40.5101 36.5517 40.5101 35.9994V34.8494L36.5101 38.7194C36.1225 39.0941 35.5077 39.0941 35.1201 38.7194L33.2201 36.8894L28.2201 41.7194C28.0347 41.8981 27.7875 41.9984 27.5301 41.9994C27.2579 41.9984 26.9979 41.8864 26.8101 41.6894C26.4223 41.2994 26.4223 40.6694 26.8101 40.2794L32.5101 34.7794C32.8977 34.4047 33.5125 34.4047 33.9001 34.7794L35.8001 36.6094L39.5001 32.9994H37.5001C36.9478 32.9994 36.5001 32.5517 36.5001 31.9994C36.5001 31.4471 36.9478 30.9993 37.5001 30.9993H41.5001ZM23.6301 12.9994C24.1823 12.9994 24.6301 13.4471 24.6301 13.9994V15.4194C27.5301 15.7994 29.7601 17.7894 29.7601 20.1894C29.7601 20.7417 29.3123 21.1894 28.7601 21.1894C28.2078 21.1894 27.7601 20.7417 27.7601 20.1894C27.7601 18.6494 25.8701 17.3494 23.6301 17.3494C21.3901 17.3494 19.5001 18.6494 19.5001 20.1894C19.5001 21.8794 21.6301 22.7694 23.6301 23.0294H23.8901C27.5001 23.5094 29.7601 25.3494 29.7601 27.8494C29.7601 30.2494 27.5301 32.2394 24.6301 32.6194V33.9994C24.6301 34.5517 24.1823 34.9994 23.6301 34.9994C23.0778 34.9994 22.6301 34.5517 22.6301 33.9994V32.5794C19.7201 32.1994 17.5001 30.2094 17.5001 27.8094C17.5001 27.2571 17.9478 26.8094 18.5001 26.8094C19.0523 26.8094 19.5001 27.2571 19.5001 27.8094C19.5001 29.3494 21.3901 30.6494 23.6301 30.6494C25.8701 30.6494 27.7601 29.3494 27.7601 27.8094C27.7601 26.1194 25.6201 25.2294 23.6201 24.9694H23.3701C19.7501 24.4894 17.5001 22.5494 17.5001 20.1494C17.5001 17.7494 19.7201 15.7594 22.6301 15.3794V13.9994C22.6301 13.4471 23.0778 12.9994 23.6301 12.9994Z" fill="#0075BE"/>
</g>
</svg>
