<svg
  width="48"
  height="48"
  view-box="0 0 48 48"
  fill="none"
  xmlns="http://www.w3.org/2000/svg"
>
  <path
    d="M6 37.64C5.44772 37.64 5 37.1923 5 36.64V35.29C5.0012 33.3729 6.05311 31.6108 7.74 30.7L13.16 27.77C13.7305 27.4554 14.0806 26.8514 14.07 26.2V24.13L13.95 23.97C13.85 23.83 13.73 23.66 13.59 23.44L13.38 23.11C13.22 22.83 13.06 22.55 12.9 22.24C12.74 21.93 12.73 21.9 12.65 21.72C12.65 21.72 12.65 21.63 12.65 21.62L12.55 21.38V21.28L12.44 21.02C12.37 20.84 12.31 20.65 12.25 20.45V20.35C12.19 20.15 12.14 19.97 12.1 19.8C11.4721 19.4103 11.0843 18.7289 11.07 17.99V15.58C11.0717 15.017 11.2901 14.4762 11.68 14.07V10.72C11.68 10.67 11.68 10.63 11.68 10.59C11.6259 9.27979 12.0688 7.99751 12.92 7C14.13 5.64 16.1 5 18.78 5H19.71C22.39 5 24.37 5.69 25.57 7.05C26.4256 8.04498 26.8691 9.32906 26.81 10.64C26.81 10.64 26.81 10.73 26.81 10.77V14.12C27.1999 14.5262 27.4183 15.067 27.42 15.63V18.04C27.4193 18.7319 27.0887 19.3819 26.53 19.79C26.53 19.96 26.44 20.13 26.39 20.29L26.34 20.45C26.28 20.64 26.22 20.83 26.15 21.01L26.05 21.26V21.37L25.93 21.63C25.82 21.89 25.73 22.06 25.65 22.23C25.57 22.4 25.33 22.82 25.19 23.07L24.97 23.42L24.62 23.93L24.48 24.12V24.17V26.23C24.4772 26.8901 24.844 27.4962 25.43 27.8L29.34 29.92C29.6544 30.0897 29.8544 30.4142 29.8646 30.7714C29.8748 31.1285 29.6938 31.4639 29.3896 31.6514C29.0854 31.8388 28.7044 31.8497 28.39 31.68L24.34 29.53C23.1104 28.8736 22.3417 27.5938 22.34 26.2V23.78C22.3372 23.5429 22.4187 23.3125 22.57 23.13L22.69 22.99L22.77 22.9L22.88 22.75C22.96 22.64 23.07 22.49 23.18 22.32L23.36 22.03C23.5 21.8 23.63 21.56 23.77 21.3C23.91 21.04 23.91 21.01 23.97 20.86L24.09 20.58V20.49L24.18 20.27C24.18 20.12 24.29 19.97 24.34 19.81V19.7C24.4 19.51 24.45 19.34 24.49 19.16L24.55 18.92C24.6069 18.6651 24.7612 18.4426 24.98 18.3L25.19 18.17C25.248 18.1367 25.2855 18.0767 25.29 18.01V15.58C25.2886 15.5229 25.2585 15.4702 25.21 15.44L25.07 15.26C24.8542 15.0704 24.7304 14.7972 24.73 14.51V10.51C24.7251 10.4434 24.7251 10.3766 24.73 10.31C24.7294 9.57649 24.467 8.86728 23.99 8.31C23.18 7.39 21.72 6.93 19.63 6.93H18.7C16.61 6.93 15.15 7.39 14.34 8.31C13.8661 8.86906 13.6041 9.57711 13.6 10.31C13.6049 10.3732 13.6049 10.4368 13.6 10.5V14.5C13.6022 14.7857 13.4821 15.0586 13.27 15.25L13.07 15.43C13.0215 15.4602 12.9914 15.5129 12.99 15.57V17.98C12.9945 18.0467 13.032 18.1067 13.09 18.14L13.3 18.27C13.5226 18.4107 13.6807 18.6335 13.74 18.89L13.79 19.13C13.79 19.31 13.88 19.48 13.93 19.65V19.78C13.99 19.94 14.04 20.09 14.09 20.24L14.18 20.45V20.55L14.27 20.76L14.51 21.27C14.64 21.53 14.77 21.77 14.9 21.98L15.08 22.27L15.39 22.72L15.7 23.12C15.8527 23.2985 15.9377 23.5251 15.94 23.76V26.18C15.9383 27.5738 15.1696 28.8536 13.94 29.51L8.69 32.46C7.6515 33.0233 7.00338 34.1086 7 35.29V36.64C7 37.1923 6.55228 37.64 6 37.64ZM35.14 39.03C35.3041 39.0308 35.4656 39.072 35.61 39.15L38.14 40.48L37.66 37.65C37.6067 37.3269 37.7151 36.9982 37.95 36.77L39.95 34.77L37.11 34.36C36.7848 34.3112 36.5043 34.1055 36.36 33.81L35.14 31.23L33.88 33.8C33.7357 34.0955 33.4552 34.3012 33.13 34.35L30.29 34.76L32.34 36.76C32.5749 36.9882 32.6833 37.3169 32.63 37.64L32.15 40.47L34.68 39.13C34.8222 39.0578 34.9806 39.0233 35.14 39.03ZM35.145 27.9661C35.5242 27.9661 35.8708 28.1806 36.04 28.52L37.97 32.44L42.29 33.06C42.6678 33.1148 42.9815 33.38 43.0984 33.7434C43.2153 34.1069 43.115 34.5052 42.84 34.77L39.72 37.83L40.46 42.13C40.5329 42.5128 40.3768 42.9031 40.06 43.13C39.8872 43.2507 39.6807 43.3137 39.47 43.3102C39.3059 43.3092 39.1444 43.268 39 43.19L35.14 41.19L31.28 43.19C30.9421 43.3677 30.5326 43.3375 30.2244 43.1122C29.9163 42.8869 29.7632 42.5058 29.83 42.13L30.57 37.82L27.45 34.77C27.175 34.5052 27.0747 34.1069 27.1916 33.7434C27.3085 33.38 27.6222 33.1148 28 33.06L32.32 32.44L34.25 28.52C34.4192 28.1806 34.7658 27.9661 35.145 27.9661ZM14.4 34.59C14.9523 34.59 15.4 35.0377 15.4 35.59C15.4 36.1423 14.9523 36.59 14.4 36.59H11.15C10.5977 36.59 10.15 36.1423 10.15 35.59C10.15 35.0377 10.5977 34.59 11.15 34.59H14.4Z"
    fill="#0075BE"
  />
</svg>
