<svg width="24" height="24" viewBox="0 0 24 24" fill="none" xmlns="http://www.w3.org/2000/svg">
<g clip-path="url(#clip0_2287_224)">
<path d="M22.2227 0C23.2 0 24 0.774826 24 1.72949V22.2695C23.9999 23.2268 23.1999 24 22.2227 24H1.76953C0.793599 24 0.000109579 23.2268 0 22.2695V1.72949C0 0.774826 0.793531 0 1.76953 0H22.2227ZM16.1816 8.71289C14.4496 8.71289 13.2875 9.6625 12.8115 10.5625H12.7637V8.99902H9.35156V20.4521H12.9082V14.7852C12.9082 13.2906 13.191 11.8457 15.043 11.8457C16.8667 11.8459 16.8936 13.5536 16.8936 14.8828V20.4521H20.4492V14.1709C20.4492 11.0857 19.784 8.71303 16.1816 8.71289ZM3.54688 9V20.4492H7.12109V9H3.54688ZM5.33887 3.30371C4.1962 3.30371 3.27344 4.2295 3.27344 5.36816C3.27353 6.50809 4.19626 7.43164 5.33887 7.43164C6.47739 7.43153 7.40225 6.50802 7.40234 5.36816C7.40234 4.22956 6.47744 3.30382 5.33887 3.30371Z" fill="white"/>
</g>
<defs>
<clipPath id="clip0_2287_224">
<rect width="24" height="24" fill="white"/>
</clipPath>
</defs>
</svg>
