<svg width="24" height="24" viewBox="0 0 24 24" fill="none" xmlns="http://www.w3.org/2000/svg">
<mask id="mask0_9159_109389" style="mask-type:alpha" maskUnits="userSpaceOnUse" x="3" y="1" width="18" height="22">
<path d="M15.54 15.1024C15.4082 16.4503 14.3551 17.5242 13.01 17.6824V17.8124C13.01 18.3646 12.5623 18.8124 12.01 18.8124C11.4578 18.8124 11.01 18.3646 11.01 17.8124V17.6824C9.66322 17.5278 8.6082 16.452 8.48005 15.1024C8.48005 14.5501 8.92776 14.1024 9.48005 14.1024C10.0323 14.1024 10.48 14.5501 10.48 15.1024C10.48 15.3424 11.08 15.8024 12.01 15.8024C12.94 15.8024 13.54 15.3424 13.54 15.1024C13.54 14.8624 13.07 14.5424 11.95 14.4124H11.82C9.36005 14.1224 8.48005 12.8424 8.48005 11.7324C8.60374 10.3789 9.65984 9.29774 11.01 9.14237V9.00237C11.01 8.45008 11.4578 8.00237 12.01 8.00237C12.5623 8.00237 13.01 8.45008 13.01 9.00237V9.14237C14.3535 9.29604 15.4075 10.3667 15.54 11.7124C15.54 12.2646 15.0923 12.7124 14.54 12.7124C13.9878 12.7124 13.54 12.2646 13.54 11.7124C13.54 11.4724 12.94 11.0224 12.01 11.0224C11.08 11.0224 10.48 11.4724 10.48 11.7124C10.48 11.9524 10.95 12.2724 12.07 12.4124H12.19C14.66 12.7124 15.54 14.0024 15.54 15.1024ZM12.01 22.0024C17.29 22.0024 20.2001 19.7424 20.2001 15.6524C20.2001 12.4324 18.29 7.96237 15.37 5.85237L16.48 4.54237C16.9284 4.09707 17.0593 3.42307 16.81 2.84237C16.5254 2.28533 15.9337 1.95402 15.31 2.00237H8.71005C8.07936 1.94559 7.47756 2.27816 7.19005 2.84237C6.94085 3.42307 7.07168 4.09707 7.52005 4.54237L8.63005 5.85237C5.71005 8.00237 3.80005 12.4324 3.80005 15.6524C3.80005 19.7424 6.71005 22.0024 12.01 22.0024ZM10.82 5.35237L9.68005 4.00237H14.34L13.2 5.35237C13.0017 5.59305 12.9049 5.90151 12.93 6.21237C12.9996 6.62153 13.2757 6.96568 13.66 7.12237C16.27 8.53237 18.22 12.7924 18.22 15.6524C18.22 18.5124 16.13 20.0024 12.01 20.0024C7.89005 20.0024 5.80005 18.5324 5.80005 15.6524C5.80005 12.7724 7.80005 8.53237 10.37 7.11237C10.7502 6.95795 11.0228 6.61714 11.09 6.21237C11.1152 5.90151 11.0184 5.59305 10.82 5.35237Z" fill="white"/>
</mask>
<g mask="url(#mask0_9159_109389)">
<path d="M15.54 15.1024C15.4082 16.4503 14.3551 17.5242 13.01 17.6824V17.8124C13.01 18.3646 12.5623 18.8124 12.01 18.8124C11.4578 18.8124 11.01 18.3646 11.01 17.8124V17.6824C9.66322 17.5278 8.6082 16.452 8.48005 15.1024C8.48005 14.5501 8.92776 14.1024 9.48005 14.1024C10.0323 14.1024 10.48 14.5501 10.48 15.1024C10.48 15.3424 11.08 15.8024 12.01 15.8024C12.94 15.8024 13.54 15.3424 13.54 15.1024C13.54 14.8624 13.07 14.5424 11.95 14.4124H11.82C9.36005 14.1224 8.48005 12.8424 8.48005 11.7324C8.60374 10.3789 9.65984 9.29774 11.01 9.14237V9.00237C11.01 8.45008 11.4578 8.00237 12.01 8.00237C12.5623 8.00237 13.01 8.45008 13.01 9.00237V9.14237C14.3535 9.29604 15.4075 10.3667 15.54 11.7124C15.54 12.2646 15.0923 12.7124 14.54 12.7124C13.9878 12.7124 13.54 12.2646 13.54 11.7124C13.54 11.4724 12.94 11.0224 12.01 11.0224C11.08 11.0224 10.48 11.4724 10.48 11.7124C10.48 11.9524 10.95 12.2724 12.07 12.4124H12.19C14.66 12.7124 15.54 14.0024 15.54 15.1024ZM12.01 22.0024C17.29 22.0024 20.2001 19.7424 20.2001 15.6524C20.2001 12.4324 18.29 7.96237 15.37 5.85237L16.48 4.54237C16.9284 4.09707 17.0593 3.42307 16.81 2.84237C16.5254 2.28533 15.9337 1.95402 15.31 2.00237H8.71005C8.07936 1.94559 7.47756 2.27816 7.19005 2.84237C6.94085 3.42307 7.07168 4.09707 7.52005 4.54237L8.63005 5.85237C5.71005 8.00237 3.80005 12.4324 3.80005 15.6524C3.80005 19.7424 6.71005 22.0024 12.01 22.0024ZM10.82 5.35237L9.68005 4.00237H14.34L13.2 5.35237C13.0017 5.59305 12.9049 5.90151 12.93 6.21237C12.9996 6.62153 13.2757 6.96568 13.66 7.12237C16.27 8.53237 18.22 12.7924 18.22 15.6524C18.22 18.5124 16.13 20.0024 12.01 20.0024C7.89005 20.0024 5.80005 18.5324 5.80005 15.6524C5.80005 12.7724 7.80005 8.53237 10.37 7.11237C10.7502 6.95795 11.0228 6.61714 11.09 6.21237C11.1152 5.90151 11.0184 5.59305 10.82 5.35237Z" fill="#0075BE"/>
</g>
</svg>
