<svg width="48" height="48" viewBox="0 0 48 48" fill="none" xmlns="http://www.w3.org/2000/svg">
<mask id="mask0_9435_119786" style="mask-type:alpha" maskUnits="userSpaceOnUse" x="7" y="5" width="34" height="38">
<path d="M15 31.8795H8C7.44772 31.8795 7 32.3272 7 32.8795V41.6895C7 42.2418 7.44772 42.6895 8 42.6895H15C15.5523 42.6895 16 42.2418 16 41.6895V32.8795C16 32.3272 15.5523 31.8795 15 31.8795ZM14 40.6895H9V33.8795H14V40.6895ZM27.5 25.4895H20.5C19.9477 25.4895 19.5 25.9372 19.5 26.4895V41.5795C19.5 42.1318 19.9477 42.5795 20.5 42.5795H27.5C28.0523 42.5795 28.5 42.1318 28.5 41.5795V26.4895C28.5 25.9372 28.0523 25.4895 27.5 25.4895ZM26.5 40.5795H21.5V27.4895H26.5V40.5795ZM40 17.9295H33C32.4477 17.9295 32 18.3772 32 18.9295V41.4295C32 41.9818 32.4477 42.4295 33 42.4295L40 42.4895C40.2623 42.4884 40.5137 42.3843 40.7 42.1995C40.8909 42.0124 40.9989 41.7568 41 41.4895V18.9295C41 18.3772 40.5523 17.9295 40 17.9295ZM39 19.9295V40.4795H34V19.9295H39ZM31.9763 5.53346C32.2583 5.28904 32.653 5.22189 33 5.35951L37.92 7.03951L38.0382 7.09883L38.15 7.16951L38.25 7.23951C38.3048 7.28898 38.352 7.34626 38.39 7.40951C38.4229 7.44366 38.4531 7.48045 38.48 7.51951L38.4835 7.59451L38.48 7.66951C38.4904 7.73912 38.4904 7.8099 38.48 7.87951C38.4843 7.93276 38.4843 7.98626 38.48 8.03951C38.4899 8.0991 38.4899 8.15992 38.48 8.21951L36.88 13.2195C36.7443 13.6528 36.3336 13.9403 35.88 13.9195C35.778 13.9182 35.6769 13.9014 35.58 13.8695C35.3263 13.7892 35.1151 13.6111 34.9931 13.3746C34.8711 13.1381 34.8484 12.8628 34.93 12.6095L35.93 9.60951L11.79 19.6095C11.6692 19.6589 11.5405 19.686 11.41 19.6895H11.39C10.9055 19.7007 10.4827 19.3629 10.3867 18.8878C10.2907 18.4128 10.5492 17.9373 11 17.7595L34.62 7.99951L32.39 7.25951C32.0278 7.16944 31.7459 6.88513 31.6589 6.52215C31.5718 6.15917 31.6942 5.77796 31.9763 5.53346Z" fill="white"/>
</mask>
<g mask="url(#mask0_9435_119786)">
<path d="M15 31.8795H8C7.44772 31.8795 7 32.3272 7 32.8795V41.6895C7 42.2418 7.44772 42.6895 8 42.6895H15C15.5523 42.6895 16 42.2418 16 41.6895V32.8795C16 32.3272 15.5523 31.8795 15 31.8795ZM14 40.6895H9V33.8795H14V40.6895ZM27.5 25.4895H20.5C19.9477 25.4895 19.5 25.9372 19.5 26.4895V41.5795C19.5 42.1318 19.9477 42.5795 20.5 42.5795H27.5C28.0523 42.5795 28.5 42.1318 28.5 41.5795V26.4895C28.5 25.9372 28.0523 25.4895 27.5 25.4895ZM26.5 40.5795H21.5V27.4895H26.5V40.5795ZM40 17.9295H33C32.4477 17.9295 32 18.3772 32 18.9295V41.4295C32 41.9818 32.4477 42.4295 33 42.4295L40 42.4895C40.2623 42.4884 40.5137 42.3843 40.7 42.1995C40.8909 42.0124 40.9989 41.7568 41 41.4895V18.9295C41 18.3772 40.5523 17.9295 40 17.9295ZM39 19.9295V40.4795H34V19.9295H39ZM31.9763 5.53346C32.2583 5.28904 32.653 5.22189 33 5.35951L37.92 7.03951L38.0382 7.09883L38.15 7.16951L38.25 7.23951C38.3048 7.28898 38.352 7.34626 38.39 7.40951C38.4229 7.44366 38.4531 7.48045 38.48 7.51951L38.4835 7.59451L38.48 7.66951C38.4904 7.73912 38.4904 7.8099 38.48 7.87951C38.4843 7.93276 38.4843 7.98626 38.48 8.03951C38.4899 8.0991 38.4899 8.15992 38.48 8.21951L36.88 13.2195C36.7443 13.6528 36.3336 13.9403 35.88 13.9195C35.778 13.9182 35.6769 13.9014 35.58 13.8695C35.3263 13.7892 35.1151 13.6111 34.9931 13.3746C34.8711 13.1381 34.8484 12.8628 34.93 12.6095L35.93 9.60951L11.79 19.6095C11.6692 19.6589 11.5405 19.686 11.41 19.6895H11.39C10.9055 19.7007 10.4827 19.3629 10.3867 18.8878C10.2907 18.4128 10.5492 17.9373 11 17.7595L34.62 7.99951L32.39 7.25951C32.0278 7.16944 31.7459 6.88513 31.6589 6.52215C31.5718 6.15917 31.6942 5.77796 31.9763 5.53346Z" fill="#0075BE"/>
</g>
</svg>
