<svg width="48" height="48" viewBox="0 0 48 48" fill="none" xmlns="http://www.w3.org/2000/svg">
<mask id="mask0_10251_124130" style="mask-type:alpha" maskUnits="userSpaceOnUse" x="6" y="6" width="36" height="36">
<path d="M41.69 28.2506C40.8951 26.4559 38.8117 25.6252 37 26.3806L32.28 28.1106C31.9174 27.1301 31.1422 26.3586 30.16 26.0006L23.63 23.6106C23.0997 23.4289 22.5542 23.295 22 23.2106L20.54 23.0806C19.2503 23.0762 17.9736 23.3383 16.79 23.8506L14.1 25.0606C13.8955 24.9033 13.67 24.7753 13.43 24.6806C12.7608 24.4215 12.0159 24.4395 11.36 24.7306L7 26.6406C6.39255 26.9123 6.00107 27.5152 6 28.1806V39.8606C6.00077 40.4464 6.30305 40.9905 6.8 41.3006C7.06656 41.4676 7.3755 41.5544 7.69 41.5507C7.95387 41.5504 8.21407 41.4888 8.45 41.3706L16.86 37.1206C17.5065 36.8303 18.0105 36.294 18.26 35.6306C18.3551 35.3973 18.4157 35.1514 18.44 34.9006C19.4155 34.6308 20.4566 34.7342 21.36 35.1906L24.6 36.8006C26.5963 37.7945 28.932 37.8458 30.97 36.9406L39.84 33.0006C41.6641 32.1851 42.4898 30.0517 41.69 28.2206V28.2506ZM8 39.3606V28.3606L12.17 26.5306C12.1755 26.633 12.1957 26.734 12.23 26.8306L15.82 35.3706L8 39.3606ZM20.44 25.0706L21.73 25.1906C22.1277 25.2667 22.5189 25.3737 22.9 25.5106L29.43 27.9106C29.9886 28.1172 30.378 28.6273 30.43 29.2206C30.4048 29.3561 30.4048 29.4951 30.43 29.6306C30.4181 29.7017 30.4014 29.7718 30.38 29.8406C30.0926 30.6262 29.2368 31.0453 28.44 30.7906L23.44 29.0806C23.1006 28.9663 22.726 29.0417 22.4573 29.2785C22.1886 29.5153 22.0666 29.8774 22.1373 30.2285C22.208 30.5796 22.4606 30.8663 22.8 30.9806L27.8 32.6906C28.1649 32.8095 28.5462 32.8702 28.93 32.8706C30.4373 32.8717 31.779 31.9157 32.27 30.4906C32.27 30.3906 32.33 30.2906 32.35 30.2006L37.57 28.2806H37.66C38.2605 28.0119 38.9639 28.133 39.44 28.5871C39.916 29.0412 40.0702 29.7381 39.83 30.3506L39.89 30.3006C39.7318 30.7014 39.4232 31.0244 39.03 31.2006L30.17 35.1106C28.6735 35.7788 26.9566 35.7421 25.49 35.0106L22.25 33.3906C20.6418 32.6 18.769 32.5489 17.12 33.2506L14.52 27.0606L17.64 25.6806C18.4242 25.3328 19.2641 25.1302 20.1189 25.0816L20.44 25.0706ZM35.29 6.46062C35.9721 6.39612 36.625 6.75225 36.94 7.36062C37.2002 7.99408 37.0498 8.72206 36.56 9.20062L35.06 10.9906C38.67 13.4606 41.06 18.9406 41.06 22.9406C41.0609 23.2948 41.0408 23.6488 41 24.0006C40.912 24.4817 40.489 24.8286 40 24.8208H39.95C39.6859 24.7905 39.4447 24.6566 39.2796 24.4483C39.1145 24.24 39.0391 23.9746 39.07 23.7106C39.0858 23.4375 39.0858 23.1637 39.07 22.8906C39.07 19.3306 36.63 14.0206 33.37 12.2506C32.9687 12.088 32.6758 11.735 32.59 11.3106C32.5481 10.9728 32.6622 10.6342 32.9 10.3906L34.57 8.39062H26.08L27.75 10.3906C27.9895 10.6328 28.1007 10.9738 28.05 11.3106C27.9755 11.7316 27.6878 12.0838 27.29 12.2406C24.4 13.8506 22.28 18.0706 21.73 21.2406C21.6382 21.7842 21.1238 22.151 20.58 22.0606C20.0364 21.9688 19.6696 21.4544 19.76 20.9106C20.34 17.5406 22.39 13.1506 25.59 11.0006L24.08 9.20062C23.5911 8.72115 23.4444 7.9918 23.71 7.36062C24.025 6.75225 24.6779 6.39612 25.36 6.46062H35.29ZM30.43 12.9306C30.9823 12.9306 31.43 13.3783 31.43 13.9306V14.1106C32.8387 14.2587 33.9519 15.3719 34.1 16.7806C34.1 17.3329 33.6523 17.7806 33.1 17.7806C32.5477 17.7806 32.1 17.3329 32.1 16.7806C32.1 16.5106 31.43 16.0006 30.43 16.0006C29.4 16.0006 28.77 16.5306 28.77 16.7706C28.77 17.0106 29.32 17.4206 30.49 17.5606H30.62C33.18 17.8606 34.1 19.1906 34.1 20.3306C33.9519 21.7393 32.8387 22.8526 31.43 23.0006V23.1806C31.43 23.7329 30.9823 24.1806 30.43 24.1806C29.8777 24.1806 29.43 23.7329 29.43 23.1806V23.0006C28.0318 22.8499 26.926 21.7482 26.77 20.3506C26.77 19.7983 27.2177 19.3506 27.77 19.3506C28.3223 19.3506 28.77 19.7983 28.77 20.3506C28.77 20.6206 29.4 21.1306 30.43 21.1306C31.46 21.1306 32.1 20.5906 32.1 20.3506C32.1 20.1106 31.55 19.7006 30.38 19.5606H30.24C27.69 19.2506 26.77 17.9306 26.77 16.7806C26.9172 15.3752 28.0252 14.2631 29.43 14.1106V13.9306C29.43 13.3783 29.8777 12.9306 30.43 12.9306Z" fill="white"/>
</mask>
<g mask="url(#mask0_10251_124130)">
<path d="M41.69 28.2506C40.8951 26.4559 38.8117 25.6252 37 26.3806L32.28 28.1106C31.9174 27.1301 31.1422 26.3586 30.16 26.0006L23.63 23.6106C23.0997 23.4289 22.5542 23.295 22 23.2106L20.54 23.0806C19.2503 23.0762 17.9736 23.3383 16.79 23.8506L14.1 25.0606C13.8955 24.9033 13.67 24.7753 13.43 24.6806C12.7608 24.4215 12.0159 24.4395 11.36 24.7306L7 26.6406C6.39255 26.9123 6.00107 27.5152 6 28.1806V39.8606C6.00077 40.4464 6.30305 40.9905 6.8 41.3006C7.06656 41.4676 7.3755 41.5544 7.69 41.5507C7.95387 41.5504 8.21407 41.4888 8.45 41.3706L16.86 37.1206C17.5065 36.8303 18.0105 36.294 18.26 35.6306C18.3551 35.3973 18.4157 35.1514 18.44 34.9006C19.4155 34.6308 20.4566 34.7342 21.36 35.1906L24.6 36.8006C26.5963 37.7945 28.932 37.8458 30.97 36.9406L39.84 33.0006C41.6641 32.1851 42.4898 30.0517 41.69 28.2206V28.2506ZM8 39.3606V28.3606L12.17 26.5306C12.1755 26.633 12.1957 26.734 12.23 26.8306L15.82 35.3706L8 39.3606ZM20.44 25.0706L21.73 25.1906C22.1277 25.2667 22.5189 25.3737 22.9 25.5106L29.43 27.9106C29.9886 28.1172 30.378 28.6273 30.43 29.2206C30.4048 29.3561 30.4048 29.4951 30.43 29.6306C30.4181 29.7017 30.4014 29.7718 30.38 29.8406C30.0926 30.6262 29.2368 31.0453 28.44 30.7906L23.44 29.0806C23.1006 28.9663 22.726 29.0417 22.4573 29.2785C22.1886 29.5153 22.0666 29.8774 22.1373 30.2285C22.208 30.5796 22.4606 30.8663 22.8 30.9806L27.8 32.6906C28.1649 32.8095 28.5462 32.8702 28.93 32.8706C30.4373 32.8717 31.779 31.9157 32.27 30.4906C32.27 30.3906 32.33 30.2906 32.35 30.2006L37.57 28.2806H37.66C38.2605 28.0119 38.9639 28.133 39.44 28.5871C39.916 29.0412 40.0702 29.7381 39.83 30.3506L39.89 30.3006C39.7318 30.7014 39.4232 31.0244 39.03 31.2006L30.17 35.1106C28.6735 35.7788 26.9566 35.7421 25.49 35.0106L22.25 33.3906C20.6418 32.6 18.769 32.5489 17.12 33.2506L14.52 27.0606L17.64 25.6806C18.4242 25.3328 19.2641 25.1302 20.1189 25.0816L20.44 25.0706ZM35.29 6.46062C35.9721 6.39612 36.625 6.75225 36.94 7.36062C37.2002 7.99408 37.0498 8.72206 36.56 9.20062L35.06 10.9906C38.67 13.4606 41.06 18.9406 41.06 22.9406C41.0609 23.2948 41.0408 23.6488 41 24.0006C40.912 24.4817 40.489 24.8286 40 24.8208H39.95C39.6859 24.7905 39.4447 24.6566 39.2796 24.4483C39.1145 24.24 39.0391 23.9746 39.07 23.7106C39.0858 23.4375 39.0858 23.1637 39.07 22.8906C39.07 19.3306 36.63 14.0206 33.37 12.2506C32.9687 12.088 32.6758 11.735 32.59 11.3106C32.5481 10.9728 32.6622 10.6342 32.9 10.3906L34.57 8.39062H26.08L27.75 10.3906C27.9895 10.6328 28.1007 10.9738 28.05 11.3106C27.9755 11.7316 27.6878 12.0838 27.29 12.2406C24.4 13.8506 22.28 18.0706 21.73 21.2406C21.6382 21.7842 21.1238 22.151 20.58 22.0606C20.0364 21.9688 19.6696 21.4544 19.76 20.9106C20.34 17.5406 22.39 13.1506 25.59 11.0006L24.08 9.20062C23.5911 8.72115 23.4444 7.9918 23.71 7.36062C24.025 6.75225 24.6779 6.39612 25.36 6.46062H35.29ZM30.43 12.9306C30.9823 12.9306 31.43 13.3783 31.43 13.9306V14.1106C32.8387 14.2587 33.9519 15.3719 34.1 16.7806C34.1 17.3329 33.6523 17.7806 33.1 17.7806C32.5477 17.7806 32.1 17.3329 32.1 16.7806C32.1 16.5106 31.43 16.0006 30.43 16.0006C29.4 16.0006 28.77 16.5306 28.77 16.7706C28.77 17.0106 29.32 17.4206 30.49 17.5606H30.62C33.18 17.8606 34.1 19.1906 34.1 20.3306C33.9519 21.7393 32.8387 22.8526 31.43 23.0006V23.1806C31.43 23.7329 30.9823 24.1806 30.43 24.1806C29.8777 24.1806 29.43 23.7329 29.43 23.1806V23.0006C28.0318 22.8499 26.926 21.7482 26.77 20.3506C26.77 19.7983 27.2177 19.3506 27.77 19.3506C28.3223 19.3506 28.77 19.7983 28.77 20.3506C28.77 20.6206 29.4 21.1306 30.43 21.1306C31.46 21.1306 32.1 20.5906 32.1 20.3506C32.1 20.1106 31.55 19.7006 30.38 19.5606H30.24C27.69 19.2506 26.77 17.9306 26.77 16.7806C26.9172 15.3752 28.0252 14.2631 29.43 14.1106V13.9306C29.43 13.3783 29.8777 12.9306 30.43 12.9306Z" fill="#0075BE"/>
</g>
</svg>
