<svg width="48" height="48" viewBox="0 0 48 48" fill="none" xmlns="http://www.w3.org/2000/svg">
<path fill-rule="evenodd" clip-rule="evenodd" d="M36.969 11.4399C42.007 17.3643 42.6357 25.7938 38.6941 32.3583L41.8399 32.8106C42.2194 32.8622 42.5361 33.1262 42.6554 33.4902C42.7746 33.8542 42.6754 34.2544 42.3999 34.5205L39.3199 37.5205L40.0499 41.7505C40.1228 42.1333 39.9667 42.5236 39.6499 42.7505C39.3532 42.9513 38.9717 42.978 38.6499 42.8205L34.8499 40.8205L30.9999 42.8005C30.8655 42.8764 30.7142 42.9177 30.5599 42.9205C30.3481 42.9213 30.1415 42.8548 29.9699 42.7305C29.6531 42.5036 29.497 42.1133 29.5699 41.7305L29.9045 39.7943C27.7943 40.6453 25.5365 41.0907 23.2499 41.1005C19.4655 41.0991 15.906 39.9181 12.967 37.8697C12.6799 37.8108 12.4377 37.6286 12.2981 37.3808C9.10804 34.9323 6.73819 31.4197 5.74992 27.2857C3.81397 19.1874 7.68499 10.8183 15.1098 7.04973C22.5346 3.28115 31.575 5.09684 36.969 11.4399ZM34.8299 31.0005L34.2816 32.1077C34.2973 32.2947 34.2606 32.4882 34.1649 32.6656C34.0811 32.8208 33.9621 32.945 33.8232 33.0336L33.5899 33.5005C33.4455 33.7961 33.1651 34.0017 32.8399 34.0505L30.0699 34.4506L32.0699 36.4506C32.308 36.6809 32.4166 37.0142 32.3599 37.3405L31.8899 40.0905L34.3599 38.7906C34.5052 38.7161 34.6666 38.6783 34.8299 38.6805C34.9898 38.6799 35.1476 38.7176 35.2899 38.7906L37.7599 40.0905L37.2899 37.3405C37.2332 37.0142 37.3418 36.6809 37.5799 36.4506L39.5799 34.4506L36.8099 34.0505C36.4847 34.0017 36.2042 33.7961 36.0599 33.5005L34.8299 31.0005ZM24.2699 11.4205H23.7199C22.396 11.696 21.1326 12.2075 19.9899 12.9305C19.6482 13.3327 19.4448 13.834 19.4099 14.3605C19.4599 14.4777 19.487 14.6032 19.4899 14.7305V18.1105C19.4906 18.4561 19.3129 18.7774 19.0199 18.9605L18.9999 19.0005C18.9999 19.0605 18.8899 19.1505 18.8299 19.2505V21.2505H18.9599C19.1825 21.3912 19.3406 21.614 19.3999 21.8706V22.0505C19.3999 22.1805 19.4699 22.3105 19.4999 22.4305V22.5306L19.6199 22.8706L19.7799 23.2605L19.9599 23.6505C20.0599 23.8405 20.1599 24.0105 20.2499 24.1705L20.3899 24.3805C20.4432 24.4672 20.4966 24.545 20.544 24.6139L20.6099 24.7105L20.8399 24.9905C20.9948 25.1717 21.0799 25.4022 21.0799 25.6405V28.1805C21.0795 29.4307 20.3969 30.5811 19.2999 31.1805L15.2999 33.3605C14.5631 33.7537 14.1077 34.5255 14.1199 35.3605L14.1199 36.1951C18.7761 39.4586 24.9609 40.0742 30.2878 37.4883L27.2199 34.5005C26.9444 34.2344 26.8452 33.8342 26.9644 33.4702C27.0836 33.1062 27.4003 32.8422 27.7799 32.7906L31.2909 32.2986L28.7299 31.0005C27.6255 30.41 26.9428 29.2528 26.9599 28.0005V25.7705C26.9599 25.5322 27.045 25.3017 27.1999 25.1206L27.2899 25.0105C27.3108 24.9756 27.3342 24.9422 27.3599 24.9105V24.8605C27.4124 24.793 27.4649 24.7199 27.5258 24.6285L27.5899 24.5306L27.7099 24.3305C27.8199 24.1505 27.9199 23.9806 28.0199 23.7806L28.1699 23.4506L28.3499 23.0205C28.3988 22.9071 28.4389 22.7901 28.4699 22.6705V22.5705C28.4699 22.4505 28.5399 22.3205 28.5699 22.1905V22.0105C28.6292 21.754 28.7873 21.5312 29.0099 21.3905L29.1699 21.2906V19.2906L29.1099 19.1505H28.9999C28.6304 18.994 28.3902 18.6318 28.3899 18.2305V14.7305C28.3863 14.526 28.4495 14.3259 28.5699 14.1605C28.5049 13.7054 28.3105 13.2784 28.0099 12.9305C26.8644 12.206 25.5973 11.6945 24.2699 11.4205ZM11.9999 11.7705C6.40687 17.356 5.73066 26.1886 10.4083 32.5603C10.9675 33.3222 11.5833 34.0215 12.246 34.6562C12.4828 33.417 13.2649 32.3316 14.3999 31.7205L18.3999 29.5406C18.8486 29.2936 19.128 28.8227 19.1299 28.3105V26.1305L19.0899 26.0005C19.0374 25.918 18.9736 25.8299 18.9029 25.7235L18.8299 25.6105L18.6699 25.3505C18.5399 25.1405 18.4199 24.9205 18.2999 24.6805C18.1799 24.4405 18.1599 24.4005 18.0999 24.2605L17.9999 24.0005V23.9005L17.9199 23.6905L17.7699 23.2505V23.1206L17.6799 22.8105C17.2309 22.4461 16.9701 21.8988 16.9699 21.3205V19.0005C16.9704 18.8288 17.0152 18.66 17.0999 18.5105C17.2782 18.1754 17.4965 17.8632 17.7499 17.5805V15.1005C17.7 14.9934 17.6696 14.8783 17.6599 14.7605C17.6091 13.6071 17.9988 12.4774 18.7499 11.6005C19.7499 10.4905 22.7499 9.67055 23.6199 9.45055H24.8999C25.7899 9.67055 28.7799 10.4505 29.7599 11.6005C30.517 12.4785 30.9105 13.6123 30.8599 14.7705C30.8487 14.9743 30.7754 15.1697 30.6499 15.3305V17.4905C30.9708 17.8271 31.2072 18.2349 31.3399 18.6805C31.3798 18.7825 31.4002 18.8911 31.3999 19.0005V21.2906C31.3997 21.8688 31.1389 22.4161 30.6899 22.7806L30.5999 23.0905V23.2205L30.4499 23.6605L30.3699 23.8605L30.3199 23.9705L30.2399 24.1605C30.1599 24.3505 30.0899 24.4906 30.0199 24.6206C29.9499 24.7506 29.7699 25.0906 29.6599 25.2806L29.4899 25.5505L29.2299 25.9305L29.1399 26.0505V28.0005C29.1421 28.5022 29.4183 28.9625 29.8599 29.2006L32.7159 30.7446L33.8999 28.3405C34.0691 28.0011 34.4157 27.7866 34.7949 27.7866C35.1741 27.7866 35.5207 28.0011 35.6899 28.3405L37.0733 31.148C40.8334 24.5658 39.4638 16.1257 33.5976 11.0868C27.3086 5.68467 17.9347 5.98142 11.9999 11.7705Z" fill="#0075BE"/>
</svg>
