<svg
  id="prefix__Layer_1"
  xmlns="http://www.w3.org/2000/svg"
  x="0"
  y="0"
  height="48"
  width="48"
  view-box="0 0 48 48"
  enable-background="new 0 0 48 48"
  xml-space="preserve"
  >
  <style>
    .prefix__st0 {
      fill: #0075be;
    }
  </style>
  <path
    class="prefix__st0"
    d="M39.2 38.8h-3.3c.3-.7.4-1.5.4-2.3 0-3.8-3.1-7-6.9-7-1.5 0-3 .5-4.2 1.5-.4.3-.5 1-.2 1.4.3.4 1 .5 1.4.2.9-.7 1.9-1 3-1 2.7 0 4.9 2.2 4.9 5 0 .7-.1 1.4-.4 2 0 .1-.1.2-.1.3h-9.2c-.2-4.9-1.6-10.7-3.3-14.6l4.2 2.3c.3.2.6.2.9 0 .3-.1.5-.4.5-.7.5-3.4-.5-5.6-1.6-7h2.9c.3 0 .6-.1.7-.3.2-.2.3-.5.2-.8-.3-2-1.2-3.5-2.6-4.5-1.5-.9-3.3-1-4.6-.9l1.7-3.6c.1-.3.1-.6 0-.9-.1-.3-.4-.5-.7-.5-4.6-.7-7.6 2.5-9 4.9-4.1-1.1-7.2 1.4-8.3 3.1-.2.3-.2.6-.1.9.1.3.3.5.6.6l4.9 1.6c-1.6 2.1-2.4 4.2-2.3 6.3.2 3.2 2.4 5.2 2.5 5.3.2.2.4.2.7.2h.2c.3 0 .6-.2.7-.5l2.5-4.5c.9 3.1 1.5 7.6 1.7 13.7H8c-.6 0-1 .4-1 1s.4 1 1 1h31.1c.6 0 1-.4 1-1s-.3-1.2-.9-1.2zM11.8 27.4c-.5-.7-.9-1.7-1-2.9-.1-1.9.9-3.9 2.8-5.9.2-.2.3-.6.2-.9-.1-.3-.3-.6-.7-.7l-4.9-1.6c1.1-1 3.1-2.1 5.8-1 .5.2 1.1 0 1.3-.5.1-.2 1.9-4.3 5.8-4.6l-1.9 4c-.2.4-.1.8.2 1.1.3.3.7.4 1.1.3 0 0 3-.9 5 .3.7.4 1.1 1.1 1.4 1.9l-4.2.1c-.5 0-.9.3-1 .8s.1.9.5 1.1c0 0 2.7 1.5 2.8 5.3L17.2 20c-.5-.3-1.1-.1-1.3.4l-4.1 7zm4.9-4.5.4-.8 1 .5c0 .1.1.3.2.4 2.1 3 4.1 10.2 4.3 15.8h-3.5c-.3-7.5-1.1-12.7-2.4-15.9z"
  />
  <path
    class="prefix__st0"
    d="M29 26.5c0 .6.4 1 1 1s1-.4 1-1v-2.2c0-.6-.4-1-1-1s-1 .4-1 1v2.2zM36.2 29.7c.3 0 .5-.1.7-.3l1.7-1.7c.4-.4.4-1 0-1.4s-1-.4-1.4 0L35.5 28c-.4.4-.4 1 0 1.4.2.2.4.3.7.3zM40.5 32.5h-1.8c-.6 0-1 .4-1 1s.4 1 1 1h1.8c.6 0 1-.4 1-1s-.5-1-1-1z"
  />
</svg>
