<svg width="24" height="24" viewBox="0 0 24 24" fill="none" xmlns="http://www.w3.org/2000/svg">
<mask id="mask0_10377_124317" style="mask-type:alpha" maskUnits="userSpaceOnUse" x="3" y="2" width="18" height="20">
<path d="M7.29 11.2885C7.68212 10.8963 8.31788 10.8963 8.71 11.2885C9.10212 11.6806 9.10212 12.3163 8.71 12.7085L6.41 14.9985H20C20.5523 14.9985 21 15.4462 21 15.9985C21 16.5508 20.5523 16.9985 20 16.9985H6.42L8.74 19.2985C8.92931 19.4862 9.0358 19.7418 9.0358 20.0085C9.0358 20.2751 8.92931 20.5307 8.74 20.7185C8.55223 20.9078 8.29664 21.0143 8.03 21.0143C7.76336 21.0143 7.50777 20.9078 7.32 20.7185L3.32 16.7185C3.11929 16.5324 3.00364 16.2721 3 15.9985L3.01007 15.8672C3.04041 15.6509 3.13772 15.4482 3.29 15.2885L7.29 11.2885ZM15.26 3.27847C15.6521 2.88634 16.2879 2.88634 16.68 3.27847L20.68 7.27847C20.8807 7.46456 20.9964 7.72479 21 7.99847C20.9963 8.26323 20.8927 8.51683 20.71 8.70847L16.71 12.7085C16.5222 12.8978 16.2666 13.0043 16 13.0043C15.7334 13.0043 15.4778 12.8978 15.29 12.7085C15.1007 12.5207 14.9942 12.2651 14.9942 11.9985C14.9942 11.7318 15.1007 11.4762 15.29 11.2885L17.59 8.99847H4C3.44772 8.99847 3 8.55075 3 7.99847C3 7.44618 3.44772 6.99847 4 6.99847H17.58L15.26 4.69847C14.8679 4.30634 14.8679 3.67059 15.26 3.27847Z" fill="white"/>
</mask>
<g mask="url(#mask0_10377_124317)">
<path d="M7.29 11.2885C7.68212 10.8963 8.31788 10.8963 8.71 11.2885C9.10212 11.6806 9.10212 12.3163 8.71 12.7085L6.41 14.9985H20C20.5523 14.9985 21 15.4462 21 15.9985C21 16.5508 20.5523 16.9985 20 16.9985H6.42L8.74 19.2985C8.92931 19.4862 9.0358 19.7418 9.0358 20.0085C9.0358 20.2751 8.92931 20.5307 8.74 20.7185C8.55223 20.9078 8.29664 21.0143 8.03 21.0143C7.76336 21.0143 7.50777 20.9078 7.32 20.7185L3.32 16.7185C3.11929 16.5324 3.00364 16.2721 3 15.9985L3.01007 15.8672C3.04041 15.6509 3.13772 15.4482 3.29 15.2885L7.29 11.2885ZM15.26 3.27847C15.6521 2.88634 16.2879 2.88634 16.68 3.27847L20.68 7.27847C20.8807 7.46456 20.9964 7.72479 21 7.99847C20.9963 8.26323 20.8927 8.51683 20.71 8.70847L16.71 12.7085C16.5222 12.8978 16.2666 13.0043 16 13.0043C15.7334 13.0043 15.4778 12.8978 15.29 12.7085C15.1007 12.5207 14.9942 12.2651 14.9942 11.9985C14.9942 11.7318 15.1007 11.4762 15.29 11.2885L17.59 8.99847H4C3.44772 8.99847 3 8.55075 3 7.99847C3 7.44618 3.44772 6.99847 4 6.99847H17.58L15.26 4.69847C14.8679 4.30634 14.8679 3.67059 15.26 3.27847Z" fill="#0075BE"/>
</g>
</svg>
