<svg width="24" height="24" viewBox="0 0 24 24" fill="none" xmlns="http://www.w3.org/2000/svg">
<mask id="mask0_10383_124333" style="mask-type:alpha" maskUnits="userSpaceOnUse" x="2" y="4" width="20" height="16">
<path d="M17 12C17 12.5523 16.5523 13 16 13C15.4477 13 15 12.5523 15 12C15 11.4477 15.4477 11 16 11C16.5523 11 17 11.4477 17 12ZM22 9V15C22 15.5523 21.5523 16 21 16V19C21 19.5523 20.5523 20 20 20H3C2.44772 20 2 19.5523 2 19V5C2 4.44772 2.44772 4 3 4H20C20.5523 4 21 4.44772 21 5V8C21.5523 8 22 8.44772 22 9ZM20 14V10H15C14.4477 10 14 10.4477 14 11V13C14 13.5523 14.4477 14 15 14H20ZM19 16H15C13.3431 16 12 14.6569 12 13V11C12 9.34315 13.3431 8 15 8H19V6H4V18H19V16Z" fill="white"/>
</mask>
<g mask="url(#mask0_10383_124333)">
<path d="M17 12C17 12.5523 16.5523 13 16 13C15.4477 13 15 12.5523 15 12C15 11.4477 15.4477 11 16 11C16.5523 11 17 11.4477 17 12ZM22 9V15C22 15.5523 21.5523 16 21 16V19C21 19.5523 20.5523 20 20 20H3C2.44772 20 2 19.5523 2 19V5C2 4.44772 2.44772 4 3 4H20C20.5523 4 21 4.44772 21 5V8C21.5523 8 22 8.44772 22 9ZM20 14V10H15C14.4477 10 14 10.4477 14 11V13C14 13.5523 14.4477 14 15 14H20ZM19 16H15C13.3431 16 12 14.6569 12 13V11C12 9.34315 13.3431 8 15 8H19V6H4V18H19V16Z" fill="#0075BE"/>
</g>
</svg>
