<svg width="24" height="24" viewBox="0 0 24 24" fill="none" xmlns="http://www.w3.org/2000/svg">
<g clip-path="url(#clip0_2287_221)">
<mask id="mask0_2287_221" style="mask-type:alpha" maskUnits="userSpaceOnUse" x="0" y="4" width="24" height="17">
<path d="M12.3395 4.00088C13.8243 4.00805 19.7439 4.06427 21.3765 4.50465C22.4093 4.78242 23.2225 5.60089 23.4985 6.64026C23.9392 8.29567 23.9926 11.5317 23.9991 12.2918L24 12.4438L24 12.4544C24 12.4544 24 12.458 24 12.4651L23.9991 12.617C23.9926 13.3772 23.9392 16.6131 23.4985 18.2688C23.2225 19.308 22.4093 20.1265 21.3765 20.4044C19.7041 20.8554 13.533 20.9033 12.2389 20.9084L12.0882 20.9089C12.069 20.909 12.0528 20.909 12.0397 20.909H11.9602C11.9471 20.909 11.9309 20.909 11.9116 20.9089L11.7609 20.9084C11.1447 20.906 9.42256 20.8939 7.6069 20.8331L7.06041 20.8134C5.23617 20.7425 3.41964 20.6191 2.62321 20.4044C1.59052 20.1265 0.777243 19.308 0.501241 18.2688C0.0606053 16.6131 0.00719496 13.3772 0.000720978 12.617V12.2918C0.00719496 11.5317 0.0606053 8.29567 0.501241 6.64026C0.777243 5.60089 1.59052 4.78242 2.62321 4.50465C3.41964 4.28983 5.23617 4.16643 7.06041 4.09553L7.6069 4.0758C9.33178 4.01806 10.9723 4.0042 11.6603 4.00088H12.3395ZM9.54532 8.88592V16.023L15.8181 12.4546L9.54532 8.88592Z" fill="white"/>
</mask>
<g mask="url(#mask0_2287_221)">
<path d="M12.3395 4.00088C13.8243 4.00805 19.7439 4.06427 21.3765 4.50465C22.4093 4.78242 23.2225 5.60089 23.4985 6.64026C23.9392 8.29567 23.9926 11.5317 23.9991 12.2918L24 12.4438L24 12.4544C24 12.4544 24 12.458 24 12.4651L23.9991 12.617C23.9926 13.3772 23.9392 16.6131 23.4985 18.2688C23.2225 19.308 22.4093 20.1265 21.3765 20.4044C19.7041 20.8554 13.533 20.9033 12.2389 20.9084L12.0882 20.9089C12.069 20.909 12.0528 20.909 12.0397 20.909H11.9602C11.9471 20.909 11.9309 20.909 11.9116 20.9089L11.7609 20.9084C11.1447 20.906 9.42256 20.8939 7.6069 20.8331L7.06041 20.8134C5.23617 20.7425 3.41964 20.6191 2.62321 20.4044C1.59052 20.1265 0.777243 19.308 0.501241 18.2688C0.0606053 16.6131 0.00719496 13.3772 0.000720978 12.617V12.2918C0.00719496 11.5317 0.0606053 8.29567 0.501241 6.64026C0.777243 5.60089 1.59052 4.78242 2.62321 4.50465C3.41964 4.28983 5.23617 4.16643 7.06041 4.09553L7.6069 4.0758C9.33178 4.01806 10.9723 4.0042 11.6603 4.00088H12.3395ZM9.54532 8.88592V16.023L15.8181 12.4546L9.54532 8.88592Z" fill="white"/>
</g>
</g>
<defs>
<clipPath id="clip0_2287_221">
<rect width="24" height="24" fill="white"/>
</clipPath>
</defs>
</svg>
