<svg xmlns="http://www.w3.org/2000/svg" viewBox="137 10 230 230" height="25" width="25">
    <path d="M293.931 53.29a38.306 38.306 0 0 0 1.137-8.044c.164-8.577-2.606-16.044-8.023-21.6-5.791-5.921-13.855-9.044-23.359-9.044-18.735 0-32.812 12.61-35.092 30.389-41.838 9.662-73.18 46.873-73.18 91.276 0 51.7 42.468 93.813 94.58 93.813s94.591-42.109 94.591-93.813a93.724 93.724 0 0 0-50.654-82.977z" fill="#2d72b8"/>
    <path d="M283.949 44.969c-.339 13.709-10.572 23.331-24.94 23.331-6.17 0-11.347-1.939-14.846-5.583-3.341-3.362-5.014-8.085-4.9-13.484.333-13.863 10.344-23.592 24.421-23.592 6.449 0 11.726 1.994 15.359 5.7 3.337 3.406 5.005 8.118 4.906 13.628zM220.892 194h39.021l16.624-113.887h-39z" fill="#fff"/>
</svg>
